<svg id="eV7GNzkx9dc1" xmlns="http://www.w3.org/2000/svg" xmlns:xlink="http://www.w3.org/1999/xlink" viewBox="0 0 248 154" shape-rendering="geometricPrecision" text-rendering="geometricPrecision"><g clip-path="url(#eV7GNzkx9dc45)"><g><path d="M242.4,29.326l-.786.1023l5.271-19.82309c.389-1.32367.452-2.72181.184-4.07525-.232-1.10588-.805-2.1105-1.639-2.87131-.873-.7607-1.944-1.25844-3.087-1.43578-1.393-.21614-2.815-.15235-4.183.18767v0L202.337,9.58518c-1.25.30397-2.447.79732-3.549,1.46292-1.198.7141-2.313,1.5608-3.322,2.5243-1.039.9824-1.971,2.0719-2.782,3.2504-.792,1.1407-1.437,2.3767-1.921,3.6788v0L153.282,123.802c-.623,1.699-1.028,3.47-1.205,5.271-.164,1.599-.087,3.213.23,4.789.264,1.369.815,2.667,1.618,3.806.735,1.036,1.772,1.82,2.968,2.244v0l37.849,13.056c1.682.574,3.486.682,5.224.312c1.857-.406,3.604-1.212,5.119-2.362c1.701-1.281,3.164-2.852,4.321-4.641c1.282-1.965,2.24-4.125,2.837-6.395v0l25.375-95.4291.796-.0639L242.4,29.326Z" fill="#2f2e41"/><path d="M239.662,28.2285l-.786.1023l5.271-19.82308c.388-1.32367.452-2.72181.184-4.07525-.232-1.10588-.805-2.1105-1.639-2.87131-.873-.760697-1.944-1.258435-3.087-1.43578-1.393-.216143-2.815-.15235-4.183.187667L199.599,8.48769c-1.25.30397-2.447.7973-3.549,1.46295-1.198.71406-2.313,1.56076-3.322,2.52426-1.039.9824-1.971,2.0719-2.782,3.2504-.792,1.1407-1.437,2.3767-1.921,3.6788v0L150.544,122.705c-.623,1.698-1.028,3.47-1.205,5.271-.164,1.598-.087,3.213.23,4.789.264,1.369.815,2.666,1.617,3.806.736,1.036,1.773,1.819,2.969,2.243v0l37.849,13.057c1.681.573,3.486.681,5.224.311c1.857-.405,3.604-1.211,5.119-2.362c1.701-1.28,3.164-2.851,4.321-4.64c1.282-1.966,2.24-4.125,2.837-6.396v0L234.88,43.3554l.796-.0639l3.986-15.063Z" fill="#3f3d56"/><path d="M235.105,2.89955l-5.266,1.15593c.058.45652.012.92015-.133,1.35677-.164.51071-.402.99454-.706,1.43606-.684,1.00236-1.598,1.8263-2.665,2.40323-.128.06804-.255.13087-.382.18849s-.254.10994-.381.15694c-.126.04701-.251.08853-.376.12457s-.248.0664-.37.09109L204.238,13.9899c-.382.089-.78.0845-1.16-.0131-.305-.0823-.575-.2644-.766-.5175-.193-.2718-.302-.5942-.313-.9274-.016-.4249.051-.8489.197-1.2481.037-.1077.079-.2162.125-.3254.047-.1092.098-.2184.153-.3276.055-.1097.115-.2189.179-.3276.065-.1086.134-.2172.206-.32567l-3.899.85577c-.939.2206-1.838.5853-2.666,1.081-.904.5339-1.745,1.1691-2.507,1.8932-.785.7398-1.489,1.5613-2.1,2.4507-.596.8594-1.08,1.7912-1.441,2.7731L152.835,123.23c-.466,1.28-.764,2.615-.889,3.972-.116,1.198-.047,2.406.202,3.583.207,1.018.631,1.979,1.242,2.817.56.761,1.341,1.33,2.236,1.629v0l38.128,12.412c1.258.404,2.6.464,3.889.174c1.373-.315,2.663-.921,3.782-1.777c1.252-.95,2.329-2.111,3.185-3.43.947-1.449,1.657-3.04,2.105-4.713v0L241.551,9.08417c.292-.98329.347-2.02225.158-3.03071-.164-.82643-.581-1.58102-1.193-2.15849-.642-.57734-1.434-.95996-2.284-1.10325-1.039-.1748-2.103-.13813-3.127.10783v0Z" fill="#fff"/><g transform="matrix(.996873-.079021 0.079021 0.996873-9.777079 13.632459)" clip-path="url(#eV7GNzkx9dc12)"><g><path d="M179.879,122.854l-4.024-1.389c-.296-.102-.536-.362-.57-.7-.043-.311.093-.619.363-.792l2.923-1.953c1.744-1.144,3.062-2.881,3.736-4.839.228-.662-.127-1.376-.798-1.608-.67-.231-1.389.113-1.617.775l-.592,1.72c-.154.45-.622.673-1.078.516s-.686-.622-.531-1.072l.592-1.72c.528-1.535,2.217-2.344,3.773-1.807s2.389,2.216,1.86,3.751c-.792,2.303-2.353,4.311-4.386,5.682l-1.519,1.015l2.414.833c.456.158.687.622.532,1.072s-.622.673-1.078.516Zm6.707,2.315c-.457-.158-.687-.622-.532-1.072l.546-1.588-3.755-1.296c-.269-.093-.465-.308-.553-.576-.088-.267-.015-.567.175-.769l5.681-6.655c.451-.525,1.178-.719,1.849-.487.885.305,1.364,1.27,1.063,2.143l-3.37,9.793c-.181.44-.648.664-1.104.507Zm-2.015-5.137l2.576.889l2.277-6.616-4.853,5.727Z" fill="#ee3061"/><path id="eV7GNzkx9dc10" d="M188.609,101.927c-8.585-2.9631-17.928,1.511-20.842,9.98s1.693,17.758,10.278,20.72c4.158,1.435,8.621,1.199,12.511-.686l.036-.017-.674,1.959c-.154.45.076.914.532,1.071.456.158.923-.066,1.078-.516l1.302-3.784c.155-.45-.075-.915-.531-1.072l-3.837-1.324c-.456-.158-.923.066-1.078.516-.154.45.076.914.532,1.072l1.797.62c-3.503,1.634-7.446,1.842-11.122.573-7.699-2.657-11.828-10.981-9.214-18.576c2.613-7.596,10.986-11.606,18.686-8.948c7.699,2.657,11.828,10.981,9.214,18.577-.155.449.076.914.532,1.071.456.158.923-.066,1.078-.516c2.914-8.469-1.72-17.767-10.278-20.72Z" fill="#444b54"/></g><clipPath id="eV7GNzkx9dc12"><rect width="36.3267" height="35.8261" rx="0" ry="0" transform="matrix(.945289 0.326236-.325377 0.945585 171.974 94.366)" fill="#fff"/></clipPath></g><path d="M65.6295,150.353h3.8233l1.8189-14.778h-5.643l.0008,14.778Z" fill="#ffb6b6"/><path d="M76.8267,153.91h-12.0163l-.0002-4.652h7.94c1.0811,0,2.1179.43,2.8824,1.196s1.194,1.805,1.194,2.888l.0001.568v0Z" fill="#2f2e41"/><path d="M27.3979,145.388l3.3505,1.845l8.6991-12.071-4.9449-2.724-7.1047,12.95Z" fill="#ffb6b6"/><path d="M35.4995,153.91l-10.5298-5.801l2.2367-4.076l6.9578,3.833c.9473.522,1.649,1.399,1.9506,2.44.3016,1.04.1784,2.158-.3424,3.107l-.2729.497v0Z" fill="#2f2e41"/><path d="M65.4509,142.151c-.3407-.001-.6696-.125-.9254-.351-.2559-.225-.4211-.536-.4649-.875L59.279,104.004c-.0211-.163-.0932-.315-.206-.435s-.2604-.201-.4218-.232c-.1615-.03-.3285-.009-.4772.061s-.2715.185-.3509.33L37.8956,139.955c-.1644.296-.4293.523-.7465.64-.3173.116-.6657.115-.9821-.004l-4.3436-1.658c-.1747-.067-.3343-.168-.4695-.297-.1352-.13-.2433-.285-.3178-.457-.0746-.171-.1141-.356-.1163-.544-.0022-.187.0329-.373.1034-.546l13.8043-33.98c.035-.087.0587-.177.0705-.269c1.8697-14.5012,6.6269-21.8753,8.0403-23.79.1033-.1407.1712-.3042.1981-.4768s.012-.3491-.0434-.5147l-.1943-.5841c-.0776-.2318-.0936-.4799-.0462-.7198s.1564-.4632.3162-.6479c5.0931-5.8129,13.9702-2.641,14.0593-2.6083l.0445.0164.0278.0382c9.9538,13.6786,6.2736,58.107,5.4348,66.874-.0314.329-.1779.637-.4139.869-.2359.231-.546.372-.8754.396l-5.8859.455c-.0366.002-.0729.004-.109.004Z" fill="#2f2e41"/><path d="M62.752,39.5611c4.6992,0,8.5087-3.8172,8.5087-8.526c0-4.7089-3.8095-8.5261-8.5087-8.5261-4.6993,0-8.5088,3.8172-8.5088,8.5261c0,4.7088,3.8095,8.526,8.5088,8.526Z" fill="#ffb8b8"/><path d="M49.5974,85.2883L74.635,87.5718c-2.1828-7.6057-4.1828-15.1847-2.5526-22.7363c2.0701-6.7417,2.2625-10.4765-3.1984-13.6515l-3.6871-8.2419-6.6731-.2432-3.2539-.8936c-2.6288,4.2353-3.7041,9.2555-3.0414,14.1987c1.4145,10.7495,1.0325,20.7243-2.6311,29.2843Z" fill="#ee3061"/><path d="M53.3977,47.2417L50.8792,35.6592c-.5254-2.7418-.3936-5.5694.3847-8.2501.0848-.2747.1869-.5437.3059-.8054.6971-1.5224,1.7932-2.8268,3.1715-3.7745s2.9873-1.5031,4.6556-1.6071c5.7236-.3962,6.5639.2084,6.7708.5067c3.2342-.1309,5.7421,1.1212,6.8864,3.4382.1121.23.1725.4818.1769.7377.0045.2559-.0471.5096-.1512.7434s-.2579.4418-.4508.6095-.4202.291-.6658.3612c-1.5985.4618-3.8452.9747-5.5301.8239-3.3774,4.0593-1.9967,11.4967,1.4298,15.928l.1347.1742-3.395.6972-3.9452-5.5053c-.0781-.1089-.1911-.1877-.3202-.2231s-.2664-.0255-.389.0283-.223.1482-.2845.2673-.0803.2558-.0533.3872l1.1978,5.8307-7.4105,1.2145Z" fill="#2f2e41"/><g id="eV7GNzkx9dc22" transform="translate(.000001 0.000001)"><path d="M102.032,78.4301L40.1061,122.311L25.2664,101.283L87.1927,57.4025L102.032,78.4301Z" fill="#fff"/><path d="M46.1701,108.634c2.4245-1.718,3.0001-5.08,1.2856-7.51-1.7146-2.4293-5.07-3.006-7.4946-1.288s-3.0001,5.08-1.2856,7.51c1.7146,2.429,5.07,3.006,7.4946,1.288Z" fill="#ee3061"/><path d="M51.1351,94.1179c-.1941.1375-.3257.3466-.3658.5814-.0402.2347.0143.4758.1515.6702s.3459.3264.5802.3666c.2342.0403.4749-.0144.6689-.1519L86.6633,71.1424c.1934-.1378.3244-.3468.3642-.5812s-.0147-.475-.1517-.6692c-.137-.1941-.3453-.3258-.5791-.3663s-.4741.0136-.6682.1503L51.1351,94.1179Z" fill="#e6e6e6"/><path d="M54.2394,98.5169c-.1941.1372-.3259.346-.3664.5805s.0135.4755.1502.6701.345.3265.579.3675.4746-.013.6689-.1496l.0031-.0022L82.4128,80.7529c.1941-.1375.3257-.3466.3659-.5813s-.0144-.4758-.1516-.6703c-.0679-.0963-.1542-.1782-.2537-.2411s-.2105-.1055-.3265-.1255c-.2342-.0402-.4748.0144-.6689.1519L54.2394,98.5169Z" fill="#e6e6e6"/><path d="M102.032,78.4301L40.1061,122.311L25.2664,101.283L87.1927,57.4025L102.032,78.4301ZM40.4676,120.199L99.925,78.0679L86.8312,59.5141L27.3737,101.645l13.0939,18.554Z" fill="#e6e6e6"/></g><g id="eV7GNzkx9dc28"><path d="M69.3316,92.0297l-4.027-22.0589.2836-13.6417-9.076-.2842L58.214,71.3918l5.8684,21.2813c-.4871.5932-.7856,1.3191-.8569,2.084s.0877,1.5337.4566,2.2071.9308,1.2206,1.6131,1.5709s1.4537.4878,2.2147.3945s1.4766-.4129,2.0546-.9177.9916-1.1715,1.1877-1.9142.1655-1.5272-.0877-2.2523-.7175-1.3575-1.3329-1.8157v0Z" fill="#ffb8b8"/><path d="M55.9451,57.4659c3.2883-1.255,6.9222-1.255,10.2105,0l-.5672-11.3681c0-.5972-.1174-1.1885-.3455-1.7402s-.5623-1.0529-.9837-1.4752c-.4214-.4222-.9217-.7572-1.4722-.9857s-1.1407-.3461-1.7367-.3461v0c-.5959,0-1.186.1176-1.7366.3461s-1.0508.5635-1.4722.9857c-.4214.4223-.7557.9235-.9837,1.4752s-.3455,1.143-.3455,1.7402l-.5672,11.3681Z" fill="#ee3061"/></g><g id="eV7GNzkx9dc31" transform="translate(33.877898 5.774302)"><path d="M183.713,45.9842h-74.334v36.1062h74.334v-36.1062Z" fill="#fff"/><path d="M121.454,63.3225c2.97,0,5.377-2.4122,5.377-5.3878c0-2.9755-2.407-5.3877-5.377-5.3877-2.969,0-5.376,2.4122-5.376,5.3877c0,2.9756,2.407,5.3878,5.376,5.3878Z" fill="#ee3061"/><path d="M133.872,54.3429c-.237,0-.465.0946-.633.263s-.263.3968-.263.6349.095.4666.263.635.396.263.633.263h42.247c.237-.0006.465-.0955.632-.2638.168-.1683.262-.3964.262-.6342s-.094-.4658-.262-.6342c-.167-.1683-.395-.2632-.632-.2637h-42.247Z" fill="#e6e6e6"/><path d="M133.872,59.7305c-.117-.0004-.234.0225-.343.0673s-.208.1108-.292.194c-.083.0832-.149.1821-.195.291-.045.109-.069.2258-.069.3438s.023.2349.068.344.111.2083.194.2919.182.1499.29.1952c.109.0453.226.0686.344.0687h18.182c.118,0,.234-.0232.343-.0683s.208-.1113.291-.1947c.083-.0833.149-.1823.194-.2913.045-.1089.068-.2257.068-.3436s-.023-.2347-.068-.3436c-.045-.109-.111-.208-.194-.2914s-.182-.1495-.291-.1946c-.109-.0452-.225-.0684-.343-.0684h-18.179Z" fill="#e6e6e6"/><path d="M117.33,68.3441c-.681,0-1.236.4028-1.236.8979s.555.898,1.236.898h58.288c.681,0,1.236-.4029,1.236-.898s-.555-.8979-1.236-.8979h-58.288Z" fill="#e6e6e6"/><path d="M117.33,73.7319c-.681,0-1.236.4028-1.236.8979s.555.898,1.236.898h44.871c.682,0,1.236-.4029,1.236-.898s-.554-.8979-1.236-.8979h-44.871Z" fill="#e6e6e6"/><path d="M184.469,82.8479h-75.846v-37.6212h75.846v37.6212Zm-74.334-1.515h72.822v-34.5913h-72.822v34.5913Z" fill="#e6e6e6"/></g><g id="eV7GNzkx9dc39" transform="translate(.000001 4.000001)"><path d="M205.887,36.8945h-75.846v-25.7541h75.846v25.7541Z" transform="translate(-.277283 0.277282)" fill="#fff"/><path d="M142.873,29.2361c2.969,0,5.377-2.4122,5.377-5.3878c0-2.9755-2.408-5.3877-5.377-5.3877-2.97,0-5.377,2.4122-5.377,5.3877c0,2.9756,2.407,5.3878,5.377,5.3878Z" fill="#ee3061"/><path d="M155.291,20.2565c-.238,0-.466.0946-.634.263s-.262.3968-.262.635.094.4665.262.6349.396.263.634.263h42.246c.238-.0006.465-.0954.633-.2638.167-.1683.261-.3964.261-.6341s-.094-.4659-.261-.6342c-.168-.1683-.395-.2632-.633-.2638h-42.246Z" fill="#e6e6e6"/><path d="M155.291,25.6443c-.118-.0004-.235.0224-.344.0673-.109.0448-.208.1107-.291.1939-.084.0833-.15.1822-.196.2911-.045.1089-.068.2257-.069.3437c0,.1181.023.235.068.3441s.111.2083.194.2919c.083.0835.182.1499.291.1951.108.0453.225.0687.343.0688h33.242c.238,0,.466-.0946.634-.263s.262-.3968.262-.635-.094-.4665-.262-.6349-.396-.263-.634-.263h-33.238Z" fill="#e6e6e6"/><path d="M205.887,36.8945h-75.846v-25.7541h75.846v25.7541Zm-74.334-1.5149h72.822v-22.7242h-72.822v22.7242Z" fill="#e6e6e6"/></g></g><clipPath id="eV7GNzkx9dc45"><rect width="248" height="154" rx="0" ry="0" fill="#fff"/></clipPath></g><script><![CDATA[!function(t,n){"object"==typeof exports&&"undefined"!=typeof module?module.exports=n():"function"==typeof define&&define.amd?define(n):((t="undefined"!=typeof globalThis?globalThis:t||self).__SVGATOR_PLAYER__=t.__SVGATOR_PLAYER__||{},t.__SVGATOR_PLAYER__["5c7f360c"]=n())}(this,(function(){"use strict";function t(t,n){var r=Object.keys(t);if(Object.getOwnPropertySymbols){var e=Object.getOwnPropertySymbols(t);n&&(e=e.filter((function(n){return Object.getOwnPropertyDescriptor(t,n).enumerable}))),r.push.apply(r,e)}return r}function n(n){for(var r=1;r<arguments.length;r++){var e=null!=arguments[r]?arguments[r]:{};r%2?t(Object(e),!0).forEach((function(t){u(n,t,e[t])})):Object.getOwnPropertyDescriptors?Object.defineProperties(n,Object.getOwnPropertyDescriptors(e)):t(Object(e)).forEach((function(t){Object.defineProperty(n,t,Object.getOwnPropertyDescriptor(e,t))}))}return n}function r(t){return(r="function"==typeof Symbol&&"symbol"==typeof Symbol.iterator?function(t){return typeof t}:function(t){return t&&"function"==typeof Symbol&&t.constructor===Symbol&&t!==Symbol.prototype?"symbol":typeof t})(t)}function e(t,n){if(!(t instanceof n))throw new TypeError("Cannot call a class as a function")}function i(t,n){for(var r=0;r<n.length;r++){var e=n[r];e.enumerable=e.enumerable||!1,e.configurable=!0,"value"in e&&(e.writable=!0),Object.defineProperty(t,e.key,e)}}function o(t,n,r){return n&&i(t.prototype,n),r&&i(t,r),t}function u(t,n,r){return n in t?Object.defineProperty(t,n,{value:r,enumerable:!0,configurable:!0,writable:!0}):t[n]=r,t}function a(t){return(a=Object.setPrototypeOf?Object.getPrototypeOf:function(t){return t.__proto__||Object.getPrototypeOf(t)})(t)}function l(t,n){return(l=Object.setPrototypeOf||function(t,n){return t.__proto__=n,t})(t,n)}function f(){if("undefined"==typeof Reflect||!Reflect.construct)return!1;if(Reflect.construct.sham)return!1;if("function"==typeof Proxy)return!0;try{return Boolean.prototype.valueOf.call(Reflect.construct(Boolean,[],(function(){}))),!0}catch(t){return!1}}function s(t,n,r){return(s=f()?Reflect.construct:function(t,n,r){var e=[null];e.push.apply(e,n);var i=new(Function.bind.apply(t,e));return r&&l(i,r.prototype),i}).apply(null,arguments)}function c(t,n){if(n&&("object"==typeof n||"function"==typeof n))return n;if(void 0!==n)throw new TypeError("Derived constructors may only return object or undefined");return function(t){if(void 0===t)throw new ReferenceError("this hasn't been initialised - super() hasn't been called");return t}(t)}function h(t,n,r){return(h="undefined"!=typeof Reflect&&Reflect.get?Reflect.get:function(t,n,r){var e=function(t,n){for(;!Object.prototype.hasOwnProperty.call(t,n)&&null!==(t=a(t)););return t}(t,n);if(e){var i=Object.getOwnPropertyDescriptor(e,n);return i.get?i.get.call(r):i.value}})(t,n,r||t)}function v(t){return function(t){if(Array.isArray(t))return y(t)}(t)||function(t){if("undefined"!=typeof Symbol&&null!=t[Symbol.iterator]||null!=t["@@iterator"])return Array.from(t)}(t)||function(t,n){if(!t)return;if("string"==typeof t)return y(t,n);var r=Object.prototype.toString.call(t).slice(8,-1);"Object"===r&&t.constructor&&(r=t.constructor.name);if("Map"===r||"Set"===r)return Array.from(t);if("Arguments"===r||/^(?:Ui|I)nt(?:8|16|32)(?:Clamped)?Array$/.test(r))return y(t,n)}(t)||function(){throw new TypeError("Invalid attempt to spread non-iterable instance.\nIn order to be iterable, non-array objects must have a [Symbol.iterator]() method.")}()}function y(t,n){(null==n||n>t.length)&&(n=t.length);for(var r=0,e=new Array(n);r<n;r++)e[r]=t[r];return e}Number.isInteger||(Number.isInteger=function(t){return"number"==typeof t&&isFinite(t)&&Math.floor(t)===t}),Number.EPSILON||(Number.EPSILON=2220446049250313e-31);var g=p(Math.pow(10,-6));function p(t){var n=arguments.length>1&&void 0!==arguments[1]?arguments[1]:6;if(Number.isInteger(t))return t;var r=Math.pow(10,n);return Math.round((+t+Number.EPSILON)*r)/r}function d(t,n){var r=arguments.length>2&&void 0!==arguments[2]?arguments[2]:g;return Math.abs(t-n)<r}var m=Math.PI/180;function b(t){return t}function w(t,n,r){var e=1-r;return 3*r*e*(t*e+n*r)+r*r*r}function x(){var t=arguments.length>0&&void 0!==arguments[0]?arguments[0]:0,n=arguments.length>1&&void 0!==arguments[1]?arguments[1]:0,r=arguments.length>2&&void 0!==arguments[2]?arguments[2]:1,e=arguments.length>3&&void 0!==arguments[3]?arguments[3]:1;return t<0||t>1||r<0||r>1?null:d(t,n)&&d(r,e)?b:function(i){if(i<=0)return t>0?i*n/t:0===n&&r>0?i*e/r:0;if(i>=1)return r<1?1+(i-1)*(e-1)/(r-1):1===r&&t<1?1+(i-1)*(n-1)/(t-1):1;for(var o,u=0,a=1;u<a;){var l=w(t,r,o=(u+a)/2);if(d(i,l))break;l<i?u=o:a=o}return w(n,e,o)}}function A(){return 1}function k(t){return 1===t?1:0}function _(){var t=arguments.length>0&&void 0!==arguments[0]?arguments[0]:1,n=arguments.length>1&&void 0!==arguments[1]?arguments[1]:0;if(1===t){if(0===n)return k;if(1===n)return A}var r=1/t;return function(t){return t>=1?1:(t+=n*r)-t%r}}var S=Math.sin,O=Math.cos,j=Math.acos,M=Math.asin,P=Math.tan,E=Math.atan2,I=Math.PI/180,R=180/Math.PI,F=Math.sqrt,N=function(){function t(){var n=arguments.length>0&&void 0!==arguments[0]?arguments[0]:1,r=arguments.length>1&&void 0!==arguments[1]?arguments[1]:0,i=arguments.length>2&&void 0!==arguments[2]?arguments[2]:0,o=arguments.length>3&&void 0!==arguments[3]?arguments[3]:1,u=arguments.length>4&&void 0!==arguments[4]?arguments[4]:0,a=arguments.length>5&&void 0!==arguments[5]?arguments[5]:0;e(this,t),this.m=[n,r,i,o,u,a],this.i=null,this.w=null,this.s=null}return o(t,[{key:"determinant",get:function(){var t=this.m;return t[0]*t[3]-t[1]*t[2]}},{key:"isIdentity",get:function(){if(null===this.i){var t=this.m;this.i=1===t[0]&&0===t[1]&&0===t[2]&&1===t[3]&&0===t[4]&&0===t[5]}return this.i}},{key:"point",value:function(t,n){var r=this.m;return{x:r[0]*t+r[2]*n+r[4],y:r[1]*t+r[3]*n+r[5]}}},{key:"translateSelf",value:function(){var t=arguments.length>0&&void 0!==arguments[0]?arguments[0]:0,n=arguments.length>1&&void 0!==arguments[1]?arguments[1]:0;if(!t&&!n)return this;var r=this.m;return r[4]+=r[0]*t+r[2]*n,r[5]+=r[1]*t+r[3]*n,this.w=this.s=this.i=null,this}},{key:"rotateSelf",value:function(){var t=arguments.length>0&&void 0!==arguments[0]?arguments[0]:0;if(t%=360){var n=S(t*=I),r=O(t),e=this.m,i=e[0],o=e[1];e[0]=i*r+e[2]*n,e[1]=o*r+e[3]*n,e[2]=e[2]*r-i*n,e[3]=e[3]*r-o*n,this.w=this.s=this.i=null}return this}},{key:"scaleSelf",value:function(){var t=arguments.length>0&&void 0!==arguments[0]?arguments[0]:1,n=arguments.length>1&&void 0!==arguments[1]?arguments[1]:1;if(1!==t||1!==n){var r=this.m;r[0]*=t,r[1]*=t,r[2]*=n,r[3]*=n,this.w=this.s=this.i=null}return this}},{key:"skewSelf",value:function(t,n){if(n%=360,(t%=360)||n){var r=this.m,e=r[0],i=r[1],o=r[2],u=r[3];t&&(t=P(t*I),r[2]+=e*t,r[3]+=i*t),n&&(n=P(n*I),r[0]+=o*n,r[1]+=u*n),this.w=this.s=this.i=null}return this}},{key:"resetSelf",value:function(){var t=arguments.length>0&&void 0!==arguments[0]?arguments[0]:1,n=arguments.length>1&&void 0!==arguments[1]?arguments[1]:0,r=arguments.length>2&&void 0!==arguments[2]?arguments[2]:0,e=arguments.length>3&&void 0!==arguments[3]?arguments[3]:1,i=arguments.length>4&&void 0!==arguments[4]?arguments[4]:0,o=arguments.length>5&&void 0!==arguments[5]?arguments[5]:0,u=this.m;return u[0]=t,u[1]=n,u[2]=r,u[3]=e,u[4]=i,u[5]=o,this.w=this.s=this.i=null,this}},{key:"recomposeSelf",value:function(){var t=arguments.length>0&&void 0!==arguments[0]?arguments[0]:null,n=arguments.length>1&&void 0!==arguments[1]?arguments[1]:null,r=arguments.length>2&&void 0!==arguments[2]?arguments[2]:null,e=arguments.length>3&&void 0!==arguments[3]?arguments[3]:null,i=arguments.length>4&&void 0!==arguments[4]?arguments[4]:null;return this.isIdentity||this.resetSelf(),t&&(t.x||t.y)&&this.translateSelf(t.x,t.y),n&&this.rotateSelf(n),r&&(r.x&&this.skewSelf(r.x,0),r.y&&this.skewSelf(0,r.y)),!e||1===e.x&&1===e.y||this.scaleSelf(e.x,e.y),i&&(i.x||i.y)&&this.translateSelf(i.x,i.y),this}},{key:"decompose",value:function(){var t=arguments.length>0&&void 0!==arguments[0]?arguments[0]:0,n=arguments.length>1&&void 0!==arguments[1]?arguments[1]:0,r=this.m,e=r[0]*r[0]+r[1]*r[1],i=[[r[0],r[1]],[r[2],r[3]]],o=F(e);if(0===o)return{origin:{x:p(r[4]),y:p(r[5])},translate:{x:p(t),y:p(n)},scale:{x:0,y:0},skew:{x:0,y:0},rotate:0};i[0][0]/=o,i[0][1]/=o;var u=r[0]*r[3]-r[1]*r[2]<0;u&&(o=-o);var a=i[0][0]*i[1][0]+i[0][1]*i[1][1];i[1][0]-=i[0][0]*a,i[1][1]-=i[0][1]*a;var l=F(i[1][0]*i[1][0]+i[1][1]*i[1][1]);if(0===l)return{origin:{x:p(r[4]),y:p(r[5])},translate:{x:p(t),y:p(n)},scale:{x:p(o),y:0},skew:{x:0,y:0},rotate:0};i[1][0]/=l,i[1][1]/=l,a/=l;var f=0;return i[1][1]<0?(f=j(i[1][1])*R,i[0][1]<0&&(f=360-f)):f=M(i[0][1])*R,u&&(f=-f),a=E(a,F(i[0][0]*i[0][0]+i[0][1]*i[0][1]))*R,u&&(a=-a),{origin:{x:p(r[4]),y:p(r[5])},translate:{x:p(t),y:p(n)},scale:{x:p(o),y:p(l)},skew:{x:p(a),y:0},rotate:p(f)}}},{key:"clone",value:function(){var t=this.m;return new this.constructor(t[0],t[1],t[2],t[3],t[4],t[5])}},{key:"toString",value:function(){var t=arguments.length>0&&void 0!==arguments[0]?arguments[0]:" ";if(null===this.s){var n=this.m.map((function(t){return p(t)}));1===n[0]&&0===n[1]&&0===n[2]&&1===n[3]?this.s="translate("+n[4]+t+n[5]+")":this.s="matrix("+n.join(t)+")"}return this.s}}],[{key:"create",value:function(t){return t?Array.isArray(t)?s(this,v(t)):t instanceof this?t.clone():(new this).recomposeSelf(t.origin,t.rotate,t.skew,t.scale,t.translate):new this}}]),t}();function T(t,n,r){return t>=.5?r:n}function q(t,n,r){return 0===t||n===r?n:t*(r-n)+n}function B(t,n,r){var e=q(t,n,r);return e<=0?0:e}function L(t,n,r){var e=q(t,n,r);return e<=0?0:e>=1?1:e}function C(t,n,r){return 0===t?n:1===t?r:{x:q(t,n.x,r.x),y:q(t,n.y,r.y)}}function D(t,n,r){var e=function(t,n,r){return Math.round(q(t,n,r))}(t,n,r);return e<=0?0:e>=255?255:e}function z(t,n,r){return 0===t?n:1===t?r:{r:D(t,n.r,r.r),g:D(t,n.g,r.g),b:D(t,n.b,r.b),a:q(t,null==n.a?1:n.a,null==r.a?1:r.a)}}function V(t,n){for(var r=[],e=0;e<t;e++)r.push(n);return r}function G(t,n){if(--n<=0)return t;var r=(t=Object.assign([],t)).length;do{for(var e=0;e<r;e++)t.push(t[e])}while(--n>0);return t}var Y,$=function(){function t(n){e(this,t),this.list=n,this.length=n.length}return o(t,[{key:"setAttribute",value:function(t,n){for(var r=this.list,e=0;e<this.length;e++)r[e].setAttribute(t,n)}},{key:"removeAttribute",value:function(t){for(var n=this.list,r=0;r<this.length;r++)n[r].removeAttribute(t)}},{key:"style",value:function(t,n){for(var r=this.list,e=0;e<this.length;e++)r[e].style[t]=n}}]),t}(),U=/-./g,Q=function(t,n){return n.toUpperCase()};function H(t){return"function"==typeof t?t:T}function J(t){return t?"function"==typeof t?t:Array.isArray(t)?function(t){var n=arguments.length>1&&void 0!==arguments[1]?arguments[1]:b;if(!Array.isArray(t))return n;switch(t.length){case 1:return _(t[0])||n;case 2:return _(t[0],t[1])||n;case 4:return x(t[0],t[1],t[2],t[3])||n}return n}(t,null):function(t,n){var r=arguments.length>2&&void 0!==arguments[2]?arguments[2]:b;switch(t){case"linear":return b;case"steps":return _(n.steps||1,n.jump||0)||r;case"bezier":case"cubic-bezier":return x(n.x1||0,n.y1||0,n.x2||0,n.y2||0)||r}return r}(t.type,t.value,null):null}function Z(t,n,r){var e=arguments.length>3&&void 0!==arguments[3]&&arguments[3],i=n.length-1;if(t<=n[0].t)return e?[0,0,n[0].v]:n[0].v;if(t>=n[i].t)return e?[i,1,n[i].v]:n[i].v;var o,u=n[0],a=null;for(o=1;o<=i;o++){if(!(t>n[o].t)){a=n[o];break}u=n[o]}return null==a?e?[i,1,n[i].v]:n[i].v:u.t===a.t?e?[o,1,a.v]:a.v:(t=(t-u.t)/(a.t-u.t),u.e&&(t=u.e(t)),e?[o,t,r(t,u.v,a.v)]:r(t,u.v,a.v))}function K(t,n){var r=arguments.length>2&&void 0!==arguments[2]?arguments[2]:null;return t&&t.length?"function"!=typeof n?null:("function"!=typeof r&&(r=null),function(e){var i=Z(e,t,n);return null!=i&&r&&(i=r(i)),i}):null}function W(t,n){return t.t-n.t}function X(t,n,e,i,o){var u,a="@"===e[0],l="#"===e[0],f=Y[e],s=T;switch(a?(u=e.substr(1),e=u.replace(U,Q)):l&&(e=e.substr(1)),r(f)){case"function":if(s=f(i,o,Z,J,e,a,n,t),l)return s;break;case"string":s=K(i,H(f));break;case"object":if((s=K(i,H(f.i),f.f))&&"function"==typeof f.u)return f.u(n,s,e,a,t)}return s?function(t,n,r){if(arguments.length>3&&void 0!==arguments[3]&&arguments[3])return t instanceof $?function(e){return t.style(n,r(e))}:function(e){return t.style[n]=r(e)};if(Array.isArray(n)){var e=n.length;return function(i){var o=r(i);if(null==o)for(var u=0;u<e;u++)t[u].removeAttribute(n);else for(var a=0;a<e;a++)t[a].setAttribute(n,o)}}return function(e){var i=r(e);null==i?t.removeAttribute(n):t.setAttribute(n,i)}}(n,e,s,a):null}function tt(t,n,e,i){if(!i||"object"!==r(i))return null;var o=null,u=null;return Array.isArray(i)?u=function(t){if(!t||!t.length)return null;for(var n=0;n<t.length;n++)t[n].e&&(t[n].e=J(t[n].e));return t.sort(W)}(i):(u=i.keys,o=i.data||null),u?X(t,n,e,u,o):null}function nt(t,n,r){if(!r)return null;var e=[];for(var i in r)if(r.hasOwnProperty(i)){var o=tt(t,n,i,r[i]);o&&e.push(o)}return e.length?e:null}function rt(t,n){if(!n.duration||n.duration<0)return null;var r=function(t,n){if(!n)return null;var r=[];if(Array.isArray(n))for(var e=n.length,i=0;i<e;i++){var o=n[i];if(2===o.length){var u=null;if("string"==typeof o[0])u=t.getElementById(o[0]);else if(Array.isArray(o[0])){u=[];for(var a=0;a<o[0].length;a++)if("string"==typeof o[0][a]){var l=t.getElementById(o[0][a]);l&&u.push(l)}u=u.length?1===u.length?u[0]:new $(u):null}if(u){var f=nt(t,u,o[1]);f&&(r=r.concat(f))}}}else for(var s in n)if(n.hasOwnProperty(s)){var c=t.getElementById(s);if(c){var h=nt(t,c,n[s]);h&&(r=r.concat(h))}}return r.length?r:null}(t,n.elements);return r?function(t,n){var r=arguments.length>2&&void 0!==arguments[2]?arguments[2]:1/0,e=arguments.length>3&&void 0!==arguments[3]?arguments[3]:1,i=arguments.length>4&&void 0!==arguments[4]&&arguments[4],o=arguments.length>5&&void 0!==arguments[5]?arguments[5]:1,u=t.length,a=e>0?n:0;i&&r%2==0&&(a=n-a);var l=null;return function(f,s){var c=f%n,h=1+(f-c)/n;s*=e,i&&h%2==0&&(s=-s);var v=!1;if(h>r)c=a,v=!0,-1===o&&(c=e>0?0:n);else if(s<0&&(c=n-c),c===l)return!1;l=c;for(var y=0;y<u;y++)t[y](c);return v}}(r,n.duration,n.iterations||1/0,n.direction||1,!!n.alternate,n.fill||1):null}function et(t){return+("0x"+(t.replace(/[^0-9a-fA-F]+/g,"")||27))}function it(t,n,r){return!t||!r||n>t.length?t:t.substring(0,n)+it(t.substring(n+1),r,r)}function ot(t){var n=arguments.length>1&&void 0!==arguments[1]?arguments[1]:27;return!t||t%n?t%n:ot(t/n,n)}function ut(t,n,r){if(t&&t.length){var e=et(r),i=et(n),o=ot(e)+5,u=it(t,ot(e,5),o);return u=u.replace(/\x7c$/g,"==").replace(/\x2f$/g,"="),u=function(t,n,r){var e=+("0x"+t.substring(0,4));t=t.substring(4);for(var i=n%e+r%27,o=[],u=0;u<t.length;u+=2)if("|"!==t[u]){var a=+("0x"+t[u]+t[u+1])-i;o.push(a)}else{var l=+("0x"+t.substring(u+1,u+1+4))-i;u+=3,o.push(l)}return String.fromCharCode.apply(String,o)}(u=(u=atob(u)).replace(/[\x41-\x5A]/g,""),i,e),u=JSON.parse(u)}}var at=function(){function t(n,r){var i=arguments.length>2&&void 0!==arguments[2]?arguments[2]:{};e(this,t),this._id=0,this._running=!1,this._rollingBack=!1,this._animations=n,this.duration=r.duration,this.alternate=r.alternate,this.fill=r.fill,this.iterations=r.iterations,this.direction=i.direction||1,this.speed=i.speed||1,this.fps=i.fps||100,this.offset=i.offset||0,this.rollbackStartOffset=0}return o(t,[{key:"maxFiniteDuration",get:function(){return this.iterations>0?this.iterations*this.duration:this.duration}},{key:"_apply",value:function(t){for(var n=arguments.length>1&&void 0!==arguments[1]?arguments[1]:{},r=this._animations,e=r.length,i=0,o=0;o<e;o++)n[o]?i++:(n[o]=r[o](t,this.direction),n[o]&&i++);return i}},{key:"_rollback",value:function(){var t=this,n=1/0,r=null;this.rollbackStartOffset=this.offset,this._rollingBack=!0,this._running=!0;this._id=window.requestAnimationFrame((function e(i){if(t._rollingBack){null==r&&(r=i);var o=i-r,u=t.rollbackStartOffset-o,a=Math.round(u*t.speed);if(a>t.duration&&n!==1/0){var l=!!t.alternate&&a/t.duration%2>1,f=a%t.duration;a=(f+=l?t.duration:0)||t.duration}var s=t.fps?1e3/t.fps:0,c=Math.max(0,a);c<n-s&&(t.offset=c,n=c,t._apply(c));var h=t.iterations>0&&-1===t.fill&&a>=t.maxFiniteDuration;(a<=0||t.offset<a||h)&&t.stop(),t._id=window.requestAnimationFrame(e)}}))}},{key:"_start",value:function(){var t=this,n=arguments.length>0&&void 0!==arguments[0]?arguments[0]:0,r=-1/0,e=null,i={};this._running=!0;var o=function o(u){null==e&&(e=u);var a=Math.round((u-e+n)*t.speed),l=t.fps?1e3/t.fps:0;if(a>r+l&&!t._rollingBack&&(t.offset=a,r=a,t._apply(a,i)===t._animations.length))return void t.pause(!0);t._id=window.requestAnimationFrame(o)};this._id=window.requestAnimationFrame(o)}},{key:"_pause",value:function(){this._id&&window.cancelAnimationFrame(this._id),this._running=!1}},{key:"play",value:function(){if(!this._running)return this._rollingBack?this._rollback():this._start(this.offset)}},{key:"stop",value:function(){this._pause(),this.offset=0,this.rollbackStartOffset=0,this._rollingBack=!1,this._apply(0)}},{key:"reachedToEnd",value:function(){return this.iterations>0&&this.offset>=this.iterations*this.duration}},{key:"restart",value:function(){var t=arguments.length>0&&void 0!==arguments[0]&&arguments[0];this.stop(t),this.play(t)}},{key:"pause",value:function(){this._pause()}},{key:"reverse",value:function(){this.direction=-this.direction}}],[{key:"build",value:function(t,r){return delete t.animationSettings,t.options=ut(t.options,t.root,"5c7f360c"),t.animations.map((function(r){var e=ut(r.s,t.root,"5c7f360c");for(var i in delete r.s,t.animationSettings||(t.animationSettings=n({},e)),e)e.hasOwnProperty(i)&&(r[i]=e[i])})),(t=function(t,n){if(Y=n,!t||!t.root||!Array.isArray(t.animations))return null;for(var r=document.getElementsByTagName("svg"),e=!1,i=0;i<r.length;i++)if(r[i].id===t.root&&!r[i].svgatorAnimation){(e=r[i]).svgatorAnimation=!0;break}if(!e)return null;var o=t.animations.map((function(t){return rt(e,t)})).filter((function(t){return!!t}));return o.length?{element:e,animations:o,animationSettings:t.animationSettings,options:t.options||void 0}:null}(t,r))?{el:t.element,options:t.options||{},player:new this(t.animations,t.animationSettings,t.options)}:null}},{key:"push",value:function(t){return this.build(t)}},{key:"init",value:function(){var t=this,n=window.__SVGATOR_PLAYER__&&window.__SVGATOR_PLAYER__["5c7f360c"];Array.isArray(n)&&n.splice(0).forEach((function(n){return t.build(n)}))}}]),t}();function lt(t){return p(t)+""}function ft(t){var n=arguments.length>1&&void 0!==arguments[1]?arguments[1]:" ";return t&&t.length?t.map(lt).join(n):""}function st(t){if(!t)return"transparent";if(null==t.a||t.a>=1){var n=function(t){return 1===(t=parseInt(t).toString(16)).length?"0"+t:t},r=function(t){return t.charAt(0)===t.charAt(1)},e=n(t.r),i=n(t.g),o=n(t.b);return r(e)&&r(i)&&r(o)&&(e=e.charAt(0),i=i.charAt(0),o=o.charAt(0)),"#"+e+i+o}return"rgba("+t.r+","+t.g+","+t.b+","+t.a+")"}function ct(t){return t?"url(#"+t+")":"none"}!function(){for(var t=0,n=["ms","moz","webkit","o"],r=0;r<n.length&&!window.requestAnimationFrame;++r)window.requestAnimationFrame=window[n[r]+"RequestAnimationFrame"],window.cancelAnimationFrame=window[n[r]+"CancelAnimationFrame"]||window[n[r]+"CancelRequestAnimationFrame"];window.requestAnimationFrame||(window.requestAnimationFrame=function(n){var r=Date.now(),e=Math.max(0,16-(r-t)),i=window.setTimeout((function(){n(r+e)}),e);return t=r+e,i},window.cancelAnimationFrame=window.clearTimeout)}();var ht={f:null,i:function(t,n,r){return 0===t?n:1===t?r:{x:B(t,n.x,r.x),y:B(t,n.y,r.y)}},u:function(t,n){return function(r){var e=n(r);t.setAttribute("rx",lt(e.x)),t.setAttribute("ry",lt(e.y))}}},vt={f:null,i:function(t,n,r){return 0===t?n:1===t?r:{width:B(t,n.width,r.width),height:B(t,n.height,r.height)}},u:function(t,n){return function(r){var e=n(r);t.setAttribute("width",lt(e.width)),t.setAttribute("height",lt(e.height))}}};Object.freeze({M:2,L:2,Z:0,H:1,V:1,C:6,Q:4,T:2,S:4,A:7});var yt={},gt=null;function pt(t){var n=function(){if(gt)return gt;if("object"!==("undefined"==typeof document?"undefined":r(document))||!document.createElementNS)return{};var t=document.createElementNS("http://www.w3.org/2000/svg","svg");return t&&t.style?(t.style.position="absolute",t.style.opacity="0.01",t.style.zIndex="-9999",t.style.left="-9999px",t.style.width="1px",t.style.height="1px",gt={svg:t}):{}}().svg;if(!n)return function(t){return null};var e=document.createElementNS(n.namespaceURI,"path");e.setAttributeNS(null,"d",t),e.setAttributeNS(null,"fill","none"),e.setAttributeNS(null,"stroke","none"),n.appendChild(e);var i=e.getTotalLength();return function(t){var n=e.getPointAtLength(i*t);return{x:n.x,y:n.y}}}function dt(t){return yt[t]?yt[t]:yt[t]=pt(t)}function mt(t,n,r,e){if(!t||!e)return!1;var i=["M",t.x,t.y];if(n&&r&&(i.push("C"),i.push(n.x),i.push(n.y),i.push(r.x),i.push(r.y)),n?!r:r){var o=n||r;i.push("Q"),i.push(o.x),i.push(o.y)}return n||r||i.push("L"),i.push(e.x),i.push(e.y),i.join(" ")}function bt(t,n,r,e){var i=arguments.length>4&&void 0!==arguments[4]?arguments[4]:1,o=mt(t,n,r,e),u=dt(o);try{return u(i)}catch(t){return null}}function wt(t,n,r){return t+(n-t)*r}function xt(t,n,r){var e=arguments.length>3&&void 0!==arguments[3]&&arguments[3],i={x:wt(t.x,n.x,r),y:wt(t.y,n.y,r)};return e&&(i.a=At(t,n)),i}function At(t,n){return Math.atan2(n.y-t.y,n.x-t.x)}function kt(t,n,r,e){var i=1-e;return i*i*t+2*i*e*n+e*e*r}function _t(t,n,r,e){return 2*(1-e)*(n-t)+2*e*(r-n)}function St(t,n,r,e){var i=arguments.length>4&&void 0!==arguments[4]&&arguments[4],o=bt(t,n,null,r,e);return o||(o={x:kt(t.x,n.x,r.x,e),y:kt(t.y,n.y,r.y,e)}),i&&(o.a=Ot(t,n,r,e)),o}function Ot(t,n,r,e){return Math.atan2(_t(t.y,n.y,r.y,e),_t(t.x,n.x,r.x,e))}function jt(t,n,r,e,i){var o=i*i;return i*o*(e-t+3*(n-r))+3*o*(t+r-2*n)+3*i*(n-t)+t}function Mt(t,n,r,e,i){var o=1-i;return 3*(o*o*(n-t)+2*o*i*(r-n)+i*i*(e-r))}function Pt(t,n,r,e,i){var o=arguments.length>5&&void 0!==arguments[5]&&arguments[5],u=bt(t,n,r,e,i);return u||(u={x:jt(t.x,n.x,r.x,e.x,i),y:jt(t.y,n.y,r.y,e.y,i)}),o&&(u.a=Et(t,n,r,e,i)),u}function Et(t,n,r,e,i){return Math.atan2(Mt(t.y,n.y,r.y,e.y,i),Mt(t.x,n.x,r.x,e.x,i))}function It(t,n,r){var e=arguments.length>3&&void 0!==arguments[3]&&arguments[3];if(Ft(n)){if(Nt(r))return St(n,r.start,r,t,e)}else if(Ft(r)){if(n.end)return St(n,n.end,r,t,e)}else{if(n.end)return r.start?Pt(n,n.end,r.start,r,t,e):St(n,n.end,r,t,e);if(r.start)return St(n,r.start,r,t,e)}return xt(n,r,t,e)}function Rt(t,n,r){var e=It(t,n,r,!0);return e.a=function(t){return arguments.length>1&&void 0!==arguments[1]&&arguments[1]?t+Math.PI:t}(e.a)/m,e}function Ft(t){return!t.type||"corner"===t.type}function Nt(t){return null!=t.start&&!Ft(t)}var Tt=new N;var qt={f:lt,i:q},Bt={f:lt,i:L};function Lt(t,n,r){return t.map((function(t){return function(t,n,r){var e=t.v;if(!e||"g"!==e.t||e.s||!e.v||!e.r)return t;var i=r.getElementById(e.r),o=i&&i.querySelectorAll("stop")||[];return e.s=e.v.map((function(t,n){var r=o[n]&&o[n].getAttribute("offset");return{c:t,o:r=p(parseInt(r)/100)}})),delete e.v,t}(t,0,r)}))}var Ct={gt:"gradientTransform",c:{x:"cx",y:"cy"},rd:"r",f:{x:"x1",y:"y1"},to:{x:"x2",y:"y2"}};function Dt(t,n,e,i,o,u,a,l){return Lt(t,0,l),n=function(t,n,r){for(var e,i,o,u=t.length-1,a={},l=0;l<=u;l++)(e=t[l]).e&&(e.e=n(e.e)),e.v&&"g"===(i=e.v).t&&i.r&&(o=r.getElementById(i.r))&&(a[i.r]={e:o,s:o.querySelectorAll("stop")});return a}(t,i,l),function(i){var o=e(i,t,zt);if(!o)return"none";if("c"===o.t)return st(o.v);if("g"===o.t){if(!n[o.r])return ct(o.r);var u=n[o.r];return function(t,n){for(var r=t.s,e=r.length;e<n.length;e++){var i=r[r.length-1].cloneNode();i.id=Yt(i.id),t.e.appendChild(i),r=t.s=t.e.querySelectorAll("stop")}for(var o=0,u=r.length,a=n.length-1;o<u;o++)r[o].setAttribute("stop-color",st(n[Math.min(o,a)].c)),r[o].setAttribute("offset",n[Math.min(o,a)].o)}(u,o.s),Object.keys(Ct).forEach((function(t){if(void 0!==o[t])if("object"!==r(Ct[t])){var n,e="gt"===t?(n=o[t],Array.isArray(n)?"matrix("+n.join(" ")+")":""):o[t],i=Ct[t];u.e.setAttribute(i,e)}else Object.keys(Ct[t]).forEach((function(n){if(void 0!==o[t][n]){var r=o[t][n],e=Ct[t][n];u.e.setAttribute(e,r)}}))})),ct(o.r)}return"none"}}function zt(t,r,e){if(0===t)return r;if(1===t)return e;if(r&&e){var i=r.t;if(i===e.t)switch(r.t){case"c":return{t:i,v:z(t,r.v,e.v)};case"g":if(r.r===e.r){var o={t:i,s:Vt(t,r.s,e.s),r:r.r};return r.gt&&e.gt&&(o.gt=function(t,n,r){var e=n.length;if(e!==r.length)return T(t,n,r);for(var i=new Array(e),o=0;o<e;o++)i[o]=q(t,n[o],r[o]);return i}(t,r.gt,e.gt)),r.c?(o.c=C(t,r.c,e.c),o.rd=B(t,r.rd,e.rd)):r.f&&(o.f=C(t,r.f,e.f),o.to=C(t,r.to,e.to)),o}}if("c"===r.t&&"g"===e.t||"c"===e.t&&"g"===r.t){var u="c"===r.t?r:e,a="g"===r.t?n({},r):n({},e),l=a.s.map((function(t){return{c:u.v,o:t.o}}));return a.s="c"===r.t?Vt(t,l,a.s):Vt(t,a.s,l),a}}return T(t,r,e)}function Vt(t,n,r){if(n.length===r.length)return n.map((function(n,e){return Gt(t,n,r[e])}));for(var e=Math.max(n.length,r.length),i=[],o=0;o<e;o++){var u=Gt(t,n[Math.min(o,n.length-1)],r[Math.min(o,r.length-1)]);i.push(u)}return i}function Gt(t,n,r){return{o:L(t,n.o,r.o||0),c:z(t,n.c,r.c||{})}}function Yt(t){return t.replace(/-fill-([0-9]+)$/,(function(t,n){return"-fill-"+(+n+1)}))}var $t={fill:Dt,"fill-opacity":Bt,stroke:Dt,"stroke-opacity":Bt,"stroke-width":qt,"stroke-dashoffset":{f:lt,i:q},"stroke-dasharray":{f:function(t){var n=arguments.length>1&&void 0!==arguments[1]?arguments[1]:" ";return t&&t.length>0&&(t=t.map((function(t){return p(t,4)}))),ft(t,n)},i:function(t,n,r){var e,i,o,u=n.length,a=r.length;if(u!==a)if(0===u)n=V(u=a,0);else if(0===a)a=u,r=V(u,0);else{var l=(o=(e=u)*(i=a)/function(t,n){for(var r;n;)r=n,n=t%n,t=r;return t||1}(e,i))<0?-o:o;n=G(n,Math.floor(l/u)),r=G(r,Math.floor(l/a)),u=a=l}for(var f=[],s=0;s<u;s++)f.push(p(B(t,n[s],r[s])));return f}},opacity:Bt,transform:function(t,n,e,i){if(!(t=function(t,n){if(!t||"object"!==r(t))return null;var e=!1;for(var i in t)t.hasOwnProperty(i)&&(t[i]&&t[i].length?(t[i].forEach((function(t){t.e&&(t.e=n(t.e))})),e=!0):delete t[i]);return e?t:null}(t,i)))return null;var o=function(r,i,o){var u=arguments.length>3&&void 0!==arguments[3]?arguments[3]:null;return t[r]?e(i,t[r],o):n&&n[r]?n[r]:u};return n&&n.a&&t.o?function(n){var r=e(n,t.o,Rt);return Tt.recomposeSelf(r,o("r",n,q,0)+r.a,o("k",n,C),o("s",n,C),o("t",n,C)).toString()}:function(t){return Tt.recomposeSelf(o("o",t,It,null),o("r",t,q,0),o("k",t,C),o("s",t,C),o("t",t,C)).toString()}},r:qt,"#size":vt,"#radius":ht,_:function(t,n){if(Array.isArray(t))for(var r=0;r<t.length;r++)this[t[r]]=n;else this[t]=n}},Ut=function(t){!function(t,n){if("function"!=typeof n&&null!==n)throw new TypeError("Super expression must either be null or a function");t.prototype=Object.create(n&&n.prototype,{constructor:{value:t,writable:!0,configurable:!0}}),n&&l(t,n)}(u,t);var n,r,i=(n=u,r=f(),function(){var t,e=a(n);if(r){var i=a(this).constructor;t=Reflect.construct(e,arguments,i)}else t=e.apply(this,arguments);return c(this,t)});function u(){return e(this,u),i.apply(this,arguments)}return o(u,null,[{key:"build",value:function(t){var n=h(a(u),"build",this).call(this,t,$t);if(!n)return null;n.el,n.options,function(t,n,r){t.play()}(n.player)}}]),u}(at);return Ut.init(),Ut}));
(function(s,i,o,w,a,b){w[o]=w[o]||{};w[o][s]=w[o][s]||[];w[o][s].push(i);})('5c7f360c',{"root":"eV7GNzkx9dc1","animations":[{"elements":{"eV7GNzkx9dc10":{"transform":{"data":{"o":{"x":183.325668,"y":118.008392,"type":"corner"},"t":{"x":-183.325668,"y":-118.008392}},"keys":{"r":[{"t":200,"v":0},{"t":700,"v":-68.67908},{"t":1500,"v":-185.126349},{"t":2500,"v":-358.02353}]}}},"eV7GNzkx9dc22":{"transform":{"data":{"o":{"x":63.649197,"y":89.856747,"type":"corner"},"t":{"x":-63.649196,"y":-89.856746}},"keys":{"r":[{"t":200,"v":0},{"t":600,"v":-5.211774},{"t":2000,"v":1.786059},{"t":3500,"v":0}]}}},"eV7GNzkx9dc28":{"transform":{"data":{"o":{"x":63.41243,"y":70.254326,"type":"corner"},"t":{"x":-63.41243,"y":-70.254326}},"keys":{"r":[{"t":200,"v":0},{"t":600,"v":-7.663272},{"t":1700,"v":-2.252984},{"t":3500,"v":0}]}}},"eV7GNzkx9dc31":{"transform":{"data":{"t":{"x":-146.545998,"y":-64.0373}},"keys":{"o":[{"t":200,"v":{"x":180.423896,"y":69.811602,"type":"corner"}},{"t":600,"v":{"x":168.313103,"y":69.811602,"type":"corner"}},{"t":1700,"v":{"x":150.435266,"y":69.811602,"type":"corner"}},{"t":3500,"v":{"x":180.135544,"y":69.811602,"type":"corner"}}],"r":[{"t":200,"v":0},{"t":800,"v":7.706945},{"t":1500,"v":9.555095},{"t":2400,"v":0.971059},{"t":3500,"v":0}]}}},"eV7GNzkx9dc39":{"transform":{"data":{"t":{"x":-167.825355,"y":-24.156091}},"keys":{"o":[{"t":200,"v":{"x":167.825356,"y":28.156092,"type":"corner"}},{"t":600,"v":{"x":158.120469,"y":28.156092,"type":"corner"}},{"t":1500,"v":{"x":149.247429,"y":28.156092,"type":"corner"}},{"t":3500,"v":{"x":167.270791,"y":28.156092,"type":"corner"}}]}}}},"s":"MVDA1M2Q1N2NiZWNmY2YNJYmJjZWMzYzljODdQjOTQ4ZDhmOGE4YVI4FNjdjYmVjM0pjY2JmYKmRjZWMzYzljODdjOTRQ4Yjg2N2NjM1NjZWJQmY2NiYmNlYzNjOWM4BY2Q3Yzk0OGE4NjdjQQ2MwYzNjNlZjNjdjOTBQ4Yjg2N2NiYmM2Y2VMiZmNjYzhWYmJjZWJmTN2M5NGMwYmJjNmNkYPmY4NjdjY2RjYWJmYmKZiZTdjOTQ4YmQ3"}],"options":"MBDAxMDg4QjJmODBZODPE2ZUo3ZjgxMmZINDdODMmY3OTdjNmU3MTJmVOGFH"},'__SVGATOR_PLAYER__',window)]]></script></svg>