<svg id="eeftBsn5Pd11" xmlns="http://www.w3.org/2000/svg" xmlns:xlink="http://www.w3.org/1999/xlink" viewBox="0 0 612 792" shape-rendering="geometricPrecision" text-rendering="geometricPrecision"><defs><linearGradient id="eeftBsn5Pd142-fill" x1="344.7913" y1="383.7323" x2="294.1516" y2="383.646" spreadMethod="pad" gradientUnits="userSpaceOnUse" gradientTransform="translate(0 0)"><stop id="eeftBsn5Pd142-fill-0" offset="0%" stop-color="#ee3061"/><stop id="eeftBsn5Pd142-fill-1" offset="100%" stop-color="#f68b50"/></linearGradient><linearGradient id="eeftBsn5Pd148-fill" x1="513.1451" y1="319.3474" x2="522.8049" y2="319.3474" spreadMethod="pad" gradientUnits="userSpaceOnUse" gradientTransform="translate(0 0)"><stop id="eeftBsn5Pd148-fill-0" offset="0%" stop-color="#ee3061"/><stop id="eeftBsn5Pd148-fill-1" offset="100%" stop-color="#f68b50"/></linearGradient><linearGradient id="eeftBsn5Pd150-fill" x1="451.656" y1="546.0024" x2="455.284" y2="546.0024" spreadMethod="pad" gradientUnits="userSpaceOnUse" gradientTransform="translate(0 0)"><stop id="eeftBsn5Pd150-fill-0" offset="0%" stop-color="#ee3061"/><stop id="eeftBsn5Pd150-fill-1" offset="100%" stop-color="#f68b50"/></linearGradient><linearGradient id="eeftBsn5Pd151-fill" x1="467.5841" y1="502.8742" x2="471.2121" y2="502.8742" spreadMethod="pad" gradientUnits="userSpaceOnUse" gradientTransform="translate(0 0)"><stop id="eeftBsn5Pd151-fill-0" offset="0%" stop-color="#ee3061"/><stop id="eeftBsn5Pd151-fill-1" offset="100%" stop-color="#f68b50"/></linearGradient></defs><g transform="matrix(1.391084 0 0 1.391084-120.962282-155.509201)"><g id="eeftBsn5Pd13"><path d="M250.413258,570.922088C257.909807,569.256187,278.8,556.1,286.6,539.6c0,0,0,0,0,0c.3-.7,11.7-27,18.1-36.9c4.9-7.5,14.9-21.3,19.7-27.9.5-.7,1.7-.2,1.4.7-1.2,4-2.7,9.6-3,11-.4,2.3-3,13.1,14.3,20.6c12.3,5.3,33.1,12.3,56.7,14c23,1.7,42.3-2.3,52.3-16.8c10.2-14.7,6.9-26.4,5.2-40.2-7.2-58.7-7.2-80.4-5.8-92.1c1.3-11.8,4.5-25,7.9-30.9c2.1-3.5,4.6-6.8,6.3-8.8.5-.6-.1-1.5-.9-1.3-4.4,1.5-13,4.6-15.5,7.1-3.4,3.4,1.1-16.1,1.5-17.1.4-.9-8.6,2.4-10.6,4.6-1.3,1.4-3,3.8-4.1,5.2-.4.5-1.1.4-1.4-.2-1.3-3.1-4.5-10.7-4.9-10.9-.4-.3-7.5,7-9.8,9.4-.4.4-1,.3-1.3-.2l-5.5-9.5c-.2-.4-.8-.5-1.2-.2l-10.7,8.1c-.4.3-1.1.1-1.2-.4-.9-2.4-2.8-8.3-2.2-9.5.7-1.3-8.4,5.6-11.4,7.9-.4.3-1.1.1-1.3-.4l-2.2-7.3c-.2-.7-1.1-.8-1.5-.2-2,3.3-6.6,11.1-7.5,13.7-1.1,3.3-6.5,25.5-8.1,37.2-1.6,11.6-5,24-6.4,26-1,1.6-2.3,2.6-2.9,3-.2.1-.4.2-.6.1-3.9-.7-42.5-7.5-53.9-8.2-12.1-.7-31.9-1.4-42.2,7.5s-31,36.7-44.2,50.4-38.5,30.8-49.7,33.5-30.128007,1.061248-32.4.2s10.577251,8.724694,19.6,11.9c-.558564,7.124486-2.598126,5.594815-9.8,8.2c4.557873,5.384674,20.4,4.2,24.1,3c3.6-1.3-12.118212,9.882463-12.9,11.6c7.300474,3.04612,20.713922,3.547557,28.4-2.7c4.975217,6.372918-14.1,18.857764-13.5,18.957764c2.3.299999,15.341232.953962,22.5-6.557764.6-.4,1.3.2,1.2.8-.7,3.4-2.5,10.7-5.5,13.4-1.9,1.8,17.8-1,20.5-7.7c1.2-3.1-3,12.4-4,13.4s14.4-.3,20.5-5.1c5.1-4.1-1.6,10.4-4,15.3-.3.6.3,1.3.9,1.1c3-.8,9.2-2.6,12.8-5c1-.6,2.8-2.5,4.1-4c.5-.6,5.315266,9.055477-.8,17.8-.437738.831702,4.531499,1.434448,8.828909-.330685c5.5199-2.267264,10.76624-7.148675,10.871091-6.769315c2.511645,7.546734-1.686742,13.122088-.986742,12.822088Z" transform="translate(-.101978 0)" fill="#fff" stroke="#1d1d1b" stroke-width="2" stroke-miterlimit="10"/><path d="M324.7,473.7c0,0-4.4,12.8-1.8,20.5c1.7,5,5.6,10.2,24,16.9c15.4,5.6,22.6,8.4,43,9.6c9,.5,26.6.3,26.6.3s-9.1.2-12-14.1c-2.8-14.3,6.5-31.7,6.5-31.7l13.3-26.7c0,0,5.5-13.1,2.3-19.7-6.1-12.4-14.8-10.5-20.9-10.1-6.3.5-14.5,2.5-25.2,7-11.6,4.9-20.7,12-29.1,19.4-14.1,12.6-26.7,28.6-26.7,28.6Z" fill="#1d1d1b"/><g><rect width="1" height="59.3" rx="0" ry="0" transform="matrix(.2841-.9588 0.9588 0.2841 355.452 402.236)" fill="#1d1d1b"/></g><g><path d="M198.4,517c-.1,0-.1,0-.2,0-9.7-4.7-31.3-25-32.2-25.9-.2-.2-.2-.5,0-.7s.5-.2.7,0s22.3,21.1,31.9,25.7c.2.1.4.4.2.7-.1.1-.3.2-.4.2Z" fill="#1d1d1b"/></g><g><path d="M223.4,522.9c-.1,0-.1,0-.2,0-17.5-6.2-37.6-28.4-37.8-28.6s-.2-.5,0-.7.5-.2.7,0s20.1,22.2,37.3,28.3c.3.1.4.4.3.6.1.2-.1.4-.3.4Z" fill="#1d1d1b"/></g><g><path d="M275.3,539.7c-.1,0-.1,0-.2,0-52.2-23.6-85.8-66.1-86.1-66.6-.2-.2-.1-.5.1-.7s.5-.1.7.1c.3.4,33.7,42.8,85.8,66.3.3.1.4.4.2.7-.1.1-.3.2-.5.2Z" fill="#1d1d1b"/></g><g><path d="M428,361.6c0,0-.1,0,0,0L375.8,351c-.3-.1-.4-.3-.4-.6s.3-.4.6-.4l52.1,10.5c.3.1.4.3.4.6-.1.3-.3.5-.5.5Z" fill="#1d1d1b"/></g><g><path d="M422.2,402c0,0-.1,0-.1,0L365,387.5c-.3-.1-.4-.3-.4-.6.1-.3.3-.4.6-.4L422.3,401c.3.1.4.3.4.6-.1.3-.3.4-.5.4Z" fill="#1d1d1b"/></g><g><path d="M390.2,371.6c0,0-.1,0-.1,0l-18.9-4.8c-.3-.1-.4-.3-.4-.6.1-.3.3-.4.6-.4l18.9,4.8c.3.1.4.3.4.6-.1.3-.3.4-.5.4Z" fill="#1d1d1b"/></g><g><path d="M427.5,380c0,0-.1,0-.1,0l-28.9-6.8c-.3-.1-.4-.3-.4-.6.1-.3.3-.4.6-.4l28.9,6.8c.3.1.4.3.4.6-.1.2-.3.4-.5.4Z" fill="#1d1d1b"/></g><line x1="305.6" y1="477.8" x2="295.8" y2="471.5" fill="none" stroke="#1d1d1b" stroke-miterlimit="10"/></g><path id="eeftBsn5Pd123" d="M314.5,352.4c0,0-8.5,7.1-11.2,10.7s-10.3,10.5-11.7,11.9-5,3.6-5,3.6-7.5-9.6-12.4-24.9c-1.1-3.5-1-9.4-1-10.9s-.7-3.5-1.8-4.5-7-6.7-7-6.7-1.9-2.4-2.9-1.2s1,4.5,1,4.5-5.6-2.1-8.4-5.2-5-5.3-5-5.3-.8-1.3-1.6-.6-.3,2.1-.3,2.1-1.3-.3-1.6.5c-.2.8,0,1.3,0,1.3s-1.5.1-1.5.7c-.1.6,1.3,4.4,2.1,5.2s4.9,6.7,10,10.4c1,.7,5.9,2.5,5.9,2.5l2.7,6.4c0,0,5.7,20,13,35.8.5,1.2,3.7,5.3,9.9,3.2s10.2-4,12.2-5.5s7.9-6.6,7.9-6.6s4.6-14.1,6-16.4s5.8-7.8,5.8-7.8l2.7-2.2-5-3.2-2.8,2.2Z" transform="translate(3.444664 5.30551)" fill="#ffb8b8"/><g id="eeftBsn5Pd124"><g><g><path d="M268.4,480.4l5.2,10.8c0,0-5.2,4.9-8.2,9.8s-6.1,9-5.6,10.1c.3.7,6.8-.6,15.6-7.7s12.6-12,12.6-12l-6.5-16c-.1.1-6.6,3.6-13.1,5Z" fill="#1d1d1b" stroke="#fff" stroke-miterlimit="10"/><path d="M263.1,481.2l2.5,9.1c0,0-5.5,3.1-13.1,7.4s-17.8,8.9-18.5,8.1c-.6-.7.4-3.5,3.8-6.4c3.4-2.8,14.3-11.5,14.3-11.5l-3.6-11.1l6.3-1.9l8.3,6.3Z" fill="#1d1d1b" stroke="#fff" stroke-miterlimit="10"/><path d="M258.1,479.7c0,0,10,2.1,20-1.1s8.9-11.6,8.9-11.6l-10.2-24.3c0,0,10.9,4.2,17.9,7.5c10.4,4.9,18.2,1.9,25.5-4.1c7.2-6,12.8-22.2,12.8-22.2s-9.1.7-20.2-5.8c-7.8-4.6-16.7-15.6-27.6-18.4-26.2-6.6-35-2.7-39.9,2.5-5.5,5.9-8.7,28.3-9.4,40.2s4.5,32.3,4.5,32.3s3.2,1.9,7.5,2.2c4.4.4,7.9-1.2,7.9-1.2l2.3,4Z" transform="translate(-1.21776 0)" fill="#2f2e41" stroke="#fff" stroke-miterlimit="10"/></g><g transform="translate(-1.214936 0.158442)"><path d="M276.8,443.2c-.2,0-.4-.1-.5-.3l-5.4-11.6c-.1-.2,0-.5.2-.7.3-.1.5,0,.7.2l5.4,11.6c.1.2,0,.5-.2.7c0,.1-.1.1-.2.1Z" fill="#fff"/></g><g transform="matrix(.996966 0.077836-.077836 0.996966 32.963354-21.840429)"><path d="M289.8,448.5c-.1,0-.2,0-.3-.1l-15.9-11.3c-.2-.2-.3-.5-.1-.7s.5-.3.7-.1l15.9,11.3c.2.2.3.5.1.7c0,.1-.2.2-.4.2Z" fill="#fff"/></g></g><g transform="matrix(.999716 0.02385-.02385 0.999716 10.000109-5.67073)"><path d="M255.3,475.7c0-.1-5-12.5-8.2-27.4-4.3-20.1-3.6-35.1,2.2-44.6.6-1,6.3-3.6,13.5-5s20.8-2.7,31.4,4.9c10.7,7.7,13.9,10.6,14.1,10.7l-.7.7c0,0-3.3-3-14-10.6-9.3-6.7-20.9-6.4-28.9-5.1-8.2,1.4-14.1,4.2-14.5,4.9-13.4,22,6,70.6,6.2,71.1l-1.1.4Z" fill="#fff"/></g></g><path id="eeftBsn5Pd136" d="M342.8,357.1c0,0,4.3-17.2,11.3-16.4s6.6,12.2,4.8,18.4-9,36-9,36l-6,33.9l1,2.7l2.9-.8c0,0,6.7-2.3,11.6.8s1.9,3.2,1.9,3.2h-10.7l-3.8,2.9c0,0,6.3.1,7.2.9s-1.6,3.6-8.1,4.1c-6.6.5-12.7.5-12.9-5.6s.1-26.5.1-26.5s1.2-12.4,2.6-15.7c1.3-3.3,1.6-4.3,1.6-4.3s2.1-14,2.9-18.6c.4-4.6,2.6-15,2.6-15Z" fill="#ffb8b8"/><path d="M326,340.6c0,0,5.5,10.8,6.6,11.6s7.7-6.8,8.2-7.8.6-2.6.6-2.6l-2.6-10-12.8,8.8Z" fill="#ffb8b8"/><path d="M311.6,335c0,0-1.5,14.6,3.8,18.9c5.3,4.4,15.8-4.7,15.8-4.7l-4.4-7.6-15.2-6.6Z" fill="#1d1d1b"/><g id="eeftBsn5Pd139"><path d="M313.1,314.2c0,0-4.1,8.7-2.9,14.4s1.9,11.7,5.1,14.2c1.4,1.1,11-.5,12.7-1.4c1.2-.7,4.4-2.5,6.8-4.5c2.4-2.1,4.1-4.4,4.1-4.4l2.8-3.3c0,0,5.6,1.1,6.8-2s-.3-7.3-3.4-7.5c-1.5-.1-1.5-.4-1.5-.4l-8.2-16.4c0,0-11.5-1.8-13.7.7-2.1,2.3-8.6,10.6-8.6,10.6Z" fill="#ffb8b8"/><path d="M339.1,330.7c0,0,3.9,25.3,15.8,22.5s17.2-12.1,15.6-17-3.7-11.9-6.8-16.3c-3.1-4.5-6.4-8-6.4-8s-5.1-20.3-24.1-19.2c-18.9,1.2-20.9,12.1-21.1,15.2-.1,1.6,1,6.4,1,6.4l6.4-8.3c0,0,2.8-2.2,5.9-2.7s9.9-.4,9.9-.4-.1,5.8,3.1,10.4s5.1,6,5.1,6s.1.6,1,.6c2-.1,4.2,1,4.2,5.7c0,5.1-7.2,3.5-7.2,3.5l-2.4,1.6Z" fill="#1d1d1b"/></g><path id="eeftBsn5Pd142" d="M337.2,348c2.9-2.7,3.7-5.3,4.7-6.6l3.9,7.7c-1,3.9-1.9,13-3.1,18-1.3,5-3.7,18.8-3.9,25.1-1,1.8-3.3,6.1-3.9,8.6-.8,3.1-1.6,7.1-1.6,17.3c0,5.1,0,7.3-.8,7.8-1.3,0-3.036556-.490001-7.1-1.6-4.072788-1.13864-8.521857-2.52897-15.473509-5.37915C304.486821,414.975543,298.253361,410.09399,295.6,407c1.8-2.9,5.6-9.1,6.3-11c.8-2.4,3.1-13.3,3.9-18s4.7-14.9,6.3-17.3c1.3-1.9,4.7-5,6.3-6.3c1,0,3.2.3,5.5-.8c3.1-1.6,2.6-1.3,7.1-4.7.3.5.9,1.7,1.6,2.4.6,1,1.5-.3,4.6-3.3Z" fill="url(#eeftBsn5Pd142-fill)"/><path id="eeftBsn5Pd143" d="M202.9,312.6c-6.4,0-6.4,10,0,10s6.4-10,0-10Z" transform="translate(-.393376-.593927)" fill="#ee3061"/><g id="eeftBsn5Pd144"><path d="M335.6,262.3c-6.4,0-6.4,10,0,10c6.5,0,6.5-10,0-10Z" transform="translate(9.01201 0)" fill="#ee3061"/><path d="M297.4,252.5c-2.4,0-2.4,3.8,0,3.8c2.4-.1,2.4-3.8,0-3.8Z" transform="translate(0 10)" fill="#ee3061"/><path d="M330.6,236.3c-2.4,0-2.4,3.8,0,3.8c2.5-.1,2.5-3.8,0-3.8Z" fill="#ee3061"/></g><path id="eeftBsn5Pd148" d="M518,314.3c-6.4,0-6.4,10,0,10s6.4-10,0-10Z" transform="translate(-21.306703 3.660942)" fill="url(#eeftBsn5Pd148-fill)"/><path d="M478.3,399.9c-2.4,0-2.4,3.8,0,3.8s2.4-3.8,0-3.8Z" fill="#2f2e41" stroke="#fff" stroke-miterlimit="10"/><path d="M453.5,544.1c-2.4,0-2.4,3.8,0,3.8s2.4-3.8,0-3.8Z" fill="url(#eeftBsn5Pd150-fill)"/><path d="M469.4,501c-2.4,0-2.4,3.8,0,3.8s2.4-3.8,0-3.8Z" fill="url(#eeftBsn5Pd151-fill)"/><path d="M329.5,536.8c-2.4,0-2.4,3.8,0,3.8s2.5-3.8,0-3.8Z" fill="#2f2e41" stroke="#fff" stroke-miterlimit="10"/><path d="M203.2,378.2c-2.4,0-2.4,3.8,0,3.8s2.4-3.8,0-3.8Z" fill="#ee3061"/><g id="eeftBsn5Pd154" transform="translate(-23.179525 10.865404)"><path d="M522.5,238.1c-2.8,1.7-5.4.3-7.8-.9-2.3-1.2-3.9-1.9-5.3-1-1.5.9-1.6,2.6-1.6,5.2s0,5.6-2.8,7.3-5.4.3-7.8-.9c-2.3-1.2-3.9-1.9-5.3-1s-1.6,2.6-1.6,5.2s0,5.6-2.8,7.3-5.4.3-7.8-.9c-2.3-1.2-3.9-1.9-5.3-1-1.5.9-1.6,2.6-1.6,5.2s0,5.6-2.8,7.3-5.4.3-7.8-.9c-2.3-1.2-3.9-1.9-5.3-1-1.5.9-1.6,2.6-1.6,5.2s0,5.6-2.8,7.3-5.4.3-7.8-.9c-2.3-1.2-3.9-1.9-5.3-1l-1.3-2.1c2.8-1.7,5.4-.3,7.8.9c2.3,1.2,3.9,1.9,5.3,1c1.5-.9,1.6-2.6,1.6-5.2s0-5.6,2.8-7.3s5.4-.3,7.8.9c2.3,1.2,3.9,1.9,5.3,1c1.5-.9,1.6-2.6,1.6-5.2s0-5.6,2.8-7.3s5.4-.3,7.8.9c2.3,1.2,3.9,1.9,5.3,1c1.5-.9,1.6-2.6,1.6-5.2s0-5.6,2.8-7.3s5.4-.3,7.8.9c2.3,1.2,3.9,1.9,5.3,1c1.5-.9,1.6-2.6,1.6-5.2s0-5.6,2.8-7.3s5.4-.3,7.8.9c2.3,1.2,3.9,1.9,5.3,1c1.5-.9,1.6-2.6,1.6-5.2s0-5.6,2.8-7.3l1.3,2.1c-1.5.9-1.6,2.6-1.6,5.2c0,2.7,0,5.6-2.8,7.3Z" fill="#bcbcbc"/></g><g id="eeftBsn5Pd156" transform="matrix(.651678 0 0 0.651678 49.043739 148.622459)"><path d="M182.3,417.1c-3,1.3-5.4-.4-7.6-1.9-2.1-1.5-3.6-2.4-5.2-1.7s-1.9,2.3-2.3,4.9c-.3,2.6-.7,5.6-3.7,6.9s-5.4-.4-7.6-1.9c-2.1-1.5-3.6-2.4-5.2-1.7s-1.9,2.3-2.3,4.9c-.3,2.6-.7,5.6-3.7,6.9s-5.4-.4-7.6-1.9c-2.1-1.5-3.6-2.4-5.2-1.7s-1.9,2.3-2.3,4.9c-.3,2.6-.7,5.6-3.7,6.9s-5.4-.4-7.6-1.9c-2.1-1.5-3.6-2.4-5.2-1.7s-1.9,2.3-2.3,4.9c-.3,2.6-.7,5.6-3.7,6.9s-5.4-.4-7.6-1.9c-2.1-1.5-3.6-2.4-5.2-1.7l-1-2.3c3-1.3,5.4.4,7.6,1.9c2.1,1.5,3.6,2.4,5.2,1.7s1.9-2.3,2.3-4.9c.3-2.6.7-5.6,3.7-6.9s5.4.4,7.6,1.9c2.1,1.5,3.6,2.4,5.2,1.7s1.9-2.3,2.3-4.9c.3-2.6.7-5.6,3.7-6.9s5.4.4,7.6,1.9c2.1,1.5,3.6,2.4,5.2,1.7s1.9-2.3,2.3-4.9c.3-2.6.7-5.6,3.7-6.9s5.4.4,7.6,1.9c2.1,1.5,3.6,2.4,5.2,1.7s1.9-2.3,2.3-4.9c.3-2.6.7-5.6,3.7-6.9s5.4.4,7.6,1.9c2.1,1.5,3.6,2.4,5.2,1.7s1.9-2.3,2.3-4.9c.3-2.6.7-5.6,3.7-6.9l1,2.3c-1.6.7-1.9,2.3-2.3,4.9-.3,2.7-.7,5.6-3.7,6.9Z" fill="#bcbcbc"/></g><g id="eeftBsn5Pd158"><path d="M179.3,373.6c-3.2-.7-4.1-3.6-4.9-6.1s-1.4-4-3.1-4.4-2.9.7-4.8,2.6c-1.8,1.9-3.9,4-7.1,3.3s-4.1-3.6-4.9-6.1-1.4-4-3.1-4.4-2.9.7-4.8,2.6c-1.8,1.9-3.9,4-7.1,3.3s-4.1-3.6-4.9-6.1-1.4-4-3.1-4.4-2.9.7-4.8,2.6c-1.8,1.9-3.9,4-7.1,3.3s-4.1-3.6-4.9-6.1-1.4-4-3.1-4.4-2.9.7-4.8,2.6c-1.8,1.9-3.9,4-7.1,3.3s-4.1-3.6-4.9-6.1-1.4-4-3.1-4.4l.6-2.4c3.2.7,4.1,3.6,4.9,6.1s1.4,4,3.1,4.4s2.9-.7,4.8-2.6c1.8-1.9,3.9-4,7.1-3.3s4.1,3.6,4.9,6.1s1.4,4,3.1,4.4s2.9-.7,4.8-2.6c1.8-1.9,3.9-4,7.1-3.3s4.1,3.6,4.9,6.1s1.4,4,3.1,4.4s2.9-.7,4.8-2.6c1.8-1.9,3.9-4,7.1-3.3s4.1,3.6,4.9,6.1s1.4,4,3.1,4.4s2.9-.7,4.8-2.6c1.8-1.9,3.9-4,7.1-3.3s4.1,3.6,4.9,6.1s1.4,4,3.1,4.4s2.9-.7,4.8-2.6c1.8-1.9,3.9-4,7.1-3.3l-.6,2.4c-1.7-.4-2.9.7-4.8,2.6s-3.9,4.1-7.1,3.3Z" fill="#bcbcbc"/></g><g transform="matrix(.875133-.483882 0.483882 0.875133-213.511 236.121)"><path id="eeftBsn5Pd161" d="M374.3,549.1c-2.1-1-2.4-3.1-2.6-5s-.4-3-1.5-3.6c-1.1-.5-2.2.1-3.7,1.1-1.6,1.1-3.3,2.2-5.4,1.3s-2.4-3.1-2.6-5-.4-3-1.5-3.6c-1.1-.5-2.2.1-3.7,1.1-1.6,1.1-3.3,2.2-5.4,1.3-2.1-1-2.4-3.1-2.6-5s-.4-3-1.5-3.6c-1.1-.5-2.2.1-3.7,1.1-1.6,1.1-3.3,2.2-5.4,1.3-2.1-1-2.4-3.1-2.6-5s-.4-3-1.5-3.6c-1.1-.5-2.2.1-3.7,1.1-1.6,1.1-3.3,2.2-5.4,1.3-2.1-1-2.4-3.1-2.6-5s-.4-3-1.5-3.6l.7-1.6c2.1,1,2.4,3.1,2.6,5s.4,3,1.5,3.6c1.1.5,2.2-.1,3.7-1.1c1.6-1.1,3.3-2.2,5.4-1.3c2.1,1,2.4,3.1,2.6,5s.4,3,1.5,3.6c1.1.5,2.2-.1,3.7-1.1c1.6-1.1,3.3-2.2,5.4-1.3c2.1,1,2.4,3.1,2.6,5s.4,3,1.5,3.6c1.1.5,2.2-.1,3.7-1.1c1.6-1.1,3.3-2.2,5.4-1.3c2.1,1,2.4,3.1,2.6,5s.4,3,1.5,3.6c1.1.5,2.2-.1,3.7-1.1c1.6-1.1,3.3-2.2,5.4-1.3c2.1,1,2.4,3.1,2.6,5s.4,3,1.5,3.6c1.1.5,2.2-.1,3.7-1.1c1.6-1.1,3.3-2.2,5.4-1.3l-.7,1.6c-1.1-.5-2.2.1-3.7,1.1s-3.3,2.2-5.4,1.3Z" transform="matrix(.97184 0.23564-.23564 0.97184 135.18037-67.676552)" fill="#bcbcbc"/></g><g id="eeftBsn5Pd162"><g><path d="M235.3,301.6c-6.6,0-11.9-5.3-11.9-11.9s5.3-11.9,11.9-11.9c.4,0,.8,0,1.2.1l4.9.5-4.9.5c-5.6.6-9.8,5.2-9.8,10.8s4.2,10.3,9.8,10.8l4.9.5-4.9.5c-.4.1-.8.1-1.2.1Zm-3.8-22.2c-4.2,1.5-7.1,5.5-7.1,10.2s3,8.7,7.1,10.2c-3.5-2.1-5.8-5.9-5.8-10.2s2.3-8.1,5.8-10.2Z" fill="#1d1d1b"/></g><g><path d="M237.8,301.6c-6.6,0-11.9-5.3-11.9-11.9s5.3-11.9,11.9-11.9s11.9,5.3,11.9,11.9-5.4,11.9-11.9,11.9Zm0-22.9c-6,0-10.9,4.9-10.9,10.9s4.9,10.9,10.9,10.9s10.9-4.9,10.9-10.9-4.9-10.9-10.9-10.9Z" fill="#1d1d1b"/></g><g><path d="M241.4,290.5c-.3-.8-.9-1.3-1.7-1.4-.9-.1-1.7-.1-2.3-.2-1.9-.1-2.1-.1-2.1-1.2c0-.8.2-1.3.6-1.7c1.4-1.2,4.4-.6,4.4-.6.2,0,.5-.1.5-.3s-.1-.5-.3-.5c-.1,0-1.2-.2-2.5-.2v-2.2c0-.2-.2-.4-.4-.4s-.4.2-.4.4v2.3c-.7.1-1.3.4-1.8.8-.7.6-1,1.4-.9,2.4.1,1.8,1.1,1.9,3,2c.6,0,1.4.1,2.3.2.7.1.9.5,1,.8.2.5.1,1.4-.6,2-.9.9-2.7,1-4.8.2-.2-.1-.5,0-.6.2s0,.5.2.6c.8.3,1.5.5,2.2.6v2c0,.2.2.4.4.4s.4-.2.4-.4v-1.9c1.4,0,2.2-.6,2.7-1c.7-.8,1-1.9.7-2.9Z" fill="#1d1d1b"/></g></g><g id="eeftBsn5Pd169"><path d="M226.8,276.6c-.5,0-.9-.2-1.2-.6l-5.6-7.5c-.5-.7-.4-1.6.3-2.1s1.6-.4,2.1.3l4.1,5.5c1.7-3.4,5.2-9.8,9-12.7.7-.5,1.6-.4,2.1.3s.4,1.6-.3,2.1c-4.6,3.5-9,13.7-9.1,13.8-.2.5-.7.8-1.2.9c0,0-.1,0-.2,0Z" fill="#048c38"/></g></g><path d="" fill="none" stroke="#1d1d1b" stroke-miterlimit="10"/><script><![CDATA[!function(t,n){"object"==typeof exports&&"undefined"!=typeof module?module.exports=n():"function"==typeof define&&define.amd?define(n):((t="undefined"!=typeof globalThis?globalThis:t||self).__SVGATOR_PLAYER__=t.__SVGATOR_PLAYER__||{},t.__SVGATOR_PLAYER__["5c7f360c"]=n())}(this,(function(){"use strict";function t(t,n){var r=Object.keys(t);if(Object.getOwnPropertySymbols){var e=Object.getOwnPropertySymbols(t);n&&(e=e.filter((function(n){return Object.getOwnPropertyDescriptor(t,n).enumerable}))),r.push.apply(r,e)}return r}function n(n){for(var r=1;r<arguments.length;r++){var e=null!=arguments[r]?arguments[r]:{};r%2?t(Object(e),!0).forEach((function(t){u(n,t,e[t])})):Object.getOwnPropertyDescriptors?Object.defineProperties(n,Object.getOwnPropertyDescriptors(e)):t(Object(e)).forEach((function(t){Object.defineProperty(n,t,Object.getOwnPropertyDescriptor(e,t))}))}return n}function r(t){return(r="function"==typeof Symbol&&"symbol"==typeof Symbol.iterator?function(t){return typeof t}:function(t){return t&&"function"==typeof Symbol&&t.constructor===Symbol&&t!==Symbol.prototype?"symbol":typeof t})(t)}function e(t,n){if(!(t instanceof n))throw new TypeError("Cannot call a class as a function")}function i(t,n){for(var r=0;r<n.length;r++){var e=n[r];e.enumerable=e.enumerable||!1,e.configurable=!0,"value"in e&&(e.writable=!0),Object.defineProperty(t,e.key,e)}}function o(t,n,r){return n&&i(t.prototype,n),r&&i(t,r),t}function u(t,n,r){return n in t?Object.defineProperty(t,n,{value:r,enumerable:!0,configurable:!0,writable:!0}):t[n]=r,t}function a(t){return(a=Object.setPrototypeOf?Object.getPrototypeOf:function(t){return t.__proto__||Object.getPrototypeOf(t)})(t)}function l(t,n){return(l=Object.setPrototypeOf||function(t,n){return t.__proto__=n,t})(t,n)}function f(){if("undefined"==typeof Reflect||!Reflect.construct)return!1;if(Reflect.construct.sham)return!1;if("function"==typeof Proxy)return!0;try{return Boolean.prototype.valueOf.call(Reflect.construct(Boolean,[],(function(){}))),!0}catch(t){return!1}}function s(t,n,r){return(s=f()?Reflect.construct:function(t,n,r){var e=[null];e.push.apply(e,n);var i=new(Function.bind.apply(t,e));return r&&l(i,r.prototype),i}).apply(null,arguments)}function c(t,n){if(n&&("object"==typeof n||"function"==typeof n))return n;if(void 0!==n)throw new TypeError("Derived constructors may only return object or undefined");return function(t){if(void 0===t)throw new ReferenceError("this hasn't been initialised - super() hasn't been called");return t}(t)}function h(t,n,r){return(h="undefined"!=typeof Reflect&&Reflect.get?Reflect.get:function(t,n,r){var e=function(t,n){for(;!Object.prototype.hasOwnProperty.call(t,n)&&null!==(t=a(t)););return t}(t,n);if(e){var i=Object.getOwnPropertyDescriptor(e,n);return i.get?i.get.call(r):i.value}})(t,n,r||t)}function v(t){return function(t){if(Array.isArray(t))return y(t)}(t)||function(t){if("undefined"!=typeof Symbol&&null!=t[Symbol.iterator]||null!=t["@@iterator"])return Array.from(t)}(t)||function(t,n){if(!t)return;if("string"==typeof t)return y(t,n);var r=Object.prototype.toString.call(t).slice(8,-1);"Object"===r&&t.constructor&&(r=t.constructor.name);if("Map"===r||"Set"===r)return Array.from(t);if("Arguments"===r||/^(?:Ui|I)nt(?:8|16|32)(?:Clamped)?Array$/.test(r))return y(t,n)}(t)||function(){throw new TypeError("Invalid attempt to spread non-iterable instance.\nIn order to be iterable, non-array objects must have a [Symbol.iterator]() method.")}()}function y(t,n){(null==n||n>t.length)&&(n=t.length);for(var r=0,e=new Array(n);r<n;r++)e[r]=t[r];return e}Number.isInteger||(Number.isInteger=function(t){return"number"==typeof t&&isFinite(t)&&Math.floor(t)===t}),Number.EPSILON||(Number.EPSILON=2220446049250313e-31);var g=p(Math.pow(10,-6));function p(t){var n=arguments.length>1&&void 0!==arguments[1]?arguments[1]:6;if(Number.isInteger(t))return t;var r=Math.pow(10,n);return Math.round((+t+Number.EPSILON)*r)/r}function d(t,n){var r=arguments.length>2&&void 0!==arguments[2]?arguments[2]:g;return Math.abs(t-n)<r}var m=Math.PI/180;function b(t){return t}function w(t,n,r){var e=1-r;return 3*r*e*(t*e+n*r)+r*r*r}function x(){var t=arguments.length>0&&void 0!==arguments[0]?arguments[0]:0,n=arguments.length>1&&void 0!==arguments[1]?arguments[1]:0,r=arguments.length>2&&void 0!==arguments[2]?arguments[2]:1,e=arguments.length>3&&void 0!==arguments[3]?arguments[3]:1;return t<0||t>1||r<0||r>1?null:d(t,n)&&d(r,e)?b:function(i){if(i<=0)return t>0?i*n/t:0===n&&r>0?i*e/r:0;if(i>=1)return r<1?1+(i-1)*(e-1)/(r-1):1===r&&t<1?1+(i-1)*(n-1)/(t-1):1;for(var o,u=0,a=1;u<a;){var l=w(t,r,o=(u+a)/2);if(d(i,l))break;l<i?u=o:a=o}return w(n,e,o)}}function A(){return 1}function k(t){return 1===t?1:0}function _(){var t=arguments.length>0&&void 0!==arguments[0]?arguments[0]:1,n=arguments.length>1&&void 0!==arguments[1]?arguments[1]:0;if(1===t){if(0===n)return k;if(1===n)return A}var r=1/t;return function(t){return t>=1?1:(t+=n*r)-t%r}}var S=Math.sin,O=Math.cos,j=Math.acos,M=Math.asin,P=Math.tan,E=Math.atan2,I=Math.PI/180,R=180/Math.PI,F=Math.sqrt,N=function(){function t(){var n=arguments.length>0&&void 0!==arguments[0]?arguments[0]:1,r=arguments.length>1&&void 0!==arguments[1]?arguments[1]:0,i=arguments.length>2&&void 0!==arguments[2]?arguments[2]:0,o=arguments.length>3&&void 0!==arguments[3]?arguments[3]:1,u=arguments.length>4&&void 0!==arguments[4]?arguments[4]:0,a=arguments.length>5&&void 0!==arguments[5]?arguments[5]:0;e(this,t),this.m=[n,r,i,o,u,a],this.i=null,this.w=null,this.s=null}return o(t,[{key:"determinant",get:function(){var t=this.m;return t[0]*t[3]-t[1]*t[2]}},{key:"isIdentity",get:function(){if(null===this.i){var t=this.m;this.i=1===t[0]&&0===t[1]&&0===t[2]&&1===t[3]&&0===t[4]&&0===t[5]}return this.i}},{key:"point",value:function(t,n){var r=this.m;return{x:r[0]*t+r[2]*n+r[4],y:r[1]*t+r[3]*n+r[5]}}},{key:"translateSelf",value:function(){var t=arguments.length>0&&void 0!==arguments[0]?arguments[0]:0,n=arguments.length>1&&void 0!==arguments[1]?arguments[1]:0;if(!t&&!n)return this;var r=this.m;return r[4]+=r[0]*t+r[2]*n,r[5]+=r[1]*t+r[3]*n,this.w=this.s=this.i=null,this}},{key:"rotateSelf",value:function(){var t=arguments.length>0&&void 0!==arguments[0]?arguments[0]:0;if(t%=360){var n=S(t*=I),r=O(t),e=this.m,i=e[0],o=e[1];e[0]=i*r+e[2]*n,e[1]=o*r+e[3]*n,e[2]=e[2]*r-i*n,e[3]=e[3]*r-o*n,this.w=this.s=this.i=null}return this}},{key:"scaleSelf",value:function(){var t=arguments.length>0&&void 0!==arguments[0]?arguments[0]:1,n=arguments.length>1&&void 0!==arguments[1]?arguments[1]:1;if(1!==t||1!==n){var r=this.m;r[0]*=t,r[1]*=t,r[2]*=n,r[3]*=n,this.w=this.s=this.i=null}return this}},{key:"skewSelf",value:function(t,n){if(n%=360,(t%=360)||n){var r=this.m,e=r[0],i=r[1],o=r[2],u=r[3];t&&(t=P(t*I),r[2]+=e*t,r[3]+=i*t),n&&(n=P(n*I),r[0]+=o*n,r[1]+=u*n),this.w=this.s=this.i=null}return this}},{key:"resetSelf",value:function(){var t=arguments.length>0&&void 0!==arguments[0]?arguments[0]:1,n=arguments.length>1&&void 0!==arguments[1]?arguments[1]:0,r=arguments.length>2&&void 0!==arguments[2]?arguments[2]:0,e=arguments.length>3&&void 0!==arguments[3]?arguments[3]:1,i=arguments.length>4&&void 0!==arguments[4]?arguments[4]:0,o=arguments.length>5&&void 0!==arguments[5]?arguments[5]:0,u=this.m;return u[0]=t,u[1]=n,u[2]=r,u[3]=e,u[4]=i,u[5]=o,this.w=this.s=this.i=null,this}},{key:"recomposeSelf",value:function(){var t=arguments.length>0&&void 0!==arguments[0]?arguments[0]:null,n=arguments.length>1&&void 0!==arguments[1]?arguments[1]:null,r=arguments.length>2&&void 0!==arguments[2]?arguments[2]:null,e=arguments.length>3&&void 0!==arguments[3]?arguments[3]:null,i=arguments.length>4&&void 0!==arguments[4]?arguments[4]:null;return this.isIdentity||this.resetSelf(),t&&(t.x||t.y)&&this.translateSelf(t.x,t.y),n&&this.rotateSelf(n),r&&(r.x&&this.skewSelf(r.x,0),r.y&&this.skewSelf(0,r.y)),!e||1===e.x&&1===e.y||this.scaleSelf(e.x,e.y),i&&(i.x||i.y)&&this.translateSelf(i.x,i.y),this}},{key:"decompose",value:function(){var t=arguments.length>0&&void 0!==arguments[0]?arguments[0]:0,n=arguments.length>1&&void 0!==arguments[1]?arguments[1]:0,r=this.m,e=r[0]*r[0]+r[1]*r[1],i=[[r[0],r[1]],[r[2],r[3]]],o=F(e);if(0===o)return{origin:{x:p(r[4]),y:p(r[5])},translate:{x:p(t),y:p(n)},scale:{x:0,y:0},skew:{x:0,y:0},rotate:0};i[0][0]/=o,i[0][1]/=o;var u=r[0]*r[3]-r[1]*r[2]<0;u&&(o=-o);var a=i[0][0]*i[1][0]+i[0][1]*i[1][1];i[1][0]-=i[0][0]*a,i[1][1]-=i[0][1]*a;var l=F(i[1][0]*i[1][0]+i[1][1]*i[1][1]);if(0===l)return{origin:{x:p(r[4]),y:p(r[5])},translate:{x:p(t),y:p(n)},scale:{x:p(o),y:0},skew:{x:0,y:0},rotate:0};i[1][0]/=l,i[1][1]/=l,a/=l;var f=0;return i[1][1]<0?(f=j(i[1][1])*R,i[0][1]<0&&(f=360-f)):f=M(i[0][1])*R,u&&(f=-f),a=E(a,F(i[0][0]*i[0][0]+i[0][1]*i[0][1]))*R,u&&(a=-a),{origin:{x:p(r[4]),y:p(r[5])},translate:{x:p(t),y:p(n)},scale:{x:p(o),y:p(l)},skew:{x:p(a),y:0},rotate:p(f)}}},{key:"clone",value:function(){var t=this.m;return new this.constructor(t[0],t[1],t[2],t[3],t[4],t[5])}},{key:"toString",value:function(){var t=arguments.length>0&&void 0!==arguments[0]?arguments[0]:" ";if(null===this.s){var n=this.m.map((function(t){return p(t)}));1===n[0]&&0===n[1]&&0===n[2]&&1===n[3]?this.s="translate("+n[4]+t+n[5]+")":this.s="matrix("+n.join(t)+")"}return this.s}}],[{key:"create",value:function(t){return t?Array.isArray(t)?s(this,v(t)):t instanceof this?t.clone():(new this).recomposeSelf(t.origin,t.rotate,t.skew,t.scale,t.translate):new this}}]),t}();function T(t,n,r){return t>=.5?r:n}function q(t,n,r){return 0===t||n===r?n:t*(r-n)+n}function B(t,n,r){var e=q(t,n,r);return e<=0?0:e}function L(t,n,r){var e=q(t,n,r);return e<=0?0:e>=1?1:e}function C(t,n,r){return 0===t?n:1===t?r:{x:q(t,n.x,r.x),y:q(t,n.y,r.y)}}function D(t,n,r){var e=function(t,n,r){return Math.round(q(t,n,r))}(t,n,r);return e<=0?0:e>=255?255:e}function z(t,n,r){return 0===t?n:1===t?r:{r:D(t,n.r,r.r),g:D(t,n.g,r.g),b:D(t,n.b,r.b),a:q(t,null==n.a?1:n.a,null==r.a?1:r.a)}}function V(t,n){for(var r=[],e=0;e<t;e++)r.push(n);return r}function G(t,n){if(--n<=0)return t;var r=(t=Object.assign([],t)).length;do{for(var e=0;e<r;e++)t.push(t[e])}while(--n>0);return t}var Y,$=function(){function t(n){e(this,t),this.list=n,this.length=n.length}return o(t,[{key:"setAttribute",value:function(t,n){for(var r=this.list,e=0;e<this.length;e++)r[e].setAttribute(t,n)}},{key:"removeAttribute",value:function(t){for(var n=this.list,r=0;r<this.length;r++)n[r].removeAttribute(t)}},{key:"style",value:function(t,n){for(var r=this.list,e=0;e<this.length;e++)r[e].style[t]=n}}]),t}(),U=/-./g,Q=function(t,n){return n.toUpperCase()};function H(t){return"function"==typeof t?t:T}function J(t){return t?"function"==typeof t?t:Array.isArray(t)?function(t){var n=arguments.length>1&&void 0!==arguments[1]?arguments[1]:b;if(!Array.isArray(t))return n;switch(t.length){case 1:return _(t[0])||n;case 2:return _(t[0],t[1])||n;case 4:return x(t[0],t[1],t[2],t[3])||n}return n}(t,null):function(t,n){var r=arguments.length>2&&void 0!==arguments[2]?arguments[2]:b;switch(t){case"linear":return b;case"steps":return _(n.steps||1,n.jump||0)||r;case"bezier":case"cubic-bezier":return x(n.x1||0,n.y1||0,n.x2||0,n.y2||0)||r}return r}(t.type,t.value,null):null}function Z(t,n,r){var e=arguments.length>3&&void 0!==arguments[3]&&arguments[3],i=n.length-1;if(t<=n[0].t)return e?[0,0,n[0].v]:n[0].v;if(t>=n[i].t)return e?[i,1,n[i].v]:n[i].v;var o,u=n[0],a=null;for(o=1;o<=i;o++){if(!(t>n[o].t)){a=n[o];break}u=n[o]}return null==a?e?[i,1,n[i].v]:n[i].v:u.t===a.t?e?[o,1,a.v]:a.v:(t=(t-u.t)/(a.t-u.t),u.e&&(t=u.e(t)),e?[o,t,r(t,u.v,a.v)]:r(t,u.v,a.v))}function K(t,n){var r=arguments.length>2&&void 0!==arguments[2]?arguments[2]:null;return t&&t.length?"function"!=typeof n?null:("function"!=typeof r&&(r=null),function(e){var i=Z(e,t,n);return null!=i&&r&&(i=r(i)),i}):null}function W(t,n){return t.t-n.t}function X(t,n,e,i,o){var u,a="@"===e[0],l="#"===e[0],f=Y[e],s=T;switch(a?(u=e.substr(1),e=u.replace(U,Q)):l&&(e=e.substr(1)),r(f)){case"function":if(s=f(i,o,Z,J,e,a,n,t),l)return s;break;case"string":s=K(i,H(f));break;case"object":if((s=K(i,H(f.i),f.f))&&"function"==typeof f.u)return f.u(n,s,e,a,t)}return s?function(t,n,r){if(arguments.length>3&&void 0!==arguments[3]&&arguments[3])return t instanceof $?function(e){return t.style(n,r(e))}:function(e){return t.style[n]=r(e)};if(Array.isArray(n)){var e=n.length;return function(i){var o=r(i);if(null==o)for(var u=0;u<e;u++)t[u].removeAttribute(n);else for(var a=0;a<e;a++)t[a].setAttribute(n,o)}}return function(e){var i=r(e);null==i?t.removeAttribute(n):t.setAttribute(n,i)}}(n,e,s,a):null}function tt(t,n,e,i){if(!i||"object"!==r(i))return null;var o=null,u=null;return Array.isArray(i)?u=function(t){if(!t||!t.length)return null;for(var n=0;n<t.length;n++)t[n].e&&(t[n].e=J(t[n].e));return t.sort(W)}(i):(u=i.keys,o=i.data||null),u?X(t,n,e,u,o):null}function nt(t,n,r){if(!r)return null;var e=[];for(var i in r)if(r.hasOwnProperty(i)){var o=tt(t,n,i,r[i]);o&&e.push(o)}return e.length?e:null}function rt(t,n){if(!n.duration||n.duration<0)return null;var r=function(t,n){if(!n)return null;var r=[];if(Array.isArray(n))for(var e=n.length,i=0;i<e;i++){var o=n[i];if(2===o.length){var u=null;if("string"==typeof o[0])u=t.getElementById(o[0]);else if(Array.isArray(o[0])){u=[];for(var a=0;a<o[0].length;a++)if("string"==typeof o[0][a]){var l=t.getElementById(o[0][a]);l&&u.push(l)}u=u.length?1===u.length?u[0]:new $(u):null}if(u){var f=nt(t,u,o[1]);f&&(r=r.concat(f))}}}else for(var s in n)if(n.hasOwnProperty(s)){var c=t.getElementById(s);if(c){var h=nt(t,c,n[s]);h&&(r=r.concat(h))}}return r.length?r:null}(t,n.elements);return r?function(t,n){var r=arguments.length>2&&void 0!==arguments[2]?arguments[2]:1/0,e=arguments.length>3&&void 0!==arguments[3]?arguments[3]:1,i=arguments.length>4&&void 0!==arguments[4]&&arguments[4],o=arguments.length>5&&void 0!==arguments[5]?arguments[5]:1,u=t.length,a=e>0?n:0;i&&r%2==0&&(a=n-a);var l=null;return function(f,s){var c=f%n,h=1+(f-c)/n;s*=e,i&&h%2==0&&(s=-s);var v=!1;if(h>r)c=a,v=!0,-1===o&&(c=e>0?0:n);else if(s<0&&(c=n-c),c===l)return!1;l=c;for(var y=0;y<u;y++)t[y](c);return v}}(r,n.duration,n.iterations||1/0,n.direction||1,!!n.alternate,n.fill||1):null}function et(t){return+("0x"+(t.replace(/[^0-9a-fA-F]+/g,"")||27))}function it(t,n,r){return!t||!r||n>t.length?t:t.substring(0,n)+it(t.substring(n+1),r,r)}function ot(t){var n=arguments.length>1&&void 0!==arguments[1]?arguments[1]:27;return!t||t%n?t%n:ot(t/n,n)}function ut(t,n,r){if(t&&t.length){var e=et(r),i=et(n),o=ot(e)+5,u=it(t,ot(e,5),o);return u=u.replace(/\x7c$/g,"==").replace(/\x2f$/g,"="),u=function(t,n,r){var e=+("0x"+t.substring(0,4));t=t.substring(4);for(var i=n%e+r%27,o=[],u=0;u<t.length;u+=2)if("|"!==t[u]){var a=+("0x"+t[u]+t[u+1])-i;o.push(a)}else{var l=+("0x"+t.substring(u+1,u+1+4))-i;u+=3,o.push(l)}return String.fromCharCode.apply(String,o)}(u=(u=atob(u)).replace(/[\x41-\x5A]/g,""),i,e),u=JSON.parse(u)}}var at=function(){function t(n,r){var i=arguments.length>2&&void 0!==arguments[2]?arguments[2]:{};e(this,t),this._id=0,this._running=!1,this._rollingBack=!1,this._animations=n,this.duration=r.duration,this.alternate=r.alternate,this.fill=r.fill,this.iterations=r.iterations,this.direction=i.direction||1,this.speed=i.speed||1,this.fps=i.fps||100,this.offset=i.offset||0,this.rollbackStartOffset=0}return o(t,[{key:"maxFiniteDuration",get:function(){return this.iterations>0?this.iterations*this.duration:this.duration}},{key:"_apply",value:function(t){for(var n=arguments.length>1&&void 0!==arguments[1]?arguments[1]:{},r=this._animations,e=r.length,i=0,o=0;o<e;o++)n[o]?i++:(n[o]=r[o](t,this.direction),n[o]&&i++);return i}},{key:"_rollback",value:function(){var t=this,n=1/0,r=null;this.rollbackStartOffset=this.offset,this._rollingBack=!0,this._running=!0;this._id=window.requestAnimationFrame((function e(i){if(t._rollingBack){null==r&&(r=i);var o=i-r,u=t.rollbackStartOffset-o,a=Math.round(u*t.speed);if(a>t.duration&&n!==1/0){var l=!!t.alternate&&a/t.duration%2>1,f=a%t.duration;a=(f+=l?t.duration:0)||t.duration}var s=t.fps?1e3/t.fps:0,c=Math.max(0,a);c<n-s&&(t.offset=c,n=c,t._apply(c));var h=t.iterations>0&&-1===t.fill&&a>=t.maxFiniteDuration;(a<=0||t.offset<a||h)&&t.stop(),t._id=window.requestAnimationFrame(e)}}))}},{key:"_start",value:function(){var t=this,n=arguments.length>0&&void 0!==arguments[0]?arguments[0]:0,r=-1/0,e=null,i={};this._running=!0;var o=function o(u){null==e&&(e=u);var a=Math.round((u-e+n)*t.speed),l=t.fps?1e3/t.fps:0;if(a>r+l&&!t._rollingBack&&(t.offset=a,r=a,t._apply(a,i)===t._animations.length))return void t.pause(!0);t._id=window.requestAnimationFrame(o)};this._id=window.requestAnimationFrame(o)}},{key:"_pause",value:function(){this._id&&window.cancelAnimationFrame(this._id),this._running=!1}},{key:"play",value:function(){if(!this._running)return this._rollingBack?this._rollback():this._start(this.offset)}},{key:"stop",value:function(){this._pause(),this.offset=0,this.rollbackStartOffset=0,this._rollingBack=!1,this._apply(0)}},{key:"reachedToEnd",value:function(){return this.iterations>0&&this.offset>=this.iterations*this.duration}},{key:"restart",value:function(){var t=arguments.length>0&&void 0!==arguments[0]&&arguments[0];this.stop(t),this.play(t)}},{key:"pause",value:function(){this._pause()}},{key:"reverse",value:function(){this.direction=-this.direction}}],[{key:"build",value:function(t,r){return delete t.animationSettings,t.options=ut(t.options,t.root,"5c7f360c"),t.animations.map((function(r){var e=ut(r.s,t.root,"5c7f360c");for(var i in delete r.s,t.animationSettings||(t.animationSettings=n({},e)),e)e.hasOwnProperty(i)&&(r[i]=e[i])})),(t=function(t,n){if(Y=n,!t||!t.root||!Array.isArray(t.animations))return null;for(var r=document.getElementsByTagName("svg"),e=!1,i=0;i<r.length;i++)if(r[i].id===t.root&&!r[i].svgatorAnimation){(e=r[i]).svgatorAnimation=!0;break}if(!e)return null;var o=t.animations.map((function(t){return rt(e,t)})).filter((function(t){return!!t}));return o.length?{element:e,animations:o,animationSettings:t.animationSettings,options:t.options||void 0}:null}(t,r))?{el:t.element,options:t.options||{},player:new this(t.animations,t.animationSettings,t.options)}:null}},{key:"push",value:function(t){return this.build(t)}},{key:"init",value:function(){var t=this,n=window.__SVGATOR_PLAYER__&&window.__SVGATOR_PLAYER__["5c7f360c"];Array.isArray(n)&&n.splice(0).forEach((function(n){return t.build(n)}))}}]),t}();function lt(t){return p(t)+""}function ft(t){var n=arguments.length>1&&void 0!==arguments[1]?arguments[1]:" ";return t&&t.length?t.map(lt).join(n):""}function st(t){if(!t)return"transparent";if(null==t.a||t.a>=1){var n=function(t){return 1===(t=parseInt(t).toString(16)).length?"0"+t:t},r=function(t){return t.charAt(0)===t.charAt(1)},e=n(t.r),i=n(t.g),o=n(t.b);return r(e)&&r(i)&&r(o)&&(e=e.charAt(0),i=i.charAt(0),o=o.charAt(0)),"#"+e+i+o}return"rgba("+t.r+","+t.g+","+t.b+","+t.a+")"}function ct(t){return t?"url(#"+t+")":"none"}!function(){for(var t=0,n=["ms","moz","webkit","o"],r=0;r<n.length&&!window.requestAnimationFrame;++r)window.requestAnimationFrame=window[n[r]+"RequestAnimationFrame"],window.cancelAnimationFrame=window[n[r]+"CancelAnimationFrame"]||window[n[r]+"CancelRequestAnimationFrame"];window.requestAnimationFrame||(window.requestAnimationFrame=function(n){var r=Date.now(),e=Math.max(0,16-(r-t)),i=window.setTimeout((function(){n(r+e)}),e);return t=r+e,i},window.cancelAnimationFrame=window.clearTimeout)}();var ht={f:null,i:function(t,n,r){return 0===t?n:1===t?r:{x:B(t,n.x,r.x),y:B(t,n.y,r.y)}},u:function(t,n){return function(r){var e=n(r);t.setAttribute("rx",lt(e.x)),t.setAttribute("ry",lt(e.y))}}},vt={f:null,i:function(t,n,r){return 0===t?n:1===t?r:{width:B(t,n.width,r.width),height:B(t,n.height,r.height)}},u:function(t,n){return function(r){var e=n(r);t.setAttribute("width",lt(e.width)),t.setAttribute("height",lt(e.height))}}};Object.freeze({M:2,L:2,Z:0,H:1,V:1,C:6,Q:4,T:2,S:4,A:7});var yt={},gt=null;function pt(t){var n=function(){if(gt)return gt;if("object"!==("undefined"==typeof document?"undefined":r(document))||!document.createElementNS)return{};var t=document.createElementNS("http://www.w3.org/2000/svg","svg");return t&&t.style?(t.style.position="absolute",t.style.opacity="0.01",t.style.zIndex="-9999",t.style.left="-9999px",t.style.width="1px",t.style.height="1px",gt={svg:t}):{}}().svg;if(!n)return function(t){return null};var e=document.createElementNS(n.namespaceURI,"path");e.setAttributeNS(null,"d",t),e.setAttributeNS(null,"fill","none"),e.setAttributeNS(null,"stroke","none"),n.appendChild(e);var i=e.getTotalLength();return function(t){var n=e.getPointAtLength(i*t);return{x:n.x,y:n.y}}}function dt(t){return yt[t]?yt[t]:yt[t]=pt(t)}function mt(t,n,r,e){if(!t||!e)return!1;var i=["M",t.x,t.y];if(n&&r&&(i.push("C"),i.push(n.x),i.push(n.y),i.push(r.x),i.push(r.y)),n?!r:r){var o=n||r;i.push("Q"),i.push(o.x),i.push(o.y)}return n||r||i.push("L"),i.push(e.x),i.push(e.y),i.join(" ")}function bt(t,n,r,e){var i=arguments.length>4&&void 0!==arguments[4]?arguments[4]:1,o=mt(t,n,r,e),u=dt(o);try{return u(i)}catch(t){return null}}function wt(t,n,r){return t+(n-t)*r}function xt(t,n,r){var e=arguments.length>3&&void 0!==arguments[3]&&arguments[3],i={x:wt(t.x,n.x,r),y:wt(t.y,n.y,r)};return e&&(i.a=At(t,n)),i}function At(t,n){return Math.atan2(n.y-t.y,n.x-t.x)}function kt(t,n,r,e){var i=1-e;return i*i*t+2*i*e*n+e*e*r}function _t(t,n,r,e){return 2*(1-e)*(n-t)+2*e*(r-n)}function St(t,n,r,e){var i=arguments.length>4&&void 0!==arguments[4]&&arguments[4],o=bt(t,n,null,r,e);return o||(o={x:kt(t.x,n.x,r.x,e),y:kt(t.y,n.y,r.y,e)}),i&&(o.a=Ot(t,n,r,e)),o}function Ot(t,n,r,e){return Math.atan2(_t(t.y,n.y,r.y,e),_t(t.x,n.x,r.x,e))}function jt(t,n,r,e,i){var o=i*i;return i*o*(e-t+3*(n-r))+3*o*(t+r-2*n)+3*i*(n-t)+t}function Mt(t,n,r,e,i){var o=1-i;return 3*(o*o*(n-t)+2*o*i*(r-n)+i*i*(e-r))}function Pt(t,n,r,e,i){var o=arguments.length>5&&void 0!==arguments[5]&&arguments[5],u=bt(t,n,r,e,i);return u||(u={x:jt(t.x,n.x,r.x,e.x,i),y:jt(t.y,n.y,r.y,e.y,i)}),o&&(u.a=Et(t,n,r,e,i)),u}function Et(t,n,r,e,i){return Math.atan2(Mt(t.y,n.y,r.y,e.y,i),Mt(t.x,n.x,r.x,e.x,i))}function It(t,n,r){var e=arguments.length>3&&void 0!==arguments[3]&&arguments[3];if(Ft(n)){if(Nt(r))return St(n,r.start,r,t,e)}else if(Ft(r)){if(n.end)return St(n,n.end,r,t,e)}else{if(n.end)return r.start?Pt(n,n.end,r.start,r,t,e):St(n,n.end,r,t,e);if(r.start)return St(n,r.start,r,t,e)}return xt(n,r,t,e)}function Rt(t,n,r){var e=It(t,n,r,!0);return e.a=function(t){return arguments.length>1&&void 0!==arguments[1]&&arguments[1]?t+Math.PI:t}(e.a)/m,e}function Ft(t){return!t.type||"corner"===t.type}function Nt(t){return null!=t.start&&!Ft(t)}var Tt=new N;var qt={f:lt,i:q},Bt={f:lt,i:L};function Lt(t,n,r){return t.map((function(t){return function(t,n,r){var e=t.v;if(!e||"g"!==e.t||e.s||!e.v||!e.r)return t;var i=r.getElementById(e.r),o=i&&i.querySelectorAll("stop")||[];return e.s=e.v.map((function(t,n){var r=o[n]&&o[n].getAttribute("offset");return{c:t,o:r=p(parseInt(r)/100)}})),delete e.v,t}(t,0,r)}))}var Ct={gt:"gradientTransform",c:{x:"cx",y:"cy"},rd:"r",f:{x:"x1",y:"y1"},to:{x:"x2",y:"y2"}};function Dt(t,n,e,i,o,u,a,l){return Lt(t,0,l),n=function(t,n,r){for(var e,i,o,u=t.length-1,a={},l=0;l<=u;l++)(e=t[l]).e&&(e.e=n(e.e)),e.v&&"g"===(i=e.v).t&&i.r&&(o=r.getElementById(i.r))&&(a[i.r]={e:o,s:o.querySelectorAll("stop")});return a}(t,i,l),function(i){var o=e(i,t,zt);if(!o)return"none";if("c"===o.t)return st(o.v);if("g"===o.t){if(!n[o.r])return ct(o.r);var u=n[o.r];return function(t,n){for(var r=t.s,e=r.length;e<n.length;e++){var i=r[r.length-1].cloneNode();i.id=Yt(i.id),t.e.appendChild(i),r=t.s=t.e.querySelectorAll("stop")}for(var o=0,u=r.length,a=n.length-1;o<u;o++)r[o].setAttribute("stop-color",st(n[Math.min(o,a)].c)),r[o].setAttribute("offset",n[Math.min(o,a)].o)}(u,o.s),Object.keys(Ct).forEach((function(t){if(void 0!==o[t])if("object"!==r(Ct[t])){var n,e="gt"===t?(n=o[t],Array.isArray(n)?"matrix("+n.join(" ")+")":""):o[t],i=Ct[t];u.e.setAttribute(i,e)}else Object.keys(Ct[t]).forEach((function(n){if(void 0!==o[t][n]){var r=o[t][n],e=Ct[t][n];u.e.setAttribute(e,r)}}))})),ct(o.r)}return"none"}}function zt(t,r,e){if(0===t)return r;if(1===t)return e;if(r&&e){var i=r.t;if(i===e.t)switch(r.t){case"c":return{t:i,v:z(t,r.v,e.v)};case"g":if(r.r===e.r){var o={t:i,s:Vt(t,r.s,e.s),r:r.r};return r.gt&&e.gt&&(o.gt=function(t,n,r){var e=n.length;if(e!==r.length)return T(t,n,r);for(var i=new Array(e),o=0;o<e;o++)i[o]=q(t,n[o],r[o]);return i}(t,r.gt,e.gt)),r.c?(o.c=C(t,r.c,e.c),o.rd=B(t,r.rd,e.rd)):r.f&&(o.f=C(t,r.f,e.f),o.to=C(t,r.to,e.to)),o}}if("c"===r.t&&"g"===e.t||"c"===e.t&&"g"===r.t){var u="c"===r.t?r:e,a="g"===r.t?n({},r):n({},e),l=a.s.map((function(t){return{c:u.v,o:t.o}}));return a.s="c"===r.t?Vt(t,l,a.s):Vt(t,a.s,l),a}}return T(t,r,e)}function Vt(t,n,r){if(n.length===r.length)return n.map((function(n,e){return Gt(t,n,r[e])}));for(var e=Math.max(n.length,r.length),i=[],o=0;o<e;o++){var u=Gt(t,n[Math.min(o,n.length-1)],r[Math.min(o,r.length-1)]);i.push(u)}return i}function Gt(t,n,r){return{o:L(t,n.o,r.o||0),c:z(t,n.c,r.c||{})}}function Yt(t){return t.replace(/-fill-([0-9]+)$/,(function(t,n){return"-fill-"+(+n+1)}))}var $t={fill:Dt,"fill-opacity":Bt,stroke:Dt,"stroke-opacity":Bt,"stroke-width":qt,"stroke-dashoffset":{f:lt,i:q},"stroke-dasharray":{f:function(t){var n=arguments.length>1&&void 0!==arguments[1]?arguments[1]:" ";return t&&t.length>0&&(t=t.map((function(t){return p(t,4)}))),ft(t,n)},i:function(t,n,r){var e,i,o,u=n.length,a=r.length;if(u!==a)if(0===u)n=V(u=a,0);else if(0===a)a=u,r=V(u,0);else{var l=(o=(e=u)*(i=a)/function(t,n){for(var r;n;)r=n,n=t%n,t=r;return t||1}(e,i))<0?-o:o;n=G(n,Math.floor(l/u)),r=G(r,Math.floor(l/a)),u=a=l}for(var f=[],s=0;s<u;s++)f.push(p(B(t,n[s],r[s])));return f}},opacity:Bt,transform:function(t,n,e,i){if(!(t=function(t,n){if(!t||"object"!==r(t))return null;var e=!1;for(var i in t)t.hasOwnProperty(i)&&(t[i]&&t[i].length?(t[i].forEach((function(t){t.e&&(t.e=n(t.e))})),e=!0):delete t[i]);return e?t:null}(t,i)))return null;var o=function(r,i,o){var u=arguments.length>3&&void 0!==arguments[3]?arguments[3]:null;return t[r]?e(i,t[r],o):n&&n[r]?n[r]:u};return n&&n.a&&t.o?function(n){var r=e(n,t.o,Rt);return Tt.recomposeSelf(r,o("r",n,q,0)+r.a,o("k",n,C),o("s",n,C),o("t",n,C)).toString()}:function(t){return Tt.recomposeSelf(o("o",t,It,null),o("r",t,q,0),o("k",t,C),o("s",t,C),o("t",t,C)).toString()}},r:qt,"#size":vt,"#radius":ht,_:function(t,n){if(Array.isArray(t))for(var r=0;r<t.length;r++)this[t[r]]=n;else this[t]=n}},Ut=function(t){!function(t,n){if("function"!=typeof n&&null!==n)throw new TypeError("Super expression must either be null or a function");t.prototype=Object.create(n&&n.prototype,{constructor:{value:t,writable:!0,configurable:!0}}),n&&l(t,n)}(u,t);var n,r,i=(n=u,r=f(),function(){var t,e=a(n);if(r){var i=a(this).constructor;t=Reflect.construct(e,arguments,i)}else t=e.apply(this,arguments);return c(this,t)});function u(){return e(this,u),i.apply(this,arguments)}return o(u,null,[{key:"build",value:function(t){var n=h(a(u),"build",this).call(this,t,$t);if(!n)return null;n.el,n.options,function(t,n,r){t.play()}(n.player)}}]),u}(at);return Ut.init(),Ut}));
(function(s,i,o,w,a,b){w[o]=w[o]||{};w[o][s]=w[o][s]||[];w[o][s].push(i);})('5c7f360c',{"root":"eeftBsn5Pd11","animations":[{"elements":{"eeftBsn5Pd13":{"transform":{"data":{"o":{"x":293.507111,"y":443.969803,"type":"corner"},"t":{"x":-293.507111,"y":-443.969803}},"keys":{"r":[{"t":0,"v":0},{"t":800,"v":2.487435},{"t":1800,"v":1.229912},{"t":3000,"v":0}]}}},"eeftBsn5Pd123":{"transform":{"data":{"o":{"x":287.632997,"y":372.29404,"type":"corner"},"t":{"x":-284.188333,"y":-366.98853}},"keys":{"r":[{"t":0,"v":0},{"t":800,"v":2.337308},{"t":1800,"v":-13.338592},{"t":3000,"v":0}]}}},"eeftBsn5Pd124":{"transform":{"data":{"o":{"x":282.809204,"y":453.743377,"type":"corner"},"t":{"x":-282.809204,"y":-453.743377}},"keys":{"r":[{"t":0,"v":0},{"t":800,"v":0.187608},{"t":1800,"v":-4.681339},{"t":3000,"v":0}]}}},"eeftBsn5Pd136":{"transform":{"data":{"o":{"x":347.570099,"y":391.835388,"type":"corner"},"t":{"x":-347.570099,"y":-391.835388}},"keys":{"r":[{"t":0,"v":0},{"t":800,"v":-3.665113},{"t":1800,"v":-1.403877},{"t":3000,"v":0}]}}},"eeftBsn5Pd139":{"transform":{"data":{"o":{"x":340.379364,"y":323.036621,"type":"corner"},"t":{"x":-340.379364,"y":-323.036621}},"keys":{"r":[{"t":0,"v":0},{"t":800,"v":2.662974},{"t":1800,"v":-3.110162},{"t":3000,"v":0}]}}},"eeftBsn5Pd142":{"transform":{"data":{"o":{"x":320.700027,"y":383.649994,"type":"corner"},"t":{"x":-320.700027,"y":-383.649994}},"keys":{"r":[{"t":0,"v":0},{"t":1100,"v":1.815247},{"t":1900,"v":0.125547},{"t":3000,"v":0}]}}},"eeftBsn5Pd143":{"transform":{"keys":{"o":[{"t":0,"v":{"x":-0.393376,"y":-0.593927,"type":"corner"}},{"t":1100,"v":{"x":-4.720507,"y":2.946453,"type":"corner"}},{"t":1800,"v":{"x":5.113882,"y":10.027213,"type":"corner"}},{"t":3000,"v":{"x":-0.395376,"y":-0.553396,"type":"corner"}}]}}},"eeftBsn5Pd144":{"transform":{"data":{"o":{"x":322.543518,"y":254.299996,"type":"corner"},"t":{"x":-322.543518,"y":-254.299996}},"keys":{"r":[{"t":0,"v":0},{"t":700,"v":12.724488},{"t":1600,"v":-7.313293},{"t":2400,"v":-1.882442},{"t":3000,"v":0}]}}},"eeftBsn5Pd148":{"transform":{"data":{"t":{"x":-518.000031,"y":-319.299988}},"keys":{"o":[{"t":0,"v":{"x":496.693328,"y":322.96093,"type":"corner"}},{"t":1200,"v":{"x":484.672564,"y":315.368869,"type":"cusp","end":{"x":486.249118,"y":308.512963}}},{"t":2100,"v":{"x":508.503204,"y":305.035231,"type":"cusp","start":{"x":499.194676,"y":304.657356}}},{"t":3000,"v":{"x":496.686511,"y":322.922152,"type":"corner"}}]}}},"eeftBsn5Pd154":{"transform":{"data":{"o":{"x":459.320536,"y":263.259859,"type":"corner"},"t":{"x":-482.500061,"y":-252.394455}},"keys":{"s":[{"t":0,"v":{"x":1,"y":1}},{"t":1200,"v":{"x":0.657987,"y":0.657987}},{"t":2100,"v":{"x":0.436796,"y":0.436796}},{"t":3000,"v":{"x":0.999297,"y":0.999297}}]}}},"eeftBsn5Pd156":{"transform":{"data":{"o":{"x":140.800003,"y":426.681229,"type":"corner"},"t":{"x":-140.800003,"y":-426.681229}},"keys":{"s":[{"t":0,"v":{"x":0.651678,"y":0.651678}},{"t":1200,"v":{"x":0.890786,"y":0.890786}},{"t":2300,"v":{"x":0.744395,"y":0.744395}},{"t":3000,"v":{"x":0.650149,"y":0.650149}}]}}},"eeftBsn5Pd158":{"transform":{"data":{"o":{"x":141.75,"y":358.034424,"type":"corner"},"t":{"x":-141.75,"y":-358.034424}},"keys":{"s":[{"t":0,"v":{"x":1,"y":1}},{"t":1100,"v":{"x":0.828256,"y":0.828256}},{"t":2100,"v":{"x":0.921855,"y":0.921855}},{"t":3000,"v":{"x":0.999474,"y":0.999474}}]}}},"eeftBsn5Pd161":{"transform":{"data":{"o":{"x":350.749969,"y":531.758575,"type":"corner"},"t":{"x":-350.749969,"y":-531.758575}},"keys":{"r":[{"t":0,"v":13.629333},{"t":1200,"v":5.858671},{"t":2100,"v":21.425803},{"t":3000,"v":13.63}]}}},"eeftBsn5Pd162":{"transform":{"data":{"t":{"x":-236.550003,"y":-289.700012}},"keys":{"o":[{"t":0,"v":{"x":236.550003,"y":289.700012,"type":"corner"}},{"t":800,"v":{"x":236.550003,"y":296.888651,"type":"corner"}},{"t":1800,"v":{"x":236.550003,"y":304.07729,"type":"corner"}},{"t":2300,"v":{"x":236.550003,"y":296.888651,"type":"corner"}},{"t":3000,"v":{"x":236.550003,"y":289.700012,"type":"corner"}}]}}},"eeftBsn5Pd169":{"transform":{"data":{"t":{"x":-228.800011,"y":-267.893738}},"keys":{"o":[{"t":0,"v":{"x":228.800011,"y":267.893738,"type":"corner"}},{"t":800,"v":{"x":228.800011,"y":273.64465,"type":"corner"}},{"t":1800,"v":{"x":228.800011,"y":280.833289,"type":"corner"}},{"t":2300,"v":{"x":228.800011,"y":273.64465,"type":"corner"}},{"t":3000,"v":{"x":228.800011,"y":266.456011,"type":"corner"}}]}}}},"s":"MJDA1M2M3NmViMGMxYmAVhZFljMGI1YmJiYTZElODY3ZjdjQTdjN2M3TODZlYjBiNWJlYjFhZSmMwYjVFYmJPYmE2ZTLg2N2Q3ODZlYjVjMGINxR2JlYWRjMGI1YmJiBYWJmUjZlODY3Yzc4NImViMlBiNWI4Yjg2ZTXg2N2Q3ODZlYWRiOGMNwYjFiZWJhYWRjMGIxENmU4NmIyYWRiOGJmWYWIxNzg2ZWJmWGJjYjPFiMUZiMDZlODY3ZGMR5"}],"options":"MLDAxMDg4MmZNODA4MVNI2ZTdmTjgxMmY0NzJDmNzk3YzZlNzFYMmY4SYQ|"},'__SVGATOR_PLAYER__',window)]]></script></svg>