<svg xmlns="http://www.w3.org/2000/svg" viewBox="0 0 121.56 73.67"><defs><style>.cls-1{fill:#fff;}</style></defs><title>jucepoxtan</title><g id="Capa_2" data-name="Capa 2"><g id="Capa_1-2" data-name="Capa 1"><path class="cls-1" d="M17.77,26.52a41.59,41.59,0,0,0-4.33-8.4q-1.69-2.57-3.52-5.76a1.48,1.48,0,0,0-1.08-.85.92.92,0,0,0-1,.51A1.48,1.48,0,0,0,8,13.65q2.84,4.47,4.2,6.77a41,41,0,0,1,4.47,9.68,1.42,1.42,0,0,1-.41,1.56A6.53,6.53,0,0,0,15.12,33q-4.06,5-6,7.59A63.26,63.26,0,0,0,5,46.9,37.5,37.5,0,0,0,.56,57.33a15.87,15.87,0,0,0-.2,7.52A4.1,4.1,0,0,0,5.17,68.3a9.28,9.28,0,0,0,5.15-2.44A27.81,27.81,0,0,0,17.7,54.42a44.55,44.55,0,0,0,2.71-14.15,26.7,26.7,0,0,0-.68-7A69.39,69.39,0,0,0,17.77,26.52ZM15.6,53.27a35.81,35.81,0,0,1-3.32,6.84,13.13,13.13,0,0,1-5.82,5.55,7.23,7.23,0,0,1-1.56.41q-2.17.2-2.57-2.51a15.58,15.58,0,0,1,.41-5.28,34.73,34.73,0,0,1,4.4-10.43,81.18,81.18,0,0,1,4.4-6.91q1.15-1.56,5-6.23a6.44,6.44,0,0,1,.95-.88,4.62,4.62,0,0,1,.14.58,4.26,4.26,0,0,0,.14.58l.34,4.2A40.25,40.25,0,0,1,15.6,53.27Z"/><path class="cls-1" d="M6.32,5.86A2.29,2.29,0,0,0,8.08,4.3,27.69,27.69,0,0,0,9.3,1.19.85.85,0,0,0,9,.24Q8-.43,7.27.78l-.41.88A9.78,9.78,0,0,1,5.64,4.37q-.34.27,0,.95A2.61,2.61,0,0,0,6.32,5.86Z"/><path class="cls-1" d="M32.33,47.51A17.22,17.22,0,0,1,30.63,42q-.14-.54-1-5.76-.14-1.08-1.08-.95a1.44,1.44,0,0,0-1.08.81l-.81,2.2-.74,2q-.27.61-.74,1.73t-.54,1.25l-.27-.07a10.52,10.52,0,0,1-.27-4.94s.07-.14.2-.27a1.93,1.93,0,0,0,.47-1.42,1.7,1.7,0,0,0-.47-1.35q-.81-.74-1.42,0a4.1,4.1,0,0,0-.54,1A14.12,14.12,0,0,0,22,38.1a12.31,12.31,0,0,0,.54,6,2,2,0,0,0,1.83,1.56,2,2,0,0,0,1.83-1.15,2.86,2.86,0,0,1,.3-.58l.37-.58q.61-1.56,1.29-3,.13.47.58,2.47T29.48,46a9.94,9.94,0,0,0,1.9,3.86.9.9,0,0,0,1.42.2,1,1,0,0,0,.37-.78,1.44,1.44,0,0,0-.24-.91Z"/><path class="cls-1" d="M37,9.25q-.95-.2-1.29.95a58.93,58.93,0,0,0-2,11.85q-.27,3-.41,6.16-.14,2.84-.14,8.53.07,2.64.34,7.92,0,.2.61,8,.07,1.22.27,3.62t.27,3.62q.07,1.15.07,3.45,0,1.42,1.08,1.42T37,63.43V63l-.2-3.39q-.07-.81-.2-2.3t-.24-2.71q-.1-1.22-.17-2.3-.27-3.79-.68-10.84-.27-5.69-.2-8.6t.41-9a73.12,73.12,0,0,1,1.35-10.56q.13-.41.34-1.29t.34-1.35Q37.95,9.45,37,9.25Z"/><path class="cls-1" d="M40.79,31.39q.81-.41.61-1t-.61-.71a.63.63,0,0,0-.64.24.76.76,0,0,0-.17.64,1.66,1.66,0,0,0,.34.61C40.5,31.35,40.66,31.44,40.79,31.39Z"/><path class="cls-1" d="M47.56,32.75a2.78,2.78,0,0,0-1.49,0q-1.42.54-2,2.84c-.17.66-.29,1.3-.38,1.93-.43,1.42-.88,2.73-1.34,3.9a8.48,8.48,0,0,1-.3.88q-.24.61-.41,1.08t-.37,1a2.78,2.78,0,0,1-.47.81.72.72,0,0,1-.47.3q-.47,0-.61-1.12a15.3,15.3,0,0,1,0-2.74q.1-1.63.27-3a22.23,22.23,0,0,1,.37-2.3,2.29,2.29,0,0,1,.07-.44,3.09,3.09,0,0,1,.14-.47,1.88,1.88,0,0,0,.1-.44c0-.18,0-.34.07-.47a2.49,2.49,0,0,0,0-.41,1,1,0,0,0-.07-.37l-.14-.3a.68.68,0,0,0-.2-.24A.55.55,0,0,0,40,33q-1.08-.13-1.56,3.39-.41,3-.54,4.47-.47,6.91,2.1,6.91a1.53,1.53,0,0,0,.95-.37,5,5,0,0,0,.85-.85,8.83,8.83,0,0,0,.78-1.22,12.16,12.16,0,0,0,.61-1.25l.47-1.18,0,0c.36,2.95,1.34,3.85,3,2.69a7.76,7.76,0,0,0,3.18-6.7A15,15,0,0,0,49.29,35Q48.78,33.09,47.56,32.75Zm-.07,8.33q-.14.34-.27.71a9.92,9.92,0,0,1-.44,1,2.94,2.94,0,0,1-.61.88.42.42,0,0,1-.58.07.39.39,0,0,1-.07-.27,10.64,10.64,0,0,1-.07-3.66q.2-2.57.27-3a2.57,2.57,0,0,1,.88-1.52q.61-.44,1.29.71a1.1,1.1,0,0,1,.14.47A9.24,9.24,0,0,1,47.5,41.08Z"/><path class="cls-1" d="M78.92,21.88c.32-.7.52-1.16.61-1.39L80,19.17q.37-1,.51-1.42l.41-1.32A6.55,6.55,0,0,0,81.25,15c0-.38.07-.83.14-1.35a5.55,5.55,0,0,0,0-1.49q-.1-.71-.24-1.39Q79.93,5.66,74.72,6.4a12.78,12.78,0,0,0-4.74,2q-.88.54-1.08.47t-.27-1.15a1.72,1.72,0,0,0-.3-.85.71.71,0,0,0-.71-.24q-.95.07-.81,1.29a4.05,4.05,0,0,1-1.15,3.79,35.3,35.3,0,0,0-6,7.18,18.87,18.87,0,0,0-3.22,7.72,9,9,0,0,0-.27,2.88q.14,1,1,1,1.08,0,1.08-2.44a17,17,0,0,1,.88-3.89,17.64,17.64,0,0,1,2.13-4.06q1.46-2.13,2.23-3.15t2.74-3.39l.41-.2a.46.46,0,0,1,.14.34v3.18L66,39.93a11.47,11.47,0,0,1-.27,3.32,20.39,20.39,0,0,1-1.08,2.23q-.61,1.08-1.46,2.34l-1.32,1.93q-.47.68-1.66,2.24t-1.46,2a1,1,0,0,0,0,1q.61.74,1.22.2a3.92,3.92,0,0,0,.74-.68q.81-1.15,4.61-6.77l.41-.41a2.16,2.16,0,0,1,.14.61q-.68,21.6-.95,24.85a.87.87,0,0,0,.3.68.73.73,0,0,0,.64.2q.95-.07.95-1.15.27-4.61.47-13.78t.47-13.78a6.74,6.74,0,0,1,.47-2.3A15.55,15.55,0,0,1,69,41.21l.81-1.42q.68-1.29,2.2-4t2.4-4.3q.88-1.59,2-4t2-4.4Q78.44,22.93,78.92,21.88Zm-6.57,9.38q-.61,1.15-1.9,3.52t-1.9,3.59c0,.09-.2.34-.47.74h-.2V36.95q0-1.56.14-4.81t.14-4.81l.41-10.7q0-.54,0-2.13t.1-2.47a2.14,2.14,0,0,1,.88-1.35,10.44,10.44,0,0,1,2.23-1.42q3.59-1.42,5.22-1t2.44,3.18a14.41,14.41,0,0,1-.75,6.23A129.2,129.2,0,0,1,72.35,31.26Z"/><path class="cls-1" d="M82.68,35q-.51-1.93-1.73-2.27a2.78,2.78,0,0,0-1.49,0q-1.42.54-2,2.84a17.68,17.68,0,0,0-.58,4.27q0,7.92,3.11,5.69a7.76,7.76,0,0,0,3.18-6.7A15,15,0,0,0,82.68,35Zm-1.79,6.06q-.14.34-.27.71a10.16,10.16,0,0,1-.44,1,2.94,2.94,0,0,1-.61.88.42.42,0,0,1-.58.07.39.39,0,0,1-.07-.27,10.64,10.64,0,0,1-.07-3.66q.2-2.57.27-3A2.57,2.57,0,0,1,80,35.22q.61-.44,1.29.71a1.1,1.1,0,0,1,.14.47A9.24,9.24,0,0,1,80.88,41.08Z"/><path class="cls-1" d="M92.43,33.7a1,1,0,0,0-1.32.27q-1.42,1.62-3,3.72-.48.54-.88,0a15.53,15.53,0,0,0-1.32-2.07,3.72,3.72,0,0,0-1.59-1.46q-.68-.34-.68,1.29A2.67,2.67,0,0,0,84,36.71a9.54,9.54,0,0,0,.95,1.42,8.44,8.44,0,0,1,.74,1,2.8,2.8,0,0,1,.54,1.08,2.66,2.66,0,0,1-.61,1.08q-3.39,4.4-2.37,4.81A1.15,1.15,0,0,0,84.74,46q.2-.2,2.3-3.25a4,4,0,0,1,.31-.37.25.25,0,0,1,.41,0,4.14,4.14,0,0,1,.31.37q.34.47.88,1.39a10.65,10.65,0,0,0,.88,1.32q.47.75,1.08.61,1.56-.47.54-2Q90.7,43,89.21,40.67a.88.88,0,0,1,.07-1.08q.27-.34,1.18-1.32T92,36.44a5,5,0,0,0,.85-1.52A1,1,0,0,0,92.43,33.7Z"/><path class="cls-1" d="M100.45,23.2Q104,22,106.68,21.3a1.48,1.48,0,0,0,.47-.41,1,1,0,0,0-.07-1,1.12,1.12,0,0,0-1.08-.24q-1,.27-2.88.88t-3,.88c-.27,0-.44,0-.51,0s-.08-.24,0-.51a10.48,10.48,0,0,0,.2-1.22q.13-1,.37-2.2t.44-2q.2-.68-.61-.68a1.2,1.2,0,0,0-1.35.95q-1.08,4.4-1.29,5.69a.9.9,0,0,1-.68.74l-3.62,1q-2.47.71-4,1a.86.86,0,0,0-.68.58.69.69,0,0,0,.27.78,1.36,1.36,0,0,0,1.35.27l6-1.63a.2.2,0,0,0,.14-.07q.68-.13.61.61-.27,3.18-.54,8.63T95.64,48.9a162.57,162.57,0,0,0,.41,17q0,1.49,1,1.49.81,0,.81-1.69a148.46,148.46,0,0,1-.17-16.86q.37-10.09.71-15.47t.68-8.7A1.78,1.78,0,0,1,100.45,23.2Z"/><path class="cls-1" d="M109.26,42.84q-.54-4.27-.75-6.84-.27-2.3-.47-3.45a1.07,1.07,0,0,0-1.15-1.08q-.81-.07-1.22,1.08a7.8,7.8,0,0,0-.34,1.29c-.14.54-.28.86-.44.95a3.92,3.92,0,0,1-1.39.14,3.59,3.59,0,0,0-2.17,1,4.93,4.93,0,0,0-2.1,3.93A3.43,3.43,0,0,0,101,43.31a2.65,2.65,0,0,0,1.83.3,2,2,0,0,0,1.49-1,12.52,12.52,0,0,0,.61-1.15q.54-1.08.88-1.63c0-.09.25-.2.61-.34.09,0,.2.16.34.47l.14,1.15q.13.68.37,2.1t.37,2.17a1.05,1.05,0,0,0,.51.81,1,1,0,0,0,.85.14,1.14,1.14,0,0,0,.74-1.49A11.88,11.88,0,0,1,109.26,42.84Zm-4.94-5.15q-.95,2.57-1.22,3.11-.27,1.08-1,.81t-.85-1.25a3.47,3.47,0,0,1,.64-2.07A2.93,2.93,0,0,1,103.57,37a.82.82,0,0,1,.74.07Q104.45,37.22,104.31,37.69Z"/><path class="cls-1" d="M121.55,37.42a.78.78,0,0,0-.14-.34l-.17-.2H121q-.27-.07-.64.3a3,3,0,0,0-.64,1.19q-.81,3.39-1.35,3.45-.2,0-.2-1.56a34.15,34.15,0,0,0-.14-3.59q-.07-1.35-1.63-1.35-.75,0-1.66,1.19a13.31,13.31,0,0,0-1.46,2.3,7.15,7.15,0,0,0-.54,1.25.23.23,0,0,1-.17.07c-.07,0-.13,0-.17-.14a4.06,4.06,0,0,0-.07-.88,20.31,20.31,0,0,0-.34-2.84,1,1,0,0,0-.37-.58.67.67,0,0,0-.58-.17,1.73,1.73,0,0,0-.81.41.78.78,0,0,0-.34.75l.61,5.35q.07.95.17,2.71t.17,2.71a.84.84,0,0,0,.95.95q.81,0,.95-.95c0-.23.09-.61.14-1.15a11.24,11.24,0,0,1,.14-1.15,14.59,14.59,0,0,1,.54-2.23,18.23,18.23,0,0,1,2-4.4.57.57,0,0,1,.47-.34q.34,0,.34.81v1.9c0,.27,0,.63,0,1.08s0,.79,0,1q.27,2.71,1,2.71a1.22,1.22,0,0,0,1.15-.47,5.78,5.78,0,0,0,1.15-1.9q.61-1.49,1.69-4.61a3.55,3.55,0,0,0,.17-.75A2.17,2.17,0,0,0,121.55,37.42Z"/></g></g></svg>