<?xml version="1.0" encoding="UTF-8"?>
<svg width="92px" height="44px" viewBox="0 0 92 44" version="1.1" xmlns="http://www.w3.org/2000/svg" xmlns:xlink="http://www.w3.org/1999/xlink">
    <!-- Generator: Sketch 63.1 (92452) - https://sketch.com -->
    <title>JulioC.Poxtan</title>
    <desc>Created with Sketch.</desc>
    <g id="CV" stroke="none" stroke-width="1" fill="none" fill-rule="evenodd">
        <path d="M3.9775,4.26 C4.4715,4.156 4.8095,3.857 4.9915,3.363 C5.2775,2.739 5.5115,2.141 5.6935,1.569 C5.7455,1.335 5.6805,1.153 5.4985,1.023 C5.1345,0.763 4.8095,0.867 4.5235,1.335 L4.5235,1.335 L4.2895,1.842 C3.9775,2.726 3.7435,3.246 3.5875,3.402 C3.4575,3.506 3.4575,3.688 3.5875,3.948 C3.6135,4 3.7435,4.104 3.9775,4.26 Z M0.5455,38.229 C0.9095,39.685 1.8325,40.348 3.3145,40.218 C4.2765,40.14 5.2645,39.672 6.2785,38.814 C8.0725,37.228 9.4895,35.031 10.5295,32.223 C11.4655,29.727 11.9855,27.01 12.0895,24.072 C12.1415,22.772 12.0115,21.433 11.6995,20.055 C11.4395,18.911 11.0625,17.611 10.5685,16.155 C10.1525,14.907 9.3205,13.295 8.0725,11.319 C7.4225,10.331 6.7465,9.226 6.0445,8.004 C5.8885,7.718 5.6805,7.5555 5.4205,7.5165 C5.1605,7.4775 4.9655,7.575 4.8355,7.809 C4.6795,8.069 4.7185,8.381 4.9525,8.745 C6.0445,10.461 6.8505,11.761 7.3705,12.645 C8.5405,14.543 9.3985,16.402 9.9445,18.222 C10.0485,18.586 9.9705,18.885 9.7105,19.119 C9.4505,19.353 9.2295,19.613 9.0475,19.899 C7.4875,21.823 6.3435,23.279 5.6155,24.267 C4.8355,25.281 4.0295,26.49 3.1975,27.894 C2.0275,29.818 1.1825,31.82 0.6625,33.9 C0.2725,35.564 0.2335,37.007 0.5455,38.229 Z M3.1585,38.931 C2.3265,39.009 1.8325,38.528 1.6765,37.488 C1.5725,36.578 1.6505,35.564 1.9105,34.446 C2.3265,32.548 3.1715,30.546 4.4455,28.44 C5.3295,26.906 6.1745,25.58 6.9805,24.462 C7.4225,23.864 8.3845,22.668 9.8665,20.874 C9.9705,20.744 10.1525,20.575 10.4125,20.367 C10.4385,20.445 10.4645,20.5555 10.4905,20.6985 L10.51,20.7996562 C10.5295,20.8947187 10.549,20.9715 10.5685,21.03 L10.5685,21.03 L10.7635,23.448 C10.7115,26.542 10.2305,29.246 9.3205,31.56 C8.7485,33.094 8.1115,34.407 7.4095,35.499 C6.4735,37.059 5.3555,38.125 4.0555,38.697 C3.7955,38.801 3.4965,38.879 3.1585,38.931 Z M18.4075,29.571 C18.6415,29.883 18.9145,29.922 19.2265,29.688 C19.3565,29.584 19.428,29.4345 19.441,29.2395 C19.454,29.0445 19.4085,28.869 19.3045,28.713 L19.3045,28.713 L18.9535,28.245 C18.5635,27.595 18.2385,26.529 17.9785,25.047 C17.9265,24.839 17.7315,23.734 17.3935,21.732 C17.3415,21.316 17.1335,21.134 16.7695,21.186 C16.4835,21.238 16.2755,21.394 16.1455,21.654 C16.0415,21.94 15.8855,22.3625 15.6775,22.9215 C15.4695,23.4805 15.3265,23.864 15.2485,24.072 C15.1445,24.306 15.0015,24.6375 14.8195,25.0665 C14.6375,25.4955 14.5335,25.736 14.5075,25.788 L14.5075,25.788 L14.3515,25.749 C14.0915,25.073 14.0395,24.124 14.1955,22.902 C14.1955,22.876 14.2345,22.824 14.3125,22.746 C14.4945,22.564 14.5855,22.291 14.5855,21.927 C14.5855,21.563 14.4945,21.303 14.3125,21.147 C14.0005,20.861 13.7275,20.861 13.4935,21.147 C13.3895,21.277 13.2855,21.472 13.1815,21.732 C13.0775,22.174 13.0125,22.538 12.9865,22.824 C12.8305,24.28 12.9345,25.437 13.2985,26.295 C13.5065,26.867 13.8575,27.166 14.3515,27.192 C14.7675,27.218 15.1185,26.997 15.4045,26.529 C15.4305,26.451 15.489,26.3405 15.58,26.1975 C15.671,26.0545 15.7425,25.944 15.7945,25.866 C16.0285,25.268 16.2755,24.696 16.5355,24.15 C16.5875,24.332 16.698,24.8065 16.867,25.5735 C17.036,26.3405 17.1855,26.932 17.3155,27.348 C17.5235,28.18 17.8875,28.921 18.4075,29.571 Z M20.9815,38.19 C21.3715,38.19 21.5925,37.93 21.6445,37.41 L21.6445,37.41 L21.6445,37.176 L21.5275,35.226 C21.5015,34.914 21.4625,34.472 21.4105,33.9 C21.3585,33.328 21.313,32.808 21.274,32.34 C21.235,31.872 21.2025,31.43 21.1765,31.014 C21.0725,29.558 20.9425,27.478 20.7865,24.774 C20.6825,22.59 20.6435,20.939 20.6695,19.821 C20.6695,18.651 20.7475,16.922 20.9035,14.634 C21.0335,12.45 21.2935,10.422 21.6835,8.55 C21.7355,8.394 21.8005,8.147 21.8785,7.809 C21.9565,7.471 22.0215,7.211 22.0735,7.029 C22.1515,6.561 22.0085,6.288 21.6445,6.21 C21.2805,6.132 21.0335,6.314 20.9035,6.756 C20.3835,8.472 20.0065,10.747 19.7725,13.581 C19.6685,14.751 19.5905,15.934 19.5385,17.13 C19.4865,18.222 19.4605,19.86 19.4605,22.044 C19.4865,23.058 19.5515,24.579 19.6555,26.607 C19.6555,26.685 19.7725,28.219 20.0065,31.209 C20.0325,31.677 20.0845,32.3725 20.1625,33.2955 L20.187537,33.5947407 C20.2517346,34.3702469 20.2953889,34.966 20.3185,35.382 C20.3445,35.824 20.3575,36.487 20.3575,37.371 C20.3575,37.917 20.5655,38.19 20.9815,38.19 Z M23.78014,18.96924 L23.8285,18.963 C24.1405,18.807 24.2575,18.6055 24.1795,18.3585 C24.1015,18.1115 23.9845,17.975 23.8285,17.949 C23.6725,17.923 23.549,17.9685 23.458,18.0855 C23.367,18.2025 23.3345,18.326 23.3605,18.456 C23.3865,18.56 23.4515,18.677 23.5555,18.807 C23.6595,18.937 23.7505,18.989 23.8285,18.963 L23.78014,18.96924 Z M23.3605,28.401 C23.5425,28.401 23.7245,28.3295 23.9065,28.1865 C24.0885,28.0435 24.251,27.881 24.394,27.699 C24.537,27.517 24.6865,27.283 24.8425,26.997 C24.9985,26.711 25.1155,26.4705 25.1935,26.2755 C25.2715,26.0805 25.3625,25.853 25.4665,25.593 C25.5705,25.333 25.6355,25.177 25.6615,25.125 C25.9735,24.371 26.2205,23.526 26.4025,22.59 L26.4025,22.59 L26.5195,22.044 C26.5715,21.784 26.474,21.6085 26.227,21.5175 C25.98,21.4265 25.8045,21.511 25.7005,21.771 L25.7005,21.771 L25.7005,21.81 C25.3885,22.902 25.0635,23.877 24.7255,24.735 C24.6995,24.839 24.641,25.008 24.55,25.242 C24.459,25.476 24.381,25.684 24.316,25.866 C24.251,26.048 24.1795,26.2365 24.1015,26.4315 C24.0235,26.6265 23.9325,26.7825 23.8285,26.8995 C23.7245,27.0165 23.6335,27.075 23.5555,27.075 C23.3735,27.075 23.2565,26.8605 23.2045,26.4315 C23.1525,26.0025 23.146,25.476 23.185,24.852 C23.224,24.228 23.276,23.643 23.341,23.097 C23.406,22.551 23.4775,22.109 23.5555,21.771 C23.5555,21.719 23.5685,21.6345 23.5945,21.5175 C23.6205,21.4005 23.6465,21.3095 23.6725,21.2445 C23.6985,21.1795 23.718,21.095 23.731,20.991 C23.744,20.887 23.757,20.796 23.77,20.718 C23.783,20.64 23.7895,20.562 23.7895,20.484 C23.7895,20.406 23.7765,20.3345 23.7505,20.2695 C23.7245,20.2045 23.6985,20.146 23.6725,20.094 C23.6465,20.042 23.6075,19.9965 23.5555,19.9575 C23.5035,19.9185 23.4385,19.899 23.3605,19.899 C22.9445,19.847 22.6455,20.497 22.4635,21.849 C22.3075,22.993 22.2035,23.851 22.1515,24.423 C21.9695,27.075 22.3725,28.401 23.3605,28.401 Z M26.6365,23.838 C26.6365,26.88 27.2345,27.972 28.4305,27.114 C29.6525,26.23 30.2635,24.943 30.2635,23.253 C30.2635,22.525 30.166,21.7905 29.971,21.0495 C29.776,20.3085 29.4445,19.873 28.9765,19.743 C28.6645,19.665 28.3785,19.665 28.1185,19.743 C27.5725,19.951 27.189,20.497 26.968,21.381 C26.747,22.265 26.6365,23.084 26.6365,23.838 Z M28.177,26.022 C28.06,26.126 27.9495,26.139 27.8455,26.061 C27.8195,26.035 27.8065,25.983 27.8065,25.905 C27.6765,25.359 27.6635,24.657 27.7675,23.799 C27.8455,22.811 27.8975,22.226 27.9235,22.044 C28.0275,21.628 28.1965,21.3355 28.4305,21.1665 C28.6645,20.9975 28.9115,21.134 29.1715,21.576 C29.2235,21.68 29.2495,21.771 29.2495,21.849 C29.3795,22.759 29.2755,23.656 28.9375,24.54 C28.8855,24.67 28.8335,24.8065 28.7815,24.9495 C28.7295,25.0925 28.645,25.281 28.528,25.515 C28.411,25.749 28.294,25.918 28.177,26.022 Z M36.8545,35.811 C37.7905,36.773 38.7135,36.76 39.6235,35.772 C40.2475,35.07 40.6765,34.264 40.9105,33.354 C41.1965,32.392 41.6515,30.728 42.2755,28.362 C42.3275,28.154 42.3795,27.933 42.4315,27.699 C42.4835,27.465 42.542,27.205 42.607,26.919 C42.672,26.633 42.7175,26.412 42.7435,26.256 C42.9775,25.164 43.1595,24.254 43.2895,23.526 C43.3155,23.344 43.283,23.1815 43.192,23.0385 C43.101,22.8955 42.9775,22.811 42.8215,22.785 C42.4315,22.733 42.1975,22.928 42.1195,23.37 C42.0675,23.604 41.996,23.942 41.905,24.384 C41.814,24.826 41.7425,25.151 41.6905,25.359 C40.7805,29.337 40.1175,31.911 39.7015,33.081 C39.4155,33.991 39.0515,34.654 38.6095,35.07 C38.3235,35.304 38.0635,35.304 37.8295,35.07 C37.6215,34.862 37.4395,34.641 37.2835,34.407 C36.6075,33.315 36.0745,31.755 35.6845,29.727 C35.3465,27.933 35.2165,26.23 35.2945,24.618 C35.4245,22.486 35.5155,21.225 35.5675,20.835 C35.8795,18.651 36.5035,16.571 37.4395,14.595 C38.1935,12.983 38.9995,11.917 39.8575,11.397 C40.3775,11.085 40.8195,11.176 41.1835,11.67 C41.5475,12.216 41.7425,12.736 41.7685,13.23 C41.7945,13.828 41.8075,14.751 41.8075,15.999 C41.8075,16.441 41.9765,16.688 42.3145,16.74 C42.4445,16.766 42.581,16.714 42.724,16.584 C42.867,16.454 42.9515,16.311 42.9775,16.155 C43.1855,13.971 42.9515,12.32 42.2755,11.202 C41.5215,9.902 40.5205,9.616 39.2725,10.344 C38.2845,10.916 37.5825,11.696 37.1665,12.684 C37.0625,12.918 36.8675,13.2755 36.5815,13.7565 C36.2955,14.2375 36.0875,14.608 35.9575,14.868 C35.3595,16.22 34.8915,17.806 34.5535,19.626 C34.2675,21.03 34.0985,22.733 34.0465,24.735 C34.0465,27.725 34.4235,30.351 35.1775,32.613 C35.6455,34.043 36.2045,35.109 36.8545,35.811 Z M44.1475,29.727 C44.5895,29.883 44.9925,29.7985 45.3565,29.4735 C45.7205,29.1485 45.9155,28.752 45.9415,28.284 C45.8895,27.53 45.5385,26.945 44.8885,26.529 C44.7585,26.477 44.5895,26.464 44.3815,26.49 C44.1735,26.516 44.0435,26.568 43.9915,26.646 C43.6795,27.166 43.4585,27.725 43.3285,28.323 C43.2505,28.609 43.3025,28.8885 43.4845,29.1615 C43.6665,29.4345 43.8875,29.623 44.1475,29.727 Z M55.22428,43.3068 L55.3015,43.299 C55.6655,43.273 55.8475,43.052 55.8475,42.636 C55.9515,40.868 56.0425,38.2225 56.1205,34.6995 L56.1317313,34.2021837 C56.2071961,30.9265374 56.2944524,28.4468095 56.3935,26.763 C56.3935,26.373 56.4845,25.931 56.6665,25.437 C56.7445,25.255 56.8875,24.982 57.0955,24.618 C57.3035,24.254 57.4595,23.981 57.5635,23.799 C57.8235,23.305 58.246,22.538 58.831,21.498 C59.416,20.458 59.8775,19.6325 60.2155,19.0215 C60.5535,18.4105 60.9435,17.65 61.3855,16.74 C61.8275,15.83 62.2045,14.985 62.5165,14.205 C62.5425,14.127 62.6465,13.8865 62.8285,13.4835 C63.0105,13.0805 63.1275,12.814 63.1795,12.684 C63.2315,12.554 63.329,12.3005 63.472,11.9235 C63.615,11.5465 63.7125,11.2735 63.7645,11.1045 C63.8165,10.9355 63.8945,10.682 63.9985,10.344 C64.1025,10.006 64.161,9.7265 64.174,9.5055 C64.187,9.2845 64.213,9.0245 64.252,8.7255 C64.291,8.4265 64.291,8.1405 64.252,7.8675 C64.213,7.5945 64.1675,7.328 64.1155,7.068 C63.6475,5.118 62.4125,4.286 60.4105,4.572 C59.5785,4.702 58.6685,5.079 57.6805,5.703 C57.3425,5.911 57.1345,6.002 57.0565,5.976 C56.9785,5.95 56.9265,5.729 56.9005,5.313 C56.8745,5.105 56.816,4.9425 56.725,4.8255 C56.634,4.7085 56.4975,4.663 56.3155,4.689 C55.9515,4.715 55.7955,4.962 55.8475,5.43 C55.9775,6.366 55.7565,7.094 55.1845,7.614 C53.9625,8.706 52.812,10.084 51.733,11.748 C50.654,13.412 50.0365,14.894 49.8805,16.194 C49.7245,16.922 49.6725,17.4745 49.7245,17.8515 C49.7765,18.2285 49.9715,18.417 50.3095,18.417 C50.7255,18.417 50.9335,17.949 50.9335,17.013 C51.0115,16.259 51.1805,15.5115 51.4405,14.7705 C51.7005,14.0295 52.11,13.2495 52.669,12.4305 C53.228,11.6115 53.657,11.007 53.956,10.617 C54.255,10.227 54.7815,9.577 55.5355,8.667 L55.5355,8.667 L55.7695,8.55 C55.8215,8.602 55.8475,8.667 55.8475,8.745 L55.8475,8.745 L55.8475,10.578 L55.3795,23.877 C55.3795,24.917 55.3275,25.554 55.2235,25.788 C55.0415,26.23 54.8335,26.659 54.5995,27.075 C54.3655,27.491 54.086,27.9395 53.761,28.4205 C53.436,28.9015 53.1825,29.272 53.0005,29.532 C52.8185,29.792 52.5,30.221 52.045,30.819 C51.59,31.417 51.3105,31.794 51.2065,31.95 C51.1025,32.106 51.1025,32.301 51.2065,32.535 C51.4405,32.821 51.6745,32.86 51.9085,32.652 C52.1165,32.496 52.2595,32.366 52.3375,32.262 C52.6495,31.82 53.5335,30.52 54.9895,28.362 L54.9895,28.362 L55.2235,28.128 C55.2755,28.284 55.3015,28.401 55.3015,28.479 C55.0415,36.773 54.8595,41.544 54.7555,42.792 C54.7555,42.948 54.814,43.078 54.931,43.182 C55.048,43.286 55.1715,43.325 55.3015,43.299 L55.22428,43.3068 Z M56.5885,23.409 L56.4715,23.409 L56.4715,22.161 C56.4715,21.563 56.4975,20.64 56.5495,19.392 C56.6015,18.144 56.6275,17.221 56.6275,16.623 L56.6275,16.623 L56.8615,10.461 C56.8615,10.253 56.868,9.8435 56.881,9.2325 C56.894,8.6215 56.9135,8.147 56.9395,7.809 C56.9655,7.549 57.1345,7.289 57.4465,7.029 C57.9405,6.639 58.3695,6.366 58.7335,6.21 C60.1115,5.664 61.1125,5.469 61.7365,5.625 C62.4125,5.807 62.8805,6.418 63.1405,7.458 C63.2965,8.342 63.1535,9.538 62.7115,11.046 C62.2175,12.476 60.9955,15.089 59.0455,18.885 C58.8115,19.327 58.4475,20.003 57.9535,20.913 C57.4595,21.823 57.0955,22.512 56.8615,22.98 C56.8355,23.032 56.7445,23.175 56.5885,23.409 L56.5885,23.409 Z M64.3885,23.838 C64.3885,26.88 64.9865,27.972 66.1825,27.114 C67.4045,26.23 68.0155,24.943 68.0155,23.253 C68.0155,22.525 67.918,21.7905 67.723,21.0495 C67.528,20.3085 67.1965,19.873 66.7285,19.743 C66.4165,19.665 66.1305,19.665 65.8705,19.743 C65.3245,19.951 64.941,20.497 64.72,21.381 C64.499,22.265 64.3885,23.084 64.3885,23.838 Z M65.929,26.022 C65.812,26.126 65.7015,26.139 65.5975,26.061 C65.5715,26.035 65.5585,25.983 65.5585,25.905 C65.4285,25.359 65.4155,24.657 65.5195,23.799 C65.5975,22.811 65.6495,22.226 65.6755,22.044 C65.7795,21.628 65.9485,21.3355 66.1825,21.1665 C66.4165,20.9975 66.6635,21.134 66.9235,21.576 C66.9755,21.68 67.0015,21.771 67.0015,21.849 C67.1315,22.759 67.0275,23.656 66.6895,24.54 C66.6375,24.67 66.5855,24.8065 66.5335,24.9495 C66.4815,25.0925 66.397,25.281 66.28,25.515 C66.163,25.749 66.046,25.918 65.929,26.022 Z M68.0545,27.465 C68.3925,27.647 68.6785,27.621 68.9125,27.387 C68.9905,27.309 69.4325,26.685 70.2385,25.515 C70.3165,25.411 70.375,25.3395 70.414,25.3005 C70.453,25.2615 70.492,25.242 70.531,25.242 C70.57,25.242 70.609,25.2615 70.648,25.3005 C70.687,25.3395 70.7455,25.411 70.8235,25.515 C70.9535,25.697 71.1225,25.9635 71.3305,26.3145 C71.5385,26.6655 71.7075,26.919 71.8375,27.075 C72.0195,27.361 72.2275,27.478 72.4615,27.426 C73.0595,27.244 73.1635,26.854 72.7735,26.256 C72.4875,25.84 72.0585,25.19 71.4865,24.306 C71.3565,24.098 71.3695,23.89 71.5255,23.682 C71.6295,23.552 71.857,23.2985 72.208,22.9215 C72.559,22.5445 72.858,22.1935 73.105,21.8685 C73.352,21.5435 73.5145,21.251 73.5925,20.991 C73.6705,20.679 73.586,20.445 73.339,20.289 C73.092,20.133 72.8385,20.185 72.5785,20.445 C72.0325,21.069 71.4605,21.784 70.8625,22.59 C70.6805,22.798 70.5115,22.798 70.3555,22.59 C70.1995,22.278 69.946,21.8815 69.595,21.4005 C69.244,20.9195 68.9385,20.64 68.6785,20.562 C68.4185,20.432 68.2885,20.679 68.2885,21.303 C68.2885,21.537 68.3535,21.7775 68.4835,22.0245 C68.6135,22.2715 68.7955,22.5445 69.0295,22.8435 C69.2635,23.1425 69.4065,23.344 69.4585,23.448 C69.6665,23.76 69.7705,23.968 69.7705,24.072 C69.7705,24.176 69.6535,24.384 69.4195,24.696 C68.1195,26.386 67.6645,27.309 68.0545,27.465 Z M76.0105,39.711 C76.3225,39.711 76.4785,39.386 76.4785,38.736 C76.2705,36.136 76.238,32.899 76.381,29.025 C76.524,25.151 76.6605,22.1805 76.7905,20.1135 C76.9205,18.0465 77.0505,16.376 77.1805,15.102 C77.2585,14.66 77.5185,14.374 77.9605,14.244 C79.3385,13.802 80.5345,13.438 81.5485,13.152 C81.6785,13.074 81.7695,12.996 81.8215,12.918 C81.9255,12.658 81.9125,12.4565 81.7825,12.3135 C81.6525,12.1705 81.4445,12.125 81.1585,12.177 C80.7685,12.281 80.216,12.45 79.501,12.684 C78.786,12.918 78.2075,13.087 77.7655,13.191 C77.6095,13.217 77.512,13.2105 77.473,13.1715 C77.434,13.1325 77.4275,13.035 77.4535,12.879 C77.4795,12.801 77.5185,12.567 77.5705,12.177 C77.6225,11.787 77.694,11.3645 77.785,10.9095 C77.876,10.4545 77.9605,10.071 78.0385,9.759 C78.1165,9.499 77.9995,9.369 77.6875,9.369 C77.2455,9.369 76.9855,9.551 76.9075,9.915 C76.4915,11.605 76.2445,12.697 76.1665,13.191 C76.1145,13.425 75.9845,13.568 75.7765,13.62 C75.3345,13.75 74.639,13.9515 73.69,14.2245 C72.741,14.4975 71.9675,14.699 71.3695,14.829 C71.1615,14.881 71.0315,14.9915 70.9795,15.1605 C70.9275,15.3295 70.9795,15.479 71.1355,15.609 C71.3175,15.791 71.5775,15.843 71.9155,15.765 L71.9155,15.765 L75.3475,14.829 C75.3735,14.829 75.3995,14.816 75.4255,14.79 C75.6855,14.738 75.8025,14.855 75.7765,15.141 C75.6725,16.363 75.5685,18.0205 75.4645,20.1135 C75.3605,22.2065 75.2695,25.1835 75.1915,29.0445 C75.1135,32.9055 75.1915,36.175 75.4255,38.853 C75.4255,39.425 75.6205,39.711 76.0105,39.711 Z M83.557,27.504 C83.726,27.608 83.8885,27.634 84.0445,27.582 C84.4345,27.426 84.5775,27.14 84.4735,26.724 C84.3175,26.204 84.2265,25.814 84.2005,25.554 C83.9925,23.916 83.8495,22.603 83.7715,21.615 C83.6675,20.731 83.5765,20.068 83.4985,19.626 C83.4465,19.21 83.2255,19.002 82.8355,19.002 C82.5235,18.976 82.2895,19.184 82.1335,19.626 C82.0295,19.938 81.9645,20.185 81.9385,20.367 C81.8605,20.679 81.776,20.861 81.685,20.913 C81.594,20.965 81.3275,20.991 80.8855,20.991 C80.5215,20.991 80.1055,21.186 79.6375,21.576 C78.8835,22.122 78.4805,22.876 78.4285,23.838 C78.3765,24.748 78.7145,25.411 79.4425,25.827 C79.7545,26.009 80.1055,26.0675 80.4955,26.0025 C80.8855,25.9375 81.1715,25.749 81.3535,25.437 C81.3795,25.411 81.4965,25.19 81.7045,24.774 C81.9125,24.358 82.0815,24.046 82.2115,23.838 C82.2375,23.786 82.3545,23.721 82.5625,23.643 C82.6145,23.643 82.6795,23.734 82.7575,23.916 L82.7575,23.916 L82.8355,24.579 C82.8875,24.839 82.959,25.242 83.05,25.788 C83.141,26.334 83.2125,26.75 83.2645,27.036 C83.2905,27.244 83.388,27.4 83.557,27.504 Z M80.6515,24.384 C80.5475,24.8 80.3525,24.956 80.0665,24.852 C79.7545,24.774 79.592,24.5335 79.579,24.1305 C79.566,23.7275 79.6895,23.331 79.9495,22.941 C80.2095,22.551 80.5345,22.304 80.9245,22.2 C81.1065,22.148 81.2495,22.161 81.3535,22.239 C81.4055,22.291 81.4055,22.408 81.3535,22.59 C80.9895,23.578 80.7555,24.176 80.6515,24.384 Z M86.1895,28.752 C86.5015,28.752 86.6835,28.57 86.7355,28.206 C86.7615,28.076 86.7875,27.855 86.8135,27.543 C86.8395,27.231 86.8655,27.01 86.8915,26.88 C86.9955,26.308 87.0995,25.879 87.2035,25.593 C87.4635,24.709 87.8405,23.864 88.3345,23.058 C88.4125,22.928 88.5035,22.863 88.6075,22.863 C88.7375,22.863 88.8025,23.019 88.8025,23.331 L88.8025,23.331 L88.8025,24.423 C88.8025,24.579 88.809,24.787 88.822,25.047 C88.835,25.307 88.8415,25.502 88.8415,25.632 C88.9455,26.672 89.1405,27.192 89.4265,27.192 C89.7645,27.192 89.9855,27.101 90.0895,26.919 C90.3755,26.607 90.5965,26.243 90.7525,25.827 C90.9865,25.255 91.3115,24.371 91.7275,23.175 C91.7795,23.019 91.812,22.876 91.825,22.746 C91.838,22.616 91.838,22.512 91.825,22.434 C91.812,22.356 91.786,22.291 91.747,22.239 C91.708,22.187 91.6755,22.148 91.6495,22.122 L91.6495,22.122 L91.4935,22.122 C91.3895,22.096 91.266,22.1545 91.123,22.2975 C90.98,22.4405 90.8565,22.668 90.7525,22.98 C90.4405,24.28 90.1805,24.943 89.9725,24.969 C89.8945,24.969 89.8555,24.67 89.8555,24.072 C89.8555,23.136 89.8295,22.447 89.7775,22.005 C89.7515,21.485 89.4395,21.225 88.8415,21.225 C88.5555,21.225 88.237,21.4525 87.886,21.9075 C87.535,22.3625 87.2555,22.8045 87.0475,23.2335 C86.8395,23.6625 86.7355,23.903 86.7355,23.955 C86.7095,23.981 86.677,23.994 86.638,23.994 C86.599,23.994 86.5665,23.968 86.5405,23.916 C86.5405,23.682 86.5275,23.513 86.5015,23.409 C86.4495,22.655 86.3845,22.109 86.3065,21.771 C86.2805,21.641 86.209,21.5305 86.092,21.4395 C85.975,21.3485 85.8645,21.316 85.7605,21.342 C85.6045,21.368 85.4485,21.446 85.2925,21.576 C85.1365,21.706 85.0715,21.849 85.0975,22.005 L85.0975,22.005 L85.4485,25.086 C85.4745,25.45 85.507,25.97 85.546,26.646 C85.585,27.322 85.6175,27.842 85.6435,28.206 C85.6435,28.57 85.8255,28.752 86.1895,28.752 Z" id="JulioC.Poxtan" fill="#FFFFFF" fill-rule="nonzero"></path>
    </g>
</svg>