<?xml version="1.0" encoding="UTF-8"?>
<svg width="1046px" height="56px" viewBox="0 0 1046 56" version="1.1" xmlns="http://www.w3.org/2000/svg" xmlns:xlink="http://www.w3.org/1999/xlink">
    <!-- Generator: Sketch 63.1 (92452) - https://sketch.com -->
    <title>Group 4</title>
    <desc>Created with Sketch.</desc>
    <defs>
        <linearGradient x1="0%" y1="50.0019531%" x2="100%" y2="49.9980469%" id="linearGradient-1">
            <stop stop-color="#09EDD1" offset="0%"></stop>
            <stop stop-color="#08DBD9" offset="17.3564189%"></stop>
            <stop stop-color="#05BCE6" offset="30.5848818%"></stop>
            <stop stop-color="#0082FF" offset="48.1181377%"></stop>
            <stop stop-color="#6094EA" offset="65.3900971%"></stop>
            <stop stop-color="#FB4179" offset="72.7776605%"></stop>
            <stop stop-color="#E93273" offset="100%"></stop>
        </linearGradient>
        <linearGradient x1="113.470761%" y1="53.7598373%" x2="-18.3032811%" y2="61.9235278%" id="linearGradient-2">
            <stop stop-color="#17EAD9" offset="0%"></stop>
            <stop stop-color="#2BCBDE" offset="54.473712%"></stop>
            <stop stop-color="#18A9B9" offset="100%"></stop>
        </linearGradient>
        <linearGradient x1="1.44424438%" y1="1.44919815%" x2="100%" y2="98.5508019%" id="linearGradient-3">
            <stop stop-color="#17EAD9" offset="0%"></stop>
            <stop stop-color="#6078EA" offset="100%"></stop>
        </linearGradient>
        <linearGradient x1="50%" y1="0%" x2="50%" y2="100%" id="linearGradient-4">
            <stop stop-color="#00AEFF" offset="0%"></stop>
            <stop stop-color="#0076FF" offset="100%"></stop>
        </linearGradient>
        <linearGradient x1="50%" y1="117.811656%" x2="50%" y2="-18.4208766%" id="linearGradient-5">
            <stop stop-color="#E52E71" offset="0%"></stop>
            <stop stop-color="#FF457B" offset="100%"></stop>
        </linearGradient>
    </defs>
    <g id="CV" stroke="none" stroke-width="1" fill="none" fill-rule="evenodd">
        <g id="Group-4" transform="translate(0.000000, -3.000000)">
            <g id="Group-3">
                <polygon id="Path-3-Copy" fill="url(#linearGradient-1)" fill-rule="nonzero" points="1003 43 1003 49 43 49 43 43"></polygon>
                <g id="atom-item-copy-2" transform="translate(0.000000, 3.000000)">
                    <g id="atom-item">
                        <ellipse id="element" stroke="url(#linearGradient-2)" stroke-width="5" fill="#FFFFFF" cx="44.0074074" cy="43" rx="10.1481481" ry="10"></ellipse>
                        <path d="M2.151,11 L2.151,1.032 L0.345,1.032 L0.345,11 L2.151,11 Z M5.917,11 L5.917,6.996 C5.917,6.436 6.08033333,5.98566667 6.407,5.645 C6.73366667,5.30433333 7.163,5.134 7.695,5.134 C8.143,5.134 8.47433333,5.26233333 8.689,5.519 C8.90366667,5.77566667 9.011,6.184 9.011,6.744 L9.011,6.744 L9.011,11 L10.761,11 L10.761,6.66 C10.761,4.71866667 9.91633333,3.748 8.227,3.748 C7.70433333,3.748 7.23533333,3.86466667 6.82,4.098 C6.40466667,4.33133333 6.07566667,4.66266667 5.833,5.092 L5.833,5.092 L5.707,3.93 L4.069,3.93 C4.14366667,4.518 4.181,5.18533333 4.181,5.932 L4.181,5.932 L4.181,11 L5.917,11 Z M16.221,11 L19.315,3.944 L17.579,3.944 L15.507,9.012 L13.477,3.944 L11.643,3.944 L14.695,11 L16.221,11 Z M23.557,11.112 C24.061,11.112 24.558,11.0303333 25.048,10.867 C25.538,10.7036667 25.951,10.4866667 26.287,10.216 L26.287,10.216 L25.783,9.012 C25.1203333,9.516 24.4016667,9.768 23.627,9.768 C22.955,9.768 22.4486667,9.58833333 22.108,9.229 C21.7673333,8.86966667 21.5783333,8.312 21.541,7.556 L21.541,7.556 L26.413,7.556 L26.413,7.29 C26.413,6.18866667 26.1306667,5.323 25.566,4.693 C25.0013333,4.063 24.2336667,3.748 23.263,3.748 C22.6003333,3.748 22.0076667,3.90433333 21.485,4.217 C20.9623333,4.52966667 20.5563333,4.966 20.267,5.526 C19.9776667,6.086 19.833,6.72533333 19.833,7.444 C19.833,8.58266667 20.1643333,9.47866667 20.827,10.132 C21.4896667,10.7853333 22.3996667,11.112 23.557,11.112 Z M24.887,6.618 L21.597,6.618 C21.681,6.09533333 21.87,5.69633333 22.164,5.421 C22.458,5.14566667 22.8383333,5.008 23.305,5.008 C23.7716667,5.008 24.138,5.14333333 24.404,5.414 C24.67,5.68466667 24.831,6.086 24.887,6.618 L24.887,6.618 Z M30.487,11.112 C31.3923333,11.112 32.1063333,10.9206667 32.629,10.538 C33.1516667,10.1553333 33.413,9.63733333 33.413,8.984 C33.413,8.452 33.252,8.02033333 32.93,7.689 C32.608,7.35766667 32.097,7.11266667 31.397,6.954 L31.397,6.954 L30.193,6.688 C29.8663333,6.604 29.6353333,6.50133333 29.5,6.38 C29.3646667,6.25866667 29.297,6.09533333 29.297,5.89 C29.297,5.62866667 29.409,5.42333333 29.633,5.274 C29.857,5.12466667 30.1696667,5.05 30.571,5.05 C31.3176667,5.05 32.0456667,5.31133333 32.755,5.834 L32.755,5.834 L33.273,4.644 C32.9183333,4.35466667 32.5076667,4.133 32.041,3.979 C31.5743333,3.825 31.089,3.748 30.585,3.748 C30.0063333,3.748 29.4976667,3.84133333 29.059,4.028 C28.6203333,4.21466667 28.2796667,4.47366667 28.037,4.805 C27.7943333,5.13633333 27.673,5.51666667 27.673,5.946 C27.673,6.982 28.317,7.64 29.605,7.92 L29.605,7.92 L30.781,8.186 C31.1636667,8.27933333 31.4343333,8.389 31.593,8.515 C31.7516667,8.641 31.831,8.81133333 31.831,9.026 C31.831,9.278 31.7166667,9.474 31.488,9.614 C31.2593333,9.754 30.935,9.824 30.515,9.824 C29.5443333,9.824 28.681,9.544 27.925,8.984 L27.925,8.984 L27.435,10.216 C28.191,10.8133333 29.2083333,11.112 30.487,11.112 Z M37.879,11.098 C38.3176667,11.098 38.691,11.042 38.999,10.93 L38.999,10.93 L38.999,9.544 C38.747,9.61866667 38.5136667,9.656 38.299,9.656 C37.5243333,9.656 37.137,9.24066667 37.137,8.41 L37.137,8.41 L37.137,5.246 L39.013,5.246 L39.013,3.93 L37.137,3.93 L37.137,1.62 L35.387,2.208 L35.387,3.93 L34.029,3.93 L34.029,5.246 L35.387,5.246 L35.387,8.494 C35.387,9.334 35.6016667,9.978 36.031,10.426 C36.4603333,10.874 37.0763333,11.098 37.879,11.098 Z M42.051,2.446 L42.051,0.724 L40.105,0.724 L40.105,2.446 L42.051,2.446 Z M41.953,11 L41.953,3.93 L40.217,3.93 L40.217,11 L41.953,11 Z M47.119,14.136 C48.295,14.136 49.1863333,13.8513333 49.793,13.282 C50.3996667,12.7126667 50.703,11.8773333 50.703,10.776 L50.703,10.776 L50.703,3.93 L48.967,3.93 L48.967,4.994 C48.7523333,4.602 48.442,4.29633333 48.036,4.077 C47.63,3.85766667 47.1656667,3.748 46.643,3.748 C46.027,3.748 45.4786667,3.895 44.998,4.189 C44.5173333,4.483 44.144,4.89833333 43.878,5.435 C43.612,5.97166667 43.479,6.58533333 43.479,7.276 C43.479,7.96666667 43.612,8.58033333 43.878,9.117 C44.144,9.65366667 44.5173333,10.069 44.998,10.363 C45.4786667,10.657 46.027,10.804 46.643,10.804 C47.1563333,10.804 47.6183333,10.685 48.029,10.447 C48.4396667,10.209 48.7523333,9.89866667 48.967,9.516 L48.967,9.516 L48.967,10.916 C48.967,12.1666667 48.337,12.792 47.077,12.792 C46.2276667,12.792 45.3736667,12.568 44.515,12.12 L44.515,12.12 L44.235,13.45 C45.0656667,13.9073333 46.027,14.136 47.119,14.136 Z M47.105,9.432 C46.5263333,9.432 46.0713333,9.24066667 45.74,8.858 C45.4086667,8.47533333 45.243,7.948 45.243,7.276 C45.243,6.604 45.4086667,6.07666667 45.74,5.694 C46.0713333,5.31133333 46.5263333,5.12 47.105,5.12 C47.693,5.12 48.1503333,5.31133333 48.477,5.694 C48.8036667,6.07666667 48.967,6.604 48.967,7.276 C48.967,7.948 48.8013333,8.47533333 48.47,8.858 C48.1386667,9.24066667 47.6836667,9.432 47.105,9.432 Z M55.337,11.112 C55.8503333,11.112 56.3076667,11.0023333 56.709,10.783 C57.1103333,10.5636667 57.4183333,10.258 57.633,9.866 L57.633,9.866 L57.633,11 L59.355,11 L59.355,3.93 L57.633,3.93 L57.633,4.994 C57.4183333,4.602 57.1103333,4.29633333 56.709,4.077 C56.3076667,3.85766667 55.8503333,3.748 55.337,3.748 C54.7303333,3.748 54.189,3.90433333 53.713,4.217 C53.237,4.52966667 52.866,4.96833333 52.6,5.533 C52.334,6.09766667 52.201,6.744 52.201,7.472 C52.201,8.2 52.3316667,8.83933333 52.593,9.39 C52.8543333,9.94066667 53.223,10.3653333 53.699,10.664 C54.175,10.9626667 54.721,11.112 55.337,11.112 Z M55.813,9.74 C55.225,9.74 54.77,9.544 54.448,9.152 C54.126,8.76 53.965,8.2 53.965,7.472 C53.965,6.73466667 54.126,6.15833333 54.448,5.743 C54.77,5.32766667 55.2203333,5.12 55.799,5.12 C56.387,5.12 56.8396667,5.32066667 57.157,5.722 C57.4743333,6.12333333 57.633,6.69733333 57.633,7.444 C57.633,8.172 57.4743333,8.73666667 57.157,9.138 C56.8396667,9.53933333 56.3916667,9.74 55.813,9.74 Z M64.465,11.112 C64.9876667,11.112 65.487,11.0326667 65.963,10.874 C66.439,10.7153333 66.8263333,10.496 67.125,10.216 L67.125,10.216 L66.635,8.984 C66.3363333,9.22666667 66.019,9.41333333 65.683,9.544 C65.347,9.67466667 65.0156667,9.74 64.689,9.74 C64.045,9.74 63.548,9.544 63.198,9.152 C62.848,8.76 62.673,8.19066667 62.673,7.444 C62.673,6.69733333 62.8503333,6.12566667 63.205,5.729 C63.5596667,5.33233333 64.0543333,5.134 64.689,5.134 C65.0156667,5.134 65.347,5.197 65.683,5.323 C66.019,5.449 66.3363333,5.63333333 66.635,5.876 L66.635,5.876 L67.125,4.644 C66.845,4.364 66.4693333,4.14466667 65.998,3.986 C65.5266667,3.82733333 65.039,3.748 64.535,3.748 C63.807,3.748 63.1653333,3.90433333 62.61,4.217 C62.0546667,4.52966667 61.6253333,4.966 61.322,5.526 C61.0186667,6.086 60.867,6.73466667 60.867,7.472 C60.867,8.20933333 61.0116667,8.851 61.301,9.397 C61.5903333,9.943 62.0056667,10.3653333 62.547,10.664 C63.0883333,10.9626667 63.7276667,11.112 64.465,11.112 Z M70.135,2.446 L70.135,0.724 L68.189,0.724 L68.189,2.446 L70.135,2.446 Z M70.037,11 L70.037,3.93 L68.301,3.93 L68.301,11 L70.037,11 Z M75.721,3.02 L77.779,0.136 L75.987,0.136 L74.587,3.02 L75.721,3.02 Z M75.161,11.112 C75.8703333,11.112 76.4956667,10.9626667 77.037,10.664 C77.5783333,10.3653333 77.996,9.93833333 78.29,9.383 C78.584,8.82766667 78.731,8.17666667 78.731,7.43 C78.731,6.68333333 78.584,6.03233333 78.29,5.477 C77.996,4.92166667 77.5783333,4.49466667 77.037,4.196 C76.4956667,3.89733333 75.8703333,3.748 75.161,3.748 C74.4423333,3.748 73.81,3.89733333 73.264,4.196 C72.718,4.49466667 72.298,4.92166667 72.004,5.477 C71.71,6.03233333 71.563,6.68333333 71.563,7.43 C71.563,8.17666667 71.71,8.82766667 72.004,9.383 C72.298,9.93833333 72.718,10.3653333 73.264,10.664 C73.81,10.9626667 74.4423333,11.112 75.161,11.112 Z M75.147,9.74 C74.559,9.74 74.1086667,9.54633333 73.796,9.159 C73.4833333,8.77166667 73.327,8.19533333 73.327,7.43 C73.327,6.674 73.4856667,6.09766667 73.803,5.701 C74.1203333,5.30433333 74.573,5.106 75.161,5.106 C75.7396667,5.106 76.1876667,5.30433333 76.505,5.701 C76.8223333,6.09766667 76.981,6.674 76.981,7.43 C76.981,8.19533333 76.8246667,8.77166667 76.512,9.159 C76.1993333,9.54633333 75.7443333,9.74 75.147,9.74 Z M81.979,11 L81.979,6.996 C81.979,6.436 82.1423333,5.98566667 82.469,5.645 C82.7956667,5.30433333 83.225,5.134 83.757,5.134 C84.205,5.134 84.5363333,5.26233333 84.751,5.519 C84.9656667,5.77566667 85.073,6.184 85.073,6.744 L85.073,6.744 L85.073,11 L86.823,11 L86.823,6.66 C86.823,4.71866667 85.9783333,3.748 84.289,3.748 C83.7663333,3.748 83.2973333,3.86466667 82.882,4.098 C82.4666667,4.33133333 82.1376667,4.66266667 81.895,5.092 L81.895,5.092 L81.769,3.93 L80.131,3.93 C80.2056667,4.518 80.243,5.18533333 80.243,5.932 L80.243,5.932 L80.243,11 L81.979,11 Z" id="Investigación" fill="#4D4D4D" fill-rule="nonzero"></path>
                    </g>
                </g>
                <g id="atom-item-copy-3" transform="translate(148.000000, 3.000000)">
                    <g id="atom-item">
                        <ellipse id="element" stroke="url(#linearGradient-3)" stroke-width="5" fill="#FFFFFF" cx="33.0074074" cy="43" rx="10.1481481" ry="10"></ellipse>
                        <path d="M4.668,11.126 C5.48,11.126 6.18466667,11.0046667 6.782,10.762 C7.37933333,10.5193333 7.83666667,10.1763333 8.154,9.733 C8.47133333,9.28966667 8.63,8.76933333 8.63,8.172 C8.63,7.63066667 8.49,7.18033333 8.21,6.821 C7.93,6.46166667 7.52866667,6.16766667 7.006,5.939 C6.48333333,5.71033333 5.80666667,5.498 4.976,5.302 C4.17333333,5.12466667 3.60633333,4.93333333 3.275,4.728 C2.94366667,4.52266667 2.778,4.224 2.778,3.832 C2.778,3.37466667 2.96466667,3.013 3.338,2.747 C3.71133333,2.481 4.22,2.348 4.864,2.348 C5.93733333,2.348 6.91733333,2.70266667 7.804,3.412 L7.804,3.412 L8.406,2.096 C8.00466667,1.72266667 7.489,1.431 6.859,1.221 C6.229,1.011 5.564,0.906 4.864,0.906 C4.09866667,0.906 3.42433333,1.03666667 2.841,1.298 C2.25766667,1.55933333 1.80733333,1.91866667 1.49,2.376 C1.17266667,2.83333333 1.014,3.356 1.014,3.944 C1.014,4.76533333 1.29866667,5.39066667 1.868,5.82 C2.43733333,6.24933333 3.34733333,6.59933333 4.598,6.87 C5.40066667,7.04733333 5.977,7.23633333 6.327,7.437 C6.677,7.63766667 6.852,7.92466667 6.852,8.298 C6.852,8.73666667 6.663,9.07733333 6.285,9.32 C5.907,9.56266667 5.37266667,9.684 4.682,9.684 C4.05666667,9.684 3.48033333,9.59766667 2.953,9.425 C2.42566667,9.25233333 1.91933333,8.984 1.434,8.62 L1.434,8.62 L0.818,9.936 C1.28466667,10.3186667 1.85166667,10.6126667 2.519,10.818 C3.18633333,11.0233333 3.90266667,11.126 4.668,11.126 Z M12.018,2.446 L12.018,0.724 L10.072,0.724 L10.072,2.446 L12.018,2.446 Z M11.92,11 L11.92,3.93 L10.184,3.93 L10.184,11 L11.92,11 Z M15.574,11 L15.574,6.996 C15.574,6.436 15.7373333,5.98566667 16.064,5.645 C16.3906667,5.30433333 16.82,5.134 17.352,5.134 C17.8,5.134 18.1313333,5.26233333 18.346,5.519 C18.5606667,5.77566667 18.668,6.184 18.668,6.744 L18.668,6.744 L18.668,11 L20.418,11 L20.418,6.66 C20.418,4.71866667 19.5733333,3.748 17.884,3.748 C17.3613333,3.748 16.8923333,3.86466667 16.477,4.098 C16.0616667,4.33133333 15.7326667,4.66266667 15.49,5.092 L15.49,5.092 L15.364,3.93 L13.726,3.93 C13.8006667,4.518 13.838,5.18533333 13.838,5.932 L13.838,5.932 L13.838,11 L15.574,11 Z M25.248,11.098 C25.6866667,11.098 26.06,11.042 26.368,10.93 L26.368,10.93 L26.368,9.544 C26.116,9.61866667 25.8826667,9.656 25.668,9.656 C24.8933333,9.656 24.506,9.24066667 24.506,8.41 L24.506,8.41 L24.506,5.246 L26.382,5.246 L26.382,3.93 L24.506,3.93 L24.506,1.62 L22.756,2.208 L22.756,3.93 L21.398,3.93 L21.398,5.246 L22.756,5.246 L22.756,8.494 C22.756,9.334 22.9706667,9.978 23.4,10.426 C23.8293333,10.874 24.4453333,11.098 25.248,11.098 Z M30.918,11.112 C31.422,11.112 31.919,11.0303333 32.409,10.867 C32.899,10.7036667 33.312,10.4866667 33.648,10.216 L33.648,10.216 L33.144,9.012 C32.4813333,9.516 31.7626667,9.768 30.988,9.768 C30.316,9.768 29.8096667,9.58833333 29.469,9.229 C29.1283333,8.86966667 28.9393333,8.312 28.902,7.556 L28.902,7.556 L33.774,7.556 L33.774,7.29 C33.774,6.18866667 33.4916667,5.323 32.927,4.693 C32.3623333,4.063 31.5946667,3.748 30.624,3.748 C29.9613333,3.748 29.3686667,3.90433333 28.846,4.217 C28.3233333,4.52966667 27.9173333,4.966 27.628,5.526 C27.3386667,6.086 27.194,6.72533333 27.194,7.444 C27.194,8.58266667 27.5253333,9.47866667 28.188,10.132 C28.8506667,10.7853333 29.7606667,11.112 30.918,11.112 Z M32.248,6.618 L28.958,6.618 C29.042,6.09533333 29.231,5.69633333 29.525,5.421 C29.819,5.14566667 30.1993333,5.008 30.666,5.008 C31.1326667,5.008 31.499,5.14333333 31.765,5.414 C32.031,5.68466667 32.192,6.086 32.248,6.618 L32.248,6.618 Z M38.226,11.098 C38.6646667,11.098 39.038,11.042 39.346,10.93 L39.346,10.93 L39.346,9.544 C39.094,9.61866667 38.8606667,9.656 38.646,9.656 C37.8713333,9.656 37.484,9.24066667 37.484,8.41 L37.484,8.41 L37.484,5.246 L39.36,5.246 L39.36,3.93 L37.484,3.93 L37.484,1.62 L35.734,2.208 L35.734,3.93 L34.376,3.93 L34.376,5.246 L35.734,5.246 L35.734,8.494 C35.734,9.334 35.9486667,9.978 36.378,10.426 C36.8073333,10.874 37.4233333,11.098 38.226,11.098 Z M42.398,2.446 L42.398,0.724 L40.452,0.724 L40.452,2.446 L42.398,2.446 Z M42.3,11 L42.3,3.93 L40.564,3.93 L40.564,11 L42.3,11 Z M50.098,11 L50.098,9.67 L46.024,9.67 L49.944,5.12 L49.944,3.93 L44.036,3.93 L44.036,5.246 L47.858,5.246 L43.952,9.782 L43.952,11 L50.098,11 Z M54.326,11.112 C54.8393333,11.112 55.2966667,11.0023333 55.698,10.783 C56.0993333,10.5636667 56.4073333,10.258 56.622,9.866 L56.622,9.866 L56.622,11 L58.344,11 L58.344,3.93 L56.622,3.93 L56.622,4.994 C56.4073333,4.602 56.0993333,4.29633333 55.698,4.077 C55.2966667,3.85766667 54.8393333,3.748 54.326,3.748 C53.7193333,3.748 53.178,3.90433333 52.702,4.217 C52.226,4.52966667 51.855,4.96833333 51.589,5.533 C51.323,6.09766667 51.19,6.744 51.19,7.472 C51.19,8.2 51.3206667,8.83933333 51.582,9.39 C51.8433333,9.94066667 52.212,10.3653333 52.688,10.664 C53.164,10.9626667 53.71,11.112 54.326,11.112 Z M54.802,9.74 C54.214,9.74 53.759,9.544 53.437,9.152 C53.115,8.76 52.954,8.2 52.954,7.472 C52.954,6.73466667 53.115,6.15833333 53.437,5.743 C53.759,5.32766667 54.2093333,5.12 54.788,5.12 C55.376,5.12 55.8286667,5.32066667 56.146,5.722 C56.4633333,6.12333333 56.622,6.69733333 56.622,7.444 C56.622,8.172 56.4633333,8.73666667 56.146,9.138 C55.8286667,9.53933333 55.3806667,9.74 54.802,9.74 Z M61.984,11 L61.984,7.178 C61.984,6.60866667 62.1403333,6.15133333 62.453,5.806 C62.7656667,5.46066667 63.2206667,5.288 63.818,5.288 C64.1353333,5.288 64.4433333,5.34866667 64.742,5.47 L64.742,5.47 L64.756,3.874 C64.56,3.79933333 64.3266667,3.762 64.056,3.762 C63.5706667,3.762 63.1366667,3.88333333 62.754,4.126 C62.3713333,4.36866667 62.0913333,4.71866667 61.914,5.176 L61.914,5.176 L61.774,3.93 L60.136,3.93 C60.2106667,4.518 60.248,5.18533333 60.248,5.932 L60.248,5.932 L60.248,11 L61.984,11 Z" id="Sintetizar" fill="#4D4D4D" fill-rule="nonzero"></path>
                    </g>
                </g>
                <g id="atom-item-copy-11" transform="translate(249.000000, 0.000000)">
                    <g id="atom-item">
                        <ellipse id="element" stroke="url(#linearGradient-4)" stroke-width="5" fill="#FFFFFF" cx="69.0074074" cy="46" rx="10.1481481" ry="10"></ellipse>
                        <path d="M47.283,14 L47.283,4.032 L45.477,4.032 L45.477,14 L47.283,14 Z M52.057,14.112 C52.5703333,14.112 53.0276667,14.0023333 53.429,13.783 C53.8303333,13.5636667 54.1383333,13.258 54.353,12.866 L54.353,12.866 L54.353,14 L56.075,14 L56.075,3.696 L54.325,3.696 L54.325,7.952 C54.1103333,7.56933333 53.8046667,7.273 53.408,7.063 C53.0113333,6.853 52.561,6.748 52.057,6.748 C51.441,6.748 50.895,6.89966667 50.419,7.203 C49.943,7.50633333 49.5743333,7.93333333 49.313,8.484 C49.0516667,9.03466667 48.921,9.674 48.921,10.402 C48.921,11.13 49.054,11.7763333 49.32,12.341 C49.586,12.9056667 49.957,13.342 50.433,13.65 C50.909,13.958 51.4503333,14.112 52.057,14.112 Z M52.519,12.74 C51.9403333,12.74 51.49,12.5346667 51.168,12.124 C50.846,11.7133333 50.685,11.1393333 50.685,10.402 C50.685,9.674 50.846,9.11166667 51.168,8.715 C51.49,8.31833333 51.945,8.12 52.533,8.12 C53.1116667,8.12 53.5596667,8.32066667 53.877,8.722 C54.1943333,9.12333333 54.353,9.69266667 54.353,10.43 C54.353,11.1673333 54.192,11.7366667 53.87,12.138 C53.548,12.5393333 53.0976667,12.74 52.519,12.74 Z M61.311,14.112 C61.815,14.112 62.312,14.0303333 62.802,13.867 C63.292,13.7036667 63.705,13.4866667 64.041,13.216 L64.041,13.216 L63.537,12.012 C62.8743333,12.516 62.1556667,12.768 61.381,12.768 C60.709,12.768 60.2026667,12.5883333 59.862,12.229 C59.5213333,11.8696667 59.3323333,11.312 59.295,10.556 L59.295,10.556 L64.167,10.556 L64.167,10.29 C64.167,9.18866667 63.8846667,8.323 63.32,7.693 C62.7553333,7.063 61.9876667,6.748 61.017,6.748 C60.3543333,6.748 59.7616667,6.90433333 59.239,7.217 C58.7163333,7.52966667 58.3103333,7.966 58.021,8.526 C57.7316667,9.086 57.587,9.72533333 57.587,10.444 C57.587,11.5826667 57.9183333,12.4786667 58.581,13.132 C59.2436667,13.7853333 60.1536667,14.112 61.311,14.112 Z M62.641,9.618 L59.351,9.618 C59.435,9.09533333 59.624,8.69633333 59.918,8.421 C60.212,8.14566667 60.5923333,8.008 61.059,8.008 C61.5256667,8.008 61.892,8.14333333 62.158,8.414 C62.424,8.68466667 62.585,9.086 62.641,9.618 L62.641,9.618 Z M67.387,14 L67.387,9.996 C67.387,9.436 67.5503333,8.98566667 67.877,8.645 C68.2036667,8.30433333 68.633,8.134 69.165,8.134 C69.613,8.134 69.9443333,8.26233333 70.159,8.519 C70.3736667,8.77566667 70.481,9.184 70.481,9.744 L70.481,9.744 L70.481,14 L72.231,14 L72.231,9.66 C72.231,7.71866667 71.3863333,6.748 69.697,6.748 C69.1743333,6.748 68.7053333,6.86466667 68.29,7.098 C67.8746667,7.33133333 67.5456667,7.66266667 67.303,8.092 L67.303,8.092 L67.177,6.93 L65.539,6.93 C65.6136667,7.518 65.651,8.18533333 65.651,8.932 L65.651,8.932 L65.651,14 L67.387,14 Z M77.061,14.098 C77.4996667,14.098 77.873,14.042 78.181,13.93 L78.181,13.93 L78.181,12.544 C77.929,12.6186667 77.6956667,12.656 77.481,12.656 C76.7063333,12.656 76.319,12.2406667 76.319,11.41 L76.319,11.41 L76.319,8.246 L78.195,8.246 L78.195,6.93 L76.319,6.93 L76.319,4.62 L74.569,5.208 L74.569,6.93 L73.211,6.93 L73.211,8.246 L74.569,8.246 L74.569,11.494 C74.569,12.334 74.7836667,12.978 75.213,13.426 C75.6423333,13.874 76.2583333,14.098 77.061,14.098 Z M82.143,14.112 C82.6563333,14.112 83.1136667,14.0023333 83.515,13.783 C83.9163333,13.5636667 84.2243333,13.258 84.439,12.866 L84.439,12.866 L84.439,14 L86.161,14 L86.161,6.93 L84.439,6.93 L84.439,7.994 C84.2243333,7.602 83.9163333,7.29633333 83.515,7.077 C83.1136667,6.85766667 82.6563333,6.748 82.143,6.748 C81.5363333,6.748 80.995,6.90433333 80.519,7.217 C80.043,7.52966667 79.672,7.96833333 79.406,8.533 C79.14,9.09766667 79.007,9.744 79.007,10.472 C79.007,11.2 79.1376667,11.8393333 79.399,12.39 C79.6603333,12.9406667 80.029,13.3653333 80.505,13.664 C80.981,13.9626667 81.527,14.112 82.143,14.112 Z M82.619,12.74 C82.031,12.74 81.576,12.544 81.254,12.152 C80.932,11.76 80.771,11.2 80.771,10.472 C80.771,9.73466667 80.932,9.15833333 81.254,8.743 C81.576,8.32766667 82.0263333,8.12 82.605,8.12 C83.193,8.12 83.6456667,8.32066667 83.963,8.722 C84.2803333,9.12333333 84.439,9.69733333 84.439,10.444 C84.439,11.172 84.2803333,11.7366667 83.963,12.138 C83.6456667,12.5393333 83.1976667,12.74 82.619,12.74 Z M89.801,14 L89.801,10.178 C89.801,9.60866667 89.9573333,9.15133333 90.27,8.806 C90.5826667,8.46066667 91.0376667,8.288 91.635,8.288 C91.9523333,8.288 92.2603333,8.34866667 92.559,8.47 L92.559,8.47 L92.573,6.874 C92.377,6.79933333 92.1436667,6.762 91.873,6.762 C91.3876667,6.762 90.9536667,6.88333333 90.571,7.126 C90.1883333,7.36866667 89.9083333,7.71866667 89.731,8.176 L89.731,8.176 L89.591,6.93 L87.953,6.93 C88.0276667,7.518 88.065,8.18533333 88.065,8.932 L88.065,8.932 L88.065,14 L89.801,14 Z" id="Identar" fill="#4D4D4D" fill-rule="nonzero"></path>
                    </g>
                </g>
                <g id="atom-item-copy-12" transform="translate(386.000000, 0.000000)">
                    <g id="atom-item">
                        <ellipse id="element" stroke="url(#linearGradient-4)" stroke-width="5" fill="#FFFFFF" cx="69.0074074" cy="46" rx="10.1481481" ry="10"></ellipse>
                        <path d="M40.073,14 L40.073,9.842 L42.593,9.842 C43.657,9.842 44.49,9.58066667 45.092,9.058 C45.694,8.53533333 45.995,7.826 45.995,6.93 C45.995,6.034 45.6963333,5.327 45.099,4.809 C44.5016667,4.291 43.6663333,4.032 42.593,4.032 L42.593,4.032 L38.267,4.032 L38.267,14 L40.073,14 Z M42.383,8.442 L40.073,8.442 L40.073,5.432 L42.383,5.432 C43.0176667,5.432 43.4936667,5.56033333 43.811,5.817 C44.1283333,6.07366667 44.287,6.44933333 44.287,6.944 C44.287,7.42933333 44.126,7.80033333 43.804,8.057 C43.482,8.31366667 43.0083333,8.442 42.383,8.442 L42.383,8.442 Z M49.201,14 L49.201,10.178 C49.201,9.60866667 49.3573333,9.15133333 49.67,8.806 C49.9826667,8.46066667 50.4376667,8.288 51.035,8.288 C51.3523333,8.288 51.6603333,8.34866667 51.959,8.47 L51.959,8.47 L51.973,6.874 C51.777,6.79933333 51.5436667,6.762 51.273,6.762 C50.7876667,6.762 50.3536667,6.88333333 49.971,7.126 C49.5883333,7.36866667 49.3083333,7.71866667 49.131,8.176 L49.131,8.176 L48.991,6.93 L47.353,6.93 C47.4276667,7.518 47.465,8.18533333 47.465,8.932 L47.465,8.932 L47.465,14 L49.201,14 Z M56.159,14.112 C56.8683333,14.112 57.4936667,13.9626667 58.035,13.664 C58.5763333,13.3653333 58.994,12.9383333 59.288,12.383 C59.582,11.8276667 59.729,11.1766667 59.729,10.43 C59.729,9.68333333 59.582,9.03233333 59.288,8.477 C58.994,7.92166667 58.5763333,7.49466667 58.035,7.196 C57.4936667,6.89733333 56.8683333,6.748 56.159,6.748 C55.4403333,6.748 54.808,6.89733333 54.262,7.196 C53.716,7.49466667 53.296,7.92166667 53.002,8.477 C52.708,9.03233333 52.561,9.68333333 52.561,10.43 C52.561,11.1766667 52.708,11.8276667 53.002,12.383 C53.296,12.9383333 53.716,13.3653333 54.262,13.664 C54.808,13.9626667 55.4403333,14.112 56.159,14.112 Z M56.145,12.74 C55.557,12.74 55.1066667,12.5463333 54.794,12.159 C54.4813333,11.7716667 54.325,11.1953333 54.325,10.43 C54.325,9.674 54.4836667,9.09766667 54.801,8.701 C55.1183333,8.30433333 55.571,8.106 56.159,8.106 C56.7376667,8.106 57.1856667,8.30433333 57.503,8.701 C57.8203333,9.09766667 57.979,9.674 57.979,10.43 C57.979,11.1953333 57.8226667,11.7716667 57.51,12.159 C57.1973333,12.5463333 56.7423333,12.74 56.145,12.74 Z M64.209,14.098 C64.6476667,14.098 65.021,14.042 65.329,13.93 L65.329,13.93 L65.329,12.544 C65.077,12.6186667 64.8436667,12.656 64.629,12.656 C63.8543333,12.656 63.467,12.2406667 63.467,11.41 L63.467,11.41 L63.467,8.246 L65.343,8.246 L65.343,6.93 L63.467,6.93 L63.467,4.62 L61.717,5.208 L61.717,6.93 L60.359,6.93 L60.359,8.246 L61.717,8.246 L61.717,11.494 C61.717,12.334 61.9316667,12.978 62.361,13.426 C62.7903333,13.874 63.4063333,14.098 64.209,14.098 Z M69.753,14.112 C70.4623333,14.112 71.0876667,13.9626667 71.629,13.664 C72.1703333,13.3653333 72.588,12.9383333 72.882,12.383 C73.176,11.8276667 73.323,11.1766667 73.323,10.43 C73.323,9.68333333 73.176,9.03233333 72.882,8.477 C72.588,7.92166667 72.1703333,7.49466667 71.629,7.196 C71.0876667,6.89733333 70.4623333,6.748 69.753,6.748 C69.0343333,6.748 68.402,6.89733333 67.856,7.196 C67.31,7.49466667 66.89,7.92166667 66.596,8.477 C66.302,9.03233333 66.155,9.68333333 66.155,10.43 C66.155,11.1766667 66.302,11.8276667 66.596,12.383 C66.89,12.9383333 67.31,13.3653333 67.856,13.664 C68.402,13.9626667 69.0343333,14.112 69.753,14.112 Z M69.739,12.74 C69.151,12.74 68.7006667,12.5463333 68.388,12.159 C68.0753333,11.7716667 67.919,11.1953333 67.919,10.43 C67.919,9.674 68.0776667,9.09766667 68.395,8.701 C68.7123333,8.30433333 69.165,8.106 69.753,8.106 C70.3316667,8.106 70.7796667,8.30433333 71.097,8.701 C71.4143333,9.09766667 71.573,9.674 71.573,10.43 C71.573,11.1953333 71.4166667,11.7716667 71.104,12.159 C70.7913333,12.5463333 70.3363333,12.74 69.739,12.74 Z M77.803,14.098 C78.2416667,14.098 78.615,14.042 78.923,13.93 L78.923,13.93 L78.923,12.544 C78.671,12.6186667 78.4376667,12.656 78.223,12.656 C77.4483333,12.656 77.061,12.2406667 77.061,11.41 L77.061,11.41 L77.061,8.246 L78.937,8.246 L78.937,6.93 L77.061,6.93 L77.061,4.62 L75.311,5.208 L75.311,6.93 L73.953,6.93 L73.953,8.246 L75.311,8.246 L75.311,11.494 C75.311,12.334 75.5256667,12.978 75.955,13.426 C76.3843333,13.874 77.0003333,14.098 77.803,14.098 Z M81.975,5.446 L81.975,3.724 L80.029,3.724 L80.029,5.446 L81.975,5.446 Z M81.877,14 L81.877,6.93 L80.141,6.93 L80.141,14 L81.877,14 Z M85.531,17.024 L85.531,12.866 C85.7456667,13.258 86.0536667,13.5636667 86.455,13.783 C86.8563333,14.0023333 87.3136667,14.112 87.827,14.112 C88.443,14.112 88.9866667,13.9626667 89.458,13.664 C89.9293333,13.3653333 90.2956667,12.9406667 90.557,12.39 C90.8183333,11.8393333 90.949,11.2 90.949,10.472 C90.949,9.744 90.816,9.09766667 90.55,8.533 C90.284,7.96833333 89.9153333,7.52966667 89.444,7.217 C88.9726667,6.90433333 88.4336667,6.748 87.827,6.748 C87.2763333,6.748 86.791,6.87166667 86.371,7.119 C85.951,7.36633333 85.6476667,7.70933333 85.461,8.148 L85.461,8.148 L85.321,6.93 L83.683,6.93 C83.7576667,7.518 83.795,8.18533333 83.795,8.932 L83.795,8.932 L83.795,17.024 L85.531,17.024 Z M87.351,12.74 C86.763,12.74 86.3103333,12.5416667 85.993,12.145 C85.6756667,11.7483333 85.517,11.1813333 85.517,10.444 C85.517,9.69733333 85.6756667,9.12333333 85.993,8.722 C86.3103333,8.32066667 86.7676667,8.12 87.365,8.12 C87.9436667,8.12 88.3916667,8.32766667 88.709,8.743 C89.0263333,9.15833333 89.185,9.73466667 89.185,10.472 C89.185,11.2 89.0263333,11.76 88.709,12.152 C88.3916667,12.544 87.939,12.74 87.351,12.74 Z M95.681,14.112 C96.3903333,14.112 97.0156667,13.9626667 97.557,13.664 C98.0983333,13.3653333 98.516,12.9383333 98.81,12.383 C99.104,11.8276667 99.251,11.1766667 99.251,10.43 C99.251,9.68333333 99.104,9.03233333 98.81,8.477 C98.516,7.92166667 98.0983333,7.49466667 97.557,7.196 C97.0156667,6.89733333 96.3903333,6.748 95.681,6.748 C94.9623333,6.748 94.33,6.89733333 93.784,7.196 C93.238,7.49466667 92.818,7.92166667 92.524,8.477 C92.23,9.03233333 92.083,9.68333333 92.083,10.43 C92.083,11.1766667 92.23,11.8276667 92.524,12.383 C92.818,12.9383333 93.238,13.3653333 93.784,13.664 C94.33,13.9626667 94.9623333,14.112 95.681,14.112 Z M95.667,12.74 C95.079,12.74 94.6286667,12.5463333 94.316,12.159 C94.0033333,11.7716667 93.847,11.1953333 93.847,10.43 C93.847,9.674 94.0056667,9.09766667 94.323,8.701 C94.6403333,8.30433333 95.093,8.106 95.681,8.106 C96.2596667,8.106 96.7076667,8.30433333 97.025,8.701 C97.3423333,9.09766667 97.501,9.674 97.501,10.43 C97.501,11.1953333 97.3446667,11.7716667 97.032,12.159 C96.7193333,12.5463333 96.2643333,12.74 95.667,12.74 Z" id="Prototipo" fill="#4D4D4D" fill-rule="nonzero"></path>
                    </g>
                </g>
                <g id="atom-item-copy-13" transform="translate(523.000000, 0.000000)">
                    <g id="atom-item">
                        <ellipse id="element" stroke="url(#linearGradient-4)" stroke-width="5" fill="#FFFFFF" cx="69.0074074" cy="46" rx="10.1481481" ry="10"></ellipse>
                        <path d="M38.869,14 L43.307,4.032 L41.473,4.032 L38.155,11.732 L34.837,4.032 L32.961,4.032 L37.399,14 L38.869,14 Z M46.877,14.112 C47.3903333,14.112 47.8476667,14.0023333 48.249,13.783 C48.6503333,13.5636667 48.9583333,13.258 49.173,12.866 L49.173,12.866 L49.173,14 L50.895,14 L50.895,6.93 L49.173,6.93 L49.173,7.994 C48.9583333,7.602 48.6503333,7.29633333 48.249,7.077 C47.8476667,6.85766667 47.3903333,6.748 46.877,6.748 C46.2703333,6.748 45.729,6.90433333 45.253,7.217 C44.777,7.52966667 44.406,7.96833333 44.14,8.533 C43.874,9.09766667 43.741,9.744 43.741,10.472 C43.741,11.2 43.8716667,11.8393333 44.133,12.39 C44.3943333,12.9406667 44.763,13.3653333 45.239,13.664 C45.715,13.9626667 46.261,14.112 46.877,14.112 Z M47.353,12.74 C46.765,12.74 46.31,12.544 45.988,12.152 C45.666,11.76 45.505,11.2 45.505,10.472 C45.505,9.73466667 45.666,9.15833333 45.988,8.743 C46.31,8.32766667 46.7603333,8.12 47.339,8.12 C47.927,8.12 48.3796667,8.32066667 48.697,8.722 C49.0143333,9.12333333 49.173,9.69733333 49.173,10.444 C49.173,11.172 49.0143333,11.7366667 48.697,12.138 C48.3796667,12.5393333 47.9316667,12.74 47.353,12.74 Z M54.535,14 L54.535,3.696 L52.799,3.696 L52.799,14 L54.535,14 Z M58.287,5.446 L58.287,3.724 L56.341,3.724 L56.341,5.446 L58.287,5.446 Z M58.189,14 L58.189,6.93 L56.453,6.93 L56.453,14 L58.189,14 Z M62.851,14.112 C63.3643333,14.112 63.8216667,14.0023333 64.223,13.783 C64.6243333,13.5636667 64.9323333,13.258 65.147,12.866 L65.147,12.866 L65.147,14 L66.869,14 L66.869,3.696 L65.119,3.696 L65.119,7.952 C64.9043333,7.56933333 64.5986667,7.273 64.202,7.063 C63.8053333,6.853 63.355,6.748 62.851,6.748 C62.235,6.748 61.689,6.89966667 61.213,7.203 C60.737,7.50633333 60.3683333,7.93333333 60.107,8.484 C59.8456667,9.03466667 59.715,9.674 59.715,10.402 C59.715,11.13 59.848,11.7763333 60.114,12.341 C60.38,12.9056667 60.751,13.342 61.227,13.65 C61.703,13.958 62.2443333,14.112 62.851,14.112 Z M63.313,12.74 C62.7343333,12.74 62.284,12.5346667 61.962,12.124 C61.64,11.7133333 61.479,11.1393333 61.479,10.402 C61.479,9.674 61.64,9.11166667 61.962,8.715 C62.284,8.31833333 62.739,8.12 63.327,8.12 C63.9056667,8.12 64.3536667,8.32066667 64.671,8.722 C64.9883333,9.12333333 65.147,9.69266667 65.147,10.43 C65.147,11.1673333 64.986,11.7366667 64.664,12.138 C64.342,12.5393333 63.8916667,12.74 63.313,12.74 Z M71.517,14.112 C72.0303333,14.112 72.4876667,14.0023333 72.889,13.783 C73.2903333,13.5636667 73.5983333,13.258 73.813,12.866 L73.813,12.866 L73.813,14 L75.535,14 L75.535,6.93 L73.813,6.93 L73.813,7.994 C73.5983333,7.602 73.2903333,7.29633333 72.889,7.077 C72.4876667,6.85766667 72.0303333,6.748 71.517,6.748 C70.9103333,6.748 70.369,6.90433333 69.893,7.217 C69.417,7.52966667 69.046,7.96833333 68.78,8.533 C68.514,9.09766667 68.381,9.744 68.381,10.472 C68.381,11.2 68.5116667,11.8393333 68.773,12.39 C69.0343333,12.9406667 69.403,13.3653333 69.879,13.664 C70.355,13.9626667 70.901,14.112 71.517,14.112 Z M71.993,12.74 C71.405,12.74 70.95,12.544 70.628,12.152 C70.306,11.76 70.145,11.2 70.145,10.472 C70.145,9.73466667 70.306,9.15833333 70.628,8.743 C70.95,8.32766667 71.4003333,8.12 71.979,8.12 C72.567,8.12 73.0196667,8.32066667 73.337,8.722 C73.6543333,9.12333333 73.813,9.69733333 73.813,10.444 C73.813,11.172 73.6543333,11.7366667 73.337,12.138 C73.0196667,12.5393333 72.5716667,12.74 71.993,12.74 Z M80.645,14.112 C81.1676667,14.112 81.667,14.0326667 82.143,13.874 C82.619,13.7153333 83.0063333,13.496 83.305,13.216 L83.305,13.216 L82.815,11.984 C82.5163333,12.2266667 82.199,12.4133333 81.863,12.544 C81.527,12.6746667 81.1956667,12.74 80.869,12.74 C80.225,12.74 79.728,12.544 79.378,12.152 C79.028,11.76 78.853,11.1906667 78.853,10.444 C78.853,9.69733333 79.0303333,9.12566667 79.385,8.729 C79.7396667,8.33233333 80.2343333,8.134 80.869,8.134 C81.1956667,8.134 81.527,8.197 81.863,8.323 C82.199,8.449 82.5163333,8.63333333 82.815,8.876 L82.815,8.876 L83.305,7.644 C83.025,7.364 82.6493333,7.14466667 82.178,6.986 C81.7066667,6.82733333 81.219,6.748 80.715,6.748 C79.987,6.748 79.3453333,6.90433333 78.79,7.217 C78.2346667,7.52966667 77.8053333,7.966 77.502,8.526 C77.1986667,9.086 77.047,9.73466667 77.047,10.472 C77.047,11.2093333 77.1916667,11.851 77.481,12.397 C77.7703333,12.943 78.1856667,13.3653333 78.727,13.664 C79.2683333,13.9626667 79.9076667,14.112 80.645,14.112 Z M86.315,5.446 L86.315,3.724 L84.369,3.724 L84.369,5.446 L86.315,5.446 Z M86.217,14 L86.217,6.93 L84.481,6.93 L84.481,14 L86.217,14 Z M91.901,6.02 L93.959,3.136 L92.167,3.136 L90.767,6.02 L91.901,6.02 Z M91.341,14.112 C92.0503333,14.112 92.6756667,13.9626667 93.217,13.664 C93.7583333,13.3653333 94.176,12.9383333 94.47,12.383 C94.764,11.8276667 94.911,11.1766667 94.911,10.43 C94.911,9.68333333 94.764,9.03233333 94.47,8.477 C94.176,7.92166667 93.7583333,7.49466667 93.217,7.196 C92.6756667,6.89733333 92.0503333,6.748 91.341,6.748 C90.6223333,6.748 89.99,6.89733333 89.444,7.196 C88.898,7.49466667 88.478,7.92166667 88.184,8.477 C87.89,9.03233333 87.743,9.68333333 87.743,10.43 C87.743,11.1766667 87.89,11.8276667 88.184,12.383 C88.478,12.9383333 88.898,13.3653333 89.444,13.664 C89.99,13.9626667 90.6223333,14.112 91.341,14.112 Z M91.327,12.74 C90.739,12.74 90.2886667,12.5463333 89.976,12.159 C89.6633333,11.7716667 89.507,11.1953333 89.507,10.43 C89.507,9.674 89.6656667,9.09766667 89.983,8.701 C90.3003333,8.30433333 90.753,8.106 91.341,8.106 C91.9196667,8.106 92.3676667,8.30433333 92.685,8.701 C93.0023333,9.09766667 93.161,9.674 93.161,10.43 C93.161,11.1953333 93.0046667,11.7716667 92.692,12.159 C92.3793333,12.5463333 91.9243333,12.74 91.327,12.74 Z M98.159,14 L98.159,9.996 C98.159,9.436 98.3223333,8.98566667 98.649,8.645 C98.9756667,8.30433333 99.405,8.134 99.937,8.134 C100.385,8.134 100.716333,8.26233333 100.931,8.519 C101.145667,8.77566667 101.253,9.184 101.253,9.744 L101.253,9.744 L101.253,14 L103.003,14 L103.003,9.66 C103.003,7.71866667 102.158333,6.748 100.469,6.748 C99.9463333,6.748 99.4773333,6.86466667 99.062,7.098 C98.6466667,7.33133333 98.3176667,7.66266667 98.075,8.092 L98.075,8.092 L97.949,6.93 L96.311,6.93 C96.3856667,7.518 96.423,8.18533333 96.423,8.932 L96.423,8.932 L96.423,14 L98.159,14 Z" id="Validación" fill="#4D4D4D" fill-rule="nonzero"></path>
                    </g>
                </g>
                <g id="atom-item-copy-14" transform="translate(676.000000, 3.000000)">
                    <g id="atom-item">
                        <ellipse id="element" stroke="url(#linearGradient-5)" stroke-width="5" fill="#FFFFFF" cx="53.0074074" cy="43" rx="10.1481481" ry="10"></ellipse>
                        <path d="M2.058,11 L2.058,1.032 L0.252,1.032 L0.252,11 L2.058,11 Z M5.824,11 L5.824,7.052 C5.824,6.45466667 5.964,5.98566667 6.244,5.645 C6.524,5.30433333 6.90666667,5.134 7.392,5.134 C7.80266667,5.134 8.10366667,5.26 8.295,5.512 C8.48633333,5.764 8.582,6.16533333 8.582,6.716 L8.582,6.716 L8.582,11 L10.332,11 L10.332,7.052 C10.332,6.45466667 10.4696667,5.98566667 10.745,5.645 C11.0203333,5.30433333 11.4006667,5.134 11.886,5.134 C12.306,5.134 12.607,5.25766667 12.789,5.505 C12.971,5.75233333 13.062,6.156 13.062,6.716 L13.062,6.716 L13.062,11 L14.812,11 L14.812,6.66 C14.812,5.68 14.616,4.94966667 14.224,4.469 C13.832,3.98833333 13.2346667,3.748 12.432,3.748 C11.9186667,3.748 11.4543333,3.867 11.039,4.105 C10.6236667,4.343 10.304,4.672 10.08,5.092 C9.75333333,4.196 9.04866667,3.748 7.966,3.748 C7.462,3.748 7.01633333,3.86 6.629,4.084 C6.24166667,4.308 5.94533333,4.63 5.74,5.05 L5.74,5.05 L5.614,3.93 L3.976,3.93 C4.05066667,4.518 4.088,5.18533333 4.088,5.932 L4.088,5.932 L4.088,11 L5.824,11 Z M18.41,14.024 L18.41,9.866 C18.6246667,10.258 18.9326667,10.5636667 19.334,10.783 C19.7353333,11.0023333 20.1926667,11.112 20.706,11.112 C21.322,11.112 21.8656667,10.9626667 22.337,10.664 C22.8083333,10.3653333 23.1746667,9.94066667 23.436,9.39 C23.6973333,8.83933333 23.828,8.2 23.828,7.472 C23.828,6.744 23.695,6.09766667 23.429,5.533 C23.163,4.96833333 22.7943333,4.52966667 22.323,4.217 C21.8516667,3.90433333 21.3126667,3.748 20.706,3.748 C20.1553333,3.748 19.67,3.87166667 19.25,4.119 C18.83,4.36633333 18.5266667,4.70933333 18.34,5.148 L18.34,5.148 L18.2,3.93 L16.562,3.93 C16.6366667,4.518 16.674,5.18533333 16.674,5.932 L16.674,5.932 L16.674,14.024 L18.41,14.024 Z M20.23,9.74 C19.642,9.74 19.1893333,9.54166667 18.872,9.145 C18.5546667,8.74833333 18.396,8.18133333 18.396,7.444 C18.396,6.69733333 18.5546667,6.12333333 18.872,5.722 C19.1893333,5.32066667 19.6466667,5.12 20.244,5.12 C20.8226667,5.12 21.2706667,5.32766667 21.588,5.743 C21.9053333,6.15833333 22.064,6.73466667 22.064,7.472 C22.064,8.2 21.9053333,8.76 21.588,9.152 C21.2706667,9.544 20.818,9.74 20.23,9.74 Z M27.09,11 L27.09,0.696 L25.354,0.696 L25.354,11 L27.09,11 Z M32.34,11.112 C32.844,11.112 33.341,11.0303333 33.831,10.867 C34.321,10.7036667 34.734,10.4866667 35.07,10.216 L35.07,10.216 L34.566,9.012 C33.9033333,9.516 33.1846667,9.768 32.41,9.768 C31.738,9.768 31.2316667,9.58833333 30.891,9.229 C30.5503333,8.86966667 30.3613333,8.312 30.324,7.556 L30.324,7.556 L35.196,7.556 L35.196,7.29 C35.196,6.18866667 34.9136667,5.323 34.349,4.693 C33.7843333,4.063 33.0166667,3.748 32.046,3.748 C31.3833333,3.748 30.7906667,3.90433333 30.268,4.217 C29.7453333,4.52966667 29.3393333,4.966 29.05,5.526 C28.7606667,6.086 28.616,6.72533333 28.616,7.444 C28.616,8.58266667 28.9473333,9.47866667 29.61,10.132 C30.2726667,10.7853333 31.1826667,11.112 32.34,11.112 Z M33.67,6.618 L30.38,6.618 C30.464,6.09533333 30.653,5.69633333 30.947,5.421 C31.241,5.14566667 31.6213333,5.008 32.088,5.008 C32.5546667,5.008 32.921,5.14333333 33.187,5.414 C33.453,5.68466667 33.614,6.086 33.67,6.618 L33.67,6.618 Z M38.416,11 L38.416,7.052 C38.416,6.45466667 38.556,5.98566667 38.836,5.645 C39.116,5.30433333 39.4986667,5.134 39.984,5.134 C40.3946667,5.134 40.6956667,5.26 40.887,5.512 C41.0783333,5.764 41.174,6.16533333 41.174,6.716 L41.174,6.716 L41.174,11 L42.924,11 L42.924,7.052 C42.924,6.45466667 43.0616667,5.98566667 43.337,5.645 C43.6123333,5.30433333 43.9926667,5.134 44.478,5.134 C44.898,5.134 45.199,5.25766667 45.381,5.505 C45.563,5.75233333 45.654,6.156 45.654,6.716 L45.654,6.716 L45.654,11 L47.404,11 L47.404,6.66 C47.404,5.68 47.208,4.94966667 46.816,4.469 C46.424,3.98833333 45.8266667,3.748 45.024,3.748 C44.5106667,3.748 44.0463333,3.867 43.631,4.105 C43.2156667,4.343 42.896,4.672 42.672,5.092 C42.3453333,4.196 41.6406667,3.748 40.558,3.748 C40.054,3.748 39.6083333,3.86 39.221,4.084 C38.8336667,4.308 38.5373333,4.63 38.332,5.05 L38.332,5.05 L38.206,3.93 L36.568,3.93 C36.6426667,4.518 36.68,5.18533333 36.68,5.932 L36.68,5.932 L36.68,11 L38.416,11 Z M52.598,11.112 C53.102,11.112 53.599,11.0303333 54.089,10.867 C54.579,10.7036667 54.992,10.4866667 55.328,10.216 L55.328,10.216 L54.824,9.012 C54.1613333,9.516 53.4426667,9.768 52.668,9.768 C51.996,9.768 51.4896667,9.58833333 51.149,9.229 C50.8083333,8.86966667 50.6193333,8.312 50.582,7.556 L50.582,7.556 L55.454,7.556 L55.454,7.29 C55.454,6.18866667 55.1716667,5.323 54.607,4.693 C54.0423333,4.063 53.2746667,3.748 52.304,3.748 C51.6413333,3.748 51.0486667,3.90433333 50.526,4.217 C50.0033333,4.52966667 49.5973333,4.966 49.308,5.526 C49.0186667,6.086 48.874,6.72533333 48.874,7.444 C48.874,8.58266667 49.2053333,9.47866667 49.868,10.132 C50.5306667,10.7853333 51.4406667,11.112 52.598,11.112 Z M53.928,6.618 L50.638,6.618 C50.722,6.09533333 50.911,5.69633333 51.205,5.421 C51.499,5.14566667 51.8793333,5.008 52.346,5.008 C52.8126667,5.008 53.179,5.14333333 53.445,5.414 C53.711,5.68466667 53.872,6.086 53.928,6.618 L53.928,6.618 Z M58.674,11 L58.674,6.996 C58.674,6.436 58.8373333,5.98566667 59.164,5.645 C59.4906667,5.30433333 59.92,5.134 60.452,5.134 C60.9,5.134 61.2313333,5.26233333 61.446,5.519 C61.6606667,5.77566667 61.768,6.184 61.768,6.744 L61.768,6.744 L61.768,11 L63.518,11 L63.518,6.66 C63.518,4.71866667 62.6733333,3.748 60.984,3.748 C60.4613333,3.748 59.9923333,3.86466667 59.577,4.098 C59.1616667,4.33133333 58.8326667,4.66266667 58.59,5.092 L58.59,5.092 L58.464,3.93 L56.826,3.93 C56.9006667,4.518 56.938,5.18533333 56.938,5.932 L56.938,5.932 L56.938,11 L58.674,11 Z M68.348,11.098 C68.7866667,11.098 69.16,11.042 69.468,10.93 L69.468,10.93 L69.468,9.544 C69.216,9.61866667 68.9826667,9.656 68.768,9.656 C67.9933333,9.656 67.606,9.24066667 67.606,8.41 L67.606,8.41 L67.606,5.246 L69.482,5.246 L69.482,3.93 L67.606,3.93 L67.606,1.62 L65.856,2.208 L65.856,3.93 L64.498,3.93 L64.498,5.246 L65.856,5.246 L65.856,8.494 C65.856,9.334 66.0706667,9.978 66.5,10.426 C66.9293333,10.874 67.5453333,11.098 68.348,11.098 Z M73.43,11.112 C73.9433333,11.112 74.4006667,11.0023333 74.802,10.783 C75.2033333,10.5636667 75.5113333,10.258 75.726,9.866 L75.726,9.866 L75.726,11 L77.448,11 L77.448,3.93 L75.726,3.93 L75.726,4.994 C75.5113333,4.602 75.2033333,4.29633333 74.802,4.077 C74.4006667,3.85766667 73.9433333,3.748 73.43,3.748 C72.8233333,3.748 72.282,3.90433333 71.806,4.217 C71.33,4.52966667 70.959,4.96833333 70.693,5.533 C70.427,6.09766667 70.294,6.744 70.294,7.472 C70.294,8.2 70.4246667,8.83933333 70.686,9.39 C70.9473333,9.94066667 71.316,10.3653333 71.792,10.664 C72.268,10.9626667 72.814,11.112 73.43,11.112 Z M73.906,9.74 C73.318,9.74 72.863,9.544 72.541,9.152 C72.219,8.76 72.058,8.2 72.058,7.472 C72.058,6.73466667 72.219,6.15833333 72.541,5.743 C72.863,5.32766667 73.3133333,5.12 73.892,5.12 C74.48,5.12 74.9326667,5.32066667 75.25,5.722 C75.5673333,6.12333333 75.726,6.69733333 75.726,7.444 C75.726,8.172 75.5673333,8.73666667 75.25,9.138 C74.9326667,9.53933333 74.4846667,9.74 73.906,9.74 Z M82.558,11.112 C83.0806667,11.112 83.58,11.0326667 84.056,10.874 C84.532,10.7153333 84.9193333,10.496 85.218,10.216 L85.218,10.216 L84.728,8.984 C84.4293333,9.22666667 84.112,9.41333333 83.776,9.544 C83.44,9.67466667 83.1086667,9.74 82.782,9.74 C82.138,9.74 81.641,9.544 81.291,9.152 C80.941,8.76 80.766,8.19066667 80.766,7.444 C80.766,6.69733333 80.9433333,6.12566667 81.298,5.729 C81.6526667,5.33233333 82.1473333,5.134 82.782,5.134 C83.1086667,5.134 83.44,5.197 83.776,5.323 C84.112,5.449 84.4293333,5.63333333 84.728,5.876 L84.728,5.876 L85.218,4.644 C84.938,4.364 84.5623333,4.14466667 84.091,3.986 C83.6196667,3.82733333 83.132,3.748 82.628,3.748 C81.9,3.748 81.2583333,3.90433333 80.703,4.217 C80.1476667,4.52966667 79.7183333,4.966 79.415,5.526 C79.1116667,6.086 78.96,6.73466667 78.96,7.472 C78.96,8.20933333 79.1046667,8.851 79.394,9.397 C79.6833333,9.943 80.0986667,10.3653333 80.64,10.664 C81.1813333,10.9626667 81.8206667,11.112 82.558,11.112 Z M88.228,2.446 L88.228,0.724 L86.282,0.724 L86.282,2.446 L88.228,2.446 Z M88.13,11 L88.13,3.93 L86.394,3.93 L86.394,11 L88.13,11 Z M93.814,3.02 L95.872,0.136 L94.08,0.136 L92.68,3.02 L93.814,3.02 Z M93.254,11.112 C93.9633333,11.112 94.5886667,10.9626667 95.13,10.664 C95.6713333,10.3653333 96.089,9.93833333 96.383,9.383 C96.677,8.82766667 96.824,8.17666667 96.824,7.43 C96.824,6.68333333 96.677,6.03233333 96.383,5.477 C96.089,4.92166667 95.6713333,4.49466667 95.13,4.196 C94.5886667,3.89733333 93.9633333,3.748 93.254,3.748 C92.5353333,3.748 91.903,3.89733333 91.357,4.196 C90.811,4.49466667 90.391,4.92166667 90.097,5.477 C89.803,6.03233333 89.656,6.68333333 89.656,7.43 C89.656,8.17666667 89.803,8.82766667 90.097,9.383 C90.391,9.93833333 90.811,10.3653333 91.357,10.664 C91.903,10.9626667 92.5353333,11.112 93.254,11.112 Z M93.24,9.74 C92.652,9.74 92.2016667,9.54633333 91.889,9.159 C91.5763333,8.77166667 91.42,8.19533333 91.42,7.43 C91.42,6.674 91.5786667,6.09766667 91.896,5.701 C92.2133333,5.30433333 92.666,5.106 93.254,5.106 C93.8326667,5.106 94.2806667,5.30433333 94.598,5.701 C94.9153333,6.09766667 95.074,6.674 95.074,7.43 C95.074,8.19533333 94.9176667,8.77166667 94.605,9.159 C94.2923333,9.54633333 93.8373333,9.74 93.24,9.74 Z M100.072,11 L100.072,6.996 C100.072,6.436 100.235333,5.98566667 100.562,5.645 C100.888667,5.30433333 101.318,5.134 101.85,5.134 C102.298,5.134 102.629333,5.26233333 102.844,5.519 C103.058667,5.77566667 103.166,6.184 103.166,6.744 L103.166,6.744 L103.166,11 L104.916,11 L104.916,6.66 C104.916,4.71866667 104.071333,3.748 102.382,3.748 C101.859333,3.748 101.390333,3.86466667 100.975,4.098 C100.559667,4.33133333 100.230667,4.66266667 99.988,5.092 L99.988,5.092 L99.862,3.93 L98.224,3.93 C98.2986667,4.518 98.336,5.18533333 98.336,5.932 L98.336,5.932 L98.336,11 L100.072,11 Z" id="Implementación" fill="#4D4D4D" fill-rule="nonzero"></path>
                    </g>
                </g>
                <g id="atom-item-copy-15" transform="translate(826.000000, 3.000000)">
                    <g id="atom-item">
                        <ellipse id="element" stroke="url(#linearGradient-5)" stroke-width="5" fill="#FFFFFF" cx="40.0074074" cy="43" rx="10.1481481" ry="10"></ellipse>
                        <path d="M4.451,11.126 C5.80433333,11.126 6.83566667,10.7713333 7.545,10.062 C8.25433333,9.35266667 8.609,8.32133333 8.609,6.968 L8.609,6.968 L8.609,1.032 L6.831,1.032 L6.831,7.066 C6.831,7.91533333 6.628,8.564 6.222,9.012 C5.816,9.46 5.22566667,9.684 4.451,9.684 C3.65766667,9.684 3.06033333,9.46233333 2.659,9.019 C2.25766667,8.57566667 2.057,7.92466667 2.057,7.066 L2.057,7.066 L2.057,1.032 L0.279,1.032 L0.279,6.968 C0.279,8.33066667 0.631333333,9.36433333 1.336,10.069 C2.04066667,10.7736667 3.079,11.126 4.451,11.126 Z M13.159,11.112 C14.0643333,11.112 14.7783333,10.9206667 15.301,10.538 C15.8236667,10.1553333 16.085,9.63733333 16.085,8.984 C16.085,8.452 15.924,8.02033333 15.602,7.689 C15.28,7.35766667 14.769,7.11266667 14.069,6.954 L14.069,6.954 L12.865,6.688 C12.5383333,6.604 12.3073333,6.50133333 12.172,6.38 C12.0366667,6.25866667 11.969,6.09533333 11.969,5.89 C11.969,5.62866667 12.081,5.42333333 12.305,5.274 C12.529,5.12466667 12.8416667,5.05 13.243,5.05 C13.9896667,5.05 14.7176667,5.31133333 15.427,5.834 L15.427,5.834 L15.945,4.644 C15.5903333,4.35466667 15.1796667,4.133 14.713,3.979 C14.2463333,3.825 13.761,3.748 13.257,3.748 C12.6783333,3.748 12.1696667,3.84133333 11.731,4.028 C11.2923333,4.21466667 10.9516667,4.47366667 10.709,4.805 C10.4663333,5.13633333 10.345,5.51666667 10.345,5.946 C10.345,6.982 10.989,7.64 12.277,7.92 L12.277,7.92 L13.453,8.186 C13.8356667,8.27933333 14.1063333,8.389 14.265,8.515 C14.4236667,8.641 14.503,8.81133333 14.503,9.026 C14.503,9.278 14.3886667,9.474 14.16,9.614 C13.9313333,9.754 13.607,9.824 13.187,9.824 C12.2163333,9.824 11.353,9.544 10.597,8.984 L10.597,8.984 L10.107,10.216 C10.863,10.8133333 11.8803333,11.112 13.159,11.112 Z M20.915,11.112 C21.419,11.112 21.916,11.0303333 22.406,10.867 C22.896,10.7036667 23.309,10.4866667 23.645,10.216 L23.645,10.216 L23.141,9.012 C22.4783333,9.516 21.7596667,9.768 20.985,9.768 C20.313,9.768 19.8066667,9.58833333 19.466,9.229 C19.1253333,8.86966667 18.9363333,8.312 18.899,7.556 L18.899,7.556 L23.771,7.556 L23.771,7.29 C23.771,6.18866667 23.4886667,5.323 22.924,4.693 C22.3593333,4.063 21.5916667,3.748 20.621,3.748 C19.9583333,3.748 19.3656667,3.90433333 18.843,4.217 C18.3203333,4.52966667 17.9143333,4.966 17.625,5.526 C17.3356667,6.086 17.191,6.72533333 17.191,7.444 C17.191,8.58266667 17.5223333,9.47866667 18.185,10.132 C18.8476667,10.7853333 19.7576667,11.112 20.915,11.112 Z M22.245,6.618 L18.955,6.618 C19.039,6.09533333 19.228,5.69633333 19.522,5.421 C19.816,5.14566667 20.1963333,5.008 20.663,5.008 C21.1296667,5.008 21.496,5.14333333 21.762,5.414 C22.028,5.68466667 22.189,6.086 22.245,6.618 L22.245,6.618 Z M26.991,11 L26.991,7.178 C26.991,6.60866667 27.1473333,6.15133333 27.46,5.806 C27.7726667,5.46066667 28.2276667,5.288 28.825,5.288 C29.1423333,5.288 29.4503333,5.34866667 29.749,5.47 L29.749,5.47 L29.763,3.874 C29.567,3.79933333 29.3336667,3.762 29.063,3.762 C28.5776667,3.762 28.1436667,3.88333333 27.761,4.126 C27.3783333,4.36866667 27.0983333,4.71866667 26.921,5.176 L26.921,5.176 L26.781,3.93 L25.143,3.93 C25.2176667,4.518 25.255,5.18533333 25.255,5.932 L25.255,5.932 L25.255,11 L26.991,11 Z M37.547,11.098 C37.9856667,11.098 38.359,11.042 38.667,10.93 L38.667,10.93 L38.667,9.544 C38.415,9.61866667 38.1816667,9.656 37.967,9.656 C37.1923333,9.656 36.805,9.24066667 36.805,8.41 L36.805,8.41 L36.805,5.246 L38.681,5.246 L38.681,3.93 L36.805,3.93 L36.805,1.62 L35.055,2.208 L35.055,3.93 L33.697,3.93 L33.697,5.246 L35.055,5.246 L35.055,8.494 C35.055,9.334 35.2696667,9.978 35.699,10.426 C36.1283333,10.874 36.7443333,11.098 37.547,11.098 Z M43.217,11.112 C43.721,11.112 44.218,11.0303333 44.708,10.867 C45.198,10.7036667 45.611,10.4866667 45.947,10.216 L45.947,10.216 L45.443,9.012 C44.7803333,9.516 44.0616667,9.768 43.287,9.768 C42.615,9.768 42.1086667,9.58833333 41.768,9.229 C41.4273333,8.86966667 41.2383333,8.312 41.201,7.556 L41.201,7.556 L46.073,7.556 L46.073,7.29 C46.073,6.18866667 45.7906667,5.323 45.226,4.693 C44.6613333,4.063 43.8936667,3.748 42.923,3.748 C42.2603333,3.748 41.6676667,3.90433333 41.145,4.217 C40.6223333,4.52966667 40.2163333,4.966 39.927,5.526 C39.6376667,6.086 39.493,6.72533333 39.493,7.444 C39.493,8.58266667 39.8243333,9.47866667 40.487,10.132 C41.1496667,10.7853333 42.0596667,11.112 43.217,11.112 Z M44.547,6.618 L41.257,6.618 C41.341,6.09533333 41.53,5.69633333 41.824,5.421 C42.118,5.14566667 42.4983333,5.008 42.965,5.008 C43.4316667,5.008 43.798,5.14333333 44.064,5.414 C44.33,5.68466667 44.491,6.086 44.547,6.618 L44.547,6.618 Z M50.147,11.112 C51.0523333,11.112 51.7663333,10.9206667 52.289,10.538 C52.8116667,10.1553333 53.073,9.63733333 53.073,8.984 C53.073,8.452 52.912,8.02033333 52.59,7.689 C52.268,7.35766667 51.757,7.11266667 51.057,6.954 L51.057,6.954 L49.853,6.688 C49.5263333,6.604 49.2953333,6.50133333 49.16,6.38 C49.0246667,6.25866667 48.957,6.09533333 48.957,5.89 C48.957,5.62866667 49.069,5.42333333 49.293,5.274 C49.517,5.12466667 49.8296667,5.05 50.231,5.05 C50.9776667,5.05 51.7056667,5.31133333 52.415,5.834 L52.415,5.834 L52.933,4.644 C52.5783333,4.35466667 52.1676667,4.133 51.701,3.979 C51.2343333,3.825 50.749,3.748 50.245,3.748 C49.6663333,3.748 49.1576667,3.84133333 48.719,4.028 C48.2803333,4.21466667 47.9396667,4.47366667 47.697,4.805 C47.4543333,5.13633333 47.333,5.51666667 47.333,5.946 C47.333,6.982 47.977,7.64 49.265,7.92 L49.265,7.92 L50.441,8.186 C50.8236667,8.27933333 51.0943333,8.389 51.253,8.515 C51.4116667,8.641 51.491,8.81133333 51.491,9.026 C51.491,9.278 51.3766667,9.474 51.148,9.614 C50.9193333,9.754 50.595,9.824 50.175,9.824 C49.2043333,9.824 48.341,9.544 47.585,8.984 L47.585,8.984 L47.095,10.216 C47.851,10.8133333 48.8683333,11.112 50.147,11.112 Z M57.539,11.098 C57.9776667,11.098 58.351,11.042 58.659,10.93 L58.659,10.93 L58.659,9.544 C58.407,9.61866667 58.1736667,9.656 57.959,9.656 C57.1843333,9.656 56.797,9.24066667 56.797,8.41 L56.797,8.41 L56.797,5.246 L58.673,5.246 L58.673,3.93 L56.797,3.93 L56.797,1.62 L55.047,2.208 L55.047,3.93 L53.689,3.93 L53.689,5.246 L55.047,5.246 L55.047,8.494 C55.047,9.334 55.2616667,9.978 55.691,10.426 C56.1203333,10.874 56.7363333,11.098 57.539,11.098 Z M61.711,2.446 L61.711,0.724 L59.765,0.724 L59.765,2.446 L61.711,2.446 Z M61.613,11 L61.613,3.93 L59.877,3.93 L59.877,11 L61.613,11 Z M65.267,11 L65.267,6.996 C65.267,6.436 65.4303333,5.98566667 65.757,5.645 C66.0836667,5.30433333 66.513,5.134 67.045,5.134 C67.493,5.134 67.8243333,5.26233333 68.039,5.519 C68.2536667,5.77566667 68.361,6.184 68.361,6.744 L68.361,6.744 L68.361,11 L70.111,11 L70.111,6.66 C70.111,4.71866667 69.2663333,3.748 67.577,3.748 C67.0543333,3.748 66.5853333,3.86466667 66.17,4.098 C65.7546667,4.33133333 65.4256667,4.66266667 65.183,5.092 L65.183,5.092 L65.057,3.93 L63.419,3.93 C63.4936667,4.518 63.531,5.18533333 63.531,5.932 L63.531,5.932 L63.531,11 L65.267,11 Z M75.221,14.136 C76.397,14.136 77.2883333,13.8513333 77.895,13.282 C78.5016667,12.7126667 78.805,11.8773333 78.805,10.776 L78.805,10.776 L78.805,3.93 L77.069,3.93 L77.069,4.994 C76.8543333,4.602 76.544,4.29633333 76.138,4.077 C75.732,3.85766667 75.2676667,3.748 74.745,3.748 C74.129,3.748 73.5806667,3.895 73.1,4.189 C72.6193333,4.483 72.246,4.89833333 71.98,5.435 C71.714,5.97166667 71.581,6.58533333 71.581,7.276 C71.581,7.96666667 71.714,8.58033333 71.98,9.117 C72.246,9.65366667 72.6193333,10.069 73.1,10.363 C73.5806667,10.657 74.129,10.804 74.745,10.804 C75.2583333,10.804 75.7203333,10.685 76.131,10.447 C76.5416667,10.209 76.8543333,9.89866667 77.069,9.516 L77.069,9.516 L77.069,10.916 C77.069,12.1666667 76.439,12.792 75.179,12.792 C74.3296667,12.792 73.4756667,12.568 72.617,12.12 L72.617,12.12 L72.337,13.45 C73.1676667,13.9073333 74.129,14.136 75.221,14.136 Z M75.207,9.432 C74.6283333,9.432 74.1733333,9.24066667 73.842,8.858 C73.5106667,8.47533333 73.345,7.948 73.345,7.276 C73.345,6.604 73.5106667,6.07666667 73.842,5.694 C74.1733333,5.31133333 74.6283333,5.12 75.207,5.12 C75.795,5.12 76.2523333,5.31133333 76.579,5.694 C76.9056667,6.07666667 77.069,6.604 77.069,7.276 C77.069,7.948 76.9033333,8.47533333 76.572,8.858 C76.2406667,9.24066667 75.7856667,9.432 75.207,9.432 Z" id="Usertesting" fill="#4D4D4D" fill-rule="nonzero"></path>
                    </g>
                </g>
                <g id="atom-item-copy-16" transform="translate(960.000000, 3.000000)">
                    <g id="atom-item">
                        <ellipse id="element" stroke="url(#linearGradient-5)" stroke-width="5" fill="#FFFFFF" cx="43.0074074" cy="43" rx="10.1481481" ry="10"></ellipse>
                        <path d="M6.583,11 L6.583,9.516 L1.921,9.516 L1.921,1.032 L0.115,1.032 L0.115,11 L6.583,11 Z M10.573,11.112 C11.0863333,11.112 11.5436667,11.0023333 11.945,10.783 C12.3463333,10.5636667 12.6543333,10.258 12.869,9.866 L12.869,9.866 L12.869,11 L14.591,11 L14.591,3.93 L12.869,3.93 L12.869,4.994 C12.6543333,4.602 12.3463333,4.29633333 11.945,4.077 C11.5436667,3.85766667 11.0863333,3.748 10.573,3.748 C9.96633333,3.748 9.425,3.90433333 8.949,4.217 C8.473,4.52966667 8.102,4.96833333 7.836,5.533 C7.57,6.09766667 7.437,6.744 7.437,7.472 C7.437,8.2 7.56766667,8.83933333 7.829,9.39 C8.09033333,9.94066667 8.459,10.3653333 8.935,10.664 C9.411,10.9626667 9.957,11.112 10.573,11.112 Z M11.049,9.74 C10.461,9.74 10.006,9.544 9.684,9.152 C9.362,8.76 9.201,8.2 9.201,7.472 C9.201,6.73466667 9.362,6.15833333 9.684,5.743 C10.006,5.32766667 10.4563333,5.12 11.035,5.12 C11.623,5.12 12.0756667,5.32066667 12.393,5.722 C12.7103333,6.12333333 12.869,6.69733333 12.869,7.444 C12.869,8.172 12.7103333,8.73666667 12.393,9.138 C12.0756667,9.53933333 11.6276667,9.74 11.049,9.74 Z M18.231,11 L18.231,6.996 C18.231,6.436 18.3943333,5.98566667 18.721,5.645 C19.0476667,5.30433333 19.477,5.134 20.009,5.134 C20.457,5.134 20.7883333,5.26233333 21.003,5.519 C21.2176667,5.77566667 21.325,6.184 21.325,6.744 L21.325,6.744 L21.325,11 L23.075,11 L23.075,6.66 C23.075,4.71866667 22.2303333,3.748 20.541,3.748 C20.0183333,3.748 19.5493333,3.86466667 19.134,4.098 C18.7186667,4.33133333 18.3896667,4.66266667 18.147,5.092 L18.147,5.092 L18.021,3.93 L16.383,3.93 C16.4576667,4.518 16.495,5.18533333 16.495,5.932 L16.495,5.932 L16.495,11 L18.231,11 Z M30.817,11 L30.817,9.67 L26.743,9.67 L30.663,5.12 L30.663,3.93 L24.755,3.93 L24.755,5.246 L28.577,5.246 L24.671,9.782 L24.671,11 L30.817,11 Z M35.045,11.112 C35.5583333,11.112 36.0156667,11.0023333 36.417,10.783 C36.8183333,10.5636667 37.1263333,10.258 37.341,9.866 L37.341,9.866 L37.341,11 L39.063,11 L39.063,3.93 L37.341,3.93 L37.341,4.994 C37.1263333,4.602 36.8183333,4.29633333 36.417,4.077 C36.0156667,3.85766667 35.5583333,3.748 35.045,3.748 C34.4383333,3.748 33.897,3.90433333 33.421,4.217 C32.945,4.52966667 32.574,4.96833333 32.308,5.533 C32.042,6.09766667 31.909,6.744 31.909,7.472 C31.909,8.2 32.0396667,8.83933333 32.301,9.39 C32.5623333,9.94066667 32.931,10.3653333 33.407,10.664 C33.883,10.9626667 34.429,11.112 35.045,11.112 Z M35.521,9.74 C34.933,9.74 34.478,9.544 34.156,9.152 C33.834,8.76 33.673,8.2 33.673,7.472 C33.673,6.73466667 33.834,6.15833333 34.156,5.743 C34.478,5.32766667 34.9283333,5.12 35.507,5.12 C36.095,5.12 36.5476667,5.32066667 36.865,5.722 C37.1823333,6.12333333 37.341,6.69733333 37.341,7.444 C37.341,8.172 37.1823333,8.73666667 36.865,9.138 C36.5476667,9.53933333 36.0996667,9.74 35.521,9.74 Z M42.703,11 L42.703,7.052 C42.703,6.45466667 42.843,5.98566667 43.123,5.645 C43.403,5.30433333 43.7856667,5.134 44.271,5.134 C44.6816667,5.134 44.9826667,5.26 45.174,5.512 C45.3653333,5.764 45.461,6.16533333 45.461,6.716 L45.461,6.716 L45.461,11 L47.211,11 L47.211,7.052 C47.211,6.45466667 47.3486667,5.98566667 47.624,5.645 C47.8993333,5.30433333 48.2796667,5.134 48.765,5.134 C49.185,5.134 49.486,5.25766667 49.668,5.505 C49.85,5.75233333 49.941,6.156 49.941,6.716 L49.941,6.716 L49.941,11 L51.691,11 L51.691,6.66 C51.691,5.68 51.495,4.94966667 51.103,4.469 C50.711,3.98833333 50.1136667,3.748 49.311,3.748 C48.7976667,3.748 48.3333333,3.867 47.918,4.105 C47.5026667,4.343 47.183,4.672 46.959,5.092 C46.6323333,4.196 45.9276667,3.748 44.845,3.748 C44.341,3.748 43.8953333,3.86 43.508,4.084 C43.1206667,4.308 42.8243333,4.63 42.619,5.05 L42.619,5.05 L42.493,3.93 L40.855,3.93 C40.9296667,4.518 40.967,5.18533333 40.967,5.932 L40.967,5.932 L40.967,11 L42.703,11 Z M55.387,2.446 L55.387,0.724 L53.441,0.724 L53.441,2.446 L55.387,2.446 Z M55.289,11 L55.289,3.93 L53.553,3.93 L53.553,11 L55.289,11 Z M60.539,11.112 C61.043,11.112 61.54,11.0303333 62.03,10.867 C62.52,10.7036667 62.933,10.4866667 63.269,10.216 L63.269,10.216 L62.765,9.012 C62.1023333,9.516 61.3836667,9.768 60.609,9.768 C59.937,9.768 59.4306667,9.58833333 59.09,9.229 C58.7493333,8.86966667 58.5603333,8.312 58.523,7.556 L58.523,7.556 L63.395,7.556 L63.395,7.29 C63.395,6.18866667 63.1126667,5.323 62.548,4.693 C61.9833333,4.063 61.2156667,3.748 60.245,3.748 C59.5823333,3.748 58.9896667,3.90433333 58.467,4.217 C57.9443333,4.52966667 57.5383333,4.966 57.249,5.526 C56.9596667,6.086 56.815,6.72533333 56.815,7.444 C56.815,8.58266667 57.1463333,9.47866667 57.809,10.132 C58.4716667,10.7853333 59.3816667,11.112 60.539,11.112 Z M61.869,6.618 L58.579,6.618 C58.663,6.09533333 58.852,5.69633333 59.146,5.421 C59.44,5.14566667 59.8203333,5.008 60.287,5.008 C60.7536667,5.008 61.12,5.14333333 61.386,5.414 C61.652,5.68466667 61.813,6.086 61.869,6.618 L61.869,6.618 Z M66.615,11 L66.615,6.996 C66.615,6.436 66.7783333,5.98566667 67.105,5.645 C67.4316667,5.30433333 67.861,5.134 68.393,5.134 C68.841,5.134 69.1723333,5.26233333 69.387,5.519 C69.6016667,5.77566667 69.709,6.184 69.709,6.744 L69.709,6.744 L69.709,11 L71.459,11 L71.459,6.66 C71.459,4.71866667 70.6143333,3.748 68.925,3.748 C68.4023333,3.748 67.9333333,3.86466667 67.518,4.098 C67.1026667,4.33133333 66.7736667,4.66266667 66.531,5.092 L66.531,5.092 L66.405,3.93 L64.767,3.93 C64.8416667,4.518 64.879,5.18533333 64.879,5.932 L64.879,5.932 L64.879,11 L66.615,11 Z M76.289,11.098 C76.7276667,11.098 77.101,11.042 77.409,10.93 L77.409,10.93 L77.409,9.544 C77.157,9.61866667 76.9236667,9.656 76.709,9.656 C75.9343333,9.656 75.547,9.24066667 75.547,8.41 L75.547,8.41 L75.547,5.246 L77.423,5.246 L77.423,3.93 L75.547,3.93 L75.547,1.62 L73.797,2.208 L73.797,3.93 L72.439,3.93 L72.439,5.246 L73.797,5.246 L73.797,8.494 C73.797,9.334 74.0116667,9.978 74.441,10.426 C74.8703333,10.874 75.4863333,11.098 76.289,11.098 Z M81.833,11.112 C82.5423333,11.112 83.1676667,10.9626667 83.709,10.664 C84.2503333,10.3653333 84.668,9.93833333 84.962,9.383 C85.256,8.82766667 85.403,8.17666667 85.403,7.43 C85.403,6.68333333 85.256,6.03233333 84.962,5.477 C84.668,4.92166667 84.2503333,4.49466667 83.709,4.196 C83.1676667,3.89733333 82.5423333,3.748 81.833,3.748 C81.1143333,3.748 80.482,3.89733333 79.936,4.196 C79.39,4.49466667 78.97,4.92166667 78.676,5.477 C78.382,6.03233333 78.235,6.68333333 78.235,7.43 C78.235,8.17666667 78.382,8.82766667 78.676,9.383 C78.97,9.93833333 79.39,10.3653333 79.936,10.664 C80.482,10.9626667 81.1143333,11.112 81.833,11.112 Z M81.819,9.74 C81.231,9.74 80.7806667,9.54633333 80.468,9.159 C80.1553333,8.77166667 79.999,8.19533333 79.999,7.43 C79.999,6.674 80.1576667,6.09766667 80.475,5.701 C80.7923333,5.30433333 81.245,5.106 81.833,5.106 C82.4116667,5.106 82.8596667,5.30433333 83.177,5.701 C83.4943333,6.09766667 83.653,6.674 83.653,7.43 C83.653,8.19533333 83.4966667,8.77166667 83.184,9.159 C82.8713333,9.54633333 82.4163333,9.74 81.819,9.74 Z" id="Lanzamiento" fill="#4D4D4D" fill-rule="nonzero"></path>
                    </g>
                </g>
            </g>
        </g>
    </g>
</svg>