<?xml version="1.0" encoding="UTF-8"?>
<svg width="361px" height="539px" viewBox="0 0 361 539" version="1.1" xmlns="http://www.w3.org/2000/svg" xmlns:xlink="http://www.w3.org/1999/xlink">
    <!-- Generator: Sketch 63.1 (92452) - https://sketch.com -->
    <title>Group 2</title>
    <desc>Created with Sketch.</desc>
    <defs>
        <linearGradient x1="56.7006093%" y1="101.299426%" x2="43.0260308%" y2="0%" id="linearGradient-1">
            <stop stop-color="#09EDD1" offset="0%"></stop>
            <stop stop-color="#08DBD9" offset="22.5582699%"></stop>
            <stop stop-color="#05BCE6" offset="24.6637543%"></stop>
            <stop stop-color="#0082FF" offset="43.896506%"></stop>
            <stop stop-color="#FB4179" offset="65.5678878%"></stop>
            <stop stop-color="#E93273" offset="100%"></stop>
        </linearGradient>
        <linearGradient x1="104.735782%" y1="72.1413359%" x2="-13.244301%" y2="50%" id="linearGradient-2">
            <stop stop-color="#17EAD9" offset="0%"></stop>
            <stop stop-color="#6078EA" offset="100%"></stop>
        </linearGradient>
        <linearGradient x1="28.8825832%" y1="29.2201466%" x2="-17.2175252%" y2="98.5508019%" id="linearGradient-3">
            <stop stop-color="#17EAD9" offset="0%"></stop>
            <stop stop-color="#6078EA" offset="100%"></stop>
        </linearGradient>
        <linearGradient x1="116.941592%" y1="-13.6471905%" x2="222.962214%" y2="98.5508019%" id="linearGradient-4">
            <stop stop-color="#4FC7FF" offset="0%"></stop>
            <stop stop-color="#0076FF" offset="100%"></stop>
        </linearGradient>
        <linearGradient x1="50%" y1="0%" x2="50%" y2="100%" id="linearGradient-5">
            <stop stop-color="#00AEFF" offset="0%"></stop>
            <stop stop-color="#0076FF" offset="100%"></stop>
        </linearGradient>
        <linearGradient x1="50%" y1="117.811656%" x2="50%" y2="-18.4208766%" id="linearGradient-6">
            <stop stop-color="#E52E71" offset="0%"></stop>
            <stop stop-color="#FF457B" offset="100%"></stop>
        </linearGradient>
    </defs>
    <g id="CV" stroke="none" stroke-width="1" fill="none" fill-rule="evenodd">
        <g id="Group-2" transform="translate(-49.000000, -3.000000)">
            <polyline id="Path-3" stroke="url(#linearGradient-1)" stroke-width="6" transform="translate(219.500000, 284.000000) rotate(-180.000000) translate(-219.500000, -284.000000) " points="128 39 311 109 128 179 311 249 128 318 311 389 128 459 311 529"></polyline>
            <g id="atom-item">
                <g>
                    <ellipse id="element" stroke="url(#linearGradient-2)" stroke-width="5" fill="#FFFFFF" cx="128.007407" cy="39" rx="10.1481481" ry="10"></ellipse>
                    <path d="M51.418,14 L51.418,4.032 L49.612,4.032 L49.612,14 L51.418,14 Z M55.184,14 L55.184,9.996 C55.184,9.436 55.3473333,8.98566667 55.674,8.645 C56.0006667,8.30433333 56.43,8.134 56.962,8.134 C57.41,8.134 57.7413333,8.26233333 57.956,8.519 C58.1706667,8.77566667 58.278,9.184 58.278,9.744 L58.278,9.744 L58.278,14 L60.028,14 L60.028,9.66 C60.028,7.71866667 59.1833333,6.748 57.494,6.748 C56.9713333,6.748 56.5023333,6.86466667 56.087,7.098 C55.6716667,7.33133333 55.3426667,7.66266667 55.1,8.092 L55.1,8.092 L54.974,6.93 L53.336,6.93 C53.4106667,7.518 53.448,8.18533333 53.448,8.932 L53.448,8.932 L53.448,14 L55.184,14 Z M65.488,14 L68.582,6.944 L66.846,6.944 L64.774,12.012 L62.744,6.944 L60.91,6.944 L63.962,14 L65.488,14 Z M72.824,14.112 C73.328,14.112 73.825,14.0303333 74.315,13.867 C74.805,13.7036667 75.218,13.4866667 75.554,13.216 L75.554,13.216 L75.05,12.012 C74.3873333,12.516 73.6686667,12.768 72.894,12.768 C72.222,12.768 71.7156667,12.5883333 71.375,12.229 C71.0343333,11.8696667 70.8453333,11.312 70.808,10.556 L70.808,10.556 L75.68,10.556 L75.68,10.29 C75.68,9.18866667 75.3976667,8.323 74.833,7.693 C74.2683333,7.063 73.5006667,6.748 72.53,6.748 C71.8673333,6.748 71.2746667,6.90433333 70.752,7.217 C70.2293333,7.52966667 69.8233333,7.966 69.534,8.526 C69.2446667,9.086 69.1,9.72533333 69.1,10.444 C69.1,11.5826667 69.4313333,12.4786667 70.094,13.132 C70.7566667,13.7853333 71.6666667,14.112 72.824,14.112 Z M74.154,9.618 L70.864,9.618 C70.948,9.09533333 71.137,8.69633333 71.431,8.421 C71.725,8.14566667 72.1053333,8.008 72.572,8.008 C73.0386667,8.008 73.405,8.14333333 73.671,8.414 C73.937,8.68466667 74.098,9.086 74.154,9.618 L74.154,9.618 Z M79.754,14.112 C80.6593333,14.112 81.3733333,13.9206667 81.896,13.538 C82.4186667,13.1553333 82.68,12.6373333 82.68,11.984 C82.68,11.452 82.519,11.0203333 82.197,10.689 C81.875,10.3576667 81.364,10.1126667 80.664,9.954 L80.664,9.954 L79.46,9.688 C79.1333333,9.604 78.9023333,9.50133333 78.767,9.38 C78.6316667,9.25866667 78.564,9.09533333 78.564,8.89 C78.564,8.62866667 78.676,8.42333333 78.9,8.274 C79.124,8.12466667 79.4366667,8.05 79.838,8.05 C80.5846667,8.05 81.3126667,8.31133333 82.022,8.834 L82.022,8.834 L82.54,7.644 C82.1853333,7.35466667 81.7746667,7.133 81.308,6.979 C80.8413333,6.825 80.356,6.748 79.852,6.748 C79.2733333,6.748 78.7646667,6.84133333 78.326,7.028 C77.8873333,7.21466667 77.5466667,7.47366667 77.304,7.805 C77.0613333,8.13633333 76.94,8.51666667 76.94,8.946 C76.94,9.982 77.584,10.64 78.872,10.92 L78.872,10.92 L80.048,11.186 C80.4306667,11.2793333 80.7013333,11.389 80.86,11.515 C81.0186667,11.641 81.098,11.8113333 81.098,12.026 C81.098,12.278 80.9836667,12.474 80.755,12.614 C80.5263333,12.754 80.202,12.824 79.782,12.824 C78.8113333,12.824 77.948,12.544 77.192,11.984 L77.192,11.984 L76.702,13.216 C77.458,13.8133333 78.4753333,14.112 79.754,14.112 Z M87.146,14.098 C87.5846667,14.098 87.958,14.042 88.266,13.93 L88.266,13.93 L88.266,12.544 C88.014,12.6186667 87.7806667,12.656 87.566,12.656 C86.7913333,12.656 86.404,12.2406667 86.404,11.41 L86.404,11.41 L86.404,8.246 L88.28,8.246 L88.28,6.93 L86.404,6.93 L86.404,4.62 L84.654,5.208 L84.654,6.93 L83.296,6.93 L83.296,8.246 L84.654,8.246 L84.654,11.494 C84.654,12.334 84.8686667,12.978 85.298,13.426 C85.7273333,13.874 86.3433333,14.098 87.146,14.098 Z M91.318,5.446 L91.318,3.724 L89.372,3.724 L89.372,5.446 L91.318,5.446 Z M91.22,14 L91.22,6.93 L89.484,6.93 L89.484,14 L91.22,14 Z M96.386,17.136 C97.562,17.136 98.4533333,16.8513333 99.06,16.282 C99.6666667,15.7126667 99.97,14.8773333 99.97,13.776 L99.97,13.776 L99.97,6.93 L98.234,6.93 L98.234,7.994 C98.0193333,7.602 97.709,7.29633333 97.303,7.077 C96.897,6.85766667 96.4326667,6.748 95.91,6.748 C95.294,6.748 94.7456667,6.895 94.265,7.189 C93.7843333,7.483 93.411,7.89833333 93.145,8.435 C92.879,8.97166667 92.746,9.58533333 92.746,10.276 C92.746,10.9666667 92.879,11.5803333 93.145,12.117 C93.411,12.6536667 93.7843333,13.069 94.265,13.363 C94.7456667,13.657 95.294,13.804 95.91,13.804 C96.4233333,13.804 96.8853333,13.685 97.296,13.447 C97.7066667,13.209 98.0193333,12.8986667 98.234,12.516 L98.234,12.516 L98.234,13.916 C98.234,15.1666667 97.604,15.792 96.344,15.792 C95.4946667,15.792 94.6406667,15.568 93.782,15.12 L93.782,15.12 L93.502,16.45 C94.3326667,16.9073333 95.294,17.136 96.386,17.136 Z M96.372,12.432 C95.7933333,12.432 95.3383333,12.2406667 95.007,11.858 C94.6756667,11.4753333 94.51,10.948 94.51,10.276 C94.51,9.604 94.6756667,9.07666667 95.007,8.694 C95.3383333,8.31133333 95.7933333,8.12 96.372,8.12 C96.96,8.12 97.4173333,8.31133333 97.744,8.694 C98.0706667,9.07666667 98.234,9.604 98.234,10.276 C98.234,10.948 98.0683333,11.4753333 97.737,11.858 C97.4056667,12.2406667 96.9506667,12.432 96.372,12.432 Z M104.604,14.112 C105.117333,14.112 105.574667,14.0023333 105.976,13.783 C106.377333,13.5636667 106.685333,13.258 106.9,12.866 L106.9,12.866 L106.9,14 L108.622,14 L108.622,6.93 L106.9,6.93 L106.9,7.994 C106.685333,7.602 106.377333,7.29633333 105.976,7.077 C105.574667,6.85766667 105.117333,6.748 104.604,6.748 C103.997333,6.748 103.456,6.90433333 102.98,7.217 C102.504,7.52966667 102.133,7.96833333 101.867,8.533 C101.601,9.09766667 101.468,9.744 101.468,10.472 C101.468,11.2 101.598667,11.8393333 101.86,12.39 C102.121333,12.9406667 102.49,13.3653333 102.966,13.664 C103.442,13.9626667 103.988,14.112 104.604,14.112 Z M105.08,12.74 C104.492,12.74 104.037,12.544 103.715,12.152 C103.393,11.76 103.232,11.2 103.232,10.472 C103.232,9.73466667 103.393,9.15833333 103.715,8.743 C104.037,8.32766667 104.487333,8.12 105.066,8.12 C105.654,8.12 106.106667,8.32066667 106.424,8.722 C106.741333,9.12333333 106.9,9.69733333 106.9,10.444 C106.9,11.172 106.741333,11.7366667 106.424,12.138 C106.106667,12.5393333 105.658667,12.74 105.08,12.74 Z M113.732,14.112 C114.254667,14.112 114.754,14.0326667 115.23,13.874 C115.706,13.7153333 116.093333,13.496 116.392,13.216 L116.392,13.216 L115.902,11.984 C115.603333,12.2266667 115.286,12.4133333 114.95,12.544 C114.614,12.6746667 114.282667,12.74 113.956,12.74 C113.312,12.74 112.815,12.544 112.465,12.152 C112.115,11.76 111.94,11.1906667 111.94,10.444 C111.94,9.69733333 112.117333,9.12566667 112.472,8.729 C112.826667,8.33233333 113.321333,8.134 113.956,8.134 C114.282667,8.134 114.614,8.197 114.95,8.323 C115.286,8.449 115.603333,8.63333333 115.902,8.876 L115.902,8.876 L116.392,7.644 C116.112,7.364 115.736333,7.14466667 115.265,6.986 C114.793667,6.82733333 114.306,6.748 113.802,6.748 C113.074,6.748 112.432333,6.90433333 111.877,7.217 C111.321667,7.52966667 110.892333,7.966 110.589,8.526 C110.285667,9.086 110.134,9.73466667 110.134,10.472 C110.134,11.2093333 110.278667,11.851 110.568,12.397 C110.857333,12.943 111.272667,13.3653333 111.814,13.664 C112.355333,13.9626667 112.994667,14.112 113.732,14.112 Z M119.402,5.446 L119.402,3.724 L117.456,3.724 L117.456,5.446 L119.402,5.446 Z M119.304,14 L119.304,6.93 L117.568,6.93 L117.568,14 L119.304,14 Z M124.988,6.02 L127.046,3.136 L125.254,3.136 L123.854,6.02 L124.988,6.02 Z M124.428,14.112 C125.137333,14.112 125.762667,13.9626667 126.304,13.664 C126.845333,13.3653333 127.263,12.9383333 127.557,12.383 C127.851,11.8276667 127.998,11.1766667 127.998,10.43 C127.998,9.68333333 127.851,9.03233333 127.557,8.477 C127.263,7.92166667 126.845333,7.49466667 126.304,7.196 C125.762667,6.89733333 125.137333,6.748 124.428,6.748 C123.709333,6.748 123.077,6.89733333 122.531,7.196 C121.985,7.49466667 121.565,7.92166667 121.271,8.477 C120.977,9.03233333 120.83,9.68333333 120.83,10.43 C120.83,11.1766667 120.977,11.8276667 121.271,12.383 C121.565,12.9383333 121.985,13.3653333 122.531,13.664 C123.077,13.9626667 123.709333,14.112 124.428,14.112 Z M124.414,12.74 C123.826,12.74 123.375667,12.5463333 123.063,12.159 C122.750333,11.7716667 122.594,11.1953333 122.594,10.43 C122.594,9.674 122.752667,9.09766667 123.07,8.701 C123.387333,8.30433333 123.84,8.106 124.428,8.106 C125.006667,8.106 125.454667,8.30433333 125.772,8.701 C126.089333,9.09766667 126.248,9.674 126.248,10.43 C126.248,11.1953333 126.091667,11.7716667 125.779,12.159 C125.466333,12.5463333 125.011333,12.74 124.414,12.74 Z M131.246,14 L131.246,9.996 C131.246,9.436 131.409333,8.98566667 131.736,8.645 C132.062667,8.30433333 132.492,8.134 133.024,8.134 C133.472,8.134 133.803333,8.26233333 134.018,8.519 C134.232667,8.77566667 134.34,9.184 134.34,9.744 L134.34,9.744 L134.34,14 L136.09,14 L136.09,9.66 C136.09,7.71866667 135.245333,6.748 133.556,6.748 C133.033333,6.748 132.564333,6.86466667 132.149,7.098 C131.733667,7.33133333 131.404667,7.66266667 131.162,8.092 L131.162,8.092 L131.036,6.93 L129.398,6.93 C129.472667,7.518 129.51,8.18533333 129.51,8.932 L129.51,8.932 L129.51,14 L131.246,14 Z" id="Investigación" fill="#4D4D4D" fill-rule="nonzero"></path>
                </g>
            </g>
            <g id="atom-item-copy" transform="translate(300.000000, 70.000000)">
                <g id="atom-item">
                    <ellipse id="element" stroke="url(#linearGradient-3)" stroke-width="5" fill="#FFFFFF" cx="11.0074074" cy="39" rx="10.1481481" ry="10"></ellipse>
                    <path d="M8.452,14.126 C9.264,14.126 9.96866667,14.0046667 10.566,13.762 C11.1633333,13.5193333 11.6206667,13.1763333 11.938,12.733 C12.2553333,12.2896667 12.414,11.7693333 12.414,11.172 C12.414,10.6306667 12.274,10.1803333 11.994,9.821 C11.714,9.46166667 11.3126667,9.16766667 10.79,8.939 C10.2673333,8.71033333 9.59066667,8.498 8.76,8.302 C7.95733333,8.12466667 7.39033333,7.93333333 7.059,7.728 C6.72766667,7.52266667 6.562,7.224 6.562,6.832 C6.562,6.37466667 6.74866667,6.013 7.122,5.747 C7.49533333,5.481 8.004,5.348 8.648,5.348 C9.72133333,5.348 10.7013333,5.70266667 11.588,6.412 L11.588,6.412 L12.19,5.096 C11.7886667,4.72266667 11.273,4.431 10.643,4.221 C10.013,4.011 9.348,3.906 8.648,3.906 C7.88266667,3.906 7.20833333,4.03666667 6.625,4.298 C6.04166667,4.55933333 5.59133333,4.91866667 5.274,5.376 C4.95666667,5.83333333 4.798,6.356 4.798,6.944 C4.798,7.76533333 5.08266667,8.39066667 5.652,8.82 C6.22133333,9.24933333 7.13133333,9.59933333 8.382,9.87 C9.18466667,10.0473333 9.761,10.2363333 10.111,10.437 C10.461,10.6376667 10.636,10.9246667 10.636,11.298 C10.636,11.7366667 10.447,12.0773333 10.069,12.32 C9.691,12.5626667 9.15666667,12.684 8.466,12.684 C7.84066667,12.684 7.26433333,12.5976667 6.737,12.425 C6.20966667,12.2523333 5.70333333,11.984 5.218,11.62 L5.218,11.62 L4.602,12.936 C5.06866667,13.3186667 5.63566667,13.6126667 6.303,13.818 C6.97033333,14.0233333 7.68666667,14.126 8.452,14.126 Z M15.802,5.446 L15.802,3.724 L13.856,3.724 L13.856,5.446 L15.802,5.446 Z M15.704,14 L15.704,6.93 L13.968,6.93 L13.968,14 L15.704,14 Z M19.358,14 L19.358,9.996 C19.358,9.436 19.5213333,8.98566667 19.848,8.645 C20.1746667,8.30433333 20.604,8.134 21.136,8.134 C21.584,8.134 21.9153333,8.26233333 22.13,8.519 C22.3446667,8.77566667 22.452,9.184 22.452,9.744 L22.452,9.744 L22.452,14 L24.202,14 L24.202,9.66 C24.202,7.71866667 23.3573333,6.748 21.668,6.748 C21.1453333,6.748 20.6763333,6.86466667 20.261,7.098 C19.8456667,7.33133333 19.5166667,7.66266667 19.274,8.092 L19.274,8.092 L19.148,6.93 L17.51,6.93 C17.5846667,7.518 17.622,8.18533333 17.622,8.932 L17.622,8.932 L17.622,14 L19.358,14 Z M29.032,14.098 C29.4706667,14.098 29.844,14.042 30.152,13.93 L30.152,13.93 L30.152,12.544 C29.9,12.6186667 29.6666667,12.656 29.452,12.656 C28.6773333,12.656 28.29,12.2406667 28.29,11.41 L28.29,11.41 L28.29,8.246 L30.166,8.246 L30.166,6.93 L28.29,6.93 L28.29,4.62 L26.54,5.208 L26.54,6.93 L25.182,6.93 L25.182,8.246 L26.54,8.246 L26.54,11.494 C26.54,12.334 26.7546667,12.978 27.184,13.426 C27.6133333,13.874 28.2293333,14.098 29.032,14.098 Z M34.702,14.112 C35.206,14.112 35.703,14.0303333 36.193,13.867 C36.683,13.7036667 37.096,13.4866667 37.432,13.216 L37.432,13.216 L36.928,12.012 C36.2653333,12.516 35.5466667,12.768 34.772,12.768 C34.1,12.768 33.5936667,12.5883333 33.253,12.229 C32.9123333,11.8696667 32.7233333,11.312 32.686,10.556 L32.686,10.556 L37.558,10.556 L37.558,10.29 C37.558,9.18866667 37.2756667,8.323 36.711,7.693 C36.1463333,7.063 35.3786667,6.748 34.408,6.748 C33.7453333,6.748 33.1526667,6.90433333 32.63,7.217 C32.1073333,7.52966667 31.7013333,7.966 31.412,8.526 C31.1226667,9.086 30.978,9.72533333 30.978,10.444 C30.978,11.5826667 31.3093333,12.4786667 31.972,13.132 C32.6346667,13.7853333 33.5446667,14.112 34.702,14.112 Z M36.032,9.618 L32.742,9.618 C32.826,9.09533333 33.015,8.69633333 33.309,8.421 C33.603,8.14566667 33.9833333,8.008 34.45,8.008 C34.9166667,8.008 35.283,8.14333333 35.549,8.414 C35.815,8.68466667 35.976,9.086 36.032,9.618 L36.032,9.618 Z M42.01,14.098 C42.4486667,14.098 42.822,14.042 43.13,13.93 L43.13,13.93 L43.13,12.544 C42.878,12.6186667 42.6446667,12.656 42.43,12.656 C41.6553333,12.656 41.268,12.2406667 41.268,11.41 L41.268,11.41 L41.268,8.246 L43.144,8.246 L43.144,6.93 L41.268,6.93 L41.268,4.62 L39.518,5.208 L39.518,6.93 L38.16,6.93 L38.16,8.246 L39.518,8.246 L39.518,11.494 C39.518,12.334 39.7326667,12.978 40.162,13.426 C40.5913333,13.874 41.2073333,14.098 42.01,14.098 Z M46.182,5.446 L46.182,3.724 L44.236,3.724 L44.236,5.446 L46.182,5.446 Z M46.084,14 L46.084,6.93 L44.348,6.93 L44.348,14 L46.084,14 Z M53.882,14 L53.882,12.67 L49.808,12.67 L53.728,8.12 L53.728,6.93 L47.82,6.93 L47.82,8.246 L51.642,8.246 L47.736,12.782 L47.736,14 L53.882,14 Z M58.11,14.112 C58.6233333,14.112 59.0806667,14.0023333 59.482,13.783 C59.8833333,13.5636667 60.1913333,13.258 60.406,12.866 L60.406,12.866 L60.406,14 L62.128,14 L62.128,6.93 L60.406,6.93 L60.406,7.994 C60.1913333,7.602 59.8833333,7.29633333 59.482,7.077 C59.0806667,6.85766667 58.6233333,6.748 58.11,6.748 C57.5033333,6.748 56.962,6.90433333 56.486,7.217 C56.01,7.52966667 55.639,7.96833333 55.373,8.533 C55.107,9.09766667 54.974,9.744 54.974,10.472 C54.974,11.2 55.1046667,11.8393333 55.366,12.39 C55.6273333,12.9406667 55.996,13.3653333 56.472,13.664 C56.948,13.9626667 57.494,14.112 58.11,14.112 Z M58.586,12.74 C57.998,12.74 57.543,12.544 57.221,12.152 C56.899,11.76 56.738,11.2 56.738,10.472 C56.738,9.73466667 56.899,9.15833333 57.221,8.743 C57.543,8.32766667 57.9933333,8.12 58.572,8.12 C59.16,8.12 59.6126667,8.32066667 59.93,8.722 C60.2473333,9.12333333 60.406,9.69733333 60.406,10.444 C60.406,11.172 60.2473333,11.7366667 59.93,12.138 C59.6126667,12.5393333 59.1646667,12.74 58.586,12.74 Z M65.768,14 L65.768,10.178 C65.768,9.60866667 65.9243333,9.15133333 66.237,8.806 C66.5496667,8.46066667 67.0046667,8.288 67.602,8.288 C67.9193333,8.288 68.2273333,8.34866667 68.526,8.47 L68.526,8.47 L68.54,6.874 C68.344,6.79933333 68.1106667,6.762 67.84,6.762 C67.3546667,6.762 66.9206667,6.88333333 66.538,7.126 C66.1553333,7.36866667 65.8753333,7.71866667 65.698,8.176 L65.698,8.176 L65.558,6.93 L63.92,6.93 C63.9946667,7.518 64.032,8.18533333 64.032,8.932 L64.032,8.932 L64.032,14 L65.768,14 Z" id="Sintetizar" fill="#4D4D4D" fill-rule="nonzero"></path>
                </g>
            </g>
            <g id="atom-item-copy-6" transform="translate(0.000000, 140.000000)">
                <g id="atom-item">
                    <ellipse id="element" stroke="url(#linearGradient-4)" stroke-width="5" fill="#FFFFFF" cx="128.007407" cy="39" rx="10.1481481" ry="10"></ellipse>
                    <path d="M91.682,14 L91.682,4.032 L89.876,4.032 L89.876,14 L91.682,14 Z M96.456,14.112 C96.9693333,14.112 97.4266667,14.0023333 97.828,13.783 C98.2293333,13.5636667 98.5373333,13.258 98.752,12.866 L98.752,12.866 L98.752,14 L100.474,14 L100.474,3.696 L98.724,3.696 L98.724,7.952 C98.5093333,7.56933333 98.2036667,7.273 97.807,7.063 C97.4103333,6.853 96.96,6.748 96.456,6.748 C95.84,6.748 95.294,6.89966667 94.818,7.203 C94.342,7.50633333 93.9733333,7.93333333 93.712,8.484 C93.4506667,9.03466667 93.32,9.674 93.32,10.402 C93.32,11.13 93.453,11.7763333 93.719,12.341 C93.985,12.9056667 94.356,13.342 94.832,13.65 C95.308,13.958 95.8493333,14.112 96.456,14.112 Z M96.918,12.74 C96.3393333,12.74 95.889,12.5346667 95.567,12.124 C95.245,11.7133333 95.084,11.1393333 95.084,10.402 C95.084,9.674 95.245,9.11166667 95.567,8.715 C95.889,8.31833333 96.344,8.12 96.932,8.12 C97.5106667,8.12 97.9586667,8.32066667 98.276,8.722 C98.5933333,9.12333333 98.752,9.69266667 98.752,10.43 C98.752,11.1673333 98.591,11.7366667 98.269,12.138 C97.947,12.5393333 97.4966667,12.74 96.918,12.74 Z M105.71,14.112 C106.214,14.112 106.711,14.0303333 107.201,13.867 C107.691,13.7036667 108.104,13.4866667 108.44,13.216 L108.44,13.216 L107.936,12.012 C107.273333,12.516 106.554667,12.768 105.78,12.768 C105.108,12.768 104.601667,12.5883333 104.261,12.229 C103.920333,11.8696667 103.731333,11.312 103.694,10.556 L103.694,10.556 L108.566,10.556 L108.566,10.29 C108.566,9.18866667 108.283667,8.323 107.719,7.693 C107.154333,7.063 106.386667,6.748 105.416,6.748 C104.753333,6.748 104.160667,6.90433333 103.638,7.217 C103.115333,7.52966667 102.709333,7.966 102.42,8.526 C102.130667,9.086 101.986,9.72533333 101.986,10.444 C101.986,11.5826667 102.317333,12.4786667 102.98,13.132 C103.642667,13.7853333 104.552667,14.112 105.71,14.112 Z M107.04,9.618 L103.75,9.618 C103.834,9.09533333 104.023,8.69633333 104.317,8.421 C104.611,8.14566667 104.991333,8.008 105.458,8.008 C105.924667,8.008 106.291,8.14333333 106.557,8.414 C106.823,8.68466667 106.984,9.086 107.04,9.618 L107.04,9.618 Z M111.786,14 L111.786,9.996 C111.786,9.436 111.949333,8.98566667 112.276,8.645 C112.602667,8.30433333 113.032,8.134 113.564,8.134 C114.012,8.134 114.343333,8.26233333 114.558,8.519 C114.772667,8.77566667 114.88,9.184 114.88,9.744 L114.88,9.744 L114.88,14 L116.63,14 L116.63,9.66 C116.63,7.71866667 115.785333,6.748 114.096,6.748 C113.573333,6.748 113.104333,6.86466667 112.689,7.098 C112.273667,7.33133333 111.944667,7.66266667 111.702,8.092 L111.702,8.092 L111.576,6.93 L109.938,6.93 C110.012667,7.518 110.05,8.18533333 110.05,8.932 L110.05,8.932 L110.05,14 L111.786,14 Z M121.46,14.098 C121.898667,14.098 122.272,14.042 122.58,13.93 L122.58,13.93 L122.58,12.544 C122.328,12.6186667 122.094667,12.656 121.88,12.656 C121.105333,12.656 120.718,12.2406667 120.718,11.41 L120.718,11.41 L120.718,8.246 L122.594,8.246 L122.594,6.93 L120.718,6.93 L120.718,4.62 L118.968,5.208 L118.968,6.93 L117.61,6.93 L117.61,8.246 L118.968,8.246 L118.968,11.494 C118.968,12.334 119.182667,12.978 119.612,13.426 C120.041333,13.874 120.657333,14.098 121.46,14.098 Z M126.542,14.112 C127.055333,14.112 127.512667,14.0023333 127.914,13.783 C128.315333,13.5636667 128.623333,13.258 128.838,12.866 L128.838,12.866 L128.838,14 L130.56,14 L130.56,6.93 L128.838,6.93 L128.838,7.994 C128.623333,7.602 128.315333,7.29633333 127.914,7.077 C127.512667,6.85766667 127.055333,6.748 126.542,6.748 C125.935333,6.748 125.394,6.90433333 124.918,7.217 C124.442,7.52966667 124.071,7.96833333 123.805,8.533 C123.539,9.09766667 123.406,9.744 123.406,10.472 C123.406,11.2 123.536667,11.8393333 123.798,12.39 C124.059333,12.9406667 124.428,13.3653333 124.904,13.664 C125.38,13.9626667 125.926,14.112 126.542,14.112 Z M127.018,12.74 C126.43,12.74 125.975,12.544 125.653,12.152 C125.331,11.76 125.17,11.2 125.17,10.472 C125.17,9.73466667 125.331,9.15833333 125.653,8.743 C125.975,8.32766667 126.425333,8.12 127.004,8.12 C127.592,8.12 128.044667,8.32066667 128.362,8.722 C128.679333,9.12333333 128.838,9.69733333 128.838,10.444 C128.838,11.172 128.679333,11.7366667 128.362,12.138 C128.044667,12.5393333 127.596667,12.74 127.018,12.74 Z M134.2,14 L134.2,10.178 C134.2,9.60866667 134.356333,9.15133333 134.669,8.806 C134.981667,8.46066667 135.436667,8.288 136.034,8.288 C136.351333,8.288 136.659333,8.34866667 136.958,8.47 L136.958,8.47 L136.972,6.874 C136.776,6.79933333 136.542667,6.762 136.272,6.762 C135.786667,6.762 135.352667,6.88333333 134.97,7.126 C134.587333,7.36866667 134.307333,7.71866667 134.13,8.176 L134.13,8.176 L133.99,6.93 L132.352,6.93 C132.426667,7.518 132.464,8.18533333 132.464,8.932 L132.464,8.932 L132.464,14 L134.2,14 Z" id="Identar" fill="#4D4D4D" fill-rule="nonzero"></path>
                </g>
            </g>
            <g id="atom-item-copy-9" transform="translate(300.000000, 213.000000)">
                <g id="atom-item">
                    <ellipse id="element" stroke="url(#linearGradient-5)" stroke-width="5" fill="#FFFFFF" cx="11.0074074" cy="36" rx="10.1481481" ry="10"></ellipse>
                    <path d="M6.884,11 L6.884,6.842 L9.404,6.842 C10.468,6.842 11.301,6.58066667 11.903,6.058 C12.505,5.53533333 12.806,4.826 12.806,3.93 C12.806,3.034 12.5073333,2.327 11.91,1.809 C11.3126667,1.291 10.4773333,1.032 9.404,1.032 L9.404,1.032 L5.078,1.032 L5.078,11 L6.884,11 Z M9.194,5.442 L6.884,5.442 L6.884,2.432 L9.194,2.432 C9.82866667,2.432 10.3046667,2.56033333 10.622,2.817 C10.9393333,3.07366667 11.098,3.44933333 11.098,3.944 C11.098,4.42933333 10.937,4.80033333 10.615,5.057 C10.293,5.31366667 9.81933333,5.442 9.194,5.442 L9.194,5.442 Z M16.012,11 L16.012,7.178 C16.012,6.60866667 16.1683333,6.15133333 16.481,5.806 C16.7936667,5.46066667 17.2486667,5.288 17.846,5.288 C18.1633333,5.288 18.4713333,5.34866667 18.77,5.47 L18.77,5.47 L18.784,3.874 C18.588,3.79933333 18.3546667,3.762 18.084,3.762 C17.5986667,3.762 17.1646667,3.88333333 16.782,4.126 C16.3993333,4.36866667 16.1193333,4.71866667 15.942,5.176 L15.942,5.176 L15.802,3.93 L14.164,3.93 C14.2386667,4.518 14.276,5.18533333 14.276,5.932 L14.276,5.932 L14.276,11 L16.012,11 Z M22.97,11.112 C23.6793333,11.112 24.3046667,10.9626667 24.846,10.664 C25.3873333,10.3653333 25.805,9.93833333 26.099,9.383 C26.393,8.82766667 26.54,8.17666667 26.54,7.43 C26.54,6.68333333 26.393,6.03233333 26.099,5.477 C25.805,4.92166667 25.3873333,4.49466667 24.846,4.196 C24.3046667,3.89733333 23.6793333,3.748 22.97,3.748 C22.2513333,3.748 21.619,3.89733333 21.073,4.196 C20.527,4.49466667 20.107,4.92166667 19.813,5.477 C19.519,6.03233333 19.372,6.68333333 19.372,7.43 C19.372,8.17666667 19.519,8.82766667 19.813,9.383 C20.107,9.93833333 20.527,10.3653333 21.073,10.664 C21.619,10.9626667 22.2513333,11.112 22.97,11.112 Z M22.956,9.74 C22.368,9.74 21.9176667,9.54633333 21.605,9.159 C21.2923333,8.77166667 21.136,8.19533333 21.136,7.43 C21.136,6.674 21.2946667,6.09766667 21.612,5.701 C21.9293333,5.30433333 22.382,5.106 22.97,5.106 C23.5486667,5.106 23.9966667,5.30433333 24.314,5.701 C24.6313333,6.09766667 24.79,6.674 24.79,7.43 C24.79,8.19533333 24.6336667,8.77166667 24.321,9.159 C24.0083333,9.54633333 23.5533333,9.74 22.956,9.74 Z M31.02,11.098 C31.4586667,11.098 31.832,11.042 32.14,10.93 L32.14,10.93 L32.14,9.544 C31.888,9.61866667 31.6546667,9.656 31.44,9.656 C30.6653333,9.656 30.278,9.24066667 30.278,8.41 L30.278,8.41 L30.278,5.246 L32.154,5.246 L32.154,3.93 L30.278,3.93 L30.278,1.62 L28.528,2.208 L28.528,3.93 L27.17,3.93 L27.17,5.246 L28.528,5.246 L28.528,8.494 C28.528,9.334 28.7426667,9.978 29.172,10.426 C29.6013333,10.874 30.2173333,11.098 31.02,11.098 Z M36.564,11.112 C37.2733333,11.112 37.8986667,10.9626667 38.44,10.664 C38.9813333,10.3653333 39.399,9.93833333 39.693,9.383 C39.987,8.82766667 40.134,8.17666667 40.134,7.43 C40.134,6.68333333 39.987,6.03233333 39.693,5.477 C39.399,4.92166667 38.9813333,4.49466667 38.44,4.196 C37.8986667,3.89733333 37.2733333,3.748 36.564,3.748 C35.8453333,3.748 35.213,3.89733333 34.667,4.196 C34.121,4.49466667 33.701,4.92166667 33.407,5.477 C33.113,6.03233333 32.966,6.68333333 32.966,7.43 C32.966,8.17666667 33.113,8.82766667 33.407,9.383 C33.701,9.93833333 34.121,10.3653333 34.667,10.664 C35.213,10.9626667 35.8453333,11.112 36.564,11.112 Z M36.55,9.74 C35.962,9.74 35.5116667,9.54633333 35.199,9.159 C34.8863333,8.77166667 34.73,8.19533333 34.73,7.43 C34.73,6.674 34.8886667,6.09766667 35.206,5.701 C35.5233333,5.30433333 35.976,5.106 36.564,5.106 C37.1426667,5.106 37.5906667,5.30433333 37.908,5.701 C38.2253333,6.09766667 38.384,6.674 38.384,7.43 C38.384,8.19533333 38.2276667,8.77166667 37.915,9.159 C37.6023333,9.54633333 37.1473333,9.74 36.55,9.74 Z M44.614,11.098 C45.0526667,11.098 45.426,11.042 45.734,10.93 L45.734,10.93 L45.734,9.544 C45.482,9.61866667 45.2486667,9.656 45.034,9.656 C44.2593333,9.656 43.872,9.24066667 43.872,8.41 L43.872,8.41 L43.872,5.246 L45.748,5.246 L45.748,3.93 L43.872,3.93 L43.872,1.62 L42.122,2.208 L42.122,3.93 L40.764,3.93 L40.764,5.246 L42.122,5.246 L42.122,8.494 C42.122,9.334 42.3366667,9.978 42.766,10.426 C43.1953333,10.874 43.8113333,11.098 44.614,11.098 Z M48.786,2.446 L48.786,0.724 L46.84,0.724 L46.84,2.446 L48.786,2.446 Z M48.688,11 L48.688,3.93 L46.952,3.93 L46.952,11 L48.688,11 Z M52.342,14.024 L52.342,9.866 C52.5566667,10.258 52.8646667,10.5636667 53.266,10.783 C53.6673333,11.0023333 54.1246667,11.112 54.638,11.112 C55.254,11.112 55.7976667,10.9626667 56.269,10.664 C56.7403333,10.3653333 57.1066667,9.94066667 57.368,9.39 C57.6293333,8.83933333 57.76,8.2 57.76,7.472 C57.76,6.744 57.627,6.09766667 57.361,5.533 C57.095,4.96833333 56.7263333,4.52966667 56.255,4.217 C55.7836667,3.90433333 55.2446667,3.748 54.638,3.748 C54.0873333,3.748 53.602,3.87166667 53.182,4.119 C52.762,4.36633333 52.4586667,4.70933333 52.272,5.148 L52.272,5.148 L52.132,3.93 L50.494,3.93 C50.5686667,4.518 50.606,5.18533333 50.606,5.932 L50.606,5.932 L50.606,14.024 L52.342,14.024 Z M54.162,9.74 C53.574,9.74 53.1213333,9.54166667 52.804,9.145 C52.4866667,8.74833333 52.328,8.18133333 52.328,7.444 C52.328,6.69733333 52.4866667,6.12333333 52.804,5.722 C53.1213333,5.32066667 53.5786667,5.12 54.176,5.12 C54.7546667,5.12 55.2026667,5.32766667 55.52,5.743 C55.8373333,6.15833333 55.996,6.73466667 55.996,7.472 C55.996,8.2 55.8373333,8.76 55.52,9.152 C55.2026667,9.544 54.75,9.74 54.162,9.74 Z M62.492,11.112 C63.2013333,11.112 63.8266667,10.9626667 64.368,10.664 C64.9093333,10.3653333 65.327,9.93833333 65.621,9.383 C65.915,8.82766667 66.062,8.17666667 66.062,7.43 C66.062,6.68333333 65.915,6.03233333 65.621,5.477 C65.327,4.92166667 64.9093333,4.49466667 64.368,4.196 C63.8266667,3.89733333 63.2013333,3.748 62.492,3.748 C61.7733333,3.748 61.141,3.89733333 60.595,4.196 C60.049,4.49466667 59.629,4.92166667 59.335,5.477 C59.041,6.03233333 58.894,6.68333333 58.894,7.43 C58.894,8.17666667 59.041,8.82766667 59.335,9.383 C59.629,9.93833333 60.049,10.3653333 60.595,10.664 C61.141,10.9626667 61.7733333,11.112 62.492,11.112 Z M62.478,9.74 C61.89,9.74 61.4396667,9.54633333 61.127,9.159 C60.8143333,8.77166667 60.658,8.19533333 60.658,7.43 C60.658,6.674 60.8166667,6.09766667 61.134,5.701 C61.4513333,5.30433333 61.904,5.106 62.492,5.106 C63.0706667,5.106 63.5186667,5.30433333 63.836,5.701 C64.1533333,6.09766667 64.312,6.674 64.312,7.43 C64.312,8.19533333 64.1556667,8.77166667 63.843,9.159 C63.5303333,9.54633333 63.0753333,9.74 62.478,9.74 Z" id="Prototipo" fill="#4D4D4D" fill-rule="nonzero"></path>
                </g>
            </g>
            <g id="atom-item-copy-10" transform="translate(0.000000, 280.000000)">
                <g id="atom-item">
                    <ellipse id="element" stroke="url(#linearGradient-5)" stroke-width="5" fill="#FFFFFF" cx="128.007407" cy="39" rx="10.1481481" ry="10"></ellipse>
                    <path d="M71.956,14 L76.394,4.032 L74.56,4.032 L71.242,11.732 L67.924,4.032 L66.048,4.032 L70.486,14 L71.956,14 Z M79.964,14.112 C80.4773333,14.112 80.9346667,14.0023333 81.336,13.783 C81.7373333,13.5636667 82.0453333,13.258 82.26,12.866 L82.26,12.866 L82.26,14 L83.982,14 L83.982,6.93 L82.26,6.93 L82.26,7.994 C82.0453333,7.602 81.7373333,7.29633333 81.336,7.077 C80.9346667,6.85766667 80.4773333,6.748 79.964,6.748 C79.3573333,6.748 78.816,6.90433333 78.34,7.217 C77.864,7.52966667 77.493,7.96833333 77.227,8.533 C76.961,9.09766667 76.828,9.744 76.828,10.472 C76.828,11.2 76.9586667,11.8393333 77.22,12.39 C77.4813333,12.9406667 77.85,13.3653333 78.326,13.664 C78.802,13.9626667 79.348,14.112 79.964,14.112 Z M80.44,12.74 C79.852,12.74 79.397,12.544 79.075,12.152 C78.753,11.76 78.592,11.2 78.592,10.472 C78.592,9.73466667 78.753,9.15833333 79.075,8.743 C79.397,8.32766667 79.8473333,8.12 80.426,8.12 C81.014,8.12 81.4666667,8.32066667 81.784,8.722 C82.1013333,9.12333333 82.26,9.69733333 82.26,10.444 C82.26,11.172 82.1013333,11.7366667 81.784,12.138 C81.4666667,12.5393333 81.0186667,12.74 80.44,12.74 Z M87.622,14 L87.622,3.696 L85.886,3.696 L85.886,14 L87.622,14 Z M91.374,5.446 L91.374,3.724 L89.428,3.724 L89.428,5.446 L91.374,5.446 Z M91.276,14 L91.276,6.93 L89.54,6.93 L89.54,14 L91.276,14 Z M95.938,14.112 C96.4513333,14.112 96.9086667,14.0023333 97.31,13.783 C97.7113333,13.5636667 98.0193333,13.258 98.234,12.866 L98.234,12.866 L98.234,14 L99.956,14 L99.956,3.696 L98.206,3.696 L98.206,7.952 C97.9913333,7.56933333 97.6856667,7.273 97.289,7.063 C96.8923333,6.853 96.442,6.748 95.938,6.748 C95.322,6.748 94.776,6.89966667 94.3,7.203 C93.824,7.50633333 93.4553333,7.93333333 93.194,8.484 C92.9326667,9.03466667 92.802,9.674 92.802,10.402 C92.802,11.13 92.935,11.7763333 93.201,12.341 C93.467,12.9056667 93.838,13.342 94.314,13.65 C94.79,13.958 95.3313333,14.112 95.938,14.112 Z M96.4,12.74 C95.8213333,12.74 95.371,12.5346667 95.049,12.124 C94.727,11.7133333 94.566,11.1393333 94.566,10.402 C94.566,9.674 94.727,9.11166667 95.049,8.715 C95.371,8.31833333 95.826,8.12 96.414,8.12 C96.9926667,8.12 97.4406667,8.32066667 97.758,8.722 C98.0753333,9.12333333 98.234,9.69266667 98.234,10.43 C98.234,11.1673333 98.073,11.7366667 97.751,12.138 C97.429,12.5393333 96.9786667,12.74 96.4,12.74 Z M104.604,14.112 C105.117333,14.112 105.574667,14.0023333 105.976,13.783 C106.377333,13.5636667 106.685333,13.258 106.9,12.866 L106.9,12.866 L106.9,14 L108.622,14 L108.622,6.93 L106.9,6.93 L106.9,7.994 C106.685333,7.602 106.377333,7.29633333 105.976,7.077 C105.574667,6.85766667 105.117333,6.748 104.604,6.748 C103.997333,6.748 103.456,6.90433333 102.98,7.217 C102.504,7.52966667 102.133,7.96833333 101.867,8.533 C101.601,9.09766667 101.468,9.744 101.468,10.472 C101.468,11.2 101.598667,11.8393333 101.86,12.39 C102.121333,12.9406667 102.49,13.3653333 102.966,13.664 C103.442,13.9626667 103.988,14.112 104.604,14.112 Z M105.08,12.74 C104.492,12.74 104.037,12.544 103.715,12.152 C103.393,11.76 103.232,11.2 103.232,10.472 C103.232,9.73466667 103.393,9.15833333 103.715,8.743 C104.037,8.32766667 104.487333,8.12 105.066,8.12 C105.654,8.12 106.106667,8.32066667 106.424,8.722 C106.741333,9.12333333 106.9,9.69733333 106.9,10.444 C106.9,11.172 106.741333,11.7366667 106.424,12.138 C106.106667,12.5393333 105.658667,12.74 105.08,12.74 Z M113.732,14.112 C114.254667,14.112 114.754,14.0326667 115.23,13.874 C115.706,13.7153333 116.093333,13.496 116.392,13.216 L116.392,13.216 L115.902,11.984 C115.603333,12.2266667 115.286,12.4133333 114.95,12.544 C114.614,12.6746667 114.282667,12.74 113.956,12.74 C113.312,12.74 112.815,12.544 112.465,12.152 C112.115,11.76 111.94,11.1906667 111.94,10.444 C111.94,9.69733333 112.117333,9.12566667 112.472,8.729 C112.826667,8.33233333 113.321333,8.134 113.956,8.134 C114.282667,8.134 114.614,8.197 114.95,8.323 C115.286,8.449 115.603333,8.63333333 115.902,8.876 L115.902,8.876 L116.392,7.644 C116.112,7.364 115.736333,7.14466667 115.265,6.986 C114.793667,6.82733333 114.306,6.748 113.802,6.748 C113.074,6.748 112.432333,6.90433333 111.877,7.217 C111.321667,7.52966667 110.892333,7.966 110.589,8.526 C110.285667,9.086 110.134,9.73466667 110.134,10.472 C110.134,11.2093333 110.278667,11.851 110.568,12.397 C110.857333,12.943 111.272667,13.3653333 111.814,13.664 C112.355333,13.9626667 112.994667,14.112 113.732,14.112 Z M119.402,5.446 L119.402,3.724 L117.456,3.724 L117.456,5.446 L119.402,5.446 Z M119.304,14 L119.304,6.93 L117.568,6.93 L117.568,14 L119.304,14 Z M124.988,6.02 L127.046,3.136 L125.254,3.136 L123.854,6.02 L124.988,6.02 Z M124.428,14.112 C125.137333,14.112 125.762667,13.9626667 126.304,13.664 C126.845333,13.3653333 127.263,12.9383333 127.557,12.383 C127.851,11.8276667 127.998,11.1766667 127.998,10.43 C127.998,9.68333333 127.851,9.03233333 127.557,8.477 C127.263,7.92166667 126.845333,7.49466667 126.304,7.196 C125.762667,6.89733333 125.137333,6.748 124.428,6.748 C123.709333,6.748 123.077,6.89733333 122.531,7.196 C121.985,7.49466667 121.565,7.92166667 121.271,8.477 C120.977,9.03233333 120.83,9.68333333 120.83,10.43 C120.83,11.1766667 120.977,11.8276667 121.271,12.383 C121.565,12.9383333 121.985,13.3653333 122.531,13.664 C123.077,13.9626667 123.709333,14.112 124.428,14.112 Z M124.414,12.74 C123.826,12.74 123.375667,12.5463333 123.063,12.159 C122.750333,11.7716667 122.594,11.1953333 122.594,10.43 C122.594,9.674 122.752667,9.09766667 123.07,8.701 C123.387333,8.30433333 123.84,8.106 124.428,8.106 C125.006667,8.106 125.454667,8.30433333 125.772,8.701 C126.089333,9.09766667 126.248,9.674 126.248,10.43 C126.248,11.1953333 126.091667,11.7716667 125.779,12.159 C125.466333,12.5463333 125.011333,12.74 124.414,12.74 Z M131.246,14 L131.246,9.996 C131.246,9.436 131.409333,8.98566667 131.736,8.645 C132.062667,8.30433333 132.492,8.134 133.024,8.134 C133.472,8.134 133.803333,8.26233333 134.018,8.519 C134.232667,8.77566667 134.34,9.184 134.34,9.744 L134.34,9.744 L134.34,14 L136.09,14 L136.09,9.66 C136.09,7.71866667 135.245333,6.748 133.556,6.748 C133.033333,6.748 132.564333,6.86466667 132.149,7.098 C131.733667,7.33133333 131.404667,7.66266667 131.162,8.092 L131.162,8.092 L131.036,6.93 L129.398,6.93 C129.472667,7.518 129.51,8.18533333 129.51,8.932 L129.51,8.932 L129.51,14 L131.246,14 Z" id="Validación" fill="#4D4D4D" fill-rule="nonzero"></path>
                </g>
            </g>
            <g id="atom-item-copy-5" transform="translate(300.000000, 350.000000)">
                <g id="atom-item">
                    <ellipse id="element" stroke="url(#linearGradient-6)" stroke-width="5" fill="#FFFFFF" cx="11.0074074" cy="39" rx="10.1481481" ry="10"></ellipse>
                    <path d="M6.884,14 L6.884,4.032 L5.078,4.032 L5.078,14 L6.884,14 Z M10.65,14 L10.65,10.052 C10.65,9.45466667 10.79,8.98566667 11.07,8.645 C11.35,8.30433333 11.7326667,8.134 12.218,8.134 C12.6286667,8.134 12.9296667,8.26 13.121,8.512 C13.3123333,8.764 13.408,9.16533333 13.408,9.716 L13.408,9.716 L13.408,14 L15.158,14 L15.158,10.052 C15.158,9.45466667 15.2956667,8.98566667 15.571,8.645 C15.8463333,8.30433333 16.2266667,8.134 16.712,8.134 C17.132,8.134 17.433,8.25766667 17.615,8.505 C17.797,8.75233333 17.888,9.156 17.888,9.716 L17.888,9.716 L17.888,14 L19.638,14 L19.638,9.66 C19.638,8.68 19.442,7.94966667 19.05,7.469 C18.658,6.98833333 18.0606667,6.748 17.258,6.748 C16.7446667,6.748 16.2803333,6.867 15.865,7.105 C15.4496667,7.343 15.13,7.672 14.906,8.092 C14.5793333,7.196 13.8746667,6.748 12.792,6.748 C12.288,6.748 11.8423333,6.86 11.455,7.084 C11.0676667,7.308 10.7713333,7.63 10.566,8.05 L10.566,8.05 L10.44,6.93 L8.802,6.93 C8.87666667,7.518 8.914,8.18533333 8.914,8.932 L8.914,8.932 L8.914,14 L10.65,14 Z M23.236,17.024 L23.236,12.866 C23.4506667,13.258 23.7586667,13.5636667 24.16,13.783 C24.5613333,14.0023333 25.0186667,14.112 25.532,14.112 C26.148,14.112 26.6916667,13.9626667 27.163,13.664 C27.6343333,13.3653333 28.0006667,12.9406667 28.262,12.39 C28.5233333,11.8393333 28.654,11.2 28.654,10.472 C28.654,9.744 28.521,9.09766667 28.255,8.533 C27.989,7.96833333 27.6203333,7.52966667 27.149,7.217 C26.6776667,6.90433333 26.1386667,6.748 25.532,6.748 C24.9813333,6.748 24.496,6.87166667 24.076,7.119 C23.656,7.36633333 23.3526667,7.70933333 23.166,8.148 L23.166,8.148 L23.026,6.93 L21.388,6.93 C21.4626667,7.518 21.5,8.18533333 21.5,8.932 L21.5,8.932 L21.5,17.024 L23.236,17.024 Z M25.056,12.74 C24.468,12.74 24.0153333,12.5416667 23.698,12.145 C23.3806667,11.7483333 23.222,11.1813333 23.222,10.444 C23.222,9.69733333 23.3806667,9.12333333 23.698,8.722 C24.0153333,8.32066667 24.4726667,8.12 25.07,8.12 C25.6486667,8.12 26.0966667,8.32766667 26.414,8.743 C26.7313333,9.15833333 26.89,9.73466667 26.89,10.472 C26.89,11.2 26.7313333,11.76 26.414,12.152 C26.0966667,12.544 25.644,12.74 25.056,12.74 Z M31.916,14 L31.916,3.696 L30.18,3.696 L30.18,14 L31.916,14 Z M37.166,14.112 C37.67,14.112 38.167,14.0303333 38.657,13.867 C39.147,13.7036667 39.56,13.4866667 39.896,13.216 L39.896,13.216 L39.392,12.012 C38.7293333,12.516 38.0106667,12.768 37.236,12.768 C36.564,12.768 36.0576667,12.5883333 35.717,12.229 C35.3763333,11.8696667 35.1873333,11.312 35.15,10.556 L35.15,10.556 L40.022,10.556 L40.022,10.29 C40.022,9.18866667 39.7396667,8.323 39.175,7.693 C38.6103333,7.063 37.8426667,6.748 36.872,6.748 C36.2093333,6.748 35.6166667,6.90433333 35.094,7.217 C34.5713333,7.52966667 34.1653333,7.966 33.876,8.526 C33.5866667,9.086 33.442,9.72533333 33.442,10.444 C33.442,11.5826667 33.7733333,12.4786667 34.436,13.132 C35.0986667,13.7853333 36.0086667,14.112 37.166,14.112 Z M38.496,9.618 L35.206,9.618 C35.29,9.09533333 35.479,8.69633333 35.773,8.421 C36.067,8.14566667 36.4473333,8.008 36.914,8.008 C37.3806667,8.008 37.747,8.14333333 38.013,8.414 C38.279,8.68466667 38.44,9.086 38.496,9.618 L38.496,9.618 Z M43.242,14 L43.242,10.052 C43.242,9.45466667 43.382,8.98566667 43.662,8.645 C43.942,8.30433333 44.3246667,8.134 44.81,8.134 C45.2206667,8.134 45.5216667,8.26 45.713,8.512 C45.9043333,8.764 46,9.16533333 46,9.716 L46,9.716 L46,14 L47.75,14 L47.75,10.052 C47.75,9.45466667 47.8876667,8.98566667 48.163,8.645 C48.4383333,8.30433333 48.8186667,8.134 49.304,8.134 C49.724,8.134 50.025,8.25766667 50.207,8.505 C50.389,8.75233333 50.48,9.156 50.48,9.716 L50.48,9.716 L50.48,14 L52.23,14 L52.23,9.66 C52.23,8.68 52.034,7.94966667 51.642,7.469 C51.25,6.98833333 50.6526667,6.748 49.85,6.748 C49.3366667,6.748 48.8723333,6.867 48.457,7.105 C48.0416667,7.343 47.722,7.672 47.498,8.092 C47.1713333,7.196 46.4666667,6.748 45.384,6.748 C44.88,6.748 44.4343333,6.86 44.047,7.084 C43.6596667,7.308 43.3633333,7.63 43.158,8.05 L43.158,8.05 L43.032,6.93 L41.394,6.93 C41.4686667,7.518 41.506,8.18533333 41.506,8.932 L41.506,8.932 L41.506,14 L43.242,14 Z M57.424,14.112 C57.928,14.112 58.425,14.0303333 58.915,13.867 C59.405,13.7036667 59.818,13.4866667 60.154,13.216 L60.154,13.216 L59.65,12.012 C58.9873333,12.516 58.2686667,12.768 57.494,12.768 C56.822,12.768 56.3156667,12.5883333 55.975,12.229 C55.6343333,11.8696667 55.4453333,11.312 55.408,10.556 L55.408,10.556 L60.28,10.556 L60.28,10.29 C60.28,9.18866667 59.9976667,8.323 59.433,7.693 C58.8683333,7.063 58.1006667,6.748 57.13,6.748 C56.4673333,6.748 55.8746667,6.90433333 55.352,7.217 C54.8293333,7.52966667 54.4233333,7.966 54.134,8.526 C53.8446667,9.086 53.7,9.72533333 53.7,10.444 C53.7,11.5826667 54.0313333,12.4786667 54.694,13.132 C55.3566667,13.7853333 56.2666667,14.112 57.424,14.112 Z M58.754,9.618 L55.464,9.618 C55.548,9.09533333 55.737,8.69633333 56.031,8.421 C56.325,8.14566667 56.7053333,8.008 57.172,8.008 C57.6386667,8.008 58.005,8.14333333 58.271,8.414 C58.537,8.68466667 58.698,9.086 58.754,9.618 L58.754,9.618 Z M63.5,14 L63.5,9.996 C63.5,9.436 63.6633333,8.98566667 63.99,8.645 C64.3166667,8.30433333 64.746,8.134 65.278,8.134 C65.726,8.134 66.0573333,8.26233333 66.272,8.519 C66.4866667,8.77566667 66.594,9.184 66.594,9.744 L66.594,9.744 L66.594,14 L68.344,14 L68.344,9.66 C68.344,7.71866667 67.4993333,6.748 65.81,6.748 C65.2873333,6.748 64.8183333,6.86466667 64.403,7.098 C63.9876667,7.33133333 63.6586667,7.66266667 63.416,8.092 L63.416,8.092 L63.29,6.93 L61.652,6.93 C61.7266667,7.518 61.764,8.18533333 61.764,8.932 L61.764,8.932 L61.764,14 L63.5,14 Z M73.174,14.098 C73.6126667,14.098 73.986,14.042 74.294,13.93 L74.294,13.93 L74.294,12.544 C74.042,12.6186667 73.8086667,12.656 73.594,12.656 C72.8193333,12.656 72.432,12.2406667 72.432,11.41 L72.432,11.41 L72.432,8.246 L74.308,8.246 L74.308,6.93 L72.432,6.93 L72.432,4.62 L70.682,5.208 L70.682,6.93 L69.324,6.93 L69.324,8.246 L70.682,8.246 L70.682,11.494 C70.682,12.334 70.8966667,12.978 71.326,13.426 C71.7553333,13.874 72.3713333,14.098 73.174,14.098 Z M78.256,14.112 C78.7693333,14.112 79.2266667,14.0023333 79.628,13.783 C80.0293333,13.5636667 80.3373333,13.258 80.552,12.866 L80.552,12.866 L80.552,14 L82.274,14 L82.274,6.93 L80.552,6.93 L80.552,7.994 C80.3373333,7.602 80.0293333,7.29633333 79.628,7.077 C79.2266667,6.85766667 78.7693333,6.748 78.256,6.748 C77.6493333,6.748 77.108,6.90433333 76.632,7.217 C76.156,7.52966667 75.785,7.96833333 75.519,8.533 C75.253,9.09766667 75.12,9.744 75.12,10.472 C75.12,11.2 75.2506667,11.8393333 75.512,12.39 C75.7733333,12.9406667 76.142,13.3653333 76.618,13.664 C77.094,13.9626667 77.64,14.112 78.256,14.112 Z M78.732,12.74 C78.144,12.74 77.689,12.544 77.367,12.152 C77.045,11.76 76.884,11.2 76.884,10.472 C76.884,9.73466667 77.045,9.15833333 77.367,8.743 C77.689,8.32766667 78.1393333,8.12 78.718,8.12 C79.306,8.12 79.7586667,8.32066667 80.076,8.722 C80.3933333,9.12333333 80.552,9.69733333 80.552,10.444 C80.552,11.172 80.3933333,11.7366667 80.076,12.138 C79.7586667,12.5393333 79.3106667,12.74 78.732,12.74 Z M87.384,14.112 C87.9066667,14.112 88.406,14.0326667 88.882,13.874 C89.358,13.7153333 89.7453333,13.496 90.044,13.216 L90.044,13.216 L89.554,11.984 C89.2553333,12.2266667 88.938,12.4133333 88.602,12.544 C88.266,12.6746667 87.9346667,12.74 87.608,12.74 C86.964,12.74 86.467,12.544 86.117,12.152 C85.767,11.76 85.592,11.1906667 85.592,10.444 C85.592,9.69733333 85.7693333,9.12566667 86.124,8.729 C86.4786667,8.33233333 86.9733333,8.134 87.608,8.134 C87.9346667,8.134 88.266,8.197 88.602,8.323 C88.938,8.449 89.2553333,8.63333333 89.554,8.876 L89.554,8.876 L90.044,7.644 C89.764,7.364 89.3883333,7.14466667 88.917,6.986 C88.4456667,6.82733333 87.958,6.748 87.454,6.748 C86.726,6.748 86.0843333,6.90433333 85.529,7.217 C84.9736667,7.52966667 84.5443333,7.966 84.241,8.526 C83.9376667,9.086 83.786,9.73466667 83.786,10.472 C83.786,11.2093333 83.9306667,11.851 84.22,12.397 C84.5093333,12.943 84.9246667,13.3653333 85.466,13.664 C86.0073333,13.9626667 86.6466667,14.112 87.384,14.112 Z M93.054,5.446 L93.054,3.724 L91.108,3.724 L91.108,5.446 L93.054,5.446 Z M92.956,14 L92.956,6.93 L91.22,6.93 L91.22,14 L92.956,14 Z M98.64,6.02 L100.698,3.136 L98.906,3.136 L97.506,6.02 L98.64,6.02 Z M98.08,14.112 C98.7893333,14.112 99.4146667,13.9626667 99.956,13.664 C100.497333,13.3653333 100.915,12.9383333 101.209,12.383 C101.503,11.8276667 101.65,11.1766667 101.65,10.43 C101.65,9.68333333 101.503,9.03233333 101.209,8.477 C100.915,7.92166667 100.497333,7.49466667 99.956,7.196 C99.4146667,6.89733333 98.7893333,6.748 98.08,6.748 C97.3613333,6.748 96.729,6.89733333 96.183,7.196 C95.637,7.49466667 95.217,7.92166667 94.923,8.477 C94.629,9.03233333 94.482,9.68333333 94.482,10.43 C94.482,11.1766667 94.629,11.8276667 94.923,12.383 C95.217,12.9383333 95.637,13.3653333 96.183,13.664 C96.729,13.9626667 97.3613333,14.112 98.08,14.112 Z M98.066,12.74 C97.478,12.74 97.0276667,12.5463333 96.715,12.159 C96.4023333,11.7716667 96.246,11.1953333 96.246,10.43 C96.246,9.674 96.4046667,9.09766667 96.722,8.701 C97.0393333,8.30433333 97.492,8.106 98.08,8.106 C98.6586667,8.106 99.1066667,8.30433333 99.424,8.701 C99.7413333,9.09766667 99.9,9.674 99.9,10.43 C99.9,11.1953333 99.7436667,11.7716667 99.431,12.159 C99.1183333,12.5463333 98.6633333,12.74 98.066,12.74 Z M104.898,14 L104.898,9.996 C104.898,9.436 105.061333,8.98566667 105.388,8.645 C105.714667,8.30433333 106.144,8.134 106.676,8.134 C107.124,8.134 107.455333,8.26233333 107.67,8.519 C107.884667,8.77566667 107.992,9.184 107.992,9.744 L107.992,9.744 L107.992,14 L109.742,14 L109.742,9.66 C109.742,7.71866667 108.897333,6.748 107.208,6.748 C106.685333,6.748 106.216333,6.86466667 105.801,7.098 C105.385667,7.33133333 105.056667,7.66266667 104.814,8.092 L104.814,8.092 L104.688,6.93 L103.05,6.93 C103.124667,7.518 103.162,8.18533333 103.162,8.932 L103.162,8.932 L103.162,14 L104.898,14 Z" id="Implementación" fill="#4D4D4D" fill-rule="nonzero"></path>
                </g>
            </g>
            <g id="atom-item-copy-7" transform="translate(0.000000, 420.000000)">
                <g id="atom-item">
                    <ellipse id="element" stroke="url(#linearGradient-6)" stroke-width="5" fill="#FFFFFF" cx="128.007407" cy="39" rx="10.1481481" ry="10"></ellipse>
                    <path d="M61.708,14.126 C63.0613333,14.126 64.0926667,13.7713333 64.802,13.062 C65.5113333,12.3526667 65.866,11.3213333 65.866,9.968 L65.866,9.968 L65.866,4.032 L64.088,4.032 L64.088,10.066 C64.088,10.9153333 63.885,11.564 63.479,12.012 C63.073,12.46 62.4826667,12.684 61.708,12.684 C60.9146667,12.684 60.3173333,12.4623333 59.916,12.019 C59.5146667,11.5756667 59.314,10.9246667 59.314,10.066 L59.314,10.066 L59.314,4.032 L57.536,4.032 L57.536,9.968 C57.536,11.3306667 57.8883333,12.3643333 58.593,13.069 C59.2976667,13.7736667 60.336,14.126 61.708,14.126 Z M70.416,14.112 C71.3213333,14.112 72.0353333,13.9206667 72.558,13.538 C73.0806667,13.1553333 73.342,12.6373333 73.342,11.984 C73.342,11.452 73.181,11.0203333 72.859,10.689 C72.537,10.3576667 72.026,10.1126667 71.326,9.954 L71.326,9.954 L70.122,9.688 C69.7953333,9.604 69.5643333,9.50133333 69.429,9.38 C69.2936667,9.25866667 69.226,9.09533333 69.226,8.89 C69.226,8.62866667 69.338,8.42333333 69.562,8.274 C69.786,8.12466667 70.0986667,8.05 70.5,8.05 C71.2466667,8.05 71.9746667,8.31133333 72.684,8.834 L72.684,8.834 L73.202,7.644 C72.8473333,7.35466667 72.4366667,7.133 71.97,6.979 C71.5033333,6.825 71.018,6.748 70.514,6.748 C69.9353333,6.748 69.4266667,6.84133333 68.988,7.028 C68.5493333,7.21466667 68.2086667,7.47366667 67.966,7.805 C67.7233333,8.13633333 67.602,8.51666667 67.602,8.946 C67.602,9.982 68.246,10.64 69.534,10.92 L69.534,10.92 L70.71,11.186 C71.0926667,11.2793333 71.3633333,11.389 71.522,11.515 C71.6806667,11.641 71.76,11.8113333 71.76,12.026 C71.76,12.278 71.6456667,12.474 71.417,12.614 C71.1883333,12.754 70.864,12.824 70.444,12.824 C69.4733333,12.824 68.61,12.544 67.854,11.984 L67.854,11.984 L67.364,13.216 C68.12,13.8133333 69.1373333,14.112 70.416,14.112 Z M78.172,14.112 C78.676,14.112 79.173,14.0303333 79.663,13.867 C80.153,13.7036667 80.566,13.4866667 80.902,13.216 L80.902,13.216 L80.398,12.012 C79.7353333,12.516 79.0166667,12.768 78.242,12.768 C77.57,12.768 77.0636667,12.5883333 76.723,12.229 C76.3823333,11.8696667 76.1933333,11.312 76.156,10.556 L76.156,10.556 L81.028,10.556 L81.028,10.29 C81.028,9.18866667 80.7456667,8.323 80.181,7.693 C79.6163333,7.063 78.8486667,6.748 77.878,6.748 C77.2153333,6.748 76.6226667,6.90433333 76.1,7.217 C75.5773333,7.52966667 75.1713333,7.966 74.882,8.526 C74.5926667,9.086 74.448,9.72533333 74.448,10.444 C74.448,11.5826667 74.7793333,12.4786667 75.442,13.132 C76.1046667,13.7853333 77.0146667,14.112 78.172,14.112 Z M79.502,9.618 L76.212,9.618 C76.296,9.09533333 76.485,8.69633333 76.779,8.421 C77.073,8.14566667 77.4533333,8.008 77.92,8.008 C78.3866667,8.008 78.753,8.14333333 79.019,8.414 C79.285,8.68466667 79.446,9.086 79.502,9.618 L79.502,9.618 Z M84.248,14 L84.248,10.178 C84.248,9.60866667 84.4043333,9.15133333 84.717,8.806 C85.0296667,8.46066667 85.4846667,8.288 86.082,8.288 C86.3993333,8.288 86.7073333,8.34866667 87.006,8.47 L87.006,8.47 L87.02,6.874 C86.824,6.79933333 86.5906667,6.762 86.32,6.762 C85.8346667,6.762 85.4006667,6.88333333 85.018,7.126 C84.6353333,7.36866667 84.3553333,7.71866667 84.178,8.176 L84.178,8.176 L84.038,6.93 L82.4,6.93 C82.4746667,7.518 82.512,8.18533333 82.512,8.932 L82.512,8.932 L82.512,14 L84.248,14 Z M94.804,14.098 C95.2426667,14.098 95.616,14.042 95.924,13.93 L95.924,13.93 L95.924,12.544 C95.672,12.6186667 95.4386667,12.656 95.224,12.656 C94.4493333,12.656 94.062,12.2406667 94.062,11.41 L94.062,11.41 L94.062,8.246 L95.938,8.246 L95.938,6.93 L94.062,6.93 L94.062,4.62 L92.312,5.208 L92.312,6.93 L90.954,6.93 L90.954,8.246 L92.312,8.246 L92.312,11.494 C92.312,12.334 92.5266667,12.978 92.956,13.426 C93.3853333,13.874 94.0013333,14.098 94.804,14.098 Z M100.474,14.112 C100.978,14.112 101.475,14.0303333 101.965,13.867 C102.455,13.7036667 102.868,13.4866667 103.204,13.216 L103.204,13.216 L102.7,12.012 C102.037333,12.516 101.318667,12.768 100.544,12.768 C99.872,12.768 99.3656667,12.5883333 99.025,12.229 C98.6843333,11.8696667 98.4953333,11.312 98.458,10.556 L98.458,10.556 L103.33,10.556 L103.33,10.29 C103.33,9.18866667 103.047667,8.323 102.483,7.693 C101.918333,7.063 101.150667,6.748 100.18,6.748 C99.5173333,6.748 98.9246667,6.90433333 98.402,7.217 C97.8793333,7.52966667 97.4733333,7.966 97.184,8.526 C96.8946667,9.086 96.75,9.72533333 96.75,10.444 C96.75,11.5826667 97.0813333,12.4786667 97.744,13.132 C98.4066667,13.7853333 99.3166667,14.112 100.474,14.112 Z M101.804,9.618 L98.514,9.618 C98.598,9.09533333 98.787,8.69633333 99.081,8.421 C99.375,8.14566667 99.7553333,8.008 100.222,8.008 C100.688667,8.008 101.055,8.14333333 101.321,8.414 C101.587,8.68466667 101.748,9.086 101.804,9.618 L101.804,9.618 Z M107.404,14.112 C108.309333,14.112 109.023333,13.9206667 109.546,13.538 C110.068667,13.1553333 110.33,12.6373333 110.33,11.984 C110.33,11.452 110.169,11.0203333 109.847,10.689 C109.525,10.3576667 109.014,10.1126667 108.314,9.954 L108.314,9.954 L107.11,9.688 C106.783333,9.604 106.552333,9.50133333 106.417,9.38 C106.281667,9.25866667 106.214,9.09533333 106.214,8.89 C106.214,8.62866667 106.326,8.42333333 106.55,8.274 C106.774,8.12466667 107.086667,8.05 107.488,8.05 C108.234667,8.05 108.962667,8.31133333 109.672,8.834 L109.672,8.834 L110.19,7.644 C109.835333,7.35466667 109.424667,7.133 108.958,6.979 C108.491333,6.825 108.006,6.748 107.502,6.748 C106.923333,6.748 106.414667,6.84133333 105.976,7.028 C105.537333,7.21466667 105.196667,7.47366667 104.954,7.805 C104.711333,8.13633333 104.59,8.51666667 104.59,8.946 C104.59,9.982 105.234,10.64 106.522,10.92 L106.522,10.92 L107.698,11.186 C108.080667,11.2793333 108.351333,11.389 108.51,11.515 C108.668667,11.641 108.748,11.8113333 108.748,12.026 C108.748,12.278 108.633667,12.474 108.405,12.614 C108.176333,12.754 107.852,12.824 107.432,12.824 C106.461333,12.824 105.598,12.544 104.842,11.984 L104.842,11.984 L104.352,13.216 C105.108,13.8133333 106.125333,14.112 107.404,14.112 Z M114.796,14.098 C115.234667,14.098 115.608,14.042 115.916,13.93 L115.916,13.93 L115.916,12.544 C115.664,12.6186667 115.430667,12.656 115.216,12.656 C114.441333,12.656 114.054,12.2406667 114.054,11.41 L114.054,11.41 L114.054,8.246 L115.93,8.246 L115.93,6.93 L114.054,6.93 L114.054,4.62 L112.304,5.208 L112.304,6.93 L110.946,6.93 L110.946,8.246 L112.304,8.246 L112.304,11.494 C112.304,12.334 112.518667,12.978 112.948,13.426 C113.377333,13.874 113.993333,14.098 114.796,14.098 Z M118.968,5.446 L118.968,3.724 L117.022,3.724 L117.022,5.446 L118.968,5.446 Z M118.87,14 L118.87,6.93 L117.134,6.93 L117.134,14 L118.87,14 Z M122.524,14 L122.524,9.996 C122.524,9.436 122.687333,8.98566667 123.014,8.645 C123.340667,8.30433333 123.77,8.134 124.302,8.134 C124.75,8.134 125.081333,8.26233333 125.296,8.519 C125.510667,8.77566667 125.618,9.184 125.618,9.744 L125.618,9.744 L125.618,14 L127.368,14 L127.368,9.66 C127.368,7.71866667 126.523333,6.748 124.834,6.748 C124.311333,6.748 123.842333,6.86466667 123.427,7.098 C123.011667,7.33133333 122.682667,7.66266667 122.44,8.092 L122.44,8.092 L122.314,6.93 L120.676,6.93 C120.750667,7.518 120.788,8.18533333 120.788,8.932 L120.788,8.932 L120.788,14 L122.524,14 Z M132.478,17.136 C133.654,17.136 134.545333,16.8513333 135.152,16.282 C135.758667,15.7126667 136.062,14.8773333 136.062,13.776 L136.062,13.776 L136.062,6.93 L134.326,6.93 L134.326,7.994 C134.111333,7.602 133.801,7.29633333 133.395,7.077 C132.989,6.85766667 132.524667,6.748 132.002,6.748 C131.386,6.748 130.837667,6.895 130.357,7.189 C129.876333,7.483 129.503,7.89833333 129.237,8.435 C128.971,8.97166667 128.838,9.58533333 128.838,10.276 C128.838,10.9666667 128.971,11.5803333 129.237,12.117 C129.503,12.6536667 129.876333,13.069 130.357,13.363 C130.837667,13.657 131.386,13.804 132.002,13.804 C132.515333,13.804 132.977333,13.685 133.388,13.447 C133.798667,13.209 134.111333,12.8986667 134.326,12.516 L134.326,12.516 L134.326,13.916 C134.326,15.1666667 133.696,15.792 132.436,15.792 C131.586667,15.792 130.732667,15.568 129.874,15.12 L129.874,15.12 L129.594,16.45 C130.424667,16.9073333 131.386,17.136 132.478,17.136 Z M132.464,12.432 C131.885333,12.432 131.430333,12.2406667 131.099,11.858 C130.767667,11.4753333 130.602,10.948 130.602,10.276 C130.602,9.604 130.767667,9.07666667 131.099,8.694 C131.430333,8.31133333 131.885333,8.12 132.464,8.12 C133.052,8.12 133.509333,8.31133333 133.836,8.694 C134.162667,9.07666667 134.326,9.604 134.326,10.276 C134.326,10.948 134.160333,11.4753333 133.829,11.858 C133.497667,12.2406667 133.042667,12.432 132.464,12.432 Z" id="Usertesting" fill="#4D4D4D" fill-rule="nonzero"></path>
                </g>
            </g>
            <g id="atom-item-copy-8" transform="translate(300.000000, 490.000000)">
                <g id="atom-item">
                    <ellipse id="element" stroke="url(#linearGradient-6)" stroke-width="5" fill="#FFFFFF" cx="11.0074074" cy="39" rx="10.1481481" ry="10"></ellipse>
                    <path d="M11.546,14 L11.546,12.516 L6.884,12.516 L6.884,4.032 L5.078,4.032 L5.078,14 L11.546,14 Z M15.536,14.112 C16.0493333,14.112 16.5066667,14.0023333 16.908,13.783 C17.3093333,13.5636667 17.6173333,13.258 17.832,12.866 L17.832,12.866 L17.832,14 L19.554,14 L19.554,6.93 L17.832,6.93 L17.832,7.994 C17.6173333,7.602 17.3093333,7.29633333 16.908,7.077 C16.5066667,6.85766667 16.0493333,6.748 15.536,6.748 C14.9293333,6.748 14.388,6.90433333 13.912,7.217 C13.436,7.52966667 13.065,7.96833333 12.799,8.533 C12.533,9.09766667 12.4,9.744 12.4,10.472 C12.4,11.2 12.5306667,11.8393333 12.792,12.39 C13.0533333,12.9406667 13.422,13.3653333 13.898,13.664 C14.374,13.9626667 14.92,14.112 15.536,14.112 Z M16.012,12.74 C15.424,12.74 14.969,12.544 14.647,12.152 C14.325,11.76 14.164,11.2 14.164,10.472 C14.164,9.73466667 14.325,9.15833333 14.647,8.743 C14.969,8.32766667 15.4193333,8.12 15.998,8.12 C16.586,8.12 17.0386667,8.32066667 17.356,8.722 C17.6733333,9.12333333 17.832,9.69733333 17.832,10.444 C17.832,11.172 17.6733333,11.7366667 17.356,12.138 C17.0386667,12.5393333 16.5906667,12.74 16.012,12.74 Z M23.194,14 L23.194,9.996 C23.194,9.436 23.3573333,8.98566667 23.684,8.645 C24.0106667,8.30433333 24.44,8.134 24.972,8.134 C25.42,8.134 25.7513333,8.26233333 25.966,8.519 C26.1806667,8.77566667 26.288,9.184 26.288,9.744 L26.288,9.744 L26.288,14 L28.038,14 L28.038,9.66 C28.038,7.71866667 27.1933333,6.748 25.504,6.748 C24.9813333,6.748 24.5123333,6.86466667 24.097,7.098 C23.6816667,7.33133333 23.3526667,7.66266667 23.11,8.092 L23.11,8.092 L22.984,6.93 L21.346,6.93 C21.4206667,7.518 21.458,8.18533333 21.458,8.932 L21.458,8.932 L21.458,14 L23.194,14 Z M35.78,14 L35.78,12.67 L31.706,12.67 L35.626,8.12 L35.626,6.93 L29.718,6.93 L29.718,8.246 L33.54,8.246 L29.634,12.782 L29.634,14 L35.78,14 Z M40.008,14.112 C40.5213333,14.112 40.9786667,14.0023333 41.38,13.783 C41.7813333,13.5636667 42.0893333,13.258 42.304,12.866 L42.304,12.866 L42.304,14 L44.026,14 L44.026,6.93 L42.304,6.93 L42.304,7.994 C42.0893333,7.602 41.7813333,7.29633333 41.38,7.077 C40.9786667,6.85766667 40.5213333,6.748 40.008,6.748 C39.4013333,6.748 38.86,6.90433333 38.384,7.217 C37.908,7.52966667 37.537,7.96833333 37.271,8.533 C37.005,9.09766667 36.872,9.744 36.872,10.472 C36.872,11.2 37.0026667,11.8393333 37.264,12.39 C37.5253333,12.9406667 37.894,13.3653333 38.37,13.664 C38.846,13.9626667 39.392,14.112 40.008,14.112 Z M40.484,12.74 C39.896,12.74 39.441,12.544 39.119,12.152 C38.797,11.76 38.636,11.2 38.636,10.472 C38.636,9.73466667 38.797,9.15833333 39.119,8.743 C39.441,8.32766667 39.8913333,8.12 40.47,8.12 C41.058,8.12 41.5106667,8.32066667 41.828,8.722 C42.1453333,9.12333333 42.304,9.69733333 42.304,10.444 C42.304,11.172 42.1453333,11.7366667 41.828,12.138 C41.5106667,12.5393333 41.0626667,12.74 40.484,12.74 Z M47.666,14 L47.666,10.052 C47.666,9.45466667 47.806,8.98566667 48.086,8.645 C48.366,8.30433333 48.7486667,8.134 49.234,8.134 C49.6446667,8.134 49.9456667,8.26 50.137,8.512 C50.3283333,8.764 50.424,9.16533333 50.424,9.716 L50.424,9.716 L50.424,14 L52.174,14 L52.174,10.052 C52.174,9.45466667 52.3116667,8.98566667 52.587,8.645 C52.8623333,8.30433333 53.2426667,8.134 53.728,8.134 C54.148,8.134 54.449,8.25766667 54.631,8.505 C54.813,8.75233333 54.904,9.156 54.904,9.716 L54.904,9.716 L54.904,14 L56.654,14 L56.654,9.66 C56.654,8.68 56.458,7.94966667 56.066,7.469 C55.674,6.98833333 55.0766667,6.748 54.274,6.748 C53.7606667,6.748 53.2963333,6.867 52.881,7.105 C52.4656667,7.343 52.146,7.672 51.922,8.092 C51.5953333,7.196 50.8906667,6.748 49.808,6.748 C49.304,6.748 48.8583333,6.86 48.471,7.084 C48.0836667,7.308 47.7873333,7.63 47.582,8.05 L47.582,8.05 L47.456,6.93 L45.818,6.93 C45.8926667,7.518 45.93,8.18533333 45.93,8.932 L45.93,8.932 L45.93,14 L47.666,14 Z M60.35,5.446 L60.35,3.724 L58.404,3.724 L58.404,5.446 L60.35,5.446 Z M60.252,14 L60.252,6.93 L58.516,6.93 L58.516,14 L60.252,14 Z M65.502,14.112 C66.006,14.112 66.503,14.0303333 66.993,13.867 C67.483,13.7036667 67.896,13.4866667 68.232,13.216 L68.232,13.216 L67.728,12.012 C67.0653333,12.516 66.3466667,12.768 65.572,12.768 C64.9,12.768 64.3936667,12.5883333 64.053,12.229 C63.7123333,11.8696667 63.5233333,11.312 63.486,10.556 L63.486,10.556 L68.358,10.556 L68.358,10.29 C68.358,9.18866667 68.0756667,8.323 67.511,7.693 C66.9463333,7.063 66.1786667,6.748 65.208,6.748 C64.5453333,6.748 63.9526667,6.90433333 63.43,7.217 C62.9073333,7.52966667 62.5013333,7.966 62.212,8.526 C61.9226667,9.086 61.778,9.72533333 61.778,10.444 C61.778,11.5826667 62.1093333,12.4786667 62.772,13.132 C63.4346667,13.7853333 64.3446667,14.112 65.502,14.112 Z M66.832,9.618 L63.542,9.618 C63.626,9.09533333 63.815,8.69633333 64.109,8.421 C64.403,8.14566667 64.7833333,8.008 65.25,8.008 C65.7166667,8.008 66.083,8.14333333 66.349,8.414 C66.615,8.68466667 66.776,9.086 66.832,9.618 L66.832,9.618 Z M71.578,14 L71.578,9.996 C71.578,9.436 71.7413333,8.98566667 72.068,8.645 C72.3946667,8.30433333 72.824,8.134 73.356,8.134 C73.804,8.134 74.1353333,8.26233333 74.35,8.519 C74.5646667,8.77566667 74.672,9.184 74.672,9.744 L74.672,9.744 L74.672,14 L76.422,14 L76.422,9.66 C76.422,7.71866667 75.5773333,6.748 73.888,6.748 C73.3653333,6.748 72.8963333,6.86466667 72.481,7.098 C72.0656667,7.33133333 71.7366667,7.66266667 71.494,8.092 L71.494,8.092 L71.368,6.93 L69.73,6.93 C69.8046667,7.518 69.842,8.18533333 69.842,8.932 L69.842,8.932 L69.842,14 L71.578,14 Z M81.252,14.098 C81.6906667,14.098 82.064,14.042 82.372,13.93 L82.372,13.93 L82.372,12.544 C82.12,12.6186667 81.8866667,12.656 81.672,12.656 C80.8973333,12.656 80.51,12.2406667 80.51,11.41 L80.51,11.41 L80.51,8.246 L82.386,8.246 L82.386,6.93 L80.51,6.93 L80.51,4.62 L78.76,5.208 L78.76,6.93 L77.402,6.93 L77.402,8.246 L78.76,8.246 L78.76,11.494 C78.76,12.334 78.9746667,12.978 79.404,13.426 C79.8333333,13.874 80.4493333,14.098 81.252,14.098 Z M86.796,14.112 C87.5053333,14.112 88.1306667,13.9626667 88.672,13.664 C89.2133333,13.3653333 89.631,12.9383333 89.925,12.383 C90.219,11.8276667 90.366,11.1766667 90.366,10.43 C90.366,9.68333333 90.219,9.03233333 89.925,8.477 C89.631,7.92166667 89.2133333,7.49466667 88.672,7.196 C88.1306667,6.89733333 87.5053333,6.748 86.796,6.748 C86.0773333,6.748 85.445,6.89733333 84.899,7.196 C84.353,7.49466667 83.933,7.92166667 83.639,8.477 C83.345,9.03233333 83.198,9.68333333 83.198,10.43 C83.198,11.1766667 83.345,11.8276667 83.639,12.383 C83.933,12.9383333 84.353,13.3653333 84.899,13.664 C85.445,13.9626667 86.0773333,14.112 86.796,14.112 Z M86.782,12.74 C86.194,12.74 85.7436667,12.5463333 85.431,12.159 C85.1183333,11.7716667 84.962,11.1953333 84.962,10.43 C84.962,9.674 85.1206667,9.09766667 85.438,8.701 C85.7553333,8.30433333 86.208,8.106 86.796,8.106 C87.3746667,8.106 87.8226667,8.30433333 88.14,8.701 C88.4573333,9.09766667 88.616,9.674 88.616,10.43 C88.616,11.1953333 88.4596667,11.7716667 88.147,12.159 C87.8343333,12.5463333 87.3793333,12.74 86.782,12.74 Z" id="Lanzamiento" fill="#4D4D4D" fill-rule="nonzero"></path>
                </g>
            </g>
        </g>
    </g>
</svg>