<?xml version="1.0" encoding="UTF-8"?>
<svg width="1043px" height="50px" viewBox="0 0 1043 50" version="1.1" xmlns="http://www.w3.org/2000/svg" xmlns:xlink="http://www.w3.org/1999/xlink">
    <!-- Generator: Sketch 63.1 (92452) - https://sketch.com -->
    <title>Group 2</title>
    <desc>Created with Sketch.</desc>
    <defs>
        <linearGradient x1="0%" y1="50.0019531%" x2="100%" y2="49.9980469%" id="linearGradient-1">
            <stop stop-color="#09EDD1" offset="0%"></stop>
            <stop stop-color="#08DBD9" offset="17.3564189%"></stop>
            <stop stop-color="#05BCE6" offset="30.5848818%"></stop>
            <stop stop-color="#0082FF" offset="48.1181377%"></stop>
            <stop stop-color="#6094EA" offset="65.3900971%"></stop>
            <stop stop-color="#FB4179" offset="72.7776605%"></stop>
            <stop stop-color="#E93273" offset="100%"></stop>
        </linearGradient>
        <linearGradient x1="1.44424438%" y1="1.44919815%" x2="100%" y2="98.5508019%" id="linearGradient-2">
            <stop stop-color="#17EAD9" offset="0%"></stop>
            <stop stop-color="#6078EA" offset="100%"></stop>
        </linearGradient>
        <linearGradient x1="50%" y1="0%" x2="50%" y2="100%" id="linearGradient-3">
            <stop stop-color="#00AEFF" offset="0%"></stop>
            <stop stop-color="#0076FF" offset="100%"></stop>
        </linearGradient>
        <linearGradient x1="50%" y1="117.811656%" x2="50%" y2="-18.4208766%" id="linearGradient-4">
            <stop stop-color="#E52E71" offset="0%"></stop>
            <stop stop-color="#FF457B" offset="100%"></stop>
        </linearGradient>
    </defs>
    <g id="CV" stroke="none" stroke-width="1" fill="none" fill-rule="evenodd">
        <g id="Group-2" transform="translate(-26.000000, -3.000000)">
            <polygon id="Path-3" fill="url(#linearGradient-1)" fill-rule="nonzero" points="1028 38 1028 44 68 44 68 38"></polygon>
            <g id="atom-item">
                <g>
                    <ellipse id="element" stroke="url(#linearGradient-2)" stroke-width="5" fill="#FFFFFF" cx="69.0074074" cy="40" rx="10.1481481" ry="10"></ellipse>
                    <path d="M28.425,14 L28.425,4.088 L26.661,4.088 L26.661,14 L28.425,14 Z M32.205,14 L32.205,10.304 C32.205,10.08 32.2376667,9.85833333 32.303,9.639 C32.3683333,9.41966667 32.464,9.226 32.59,9.058 C32.716,8.89 32.877,8.75233333 33.073,8.645 C33.269,8.53766667 33.5023333,8.484 33.773,8.484 C34.0436667,8.484 34.2606667,8.54 34.424,8.652 C34.5873333,8.764 34.7156667,8.90633333 34.809,9.079 C34.9023333,9.25166667 34.963,9.44533333 34.991,9.66 C35.019,9.87466667 35.033,10.08 35.033,10.276 L35.033,10.276 L35.033,14 L36.713,14 L36.713,9.8 C36.713,9.45466667 36.6663333,9.11866667 36.573,8.792 C36.4796667,8.46533333 36.3326667,8.176 36.132,7.924 C35.9313333,7.672 35.6746667,7.469 35.362,7.315 C35.0493333,7.161 34.6736667,7.084 34.235,7.084 C33.731,7.084 33.2946667,7.21233333 32.926,7.469 C32.5573333,7.72566667 32.2983333,8.022 32.149,8.358 L32.149,8.358 L32.121,8.358 L32.121,7.28 L30.525,7.28 L30.525,14 L32.205,14 Z M42.173,14 L44.847,7.28 L43.069,7.28 L41.291,12.18 L41.263,12.18 L39.499,7.28 L37.665,7.28 L40.381,14 L42.173,14 Z M49.075,14.196 C50.335,14.196 51.2963333,13.748 51.959,12.852 L51.959,12.852 L50.839,11.956 C50.6523333,12.2266667 50.4143333,12.439 50.125,12.593 C49.8356667,12.747 49.481,12.824 49.061,12.824 C48.8183333,12.824 48.585,12.782 48.361,12.698 C48.137,12.614 47.9363333,12.4996667 47.759,12.355 C47.5816667,12.2103333 47.4393333,12.0376667 47.332,11.837 C47.2246667,11.6363333 47.1616667,11.4146667 47.143,11.172 L47.143,11.172 L52.253,11.172 C52.2623333,11.0973333 52.267,11.0226667 52.267,10.948 L52.267,10.948 L52.267,10.724 C52.267,10.1173333 52.1853333,9.58766667 52.022,9.135 C51.8586667,8.68233333 51.6323333,8.30433333 51.343,8.001 C51.0536667,7.69766667 50.7106667,7.469 50.314,7.315 C49.9173333,7.161 49.4856667,7.084 49.019,7.084 C48.515,7.084 48.046,7.17033333 47.612,7.343 C47.178,7.51566667 46.8023333,7.75833333 46.485,8.071 C46.1676667,8.38366667 45.918,8.76166667 45.736,9.205 C45.554,9.64833333 45.463,10.1406667 45.463,10.682 C45.463,11.2326667 45.554,11.725 45.736,12.159 C45.918,12.593 46.17,12.9593333 46.492,13.258 C46.814,13.5566667 47.1943333,13.7876667 47.633,13.951 C48.0716667,14.1143333 48.5523333,14.196 49.075,14.196 Z M50.587,9.968 L47.143,9.968 C47.1803333,9.492 47.374,9.10233333 47.724,8.799 C48.074,8.49566667 48.501,8.344 49.005,8.344 C49.2756667,8.344 49.5113333,8.38833333 49.712,8.477 C49.9126667,8.56566667 50.0783333,8.68466667 50.209,8.834 C50.3396667,8.98333333 50.4353333,9.156 50.496,9.352 C50.5566667,9.548 50.587,9.75333333 50.587,9.968 L50.587,9.968 Z M55.851,14.196 C56.215,14.196 56.5673333,14.1563333 56.908,14.077 C57.2486667,13.9976667 57.5473333,13.8693333 57.804,13.692 C58.0606667,13.5146667 58.266,13.2836667 58.42,12.999 C58.574,12.7143333 58.651,12.3666667 58.651,11.956 C58.651,11.6293333 58.5856667,11.3516667 58.455,11.123 C58.3243333,10.8943333 58.154,10.703 57.944,10.549 C57.734,10.395 57.5006667,10.2713333 57.244,10.178 C56.9873333,10.0846667 56.733,10.01 56.481,9.954 C56.005,9.842 55.6433333,9.73233333 55.396,9.625 C55.1486667,9.51766667 55.025,9.33333333 55.025,9.072 C55.025,8.81066667 55.137,8.624 55.361,8.512 C55.585,8.4 55.8323333,8.344 56.103,8.344 C56.411,8.344 56.6956667,8.41633333 56.957,8.561 C57.2183333,8.70566667 57.4236667,8.876 57.573,9.072 L57.573,9.072 L58.665,8.106 C58.3943333,7.76066667 58.028,7.504 57.566,7.336 C57.104,7.168 56.6303333,7.084 56.145,7.084 C55.809,7.084 55.4823333,7.126 55.165,7.21 C54.8476667,7.294 54.563,7.42233333 54.311,7.595 C54.059,7.76766667 53.856,7.98933333 53.702,8.26 C53.548,8.53066667 53.471,8.85266667 53.471,9.226 C53.471,9.54333333 53.527,9.80933333 53.639,10.024 C53.751,10.2386667 53.9003333,10.4183333 54.087,10.563 C54.2736667,10.7076667 54.486,10.8243333 54.724,10.913 C54.962,11.0016667 55.207,11.074 55.459,11.13 C55.9723333,11.2513333 56.3573333,11.3726667 56.614,11.494 C56.8706667,11.6153333 56.999,11.816 56.999,12.096 C56.999,12.2453333 56.9663333,12.3713333 56.901,12.474 C56.8356667,12.5766667 56.7493333,12.6583333 56.642,12.719 C56.5346667,12.7796667 56.418,12.824 56.292,12.852 C56.166,12.88 56.0423333,12.894 55.921,12.894 C55.557,12.894 55.2256667,12.8146667 54.927,12.656 C54.6283333,12.4973333 54.3856667,12.2966667 54.199,12.054 L54.199,12.054 L53.093,13.09 C53.4196667,13.4446667 53.8303333,13.7176667 54.325,13.909 C54.8196667,14.1003333 55.3283333,14.196 55.851,14.196 Z M62.501,14.14 C62.6876667,14.14 62.8836667,14.1236667 63.089,14.091 C63.2943333,14.0583333 63.4716667,14.014 63.621,13.958 L63.621,13.958 L63.565,12.642 C63.4623333,12.6886667 63.3456667,12.7236667 63.215,12.747 C63.0843333,12.7703333 62.963,12.782 62.851,12.782 C62.4776667,12.782 62.2373333,12.684 62.13,12.488 C62.0226667,12.292 61.969,12.0446667 61.969,11.746 L61.969,11.746 L61.969,8.624 L63.649,8.624 L63.649,7.28 L61.969,7.28 L61.969,5.334 L60.317,5.334 L60.317,7.28 L59.141,7.28 L59.141,8.624 L60.317,8.624 L60.317,11.76 C60.317,12.0866667 60.3473333,12.3923333 60.408,12.677 C60.4686667,12.9616667 60.5806667,13.2136667 60.744,13.433 C60.9073333,13.6523333 61.129,13.825 61.409,13.951 C61.689,14.077 62.053,14.14 62.501,14.14 Z M65.721,6.006 C66.029,6.006 66.288,5.91033333 66.498,5.719 C66.708,5.52766667 66.813,5.28733333 66.813,4.998 C66.813,4.70866667 66.708,4.46833333 66.498,4.277 C66.288,4.08566667 66.029,3.99 65.721,3.99 C65.413,3.99 65.1586667,4.09033333 64.958,4.291 C64.7573333,4.49166667 64.657,4.72733333 64.657,4.998 C64.657,5.26866667 64.7573333,5.50433333 64.958,5.705 C65.1586667,5.90566667 65.413,6.006 65.721,6.006 Z M66.575,14 L66.575,7.28 L64.895,7.28 L64.895,14 L66.575,14 Z M71.657,17.36 C72.3103333,17.36 72.875,17.2666667 73.351,17.08 C73.827,16.8933333 74.2213333,16.6296667 74.534,16.289 C74.8466667,15.9483333 75.0776667,15.533 75.227,15.043 C75.3763333,14.553 75.451,14.0046667 75.451,13.398 L75.451,13.398 L75.451,7.28 L73.855,7.28 L73.855,8.288 L73.827,8.288 C73.5843333,7.87733333 73.2576667,7.574 72.847,7.378 C72.4363333,7.182 71.993,7.084 71.517,7.084 C71.013,7.084 70.558,7.17733333 70.152,7.364 C69.746,7.55066667 69.4006667,7.80266667 69.116,8.12 C68.8313333,8.43733333 68.612,8.81066667 68.458,9.24 C68.304,9.66933333 68.227,10.1266667 68.227,10.612 C68.227,11.088 68.3063333,11.5383333 68.465,11.963 C68.6236667,12.3876667 68.8453333,12.7586667 69.13,13.076 C69.4146667,13.3933333 69.7623333,13.6453333 70.173,13.832 C70.5836667,14.0186667 71.041,14.112 71.545,14.112 C72.0116667,14.112 72.434,14.0256667 72.812,13.853 C73.19,13.6803333 73.5003333,13.4306667 73.743,13.104 L73.743,13.104 L73.771,13.104 L73.771,13.594 C73.771,13.93 73.736,14.238 73.666,14.518 C73.596,14.798 73.4793333,15.0406667 73.316,15.246 C73.1526667,15.4513333 72.9333333,15.6123333 72.658,15.729 C72.3826667,15.8456667 72.0443333,15.904 71.643,15.904 C71.223,15.904 70.8076667,15.8223333 70.397,15.659 C69.9863333,15.4956667 69.6176667,15.26 69.291,14.952 L69.291,14.952 L68.325,16.254 C68.5396667,16.4313333 68.7823333,16.59 69.053,16.73 C69.3236667,16.87 69.606,16.9866667 69.9,17.08 C70.194,17.1733333 70.4926667,17.2433333 70.796,17.29 C71.0993333,17.3366667 71.3863333,17.36 71.657,17.36 Z M71.853,12.726 C71.5543333,12.726 71.286,12.6653333 71.048,12.544 C70.81,12.4226667 70.6093333,12.2616667 70.446,12.061 C70.2826667,11.8603333 70.1566667,11.634 70.068,11.382 C69.9793333,11.13 69.935,10.8686667 69.935,10.598 C69.935,10.2993333 69.9793333,10.0193333 70.068,9.758 C70.1566667,9.49666667 70.2826667,9.27033333 70.446,9.079 C70.6093333,8.88766667 70.81,8.736 71.048,8.624 C71.286,8.512 71.559,8.456 71.867,8.456 C72.175,8.456 72.4503333,8.512 72.693,8.624 C72.9356667,8.736 73.1433333,8.89 73.316,9.086 C73.4886667,9.282 73.6216667,9.51066667 73.715,9.772 C73.8083333,10.0333333 73.855,10.3086667 73.855,10.598 C73.855,10.878 73.8083333,11.1463333 73.715,11.403 C73.6216667,11.6596667 73.4886667,11.886 73.316,12.082 C73.1433333,12.278 72.9333333,12.4343333 72.686,12.551 C72.4386667,12.6676667 72.161,12.726 71.853,12.726 Z M79.511,14.168 C79.987,14.168 80.4116667,14.0723333 80.785,13.881 C81.1583333,13.6896667 81.429,13.4446667 81.597,13.146 L81.597,13.146 L81.639,13.146 L81.639,14 L83.207,14 L83.207,9.912 C83.207,9.576 83.1626667,9.24 83.074,8.904 C82.9853333,8.568 82.829,8.26466667 82.605,7.994 C82.381,7.72333333 82.0753333,7.504 81.688,7.336 C81.3006667,7.168 80.8083333,7.084 80.211,7.084 C79.6976667,7.084 79.1913333,7.17266667 78.692,7.35 C78.1926667,7.52733333 77.7516667,7.79333333 77.369,8.148 L77.369,8.148 L78.237,9.17 C78.4516667,8.95533333 78.7223333,8.77333333 79.049,8.624 C79.3756667,8.47466667 79.7163333,8.4 80.071,8.4 C80.491,8.4 80.8526667,8.50033333 81.156,8.701 C81.4593333,8.90166667 81.611,9.212 81.611,9.632 L81.611,9.632 L81.611,9.8 C81.0883333,9.8 80.554,9.82566667 80.008,9.877 C79.462,9.92833333 78.965,10.0333333 78.517,10.192 C78.069,10.3506667 77.7026667,10.5793333 77.418,10.878 C77.1333333,11.1766667 76.991,11.578 76.991,12.082 C76.991,12.474 77.0726667,12.803 77.236,13.069 C77.3993333,13.335 77.6046667,13.5496667 77.852,13.713 C78.0993333,13.8763333 78.37,13.993 78.664,14.063 C78.958,14.133 79.2403333,14.168 79.511,14.168 Z M79.847,12.894 C79.707,12.894 79.567,12.88 79.427,12.852 C79.287,12.824 79.161,12.7773333 79.049,12.712 C78.937,12.6466667 78.846,12.5603333 78.776,12.453 C78.706,12.3456667 78.671,12.2126667 78.671,12.054 C78.671,11.802 78.755,11.6036667 78.923,11.459 C79.091,11.3143333 79.301,11.2023333 79.553,11.123 C79.805,11.0436667 80.0803333,10.9923333 80.379,10.969 C80.6776667,10.9456667 80.9623333,10.934 81.233,10.934 L81.233,10.934 L81.611,10.934 L81.611,11.172 C81.611,11.704 81.4616667,12.124 81.163,12.432 C80.8643333,12.74 80.4256667,12.894 79.847,12.894 Z M88.415,14.196 C88.919,14.196 89.388,14.1143333 89.822,13.951 C90.256,13.7876667 90.613,13.5566667 90.893,13.258 L90.893,13.258 L89.843,12.194 C89.6843333,12.39 89.4743333,12.5393333 89.213,12.642 C88.9516667,12.7446667 88.6903333,12.796 88.429,12.796 C88.1116667,12.796 87.834,12.733 87.596,12.607 C87.358,12.481 87.1596667,12.3153333 87.001,12.11 C86.8423333,11.9046667 86.7233333,11.6736667 86.644,11.417 C86.5646667,11.1603333 86.525,10.9013333 86.525,10.64 C86.525,10.3786667 86.5623333,10.1196667 86.637,9.863 C86.7116667,9.60633333 86.826,9.37533333 86.98,9.17 C87.134,8.96466667 87.3276667,8.799 87.561,8.673 C87.7943333,8.547 88.065,8.484 88.373,8.484 C88.6436667,8.484 88.9096667,8.547 89.171,8.673 C89.4323333,8.799 89.6283333,8.95533333 89.759,9.142 L89.759,9.142 L90.907,8.134 C90.6363333,7.80733333 90.27,7.55066667 89.808,7.364 C89.346,7.17733333 88.8676667,7.084 88.373,7.084 C87.8783333,7.084 87.414,7.168 86.98,7.336 C86.546,7.504 86.1656667,7.742 85.839,8.05 C85.5123333,8.358 85.2533333,8.73133333 85.062,9.17 C84.8706667,9.60866667 84.775,10.0986667 84.775,10.64 C84.775,11.2 84.8706667,11.6993333 85.062,12.138 C85.2533333,12.5766667 85.5146667,12.95 85.846,13.258 C86.1773333,13.566 86.5646667,13.7993333 87.008,13.958 C87.4513333,14.1166667 87.9203333,14.196 88.415,14.196 Z M92.853,6.006 C93.161,6.006 93.42,5.91033333 93.63,5.719 C93.84,5.52766667 93.945,5.28733333 93.945,4.998 C93.945,4.70866667 93.84,4.46833333 93.63,4.277 C93.42,4.08566667 93.161,3.99 92.853,3.99 C92.545,3.99 92.2906667,4.09033333 92.09,4.291 C91.8893333,4.49166667 91.789,4.72733333 91.789,4.998 C91.789,5.26866667 91.8893333,5.50433333 92.09,5.705 C92.2906667,5.90566667 92.545,6.006 92.853,6.006 Z M93.707,14 L93.707,7.28 L92.027,7.28 L92.027,14 L93.707,14 Z M99.321,6.104 L101.295,4.088 L99.391,4.088 L98.005,6.104 L99.321,6.104 Z M99.013,14.196 C99.517,14.196 99.993,14.1073333 100.441,13.93 C100.889,13.7526667 101.276333,13.5076667 101.603,13.195 C101.929667,12.8823333 102.188667,12.5066667 102.38,12.068 C102.571333,11.6293333 102.667,11.144 102.667,10.612 C102.667,10.08 102.571333,9.597 102.38,9.163 C102.188667,8.729 101.929667,8.358 101.603,8.05 C101.276333,7.742 100.889,7.504 100.441,7.336 C99.993,7.168 99.517,7.084 99.013,7.084 C98.509,7.084 98.033,7.168 97.585,7.336 C97.137,7.504 96.7496667,7.742 96.423,8.05 C96.0963333,8.358 95.8373333,8.729 95.646,9.163 C95.4546667,9.597 95.359,10.08 95.359,10.612 C95.359,11.144 95.4546667,11.6293333 95.646,12.068 C95.8373333,12.5066667 96.0963333,12.8823333 96.423,13.195 C96.7496667,13.5076667 97.137,13.7526667 97.585,13.93 C98.033,14.1073333 98.509,14.196 99.013,14.196 Z M99.013,12.796 C98.677,12.796 98.3876667,12.7306667 98.145,12.6 C97.9023333,12.4693333 97.7016667,12.3013333 97.543,12.096 C97.3843333,11.8906667 97.2653333,11.6573333 97.186,11.396 C97.1066667,11.1346667 97.067,10.8733333 97.067,10.612 C97.067,10.3506667 97.1066667,10.0916667 97.186,9.835 C97.2653333,9.57833333 97.3843333,9.34733333 97.543,9.142 C97.7016667,8.93666667 97.9023333,8.771 98.145,8.645 C98.3876667,8.519 98.677,8.456 99.013,8.456 C99.349,8.456 99.6383333,8.519 99.881,8.645 C100.123667,8.771 100.324333,8.93666667 100.483,9.142 C100.641667,9.34733333 100.760667,9.57833333 100.84,9.835 C100.919333,10.0916667 100.959,10.3506667 100.959,10.612 C100.959,10.8733333 100.919333,11.1346667 100.84,11.396 C100.760667,11.6573333 100.641667,11.8906667 100.483,12.096 C100.324333,12.3013333 100.123667,12.4693333 99.881,12.6 C99.6383333,12.7306667 99.349,12.796 99.013,12.796 Z M105.971,14 L105.971,10.304 C105.971,10.08 106.003667,9.85833333 106.069,9.639 C106.134333,9.41966667 106.23,9.226 106.356,9.058 C106.482,8.89 106.643,8.75233333 106.839,8.645 C107.035,8.53766667 107.268333,8.484 107.539,8.484 C107.809667,8.484 108.026667,8.54 108.19,8.652 C108.353333,8.764 108.481667,8.90633333 108.575,9.079 C108.668333,9.25166667 108.729,9.44533333 108.757,9.66 C108.785,9.87466667 108.799,10.08 108.799,10.276 L108.799,10.276 L108.799,14 L110.479,14 L110.479,9.8 C110.479,9.45466667 110.432333,9.11866667 110.339,8.792 C110.245667,8.46533333 110.098667,8.176 109.898,7.924 C109.697333,7.672 109.440667,7.469 109.128,7.315 C108.815333,7.161 108.439667,7.084 108.001,7.084 C107.497,7.084 107.060667,7.21233333 106.692,7.469 C106.323333,7.72566667 106.064333,8.022 105.915,8.358 L105.915,8.358 L105.887,8.358 L105.887,7.28 L104.291,7.28 L104.291,14 L105.971,14 Z" id="Investigación" fill="#4D4D4D" fill-rule="nonzero"></path>
                </g>
            </g>
            <g id="atom-item-copy" transform="translate(137.000000, 0.000000)">
                <g id="atom-item">
                    <ellipse id="element" stroke="url(#linearGradient-2)" stroke-width="5" fill="#FFFFFF" cx="69.0074074" cy="40" rx="10.1481481" ry="10"></ellipse>
                    <path d="M41.858,14.252 C42.3433333,14.252 42.8053333,14.1866667 43.244,14.056 C43.6826667,13.9253333 44.0653333,13.7293333 44.392,13.468 C44.7186667,13.2066667 44.98,12.8776667 45.176,12.481 C45.372,12.0843333 45.47,11.62 45.47,11.088 C45.47,10.6026667 45.379,10.1966667 45.197,9.87 C45.015,9.54333333 44.7816667,9.27266667 44.497,9.058 C44.2123333,8.84333333 43.8996667,8.67066667 43.559,8.54 C43.2183333,8.40933333 42.8893333,8.29266667 42.572,8.19 C42.292,8.106 42.0353333,8.022 41.802,7.938 C41.5686667,7.854 41.3703333,7.756 41.207,7.644 C41.0436667,7.532 40.9153333,7.39666667 40.822,7.238 C40.7286667,7.07933333 40.682,6.888 40.682,6.664 C40.682,6.42133333 40.7356667,6.21366667 40.843,6.041 C40.9503333,5.86833333 41.088,5.72833333 41.256,5.621 C41.424,5.51366667 41.6106667,5.43433333 41.816,5.383 C42.0213333,5.33166667 42.2266667,5.306 42.432,5.306 C42.7773333,5.306 43.1203333,5.38766667 43.461,5.551 C43.8016667,5.71433333 44.0653333,5.91733333 44.252,6.16 L44.252,6.16 L45.4,4.9 C45.0173333,4.54533333 44.567,4.27933333 44.049,4.102 C43.531,3.92466667 43.02,3.836 42.516,3.836 C42.068,3.836 41.627,3.89433333 41.193,4.011 C40.759,4.12766667 40.3716667,4.305 40.031,4.543 C39.6903333,4.781 39.415,5.082 39.205,5.446 C38.995,5.81 38.89,6.244 38.89,6.748 C38.89,7.21466667 38.9646667,7.60433333 39.114,7.917 C39.2633333,8.22966667 39.457,8.49333333 39.695,8.708 C39.933,8.92266667 40.2013333,9.09533333 40.5,9.226 C40.7986667,9.35666667 41.0973333,9.46866667 41.396,9.562 C41.704,9.66466667 41.998,9.76266667 42.278,9.856 C42.558,9.94933333 42.8006667,10.059 43.006,10.185 C43.2113333,10.311 43.3746667,10.4603333 43.496,10.633 C43.6173333,10.8056667 43.678,11.0226667 43.678,11.284 C43.678,11.5546667 43.6243333,11.781 43.517,11.963 C43.4096667,12.145 43.2696667,12.2966667 43.097,12.418 C42.9243333,12.5393333 42.7306667,12.6256667 42.516,12.677 C42.3013333,12.7283333 42.0913333,12.754 41.886,12.754 C41.494,12.754 41.095,12.656 40.689,12.46 C40.283,12.264 39.9586667,11.998 39.716,11.662 L39.716,11.662 L38.456,12.838 C38.848,13.3046667 39.352,13.657 39.968,13.895 C40.584,14.133 41.214,14.252 41.858,14.252 Z M48.004,6.006 C48.312,6.006 48.571,5.91033333 48.781,5.719 C48.991,5.52766667 49.096,5.28733333 49.096,4.998 C49.096,4.70866667 48.991,4.46833333 48.781,4.277 C48.571,4.08566667 48.312,3.99 48.004,3.99 C47.696,3.99 47.4416667,4.09033333 47.241,4.291 C47.0403333,4.49166667 46.94,4.72733333 46.94,4.998 C46.94,5.26866667 47.0403333,5.50433333 47.241,5.705 C47.4416667,5.90566667 47.696,6.006 48.004,6.006 Z M48.858,14 L48.858,7.28 L47.178,7.28 L47.178,14 L48.858,14 Z M52.582,14 L52.582,10.304 C52.582,10.08 52.6146667,9.85833333 52.68,9.639 C52.7453333,9.41966667 52.841,9.226 52.967,9.058 C53.093,8.89 53.254,8.75233333 53.45,8.645 C53.646,8.53766667 53.8793333,8.484 54.15,8.484 C54.4206667,8.484 54.6376667,8.54 54.801,8.652 C54.9643333,8.764 55.0926667,8.90633333 55.186,9.079 C55.2793333,9.25166667 55.34,9.44533333 55.368,9.66 C55.396,9.87466667 55.41,10.08 55.41,10.276 L55.41,10.276 L55.41,14 L57.09,14 L57.09,9.8 C57.09,9.45466667 57.0433333,9.11866667 56.95,8.792 C56.8566667,8.46533333 56.7096667,8.176 56.509,7.924 C56.3083333,7.672 56.0516667,7.469 55.739,7.315 C55.4263333,7.161 55.0506667,7.084 54.612,7.084 C54.108,7.084 53.6716667,7.21233333 53.303,7.469 C52.9343333,7.72566667 52.6753333,8.022 52.526,8.358 L52.526,8.358 L52.498,8.358 L52.498,7.28 L50.902,7.28 L50.902,14 L52.582,14 Z M61.444,14.14 C61.6306667,14.14 61.8266667,14.1236667 62.032,14.091 C62.2373333,14.0583333 62.4146667,14.014 62.564,13.958 L62.564,13.958 L62.508,12.642 C62.4053333,12.6886667 62.2886667,12.7236667 62.158,12.747 C62.0273333,12.7703333 61.906,12.782 61.794,12.782 C61.4206667,12.782 61.1803333,12.684 61.073,12.488 C60.9656667,12.292 60.912,12.0446667 60.912,11.746 L60.912,11.746 L60.912,8.624 L62.592,8.624 L62.592,7.28 L60.912,7.28 L60.912,5.334 L59.26,5.334 L59.26,7.28 L58.084,7.28 L58.084,8.624 L59.26,8.624 L59.26,11.76 C59.26,12.0866667 59.2903333,12.3923333 59.351,12.677 C59.4116667,12.9616667 59.5236667,13.2136667 59.687,13.433 C59.8503333,13.6523333 60.072,13.825 60.352,13.951 C60.632,14.077 60.996,14.14 61.444,14.14 Z M67.03,14.196 C68.29,14.196 69.2513333,13.748 69.914,12.852 L69.914,12.852 L68.794,11.956 C68.6073333,12.2266667 68.3693333,12.439 68.08,12.593 C67.7906667,12.747 67.436,12.824 67.016,12.824 C66.7733333,12.824 66.54,12.782 66.316,12.698 C66.092,12.614 65.8913333,12.4996667 65.714,12.355 C65.5366667,12.2103333 65.3943333,12.0376667 65.287,11.837 C65.1796667,11.6363333 65.1166667,11.4146667 65.098,11.172 L65.098,11.172 L70.208,11.172 C70.2173333,11.0973333 70.222,11.0226667 70.222,10.948 L70.222,10.948 L70.222,10.724 C70.222,10.1173333 70.1403333,9.58766667 69.977,9.135 C69.8136667,8.68233333 69.5873333,8.30433333 69.298,8.001 C69.0086667,7.69766667 68.6656667,7.469 68.269,7.315 C67.8723333,7.161 67.4406667,7.084 66.974,7.084 C66.47,7.084 66.001,7.17033333 65.567,7.343 C65.133,7.51566667 64.7573333,7.75833333 64.44,8.071 C64.1226667,8.38366667 63.873,8.76166667 63.691,9.205 C63.509,9.64833333 63.418,10.1406667 63.418,10.682 C63.418,11.2326667 63.509,11.725 63.691,12.159 C63.873,12.593 64.125,12.9593333 64.447,13.258 C64.769,13.5566667 65.1493333,13.7876667 65.588,13.951 C66.0266667,14.1143333 66.5073333,14.196 67.03,14.196 Z M68.542,9.968 L65.098,9.968 C65.1353333,9.492 65.329,9.10233333 65.679,8.799 C66.029,8.49566667 66.456,8.344 66.96,8.344 C67.2306667,8.344 67.4663333,8.38833333 67.667,8.477 C67.8676667,8.56566667 68.0333333,8.68466667 68.164,8.834 C68.2946667,8.98333333 68.3903333,9.156 68.451,9.352 C68.5116667,9.548 68.542,9.75333333 68.542,9.968 L68.542,9.968 Z M74.24,14.14 C74.4266667,14.14 74.6226667,14.1236667 74.828,14.091 C75.0333333,14.0583333 75.2106667,14.014 75.36,13.958 L75.36,13.958 L75.304,12.642 C75.2013333,12.6886667 75.0846667,12.7236667 74.954,12.747 C74.8233333,12.7703333 74.702,12.782 74.59,12.782 C74.2166667,12.782 73.9763333,12.684 73.869,12.488 C73.7616667,12.292 73.708,12.0446667 73.708,11.746 L73.708,11.746 L73.708,8.624 L75.388,8.624 L75.388,7.28 L73.708,7.28 L73.708,5.334 L72.056,5.334 L72.056,7.28 L70.88,7.28 L70.88,8.624 L72.056,8.624 L72.056,11.76 C72.056,12.0866667 72.0863333,12.3923333 72.147,12.677 C72.2076667,12.9616667 72.3196667,13.2136667 72.483,13.433 C72.6463333,13.6523333 72.868,13.825 73.148,13.951 C73.428,14.077 73.792,14.14 74.24,14.14 Z M77.46,6.006 C77.768,6.006 78.027,5.91033333 78.237,5.719 C78.447,5.52766667 78.552,5.28733333 78.552,4.998 C78.552,4.70866667 78.447,4.46833333 78.237,4.277 C78.027,4.08566667 77.768,3.99 77.46,3.99 C77.152,3.99 76.8976667,4.09033333 76.697,4.291 C76.4963333,4.49166667 76.396,4.72733333 76.396,4.998 C76.396,5.26866667 76.4963333,5.50433333 76.697,5.705 C76.8976667,5.90566667 77.152,6.006 77.46,6.006 Z M78.314,14 L78.314,7.28 L76.634,7.28 L76.634,14 L78.314,14 Z M85.622,14 L85.622,12.628 L81.814,12.628 L85.454,8.764 L85.454,7.28 L79.994,7.28 L79.994,8.624 L83.452,8.624 L79.826,12.516 L79.826,14 L85.622,14 Z M89.15,14.168 C89.626,14.168 90.0506667,14.0723333 90.424,13.881 C90.7973333,13.6896667 91.068,13.4446667 91.236,13.146 L91.236,13.146 L91.278,13.146 L91.278,14 L92.846,14 L92.846,9.912 C92.846,9.576 92.8016667,9.24 92.713,8.904 C92.6243333,8.568 92.468,8.26466667 92.244,7.994 C92.02,7.72333333 91.7143333,7.504 91.327,7.336 C90.9396667,7.168 90.4473333,7.084 89.85,7.084 C89.3366667,7.084 88.8303333,7.17266667 88.331,7.35 C87.8316667,7.52733333 87.3906667,7.79333333 87.008,8.148 L87.008,8.148 L87.876,9.17 C88.0906667,8.95533333 88.3613333,8.77333333 88.688,8.624 C89.0146667,8.47466667 89.3553333,8.4 89.71,8.4 C90.13,8.4 90.4916667,8.50033333 90.795,8.701 C91.0983333,8.90166667 91.25,9.212 91.25,9.632 L91.25,9.632 L91.25,9.8 C90.7273333,9.8 90.193,9.82566667 89.647,9.877 C89.101,9.92833333 88.604,10.0333333 88.156,10.192 C87.708,10.3506667 87.3416667,10.5793333 87.057,10.878 C86.7723333,11.1766667 86.63,11.578 86.63,12.082 C86.63,12.474 86.7116667,12.803 86.875,13.069 C87.0383333,13.335 87.2436667,13.5496667 87.491,13.713 C87.7383333,13.8763333 88.009,13.993 88.303,14.063 C88.597,14.133 88.8793333,14.168 89.15,14.168 Z M89.486,12.894 C89.346,12.894 89.206,12.88 89.066,12.852 C88.926,12.824 88.8,12.7773333 88.688,12.712 C88.576,12.6466667 88.485,12.5603333 88.415,12.453 C88.345,12.3456667 88.31,12.2126667 88.31,12.054 C88.31,11.802 88.394,11.6036667 88.562,11.459 C88.73,11.3143333 88.94,11.2023333 89.192,11.123 C89.444,11.0436667 89.7193333,10.9923333 90.018,10.969 C90.3166667,10.9456667 90.6013333,10.934 90.872,10.934 L90.872,10.934 L91.25,10.934 L91.25,11.172 C91.25,11.704 91.1006667,12.124 90.802,12.432 C90.5033333,12.74 90.0646667,12.894 89.486,12.894 Z M96.486,14 L96.486,10.402 C96.486,10.2806667 96.5093333,10.1173333 96.556,9.912 C96.6026667,9.70666667 96.6913333,9.506 96.822,9.31 C96.9526667,9.114 97.1346667,8.946 97.368,8.806 C97.6013333,8.666 97.9093333,8.596 98.292,8.596 C98.3666667,8.596 98.4436667,8.60066667 98.523,8.61 C98.6023333,8.61933333 98.698,8.638 98.81,8.666 L98.81,8.666 L98.81,7.126 C98.754,7.10733333 98.6886667,7.09566667 98.614,7.091 C98.5393333,7.08633333 98.4693333,7.084 98.404,7.084 C97.956,7.084 97.564,7.20533333 97.228,7.448 C96.892,7.69066667 96.6306667,8.008 96.444,8.4 L96.444,8.4 L96.416,8.4 L96.416,7.28 L94.806,7.28 L94.806,14 L96.486,14 Z" id="Sintetizar" fill="#4D4D4D" fill-rule="nonzero"></path>
                </g>
            </g>
            <g id="atom-item-copy-6" transform="translate(274.000000, 0.000000)">
                <g id="atom-item">
                    <ellipse id="element" stroke="url(#linearGradient-3)" stroke-width="5" fill="#FFFFFF" cx="69.0074074" cy="40" rx="10.1481481" ry="10"></ellipse>
                    <path d="M48.074,14 L48.074,4.088 L46.31,4.088 L46.31,14 L48.074,14 Z M53.072,14.196 C53.548,14.196 53.9936667,14.0933333 54.409,13.888 C54.8243333,13.6826667 55.1486667,13.384 55.382,12.992 L55.382,12.992 L55.41,12.992 L55.41,14 L57.006,14 L57.006,3.416 L55.326,3.416 L55.326,8.134 L55.284,8.134 C55.2,8.022 55.0926667,7.90533333 54.962,7.784 C54.8313333,7.66266667 54.675,7.55066667 54.493,7.448 C54.311,7.34533333 54.0986667,7.259 53.856,7.189 C53.6133333,7.119 53.338,7.084 53.03,7.084 C52.554,7.084 52.1153333,7.175 51.714,7.357 C51.3126667,7.539 50.9673333,7.78866667 50.678,8.106 C50.3886667,8.42333333 50.1646667,8.79666667 50.006,9.226 C49.8473333,9.65533333 49.768,10.1173333 49.768,10.612 C49.768,11.1066667 49.845,11.571 49.999,12.005 C50.153,12.439 50.3723333,12.817 50.657,13.139 C50.9416667,13.461 51.287,13.7176667 51.693,13.909 C52.099,14.1003333 52.5586667,14.196 53.072,14.196 Z M53.408,12.796 C53.0813333,12.796 52.7966667,12.7306667 52.554,12.6 C52.3113333,12.4693333 52.1106667,12.3013333 51.952,12.096 C51.7933333,11.8906667 51.6743333,11.6573333 51.595,11.396 C51.5156667,11.1346667 51.476,10.8733333 51.476,10.612 C51.476,10.3506667 51.5156667,10.0916667 51.595,9.835 C51.6743333,9.57833333 51.7933333,9.34733333 51.952,9.142 C52.1106667,8.93666667 52.3113333,8.771 52.554,8.645 C52.7966667,8.519 53.0813333,8.456 53.408,8.456 C53.716,8.456 53.9913333,8.52133333 54.234,8.652 C54.4766667,8.78266667 54.6843333,8.95066667 54.857,9.156 C55.0296667,9.36133333 55.1603333,9.59466667 55.249,9.856 C55.3376667,10.1173333 55.382,10.3786667 55.382,10.64 C55.382,10.9013333 55.3376667,11.1603333 55.249,11.417 C55.1603333,11.6736667 55.0296667,11.9046667 54.857,12.11 C54.6843333,12.3153333 54.4766667,12.481 54.234,12.607 C53.9913333,12.733 53.716,12.796 53.408,12.796 Z M62.27,14.196 C63.53,14.196 64.4913333,13.748 65.154,12.852 L65.154,12.852 L64.034,11.956 C63.8473333,12.2266667 63.6093333,12.439 63.32,12.593 C63.0306667,12.747 62.676,12.824 62.256,12.824 C62.0133333,12.824 61.78,12.782 61.556,12.698 C61.332,12.614 61.1313333,12.4996667 60.954,12.355 C60.7766667,12.2103333 60.6343333,12.0376667 60.527,11.837 C60.4196667,11.6363333 60.3566667,11.4146667 60.338,11.172 L60.338,11.172 L65.448,11.172 C65.4573333,11.0973333 65.462,11.0226667 65.462,10.948 L65.462,10.948 L65.462,10.724 C65.462,10.1173333 65.3803333,9.58766667 65.217,9.135 C65.0536667,8.68233333 64.8273333,8.30433333 64.538,8.001 C64.2486667,7.69766667 63.9056667,7.469 63.509,7.315 C63.1123333,7.161 62.6806667,7.084 62.214,7.084 C61.71,7.084 61.241,7.17033333 60.807,7.343 C60.373,7.51566667 59.9973333,7.75833333 59.68,8.071 C59.3626667,8.38366667 59.113,8.76166667 58.931,9.205 C58.749,9.64833333 58.658,10.1406667 58.658,10.682 C58.658,11.2326667 58.749,11.725 58.931,12.159 C59.113,12.593 59.365,12.9593333 59.687,13.258 C60.009,13.5566667 60.3893333,13.7876667 60.828,13.951 C61.2666667,14.1143333 61.7473333,14.196 62.27,14.196 Z M63.782,9.968 L60.338,9.968 C60.3753333,9.492 60.569,9.10233333 60.919,8.799 C61.269,8.49566667 61.696,8.344 62.2,8.344 C62.4706667,8.344 62.7063333,8.38833333 62.907,8.477 C63.1076667,8.56566667 63.2733333,8.68466667 63.404,8.834 C63.5346667,8.98333333 63.6303333,9.156 63.691,9.352 C63.7516667,9.548 63.782,9.75333333 63.782,9.968 L63.782,9.968 Z M68.766,14 L68.766,10.304 C68.766,10.08 68.7986667,9.85833333 68.864,9.639 C68.9293333,9.41966667 69.025,9.226 69.151,9.058 C69.277,8.89 69.438,8.75233333 69.634,8.645 C69.83,8.53766667 70.0633333,8.484 70.334,8.484 C70.6046667,8.484 70.8216667,8.54 70.985,8.652 C71.1483333,8.764 71.2766667,8.90633333 71.37,9.079 C71.4633333,9.25166667 71.524,9.44533333 71.552,9.66 C71.58,9.87466667 71.594,10.08 71.594,10.276 L71.594,10.276 L71.594,14 L73.274,14 L73.274,9.8 C73.274,9.45466667 73.2273333,9.11866667 73.134,8.792 C73.0406667,8.46533333 72.8936667,8.176 72.693,7.924 C72.4923333,7.672 72.2356667,7.469 71.923,7.315 C71.6103333,7.161 71.2346667,7.084 70.796,7.084 C70.292,7.084 69.8556667,7.21233333 69.487,7.469 C69.1183333,7.72566667 68.8593333,8.022 68.71,8.358 L68.71,8.358 L68.682,8.358 L68.682,7.28 L67.086,7.28 L67.086,14 L68.766,14 Z M77.628,14.14 C77.8146667,14.14 78.0106667,14.1236667 78.216,14.091 C78.4213333,14.0583333 78.5986667,14.014 78.748,13.958 L78.748,13.958 L78.692,12.642 C78.5893333,12.6886667 78.4726667,12.7236667 78.342,12.747 C78.2113333,12.7703333 78.09,12.782 77.978,12.782 C77.6046667,12.782 77.3643333,12.684 77.257,12.488 C77.1496667,12.292 77.096,12.0446667 77.096,11.746 L77.096,11.746 L77.096,8.624 L78.776,8.624 L78.776,7.28 L77.096,7.28 L77.096,5.334 L75.444,5.334 L75.444,7.28 L74.268,7.28 L74.268,8.624 L75.444,8.624 L75.444,11.76 C75.444,12.0866667 75.4743333,12.3923333 75.535,12.677 C75.5956667,12.9616667 75.7076667,13.2136667 75.871,13.433 C76.0343333,13.6523333 76.256,13.825 76.536,13.951 C76.816,14.077 77.18,14.14 77.628,14.14 Z M82.038,14.168 C82.514,14.168 82.9386667,14.0723333 83.312,13.881 C83.6853333,13.6896667 83.956,13.4446667 84.124,13.146 L84.124,13.146 L84.166,13.146 L84.166,14 L85.734,14 L85.734,9.912 C85.734,9.576 85.6896667,9.24 85.601,8.904 C85.5123333,8.568 85.356,8.26466667 85.132,7.994 C84.908,7.72333333 84.6023333,7.504 84.215,7.336 C83.8276667,7.168 83.3353333,7.084 82.738,7.084 C82.2246667,7.084 81.7183333,7.17266667 81.219,7.35 C80.7196667,7.52733333 80.2786667,7.79333333 79.896,8.148 L79.896,8.148 L80.764,9.17 C80.9786667,8.95533333 81.2493333,8.77333333 81.576,8.624 C81.9026667,8.47466667 82.2433333,8.4 82.598,8.4 C83.018,8.4 83.3796667,8.50033333 83.683,8.701 C83.9863333,8.90166667 84.138,9.212 84.138,9.632 L84.138,9.632 L84.138,9.8 C83.6153333,9.8 83.081,9.82566667 82.535,9.877 C81.989,9.92833333 81.492,10.0333333 81.044,10.192 C80.596,10.3506667 80.2296667,10.5793333 79.945,10.878 C79.6603333,11.1766667 79.518,11.578 79.518,12.082 C79.518,12.474 79.5996667,12.803 79.763,13.069 C79.9263333,13.335 80.1316667,13.5496667 80.379,13.713 C80.6263333,13.8763333 80.897,13.993 81.191,14.063 C81.485,14.133 81.7673333,14.168 82.038,14.168 Z M82.374,12.894 C82.234,12.894 82.094,12.88 81.954,12.852 C81.814,12.824 81.688,12.7773333 81.576,12.712 C81.464,12.6466667 81.373,12.5603333 81.303,12.453 C81.233,12.3456667 81.198,12.2126667 81.198,12.054 C81.198,11.802 81.282,11.6036667 81.45,11.459 C81.618,11.3143333 81.828,11.2023333 82.08,11.123 C82.332,11.0436667 82.6073333,10.9923333 82.906,10.969 C83.2046667,10.9456667 83.4893333,10.934 83.76,10.934 L83.76,10.934 L84.138,10.934 L84.138,11.172 C84.138,11.704 83.9886667,12.124 83.69,12.432 C83.3913333,12.74 82.9526667,12.894 82.374,12.894 Z M89.374,14 L89.374,10.402 C89.374,10.2806667 89.3973333,10.1173333 89.444,9.912 C89.4906667,9.70666667 89.5793333,9.506 89.71,9.31 C89.8406667,9.114 90.0226667,8.946 90.256,8.806 C90.4893333,8.666 90.7973333,8.596 91.18,8.596 C91.2546667,8.596 91.3316667,8.60066667 91.411,8.61 C91.4903333,8.61933333 91.586,8.638 91.698,8.666 L91.698,8.666 L91.698,7.126 C91.642,7.10733333 91.5766667,7.09566667 91.502,7.091 C91.4273333,7.08633333 91.3573333,7.084 91.292,7.084 C90.844,7.084 90.452,7.20533333 90.116,7.448 C89.78,7.69066667 89.5186667,8.008 89.332,8.4 L89.332,8.4 L89.304,8.4 L89.304,7.28 L87.694,7.28 L87.694,14 L89.374,14 Z" id="Identar" fill="#4D4D4D" fill-rule="nonzero"></path>
                </g>
            </g>
            <g id="atom-item-copy-9" transform="translate(411.000000, 0.000000)">
                <g id="atom-item">
                    <ellipse id="element" stroke="url(#linearGradient-3)" stroke-width="5" fill="#FFFFFF" cx="69.0074074" cy="40" rx="10.1481481" ry="10"></ellipse>
                    <path d="M40.661,14 L40.661,9.898 L42.019,9.898 C42.5416667,9.898 43.0363333,9.84666667 43.503,9.744 C43.9696667,9.64133333 44.378,9.47566667 44.728,9.247 C45.078,9.01833333 45.3556667,8.71733333 45.561,8.344 C45.7663333,7.97066667 45.869,7.50866667 45.869,6.958 C45.869,6.44466667 45.7803333,6.006 45.603,5.642 C45.4256667,5.278 45.1736667,4.97933333 44.847,4.746 C44.5203333,4.51266667 44.1283333,4.34466667 43.671,4.242 C43.2136667,4.13933333 42.7003333,4.088 42.131,4.088 L42.131,4.088 L38.897,4.088 L38.897,14 L40.661,14 Z M41.893,8.414 L40.661,8.414 L40.661,5.572 L41.949,5.572 C42.2196667,5.572 42.4833333,5.58833333 42.74,5.621 C42.9966667,5.65366667 43.2253333,5.72133333 43.426,5.824 C43.6266667,5.92666667 43.7876667,6.069 43.909,6.251 C44.0303333,6.433 44.091,6.66866667 44.091,6.958 C44.091,7.25666667 44.0303333,7.49933333 43.909,7.686 C43.7876667,7.87266667 43.6243333,8.01966667 43.419,8.127 C43.2136667,8.23433333 42.9803333,8.309 42.719,8.351 C42.4576667,8.393 42.1823333,8.414 41.893,8.414 L41.893,8.414 Z M49.033,14 L49.033,10.402 C49.033,10.2806667 49.0563333,10.1173333 49.103,9.912 C49.1496667,9.70666667 49.2383333,9.506 49.369,9.31 C49.4996667,9.114 49.6816667,8.946 49.915,8.806 C50.1483333,8.666 50.4563333,8.596 50.839,8.596 C50.9136667,8.596 50.9906667,8.60066667 51.07,8.61 C51.1493333,8.61933333 51.245,8.638 51.357,8.666 L51.357,8.666 L51.357,7.126 C51.301,7.10733333 51.2356667,7.09566667 51.161,7.091 C51.0863333,7.08633333 51.0163333,7.084 50.951,7.084 C50.503,7.084 50.111,7.20533333 49.775,7.448 C49.439,7.69066667 49.1776667,8.008 48.991,8.4 L48.991,8.4 L48.963,8.4 L48.963,7.28 L47.353,7.28 L47.353,14 L49.033,14 Z M55.711,14.196 C56.215,14.196 56.691,14.1073333 57.139,13.93 C57.587,13.7526667 57.9743333,13.5076667 58.301,13.195 C58.6276667,12.8823333 58.8866667,12.5066667 59.078,12.068 C59.2693333,11.6293333 59.365,11.144 59.365,10.612 C59.365,10.08 59.2693333,9.597 59.078,9.163 C58.8866667,8.729 58.6276667,8.358 58.301,8.05 C57.9743333,7.742 57.587,7.504 57.139,7.336 C56.691,7.168 56.215,7.084 55.711,7.084 C55.207,7.084 54.731,7.168 54.283,7.336 C53.835,7.504 53.4476667,7.742 53.121,8.05 C52.7943333,8.358 52.5353333,8.729 52.344,9.163 C52.1526667,9.597 52.057,10.08 52.057,10.612 C52.057,11.144 52.1526667,11.6293333 52.344,12.068 C52.5353333,12.5066667 52.7943333,12.8823333 53.121,13.195 C53.4476667,13.5076667 53.835,13.7526667 54.283,13.93 C54.731,14.1073333 55.207,14.196 55.711,14.196 Z M55.711,12.796 C55.375,12.796 55.0856667,12.7306667 54.843,12.6 C54.6003333,12.4693333 54.3996667,12.3013333 54.241,12.096 C54.0823333,11.8906667 53.9633333,11.6573333 53.884,11.396 C53.8046667,11.1346667 53.765,10.8733333 53.765,10.612 C53.765,10.3506667 53.8046667,10.0916667 53.884,9.835 C53.9633333,9.57833333 54.0823333,9.34733333 54.241,9.142 C54.3996667,8.93666667 54.6003333,8.771 54.843,8.645 C55.0856667,8.519 55.375,8.456 55.711,8.456 C56.047,8.456 56.3363333,8.519 56.579,8.645 C56.8216667,8.771 57.0223333,8.93666667 57.181,9.142 C57.3396667,9.34733333 57.4586667,9.57833333 57.538,9.835 C57.6173333,10.0916667 57.657,10.3506667 57.657,10.612 C57.657,10.8733333 57.6173333,11.1346667 57.538,11.396 C57.4586667,11.6573333 57.3396667,11.8906667 57.181,12.096 C57.0223333,12.3013333 56.8216667,12.4693333 56.579,12.6 C56.3363333,12.7306667 56.047,12.796 55.711,12.796 Z M63.383,14.14 C63.5696667,14.14 63.7656667,14.1236667 63.971,14.091 C64.1763333,14.0583333 64.3536667,14.014 64.503,13.958 L64.503,13.958 L64.447,12.642 C64.3443333,12.6886667 64.2276667,12.7236667 64.097,12.747 C63.9663333,12.7703333 63.845,12.782 63.733,12.782 C63.3596667,12.782 63.1193333,12.684 63.012,12.488 C62.9046667,12.292 62.851,12.0446667 62.851,11.746 L62.851,11.746 L62.851,8.624 L64.531,8.624 L64.531,7.28 L62.851,7.28 L62.851,5.334 L61.199,5.334 L61.199,7.28 L60.023,7.28 L60.023,8.624 L61.199,8.624 L61.199,11.76 C61.199,12.0866667 61.2293333,12.3923333 61.29,12.677 C61.3506667,12.9616667 61.4626667,13.2136667 61.626,13.433 C61.7893333,13.6523333 62.011,13.825 62.291,13.951 C62.571,14.077 62.935,14.14 63.383,14.14 Z M69.011,14.196 C69.515,14.196 69.991,14.1073333 70.439,13.93 C70.887,13.7526667 71.2743333,13.5076667 71.601,13.195 C71.9276667,12.8823333 72.1866667,12.5066667 72.378,12.068 C72.5693333,11.6293333 72.665,11.144 72.665,10.612 C72.665,10.08 72.5693333,9.597 72.378,9.163 C72.1866667,8.729 71.9276667,8.358 71.601,8.05 C71.2743333,7.742 70.887,7.504 70.439,7.336 C69.991,7.168 69.515,7.084 69.011,7.084 C68.507,7.084 68.031,7.168 67.583,7.336 C67.135,7.504 66.7476667,7.742 66.421,8.05 C66.0943333,8.358 65.8353333,8.729 65.644,9.163 C65.4526667,9.597 65.357,10.08 65.357,10.612 C65.357,11.144 65.4526667,11.6293333 65.644,12.068 C65.8353333,12.5066667 66.0943333,12.8823333 66.421,13.195 C66.7476667,13.5076667 67.135,13.7526667 67.583,13.93 C68.031,14.1073333 68.507,14.196 69.011,14.196 Z M69.011,12.796 C68.675,12.796 68.3856667,12.7306667 68.143,12.6 C67.9003333,12.4693333 67.6996667,12.3013333 67.541,12.096 C67.3823333,11.8906667 67.2633333,11.6573333 67.184,11.396 C67.1046667,11.1346667 67.065,10.8733333 67.065,10.612 C67.065,10.3506667 67.1046667,10.0916667 67.184,9.835 C67.2633333,9.57833333 67.3823333,9.34733333 67.541,9.142 C67.6996667,8.93666667 67.9003333,8.771 68.143,8.645 C68.3856667,8.519 68.675,8.456 69.011,8.456 C69.347,8.456 69.6363333,8.519 69.879,8.645 C70.1216667,8.771 70.3223333,8.93666667 70.481,9.142 C70.6396667,9.34733333 70.7586667,9.57833333 70.838,9.835 C70.9173333,10.0916667 70.957,10.3506667 70.957,10.612 C70.957,10.8733333 70.9173333,11.1346667 70.838,11.396 C70.7586667,11.6573333 70.6396667,11.8906667 70.481,12.096 C70.3223333,12.3013333 70.1216667,12.4693333 69.879,12.6 C69.6363333,12.7306667 69.347,12.796 69.011,12.796 Z M76.683,14.14 C76.8696667,14.14 77.0656667,14.1236667 77.271,14.091 C77.4763333,14.0583333 77.6536667,14.014 77.803,13.958 L77.803,13.958 L77.747,12.642 C77.6443333,12.6886667 77.5276667,12.7236667 77.397,12.747 C77.2663333,12.7703333 77.145,12.782 77.033,12.782 C76.6596667,12.782 76.4193333,12.684 76.312,12.488 C76.2046667,12.292 76.151,12.0446667 76.151,11.746 L76.151,11.746 L76.151,8.624 L77.831,8.624 L77.831,7.28 L76.151,7.28 L76.151,5.334 L74.499,5.334 L74.499,7.28 L73.323,7.28 L73.323,8.624 L74.499,8.624 L74.499,11.76 C74.499,12.0866667 74.5293333,12.3923333 74.59,12.677 C74.6506667,12.9616667 74.7626667,13.2136667 74.926,13.433 C75.0893333,13.6523333 75.311,13.825 75.591,13.951 C75.871,14.077 76.235,14.14 76.683,14.14 Z M79.903,6.006 C80.211,6.006 80.47,5.91033333 80.68,5.719 C80.89,5.52766667 80.995,5.28733333 80.995,4.998 C80.995,4.70866667 80.89,4.46833333 80.68,4.277 C80.47,4.08566667 80.211,3.99 79.903,3.99 C79.595,3.99 79.3406667,4.09033333 79.14,4.291 C78.9393333,4.49166667 78.839,4.72733333 78.839,4.998 C78.839,5.26866667 78.9393333,5.50433333 79.14,5.705 C79.3406667,5.90566667 79.595,6.006 79.903,6.006 Z M80.757,14 L80.757,7.28 L79.077,7.28 L79.077,14 L80.757,14 Z M84.481,17.36 L84.481,13.104 L84.509,13.104 C84.7236667,13.44 85.0293333,13.706 85.426,13.902 C85.8226667,14.098 86.259,14.196 86.735,14.196 C87.2483333,14.196 87.708,14.1003333 88.114,13.909 C88.52,13.7176667 88.8653333,13.461 89.15,13.139 C89.4346667,12.817 89.654,12.439 89.808,12.005 C89.962,11.571 90.039,11.1066667 90.039,10.612 C90.039,10.1173333 89.9596667,9.65533333 89.801,9.226 C89.6423333,8.79666667 89.4183333,8.42333333 89.129,8.106 C88.8396667,7.78866667 88.4943333,7.539 88.093,7.357 C87.6916667,7.175 87.253,7.084 86.777,7.084 C86.469,7.084 86.1913333,7.119 85.944,7.189 C85.6966667,7.259 85.475,7.34766667 85.279,7.455 C85.083,7.56233333 84.9173333,7.68366667 84.782,7.819 C84.6466667,7.95433333 84.537,8.08733333 84.453,8.218 L84.453,8.218 L84.411,8.218 L84.411,7.28 L82.801,7.28 L82.801,17.36 L84.481,17.36 Z M86.399,12.796 C86.091,12.796 85.8156667,12.733 85.573,12.607 C85.3303333,12.481 85.1226667,12.3153333 84.95,12.11 C84.7773333,11.9046667 84.6466667,11.6736667 84.558,11.417 C84.4693333,11.1603333 84.425,10.9013333 84.425,10.64 C84.425,10.3786667 84.4693333,10.1173333 84.558,9.856 C84.6466667,9.59466667 84.7773333,9.36133333 84.95,9.156 C85.1226667,8.95066667 85.3303333,8.78266667 85.573,8.652 C85.8156667,8.52133333 86.091,8.456 86.399,8.456 C86.7256667,8.456 87.0103333,8.519 87.253,8.645 C87.4956667,8.771 87.6963333,8.93666667 87.855,9.142 C88.0136667,9.34733333 88.1326667,9.57833333 88.212,9.835 C88.2913333,10.0916667 88.331,10.3506667 88.331,10.612 C88.331,10.8733333 88.2913333,11.1346667 88.212,11.396 C88.1326667,11.6573333 88.0136667,11.8906667 87.855,12.096 C87.6963333,12.3013333 87.4956667,12.4693333 87.253,12.6 C87.0103333,12.7306667 86.7256667,12.796 86.399,12.796 Z M94.925,14.196 C95.429,14.196 95.905,14.1073333 96.353,13.93 C96.801,13.7526667 97.1883333,13.5076667 97.515,13.195 C97.8416667,12.8823333 98.1006667,12.5066667 98.292,12.068 C98.4833333,11.6293333 98.579,11.144 98.579,10.612 C98.579,10.08 98.4833333,9.597 98.292,9.163 C98.1006667,8.729 97.8416667,8.358 97.515,8.05 C97.1883333,7.742 96.801,7.504 96.353,7.336 C95.905,7.168 95.429,7.084 94.925,7.084 C94.421,7.084 93.945,7.168 93.497,7.336 C93.049,7.504 92.6616667,7.742 92.335,8.05 C92.0083333,8.358 91.7493333,8.729 91.558,9.163 C91.3666667,9.597 91.271,10.08 91.271,10.612 C91.271,11.144 91.3666667,11.6293333 91.558,12.068 C91.7493333,12.5066667 92.0083333,12.8823333 92.335,13.195 C92.6616667,13.5076667 93.049,13.7526667 93.497,13.93 C93.945,14.1073333 94.421,14.196 94.925,14.196 Z M94.925,12.796 C94.589,12.796 94.2996667,12.7306667 94.057,12.6 C93.8143333,12.4693333 93.6136667,12.3013333 93.455,12.096 C93.2963333,11.8906667 93.1773333,11.6573333 93.098,11.396 C93.0186667,11.1346667 92.979,10.8733333 92.979,10.612 C92.979,10.3506667 93.0186667,10.0916667 93.098,9.835 C93.1773333,9.57833333 93.2963333,9.34733333 93.455,9.142 C93.6136667,8.93666667 93.8143333,8.771 94.057,8.645 C94.2996667,8.519 94.589,8.456 94.925,8.456 C95.261,8.456 95.5503333,8.519 95.793,8.645 C96.0356667,8.771 96.2363333,8.93666667 96.395,9.142 C96.5536667,9.34733333 96.6726667,9.57833333 96.752,9.835 C96.8313333,10.0916667 96.871,10.3506667 96.871,10.612 C96.871,10.8733333 96.8313333,11.1346667 96.752,11.396 C96.6726667,11.6573333 96.5536667,11.8906667 96.395,12.096 C96.2363333,12.3013333 96.0356667,12.4693333 95.793,12.6 C95.5503333,12.7306667 95.261,12.796 94.925,12.796 Z" id="Prototipo" fill="#4D4D4D" fill-rule="nonzero"></path>
                </g>
            </g>
            <g id="atom-item-copy-10" transform="translate(548.000000, 0.000000)">
                <g id="atom-item">
                    <ellipse id="element" stroke="url(#linearGradient-3)" stroke-width="5" fill="#FFFFFF" cx="69.0074074" cy="40" rx="10.1481481" ry="10"></ellipse>
                    <path d="M39.709,14 L43.685,4.088 L41.781,4.088 L39.023,11.718 L38.967,11.718 L36.237,4.088 L34.263,4.088 L38.183,14 L39.709,14 Z M46.597,14.168 C47.073,14.168 47.4976667,14.0723333 47.871,13.881 C48.2443333,13.6896667 48.515,13.4446667 48.683,13.146 L48.683,13.146 L48.725,13.146 L48.725,14 L50.293,14 L50.293,9.912 C50.293,9.576 50.2486667,9.24 50.16,8.904 C50.0713333,8.568 49.915,8.26466667 49.691,7.994 C49.467,7.72333333 49.1613333,7.504 48.774,7.336 C48.3866667,7.168 47.8943333,7.084 47.297,7.084 C46.7836667,7.084 46.2773333,7.17266667 45.778,7.35 C45.2786667,7.52733333 44.8376667,7.79333333 44.455,8.148 L44.455,8.148 L45.323,9.17 C45.5376667,8.95533333 45.8083333,8.77333333 46.135,8.624 C46.4616667,8.47466667 46.8023333,8.4 47.157,8.4 C47.577,8.4 47.9386667,8.50033333 48.242,8.701 C48.5453333,8.90166667 48.697,9.212 48.697,9.632 L48.697,9.632 L48.697,9.8 C48.1743333,9.8 47.64,9.82566667 47.094,9.877 C46.548,9.92833333 46.051,10.0333333 45.603,10.192 C45.155,10.3506667 44.7886667,10.5793333 44.504,10.878 C44.2193333,11.1766667 44.077,11.578 44.077,12.082 C44.077,12.474 44.1586667,12.803 44.322,13.069 C44.4853333,13.335 44.6906667,13.5496667 44.938,13.713 C45.1853333,13.8763333 45.456,13.993 45.75,14.063 C46.044,14.133 46.3263333,14.168 46.597,14.168 Z M46.933,12.894 C46.793,12.894 46.653,12.88 46.513,12.852 C46.373,12.824 46.247,12.7773333 46.135,12.712 C46.023,12.6466667 45.932,12.5603333 45.862,12.453 C45.792,12.3456667 45.757,12.2126667 45.757,12.054 C45.757,11.802 45.841,11.6036667 46.009,11.459 C46.177,11.3143333 46.387,11.2023333 46.639,11.123 C46.891,11.0436667 47.1663333,10.9923333 47.465,10.969 C47.7636667,10.9456667 48.0483333,10.934 48.319,10.934 L48.319,10.934 L48.697,10.934 L48.697,11.172 C48.697,11.704 48.5476667,12.124 48.249,12.432 C47.9503333,12.74 47.5116667,12.894 46.933,12.894 Z M53.961,14 L53.961,3.416 L52.281,3.416 L52.281,14 L53.961,14 Z M56.859,6.006 C57.167,6.006 57.426,5.91033333 57.636,5.719 C57.846,5.52766667 57.951,5.28733333 57.951,4.998 C57.951,4.70866667 57.846,4.46833333 57.636,4.277 C57.426,4.08566667 57.167,3.99 56.859,3.99 C56.551,3.99 56.2966667,4.09033333 56.096,4.291 C55.8953333,4.49166667 55.795,4.72733333 55.795,4.998 C55.795,5.26866667 55.8953333,5.50433333 56.096,5.705 C56.2966667,5.90566667 56.551,6.006 56.859,6.006 Z M57.713,14 L57.713,7.28 L56.033,7.28 L56.033,14 L57.713,14 Z M62.655,14.196 C63.131,14.196 63.5766667,14.0933333 63.992,13.888 C64.4073333,13.6826667 64.7316667,13.384 64.965,12.992 L64.965,12.992 L64.993,12.992 L64.993,14 L66.589,14 L66.589,3.416 L64.909,3.416 L64.909,8.134 L64.867,8.134 C64.783,8.022 64.6756667,7.90533333 64.545,7.784 C64.4143333,7.66266667 64.258,7.55066667 64.076,7.448 C63.894,7.34533333 63.6816667,7.259 63.439,7.189 C63.1963333,7.119 62.921,7.084 62.613,7.084 C62.137,7.084 61.6983333,7.175 61.297,7.357 C60.8956667,7.539 60.5503333,7.78866667 60.261,8.106 C59.9716667,8.42333333 59.7476667,8.79666667 59.589,9.226 C59.4303333,9.65533333 59.351,10.1173333 59.351,10.612 C59.351,11.1066667 59.428,11.571 59.582,12.005 C59.736,12.439 59.9553333,12.817 60.24,13.139 C60.5246667,13.461 60.87,13.7176667 61.276,13.909 C61.682,14.1003333 62.1416667,14.196 62.655,14.196 Z M62.991,12.796 C62.6643333,12.796 62.3796667,12.7306667 62.137,12.6 C61.8943333,12.4693333 61.6936667,12.3013333 61.535,12.096 C61.3763333,11.8906667 61.2573333,11.6573333 61.178,11.396 C61.0986667,11.1346667 61.059,10.8733333 61.059,10.612 C61.059,10.3506667 61.0986667,10.0916667 61.178,9.835 C61.2573333,9.57833333 61.3763333,9.34733333 61.535,9.142 C61.6936667,8.93666667 61.8943333,8.771 62.137,8.645 C62.3796667,8.519 62.6643333,8.456 62.991,8.456 C63.299,8.456 63.5743333,8.52133333 63.817,8.652 C64.0596667,8.78266667 64.2673333,8.95066667 64.44,9.156 C64.6126667,9.36133333 64.7433333,9.59466667 64.832,9.856 C64.9206667,10.1173333 64.965,10.3786667 64.965,10.64 C64.965,10.9013333 64.9206667,11.1603333 64.832,11.417 C64.7433333,11.6736667 64.6126667,11.9046667 64.44,12.11 C64.2673333,12.3153333 64.0596667,12.481 63.817,12.607 C63.5743333,12.733 63.299,12.796 62.991,12.796 Z M70.677,14.168 C71.153,14.168 71.5776667,14.0723333 71.951,13.881 C72.3243333,13.6896667 72.595,13.4446667 72.763,13.146 L72.763,13.146 L72.805,13.146 L72.805,14 L74.373,14 L74.373,9.912 C74.373,9.576 74.3286667,9.24 74.24,8.904 C74.1513333,8.568 73.995,8.26466667 73.771,7.994 C73.547,7.72333333 73.2413333,7.504 72.854,7.336 C72.4666667,7.168 71.9743333,7.084 71.377,7.084 C70.8636667,7.084 70.3573333,7.17266667 69.858,7.35 C69.3586667,7.52733333 68.9176667,7.79333333 68.535,8.148 L68.535,8.148 L69.403,9.17 C69.6176667,8.95533333 69.8883333,8.77333333 70.215,8.624 C70.5416667,8.47466667 70.8823333,8.4 71.237,8.4 C71.657,8.4 72.0186667,8.50033333 72.322,8.701 C72.6253333,8.90166667 72.777,9.212 72.777,9.632 L72.777,9.632 L72.777,9.8 C72.2543333,9.8 71.72,9.82566667 71.174,9.877 C70.628,9.92833333 70.131,10.0333333 69.683,10.192 C69.235,10.3506667 68.8686667,10.5793333 68.584,10.878 C68.2993333,11.1766667 68.157,11.578 68.157,12.082 C68.157,12.474 68.2386667,12.803 68.402,13.069 C68.5653333,13.335 68.7706667,13.5496667 69.018,13.713 C69.2653333,13.8763333 69.536,13.993 69.83,14.063 C70.124,14.133 70.4063333,14.168 70.677,14.168 Z M71.013,12.894 C70.873,12.894 70.733,12.88 70.593,12.852 C70.453,12.824 70.327,12.7773333 70.215,12.712 C70.103,12.6466667 70.012,12.5603333 69.942,12.453 C69.872,12.3456667 69.837,12.2126667 69.837,12.054 C69.837,11.802 69.921,11.6036667 70.089,11.459 C70.257,11.3143333 70.467,11.2023333 70.719,11.123 C70.971,11.0436667 71.2463333,10.9923333 71.545,10.969 C71.8436667,10.9456667 72.1283333,10.934 72.399,10.934 L72.399,10.934 L72.777,10.934 L72.777,11.172 C72.777,11.704 72.6276667,12.124 72.329,12.432 C72.0303333,12.74 71.5916667,12.894 71.013,12.894 Z M79.581,14.196 C80.085,14.196 80.554,14.1143333 80.988,13.951 C81.422,13.7876667 81.779,13.5566667 82.059,13.258 L82.059,13.258 L81.009,12.194 C80.8503333,12.39 80.6403333,12.5393333 80.379,12.642 C80.1176667,12.7446667 79.8563333,12.796 79.595,12.796 C79.2776667,12.796 79,12.733 78.762,12.607 C78.524,12.481 78.3256667,12.3153333 78.167,12.11 C78.0083333,11.9046667 77.8893333,11.6736667 77.81,11.417 C77.7306667,11.1603333 77.691,10.9013333 77.691,10.64 C77.691,10.3786667 77.7283333,10.1196667 77.803,9.863 C77.8776667,9.60633333 77.992,9.37533333 78.146,9.17 C78.3,8.96466667 78.4936667,8.799 78.727,8.673 C78.9603333,8.547 79.231,8.484 79.539,8.484 C79.8096667,8.484 80.0756667,8.547 80.337,8.673 C80.5983333,8.799 80.7943333,8.95533333 80.925,9.142 L80.925,9.142 L82.073,8.134 C81.8023333,7.80733333 81.436,7.55066667 80.974,7.364 C80.512,7.17733333 80.0336667,7.084 79.539,7.084 C79.0443333,7.084 78.58,7.168 78.146,7.336 C77.712,7.504 77.3316667,7.742 77.005,8.05 C76.6783333,8.358 76.4193333,8.73133333 76.228,9.17 C76.0366667,9.60866667 75.941,10.0986667 75.941,10.64 C75.941,11.2 76.0366667,11.6993333 76.228,12.138 C76.4193333,12.5766667 76.6806667,12.95 77.012,13.258 C77.3433333,13.566 77.7306667,13.7993333 78.174,13.958 C78.6173333,14.1166667 79.0863333,14.196 79.581,14.196 Z M84.019,6.006 C84.327,6.006 84.586,5.91033333 84.796,5.719 C85.006,5.52766667 85.111,5.28733333 85.111,4.998 C85.111,4.70866667 85.006,4.46833333 84.796,4.277 C84.586,4.08566667 84.327,3.99 84.019,3.99 C83.711,3.99 83.4566667,4.09033333 83.256,4.291 C83.0553333,4.49166667 82.955,4.72733333 82.955,4.998 C82.955,5.26866667 83.0553333,5.50433333 83.256,5.705 C83.4566667,5.90566667 83.711,6.006 84.019,6.006 Z M84.873,14 L84.873,7.28 L83.193,7.28 L83.193,14 L84.873,14 Z M90.487,6.104 L92.461,4.088 L90.557,4.088 L89.171,6.104 L90.487,6.104 Z M90.179,14.196 C90.683,14.196 91.159,14.1073333 91.607,13.93 C92.055,13.7526667 92.4423333,13.5076667 92.769,13.195 C93.0956667,12.8823333 93.3546667,12.5066667 93.546,12.068 C93.7373333,11.6293333 93.833,11.144 93.833,10.612 C93.833,10.08 93.7373333,9.597 93.546,9.163 C93.3546667,8.729 93.0956667,8.358 92.769,8.05 C92.4423333,7.742 92.055,7.504 91.607,7.336 C91.159,7.168 90.683,7.084 90.179,7.084 C89.675,7.084 89.199,7.168 88.751,7.336 C88.303,7.504 87.9156667,7.742 87.589,8.05 C87.2623333,8.358 87.0033333,8.729 86.812,9.163 C86.6206667,9.597 86.525,10.08 86.525,10.612 C86.525,11.144 86.6206667,11.6293333 86.812,12.068 C87.0033333,12.5066667 87.2623333,12.8823333 87.589,13.195 C87.9156667,13.5076667 88.303,13.7526667 88.751,13.93 C89.199,14.1073333 89.675,14.196 90.179,14.196 Z M90.179,12.796 C89.843,12.796 89.5536667,12.7306667 89.311,12.6 C89.0683333,12.4693333 88.8676667,12.3013333 88.709,12.096 C88.5503333,11.8906667 88.4313333,11.6573333 88.352,11.396 C88.2726667,11.1346667 88.233,10.8733333 88.233,10.612 C88.233,10.3506667 88.2726667,10.0916667 88.352,9.835 C88.4313333,9.57833333 88.5503333,9.34733333 88.709,9.142 C88.8676667,8.93666667 89.0683333,8.771 89.311,8.645 C89.5536667,8.519 89.843,8.456 90.179,8.456 C90.515,8.456 90.8043333,8.519 91.047,8.645 C91.2896667,8.771 91.4903333,8.93666667 91.649,9.142 C91.8076667,9.34733333 91.9266667,9.57833333 92.006,9.835 C92.0853333,10.0916667 92.125,10.3506667 92.125,10.612 C92.125,10.8733333 92.0853333,11.1346667 92.006,11.396 C91.9266667,11.6573333 91.8076667,11.8906667 91.649,12.096 C91.4903333,12.3013333 91.2896667,12.4693333 91.047,12.6 C90.8043333,12.7306667 90.515,12.796 90.179,12.796 Z M97.137,14 L97.137,10.304 C97.137,10.08 97.1696667,9.85833333 97.235,9.639 C97.3003333,9.41966667 97.396,9.226 97.522,9.058 C97.648,8.89 97.809,8.75233333 98.005,8.645 C98.201,8.53766667 98.4343333,8.484 98.705,8.484 C98.9756667,8.484 99.1926667,8.54 99.356,8.652 C99.5193333,8.764 99.6476667,8.90633333 99.741,9.079 C99.8343333,9.25166667 99.895,9.44533333 99.923,9.66 C99.951,9.87466667 99.965,10.08 99.965,10.276 L99.965,10.276 L99.965,14 L101.645,14 L101.645,9.8 C101.645,9.45466667 101.598333,9.11866667 101.505,8.792 C101.411667,8.46533333 101.264667,8.176 101.064,7.924 C100.863333,7.672 100.606667,7.469 100.294,7.315 C99.9813333,7.161 99.6056667,7.084 99.167,7.084 C98.663,7.084 98.2266667,7.21233333 97.858,7.469 C97.4893333,7.72566667 97.2303333,8.022 97.081,8.358 L97.081,8.358 L97.053,8.358 L97.053,7.28 L95.457,7.28 L95.457,14 L97.137,14 Z" id="Validación" fill="#4D4D4D" fill-rule="nonzero"></path>
                </g>
            </g>
            <g id="atom-item-copy-5" transform="translate(685.000000, 0.000000)">
                <g id="atom-item">
                    <ellipse id="element" stroke="url(#linearGradient-4)" stroke-width="5" fill="#FFFFFF" cx="69.0074074" cy="40" rx="10.1481481" ry="10"></ellipse>
                    <path d="M18.639,14 L18.639,4.088 L16.875,4.088 L16.875,14 L18.639,14 Z M22.419,14 L22.419,10.304 C22.419,10.08 22.4493333,9.85833333 22.51,9.639 C22.5706667,9.41966667 22.6593333,9.226 22.776,9.058 C22.8926667,8.89 23.0443333,8.75233333 23.231,8.645 C23.4176667,8.53766667 23.637,8.484 23.889,8.484 C24.3183333,8.484 24.6333333,8.62166667 24.834,8.897 C25.0346667,9.17233333 25.135,9.52 25.135,9.94 L25.135,9.94 L25.135,14 L26.815,14 L26.815,10.332 C26.815,10.1173333 26.843,9.90033333 26.899,9.681 C26.955,9.46166667 27.0436667,9.26333333 27.165,9.086 C27.2863333,8.90866667 27.4403333,8.764 27.627,8.652 C27.8136667,8.54 28.0376667,8.484 28.299,8.484 C28.5696667,8.484 28.7866667,8.54 28.95,8.652 C29.1133333,8.764 29.2416667,8.90633333 29.335,9.079 C29.4283333,9.25166667 29.489,9.44533333 29.517,9.66 C29.545,9.87466667 29.559,10.08 29.559,10.276 L29.559,10.276 L29.559,14 L31.239,14 L31.239,9.8 C31.239,9.45466667 31.1923333,9.11866667 31.099,8.792 C31.0056667,8.46533333 30.8586667,8.176 30.658,7.924 C30.4573333,7.672 30.2006667,7.469 29.888,7.315 C29.5753333,7.161 29.1996667,7.084 28.761,7.084 C28.257,7.084 27.8183333,7.19366667 27.445,7.413 C27.0716667,7.63233333 26.773,7.94733333 26.549,8.358 C26.3623333,7.97533333 26.0963333,7.66733333 25.751,7.434 C25.4056667,7.20066667 24.9716667,7.084 24.449,7.084 C24.1783333,7.084 23.931,7.119 23.707,7.189 C23.483,7.259 23.2846667,7.35466667 23.112,7.476 C22.9393333,7.59733333 22.79,7.73266667 22.664,7.882 C22.538,8.03133333 22.4376667,8.19 22.363,8.358 L22.363,8.358 L22.335,8.358 L22.335,7.28 L20.739,7.28 L20.739,14 L22.419,14 Z M34.879,17.36 L34.879,13.104 L34.907,13.104 C35.1216667,13.44 35.4273333,13.706 35.824,13.902 C36.2206667,14.098 36.657,14.196 37.133,14.196 C37.6463333,14.196 38.106,14.1003333 38.512,13.909 C38.918,13.7176667 39.2633333,13.461 39.548,13.139 C39.8326667,12.817 40.052,12.439 40.206,12.005 C40.36,11.571 40.437,11.1066667 40.437,10.612 C40.437,10.1173333 40.3576667,9.65533333 40.199,9.226 C40.0403333,8.79666667 39.8163333,8.42333333 39.527,8.106 C39.2376667,7.78866667 38.8923333,7.539 38.491,7.357 C38.0896667,7.175 37.651,7.084 37.175,7.084 C36.867,7.084 36.5893333,7.119 36.342,7.189 C36.0946667,7.259 35.873,7.34766667 35.677,7.455 C35.481,7.56233333 35.3153333,7.68366667 35.18,7.819 C35.0446667,7.95433333 34.935,8.08733333 34.851,8.218 L34.851,8.218 L34.809,8.218 L34.809,7.28 L33.199,7.28 L33.199,17.36 L34.879,17.36 Z M36.797,12.796 C36.489,12.796 36.2136667,12.733 35.971,12.607 C35.7283333,12.481 35.5206667,12.3153333 35.348,12.11 C35.1753333,11.9046667 35.0446667,11.6736667 34.956,11.417 C34.8673333,11.1603333 34.823,10.9013333 34.823,10.64 C34.823,10.3786667 34.8673333,10.1173333 34.956,9.856 C35.0446667,9.59466667 35.1753333,9.36133333 35.348,9.156 C35.5206667,8.95066667 35.7283333,8.78266667 35.971,8.652 C36.2136667,8.52133333 36.489,8.456 36.797,8.456 C37.1236667,8.456 37.4083333,8.519 37.651,8.645 C37.8936667,8.771 38.0943333,8.93666667 38.253,9.142 C38.4116667,9.34733333 38.5306667,9.57833333 38.61,9.835 C38.6893333,10.0916667 38.729,10.3506667 38.729,10.612 C38.729,10.8733333 38.6893333,11.1346667 38.61,11.396 C38.5306667,11.6573333 38.4116667,11.8906667 38.253,12.096 C38.0943333,12.3013333 37.8936667,12.4693333 37.651,12.6 C37.4083333,12.7306667 37.1236667,12.796 36.797,12.796 Z M43.769,14 L43.769,3.416 L42.089,3.416 L42.089,14 L43.769,14 Z M49.033,14.196 C50.293,14.196 51.2543333,13.748 51.917,12.852 L51.917,12.852 L50.797,11.956 C50.6103333,12.2266667 50.3723333,12.439 50.083,12.593 C49.7936667,12.747 49.439,12.824 49.019,12.824 C48.7763333,12.824 48.543,12.782 48.319,12.698 C48.095,12.614 47.8943333,12.4996667 47.717,12.355 C47.5396667,12.2103333 47.3973333,12.0376667 47.29,11.837 C47.1826667,11.6363333 47.1196667,11.4146667 47.101,11.172 L47.101,11.172 L52.211,11.172 C52.2203333,11.0973333 52.225,11.0226667 52.225,10.948 L52.225,10.948 L52.225,10.724 C52.225,10.1173333 52.1433333,9.58766667 51.98,9.135 C51.8166667,8.68233333 51.5903333,8.30433333 51.301,8.001 C51.0116667,7.69766667 50.6686667,7.469 50.272,7.315 C49.8753333,7.161 49.4436667,7.084 48.977,7.084 C48.473,7.084 48.004,7.17033333 47.57,7.343 C47.136,7.51566667 46.7603333,7.75833333 46.443,8.071 C46.1256667,8.38366667 45.876,8.76166667 45.694,9.205 C45.512,9.64833333 45.421,10.1406667 45.421,10.682 C45.421,11.2326667 45.512,11.725 45.694,12.159 C45.876,12.593 46.128,12.9593333 46.45,13.258 C46.772,13.5566667 47.1523333,13.7876667 47.591,13.951 C48.0296667,14.1143333 48.5103333,14.196 49.033,14.196 Z M50.545,9.968 L47.101,9.968 C47.1383333,9.492 47.332,9.10233333 47.682,8.799 C48.032,8.49566667 48.459,8.344 48.963,8.344 C49.2336667,8.344 49.4693333,8.38833333 49.67,8.477 C49.8706667,8.56566667 50.0363333,8.68466667 50.167,8.834 C50.2976667,8.98333333 50.3933333,9.156 50.454,9.352 C50.5146667,9.548 50.545,9.75333333 50.545,9.968 L50.545,9.968 Z M55.529,14 L55.529,10.304 C55.529,10.08 55.5593333,9.85833333 55.62,9.639 C55.6806667,9.41966667 55.7693333,9.226 55.886,9.058 C56.0026667,8.89 56.1543333,8.75233333 56.341,8.645 C56.5276667,8.53766667 56.747,8.484 56.999,8.484 C57.4283333,8.484 57.7433333,8.62166667 57.944,8.897 C58.1446667,9.17233333 58.245,9.52 58.245,9.94 L58.245,9.94 L58.245,14 L59.925,14 L59.925,10.332 C59.925,10.1173333 59.953,9.90033333 60.009,9.681 C60.065,9.46166667 60.1536667,9.26333333 60.275,9.086 C60.3963333,8.90866667 60.5503333,8.764 60.737,8.652 C60.9236667,8.54 61.1476667,8.484 61.409,8.484 C61.6796667,8.484 61.8966667,8.54 62.06,8.652 C62.2233333,8.764 62.3516667,8.90633333 62.445,9.079 C62.5383333,9.25166667 62.599,9.44533333 62.627,9.66 C62.655,9.87466667 62.669,10.08 62.669,10.276 L62.669,10.276 L62.669,14 L64.349,14 L64.349,9.8 C64.349,9.45466667 64.3023333,9.11866667 64.209,8.792 C64.1156667,8.46533333 63.9686667,8.176 63.768,7.924 C63.5673333,7.672 63.3106667,7.469 62.998,7.315 C62.6853333,7.161 62.3096667,7.084 61.871,7.084 C61.367,7.084 60.9283333,7.19366667 60.555,7.413 C60.1816667,7.63233333 59.883,7.94733333 59.659,8.358 C59.4723333,7.97533333 59.2063333,7.66733333 58.861,7.434 C58.5156667,7.20066667 58.0816667,7.084 57.559,7.084 C57.2883333,7.084 57.041,7.119 56.817,7.189 C56.593,7.259 56.3946667,7.35466667 56.222,7.476 C56.0493333,7.59733333 55.9,7.73266667 55.774,7.882 C55.648,8.03133333 55.5476667,8.19 55.473,8.358 L55.473,8.358 L55.445,8.358 L55.445,7.28 L53.849,7.28 L53.849,14 L55.529,14 Z M69.529,14.196 C70.789,14.196 71.7503333,13.748 72.413,12.852 L72.413,12.852 L71.293,11.956 C71.1063333,12.2266667 70.8683333,12.439 70.579,12.593 C70.2896667,12.747 69.935,12.824 69.515,12.824 C69.2723333,12.824 69.039,12.782 68.815,12.698 C68.591,12.614 68.3903333,12.4996667 68.213,12.355 C68.0356667,12.2103333 67.8933333,12.0376667 67.786,11.837 C67.6786667,11.6363333 67.6156667,11.4146667 67.597,11.172 L67.597,11.172 L72.707,11.172 C72.7163333,11.0973333 72.721,11.0226667 72.721,10.948 L72.721,10.948 L72.721,10.724 C72.721,10.1173333 72.6393333,9.58766667 72.476,9.135 C72.3126667,8.68233333 72.0863333,8.30433333 71.797,8.001 C71.5076667,7.69766667 71.1646667,7.469 70.768,7.315 C70.3713333,7.161 69.9396667,7.084 69.473,7.084 C68.969,7.084 68.5,7.17033333 68.066,7.343 C67.632,7.51566667 67.2563333,7.75833333 66.939,8.071 C66.6216667,8.38366667 66.372,8.76166667 66.19,9.205 C66.008,9.64833333 65.917,10.1406667 65.917,10.682 C65.917,11.2326667 66.008,11.725 66.19,12.159 C66.372,12.593 66.624,12.9593333 66.946,13.258 C67.268,13.5566667 67.6483333,13.7876667 68.087,13.951 C68.5256667,14.1143333 69.0063333,14.196 69.529,14.196 Z M71.041,9.968 L67.597,9.968 C67.6343333,9.492 67.828,9.10233333 68.178,8.799 C68.528,8.49566667 68.955,8.344 69.459,8.344 C69.7296667,8.344 69.9653333,8.38833333 70.166,8.477 C70.3666667,8.56566667 70.5323333,8.68466667 70.663,8.834 C70.7936667,8.98333333 70.8893333,9.156 70.95,9.352 C71.0106667,9.548 71.041,9.75333333 71.041,9.968 L71.041,9.968 Z M76.025,14 L76.025,10.304 C76.025,10.08 76.0576667,9.85833333 76.123,9.639 C76.1883333,9.41966667 76.284,9.226 76.41,9.058 C76.536,8.89 76.697,8.75233333 76.893,8.645 C77.089,8.53766667 77.3223333,8.484 77.593,8.484 C77.8636667,8.484 78.0806667,8.54 78.244,8.652 C78.4073333,8.764 78.5356667,8.90633333 78.629,9.079 C78.7223333,9.25166667 78.783,9.44533333 78.811,9.66 C78.839,9.87466667 78.853,10.08 78.853,10.276 L78.853,10.276 L78.853,14 L80.533,14 L80.533,9.8 C80.533,9.45466667 80.4863333,9.11866667 80.393,8.792 C80.2996667,8.46533333 80.1526667,8.176 79.952,7.924 C79.7513333,7.672 79.4946667,7.469 79.182,7.315 C78.8693333,7.161 78.4936667,7.084 78.055,7.084 C77.551,7.084 77.1146667,7.21233333 76.746,7.469 C76.3773333,7.72566667 76.1183333,8.022 75.969,8.358 L75.969,8.358 L75.941,8.358 L75.941,7.28 L74.345,7.28 L74.345,14 L76.025,14 Z M84.887,14.14 C85.0736667,14.14 85.2696667,14.1236667 85.475,14.091 C85.6803333,14.0583333 85.8576667,14.014 86.007,13.958 L86.007,13.958 L85.951,12.642 C85.8483333,12.6886667 85.7316667,12.7236667 85.601,12.747 C85.4703333,12.7703333 85.349,12.782 85.237,12.782 C84.8636667,12.782 84.6233333,12.684 84.516,12.488 C84.4086667,12.292 84.355,12.0446667 84.355,11.746 L84.355,11.746 L84.355,8.624 L86.035,8.624 L86.035,7.28 L84.355,7.28 L84.355,5.334 L82.703,5.334 L82.703,7.28 L81.527,7.28 L81.527,8.624 L82.703,8.624 L82.703,11.76 C82.703,12.0866667 82.7333333,12.3923333 82.794,12.677 C82.8546667,12.9616667 82.9666667,13.2136667 83.13,13.433 C83.2933333,13.6523333 83.515,13.825 83.795,13.951 C84.075,14.077 84.439,14.14 84.887,14.14 Z M89.297,14.168 C89.773,14.168 90.1976667,14.0723333 90.571,13.881 C90.9443333,13.6896667 91.215,13.4446667 91.383,13.146 L91.383,13.146 L91.425,13.146 L91.425,14 L92.993,14 L92.993,9.912 C92.993,9.576 92.9486667,9.24 92.86,8.904 C92.7713333,8.568 92.615,8.26466667 92.391,7.994 C92.167,7.72333333 91.8613333,7.504 91.474,7.336 C91.0866667,7.168 90.5943333,7.084 89.997,7.084 C89.4836667,7.084 88.9773333,7.17266667 88.478,7.35 C87.9786667,7.52733333 87.5376667,7.79333333 87.155,8.148 L87.155,8.148 L88.023,9.17 C88.2376667,8.95533333 88.5083333,8.77333333 88.835,8.624 C89.1616667,8.47466667 89.5023333,8.4 89.857,8.4 C90.277,8.4 90.6386667,8.50033333 90.942,8.701 C91.2453333,8.90166667 91.397,9.212 91.397,9.632 L91.397,9.632 L91.397,9.8 C90.8743333,9.8 90.34,9.82566667 89.794,9.877 C89.248,9.92833333 88.751,10.0333333 88.303,10.192 C87.855,10.3506667 87.4886667,10.5793333 87.204,10.878 C86.9193333,11.1766667 86.777,11.578 86.777,12.082 C86.777,12.474 86.8586667,12.803 87.022,13.069 C87.1853333,13.335 87.3906667,13.5496667 87.638,13.713 C87.8853333,13.8763333 88.156,13.993 88.45,14.063 C88.744,14.133 89.0263333,14.168 89.297,14.168 Z M89.633,12.894 C89.493,12.894 89.353,12.88 89.213,12.852 C89.073,12.824 88.947,12.7773333 88.835,12.712 C88.723,12.6466667 88.632,12.5603333 88.562,12.453 C88.492,12.3456667 88.457,12.2126667 88.457,12.054 C88.457,11.802 88.541,11.6036667 88.709,11.459 C88.877,11.3143333 89.087,11.2023333 89.339,11.123 C89.591,11.0436667 89.8663333,10.9923333 90.165,10.969 C90.4636667,10.9456667 90.7483333,10.934 91.019,10.934 L91.019,10.934 L91.397,10.934 L91.397,11.172 C91.397,11.704 91.2476667,12.124 90.949,12.432 C90.6503333,12.74 90.2116667,12.894 89.633,12.894 Z M98.201,14.196 C98.705,14.196 99.174,14.1143333 99.608,13.951 C100.042,13.7876667 100.399,13.5566667 100.679,13.258 L100.679,13.258 L99.629,12.194 C99.4703333,12.39 99.2603333,12.5393333 98.999,12.642 C98.7376667,12.7446667 98.4763333,12.796 98.215,12.796 C97.8976667,12.796 97.62,12.733 97.382,12.607 C97.144,12.481 96.9456667,12.3153333 96.787,12.11 C96.6283333,11.9046667 96.5093333,11.6736667 96.43,11.417 C96.3506667,11.1603333 96.311,10.9013333 96.311,10.64 C96.311,10.3786667 96.3483333,10.1196667 96.423,9.863 C96.4976667,9.60633333 96.612,9.37533333 96.766,9.17 C96.92,8.96466667 97.1136667,8.799 97.347,8.673 C97.5803333,8.547 97.851,8.484 98.159,8.484 C98.4296667,8.484 98.6956667,8.547 98.957,8.673 C99.2183333,8.799 99.4143333,8.95533333 99.545,9.142 L99.545,9.142 L100.693,8.134 C100.422333,7.80733333 100.056,7.55066667 99.594,7.364 C99.132,7.17733333 98.6536667,7.084 98.159,7.084 C97.6643333,7.084 97.2,7.168 96.766,7.336 C96.332,7.504 95.9516667,7.742 95.625,8.05 C95.2983333,8.358 95.0393333,8.73133333 94.848,9.17 C94.6566667,9.60866667 94.561,10.0986667 94.561,10.64 C94.561,11.2 94.6566667,11.6993333 94.848,12.138 C95.0393333,12.5766667 95.3006667,12.95 95.632,13.258 C95.9633333,13.566 96.3506667,13.7993333 96.794,13.958 C97.2373333,14.1166667 97.7063333,14.196 98.201,14.196 Z M102.639,6.006 C102.947,6.006 103.206,5.91033333 103.416,5.719 C103.626,5.52766667 103.731,5.28733333 103.731,4.998 C103.731,4.70866667 103.626,4.46833333 103.416,4.277 C103.206,4.08566667 102.947,3.99 102.639,3.99 C102.331,3.99 102.076667,4.09033333 101.876,4.291 C101.675333,4.49166667 101.575,4.72733333 101.575,4.998 C101.575,5.26866667 101.675333,5.50433333 101.876,5.705 C102.076667,5.90566667 102.331,6.006 102.639,6.006 Z M103.493,14 L103.493,7.28 L101.813,7.28 L101.813,14 L103.493,14 Z M109.107,6.104 L111.081,4.088 L109.177,4.088 L107.791,6.104 L109.107,6.104 Z M108.799,14.196 C109.303,14.196 109.779,14.1073333 110.227,13.93 C110.675,13.7526667 111.062333,13.5076667 111.389,13.195 C111.715667,12.8823333 111.974667,12.5066667 112.166,12.068 C112.357333,11.6293333 112.453,11.144 112.453,10.612 C112.453,10.08 112.357333,9.597 112.166,9.163 C111.974667,8.729 111.715667,8.358 111.389,8.05 C111.062333,7.742 110.675,7.504 110.227,7.336 C109.779,7.168 109.303,7.084 108.799,7.084 C108.295,7.084 107.819,7.168 107.371,7.336 C106.923,7.504 106.535667,7.742 106.209,8.05 C105.882333,8.358 105.623333,8.729 105.432,9.163 C105.240667,9.597 105.145,10.08 105.145,10.612 C105.145,11.144 105.240667,11.6293333 105.432,12.068 C105.623333,12.5066667 105.882333,12.8823333 106.209,13.195 C106.535667,13.5076667 106.923,13.7526667 107.371,13.93 C107.819,14.1073333 108.295,14.196 108.799,14.196 Z M108.799,12.796 C108.463,12.796 108.173667,12.7306667 107.931,12.6 C107.688333,12.4693333 107.487667,12.3013333 107.329,12.096 C107.170333,11.8906667 107.051333,11.6573333 106.972,11.396 C106.892667,11.1346667 106.853,10.8733333 106.853,10.612 C106.853,10.3506667 106.892667,10.0916667 106.972,9.835 C107.051333,9.57833333 107.170333,9.34733333 107.329,9.142 C107.487667,8.93666667 107.688333,8.771 107.931,8.645 C108.173667,8.519 108.463,8.456 108.799,8.456 C109.135,8.456 109.424333,8.519 109.667,8.645 C109.909667,8.771 110.110333,8.93666667 110.269,9.142 C110.427667,9.34733333 110.546667,9.57833333 110.626,9.835 C110.705333,10.0916667 110.745,10.3506667 110.745,10.612 C110.745,10.8733333 110.705333,11.1346667 110.626,11.396 C110.546667,11.6573333 110.427667,11.8906667 110.269,12.096 C110.110333,12.3013333 109.909667,12.4693333 109.667,12.6 C109.424333,12.7306667 109.135,12.796 108.799,12.796 Z M115.757,14 L115.757,10.304 C115.757,10.08 115.789667,9.85833333 115.855,9.639 C115.920333,9.41966667 116.016,9.226 116.142,9.058 C116.268,8.89 116.429,8.75233333 116.625,8.645 C116.821,8.53766667 117.054333,8.484 117.325,8.484 C117.595667,8.484 117.812667,8.54 117.976,8.652 C118.139333,8.764 118.267667,8.90633333 118.361,9.079 C118.454333,9.25166667 118.515,9.44533333 118.543,9.66 C118.571,9.87466667 118.585,10.08 118.585,10.276 L118.585,10.276 L118.585,14 L120.265,14 L120.265,9.8 C120.265,9.45466667 120.218333,9.11866667 120.125,8.792 C120.031667,8.46533333 119.884667,8.176 119.684,7.924 C119.483333,7.672 119.226667,7.469 118.914,7.315 C118.601333,7.161 118.225667,7.084 117.787,7.084 C117.283,7.084 116.846667,7.21233333 116.478,7.469 C116.109333,7.72566667 115.850333,8.022 115.701,8.358 L115.701,8.358 L115.673,8.358 L115.673,7.28 L114.077,7.28 L114.077,14 L115.757,14 Z" id="Implementación" fill="#4D4D4D" fill-rule="nonzero"></path>
                </g>
            </g>
            <g id="atom-item-copy-7" transform="translate(822.000000, 0.000000)">
                <g id="atom-item">
                    <ellipse id="element" stroke="url(#linearGradient-4)" stroke-width="5" fill="#FFFFFF" cx="69.0074074" cy="40" rx="10.1481481" ry="10"></ellipse>
                    <path d="M34.816,14.252 C35.3853333,14.252 35.9126667,14.161 36.398,13.979 C36.8833333,13.797 37.3033333,13.538 37.658,13.202 C38.0126667,12.866 38.2926667,12.4576667 38.498,11.977 C38.7033333,11.4963333 38.806,10.9573333 38.806,10.36 L38.806,10.36 L38.806,4.088 L37.042,4.088 L37.042,10.29 C37.042,10.5793333 37.0046667,10.8663333 36.93,11.151 C36.8553333,11.4356667 36.7316667,11.69 36.559,11.914 C36.3863333,12.138 36.1576667,12.32 35.873,12.46 C35.5883333,12.6 35.236,12.67 34.816,12.67 C34.396,12.67 34.0436667,12.6 33.759,12.46 C33.4743333,12.32 33.2456667,12.138 33.073,11.914 C32.9003333,11.69 32.7766667,11.4356667 32.702,11.151 C32.6273333,10.8663333 32.59,10.5793333 32.59,10.29 L32.59,10.29 L32.59,4.088 L30.826,4.088 L30.826,10.36 C30.826,10.9573333 30.9263333,11.4963333 31.127,11.977 C31.3276667,12.4576667 31.6076667,12.866 31.967,13.202 C32.3263333,13.538 32.7486667,13.797 33.234,13.979 C33.7193333,14.161 34.2466667,14.252 34.816,14.252 Z M42.782,14.196 C43.146,14.196 43.4983333,14.1563333 43.839,14.077 C44.1796667,13.9976667 44.4783333,13.8693333 44.735,13.692 C44.9916667,13.5146667 45.197,13.2836667 45.351,12.999 C45.505,12.7143333 45.582,12.3666667 45.582,11.956 C45.582,11.6293333 45.5166667,11.3516667 45.386,11.123 C45.2553333,10.8943333 45.085,10.703 44.875,10.549 C44.665,10.395 44.4316667,10.2713333 44.175,10.178 C43.9183333,10.0846667 43.664,10.01 43.412,9.954 C42.936,9.842 42.5743333,9.73233333 42.327,9.625 C42.0796667,9.51766667 41.956,9.33333333 41.956,9.072 C41.956,8.81066667 42.068,8.624 42.292,8.512 C42.516,8.4 42.7633333,8.344 43.034,8.344 C43.342,8.344 43.6266667,8.41633333 43.888,8.561 C44.1493333,8.70566667 44.3546667,8.876 44.504,9.072 L44.504,9.072 L45.596,8.106 C45.3253333,7.76066667 44.959,7.504 44.497,7.336 C44.035,7.168 43.5613333,7.084 43.076,7.084 C42.74,7.084 42.4133333,7.126 42.096,7.21 C41.7786667,7.294 41.494,7.42233333 41.242,7.595 C40.99,7.76766667 40.787,7.98933333 40.633,8.26 C40.479,8.53066667 40.402,8.85266667 40.402,9.226 C40.402,9.54333333 40.458,9.80933333 40.57,10.024 C40.682,10.2386667 40.8313333,10.4183333 41.018,10.563 C41.2046667,10.7076667 41.417,10.8243333 41.655,10.913 C41.893,11.0016667 42.138,11.074 42.39,11.13 C42.9033333,11.2513333 43.2883333,11.3726667 43.545,11.494 C43.8016667,11.6153333 43.93,11.816 43.93,12.096 C43.93,12.2453333 43.8973333,12.3713333 43.832,12.474 C43.7666667,12.5766667 43.6803333,12.6583333 43.573,12.719 C43.4656667,12.7796667 43.349,12.824 43.223,12.852 C43.097,12.88 42.9733333,12.894 42.852,12.894 C42.488,12.894 42.1566667,12.8146667 41.858,12.656 C41.5593333,12.4973333 41.3166667,12.2966667 41.13,12.054 L41.13,12.054 L40.024,13.09 C40.3506667,13.4446667 40.7613333,13.7176667 41.256,13.909 C41.7506667,14.1003333 42.2593333,14.196 42.782,14.196 Z M50.258,14.196 C51.518,14.196 52.4793333,13.748 53.142,12.852 L53.142,12.852 L52.022,11.956 C51.8353333,12.2266667 51.5973333,12.439 51.308,12.593 C51.0186667,12.747 50.664,12.824 50.244,12.824 C50.0013333,12.824 49.768,12.782 49.544,12.698 C49.32,12.614 49.1193333,12.4996667 48.942,12.355 C48.7646667,12.2103333 48.6223333,12.0376667 48.515,11.837 C48.4076667,11.6363333 48.3446667,11.4146667 48.326,11.172 L48.326,11.172 L53.436,11.172 C53.4453333,11.0973333 53.45,11.0226667 53.45,10.948 L53.45,10.948 L53.45,10.724 C53.45,10.1173333 53.3683333,9.58766667 53.205,9.135 C53.0416667,8.68233333 52.8153333,8.30433333 52.526,8.001 C52.2366667,7.69766667 51.8936667,7.469 51.497,7.315 C51.1003333,7.161 50.6686667,7.084 50.202,7.084 C49.698,7.084 49.229,7.17033333 48.795,7.343 C48.361,7.51566667 47.9853333,7.75833333 47.668,8.071 C47.3506667,8.38366667 47.101,8.76166667 46.919,9.205 C46.737,9.64833333 46.646,10.1406667 46.646,10.682 C46.646,11.2326667 46.737,11.725 46.919,12.159 C47.101,12.593 47.353,12.9593333 47.675,13.258 C47.997,13.5566667 48.3773333,13.7876667 48.816,13.951 C49.2546667,14.1143333 49.7353333,14.196 50.258,14.196 Z M51.77,9.968 L48.326,9.968 C48.3633333,9.492 48.557,9.10233333 48.907,8.799 C49.257,8.49566667 49.684,8.344 50.188,8.344 C50.4586667,8.344 50.6943333,8.38833333 50.895,8.477 C51.0956667,8.56566667 51.2613333,8.68466667 51.392,8.834 C51.5226667,8.98333333 51.6183333,9.156 51.679,9.352 C51.7396667,9.548 51.77,9.75333333 51.77,9.968 L51.77,9.968 Z M56.754,14 L56.754,10.402 C56.754,10.2806667 56.7773333,10.1173333 56.824,9.912 C56.8706667,9.70666667 56.9593333,9.506 57.09,9.31 C57.2206667,9.114 57.4026667,8.946 57.636,8.806 C57.8693333,8.666 58.1773333,8.596 58.56,8.596 C58.6346667,8.596 58.7116667,8.60066667 58.791,8.61 C58.8703333,8.61933333 58.966,8.638 59.078,8.666 L59.078,8.666 L59.078,7.126 C59.022,7.10733333 58.9566667,7.09566667 58.882,7.091 C58.8073333,7.08633333 58.7373333,7.084 58.672,7.084 C58.224,7.084 57.832,7.20533333 57.496,7.448 C57.16,7.69066667 56.8986667,8.008 56.712,8.4 L56.712,8.4 L56.684,8.4 L56.684,7.28 L55.074,7.28 L55.074,14 L56.754,14 Z M66.064,14.14 C66.2506667,14.14 66.4466667,14.1236667 66.652,14.091 C66.8573333,14.0583333 67.0346667,14.014 67.184,13.958 L67.184,13.958 L67.128,12.642 C67.0253333,12.6886667 66.9086667,12.7236667 66.778,12.747 C66.6473333,12.7703333 66.526,12.782 66.414,12.782 C66.0406667,12.782 65.8003333,12.684 65.693,12.488 C65.5856667,12.292 65.532,12.0446667 65.532,11.746 L65.532,11.746 L65.532,8.624 L67.212,8.624 L67.212,7.28 L65.532,7.28 L65.532,5.334 L63.88,5.334 L63.88,7.28 L62.704,7.28 L62.704,8.624 L63.88,8.624 L63.88,11.76 C63.88,12.0866667 63.9103333,12.3923333 63.971,12.677 C64.0316667,12.9616667 64.1436667,13.2136667 64.307,13.433 C64.4703333,13.6523333 64.692,13.825 64.972,13.951 C65.252,14.077 65.616,14.14 66.064,14.14 Z M71.65,14.196 C72.91,14.196 73.8713333,13.748 74.534,12.852 L74.534,12.852 L73.414,11.956 C73.2273333,12.2266667 72.9893333,12.439 72.7,12.593 C72.4106667,12.747 72.056,12.824 71.636,12.824 C71.3933333,12.824 71.16,12.782 70.936,12.698 C70.712,12.614 70.5113333,12.4996667 70.334,12.355 C70.1566667,12.2103333 70.0143333,12.0376667 69.907,11.837 C69.7996667,11.6363333 69.7366667,11.4146667 69.718,11.172 L69.718,11.172 L74.828,11.172 C74.8373333,11.0973333 74.842,11.0226667 74.842,10.948 L74.842,10.948 L74.842,10.724 C74.842,10.1173333 74.7603333,9.58766667 74.597,9.135 C74.4336667,8.68233333 74.2073333,8.30433333 73.918,8.001 C73.6286667,7.69766667 73.2856667,7.469 72.889,7.315 C72.4923333,7.161 72.0606667,7.084 71.594,7.084 C71.09,7.084 70.621,7.17033333 70.187,7.343 C69.753,7.51566667 69.3773333,7.75833333 69.06,8.071 C68.7426667,8.38366667 68.493,8.76166667 68.311,9.205 C68.129,9.64833333 68.038,10.1406667 68.038,10.682 C68.038,11.2326667 68.129,11.725 68.311,12.159 C68.493,12.593 68.745,12.9593333 69.067,13.258 C69.389,13.5566667 69.7693333,13.7876667 70.208,13.951 C70.6466667,14.1143333 71.1273333,14.196 71.65,14.196 Z M73.162,9.968 L69.718,9.968 C69.7553333,9.492 69.949,9.10233333 70.299,8.799 C70.649,8.49566667 71.076,8.344 71.58,8.344 C71.8506667,8.344 72.0863333,8.38833333 72.287,8.477 C72.4876667,8.56566667 72.6533333,8.68466667 72.784,8.834 C72.9146667,8.98333333 73.0103333,9.156 73.071,9.352 C73.1316667,9.548 73.162,9.75333333 73.162,9.968 L73.162,9.968 Z M78.426,14.196 C78.79,14.196 79.1423333,14.1563333 79.483,14.077 C79.8236667,13.9976667 80.1223333,13.8693333 80.379,13.692 C80.6356667,13.5146667 80.841,13.2836667 80.995,12.999 C81.149,12.7143333 81.226,12.3666667 81.226,11.956 C81.226,11.6293333 81.1606667,11.3516667 81.03,11.123 C80.8993333,10.8943333 80.729,10.703 80.519,10.549 C80.309,10.395 80.0756667,10.2713333 79.819,10.178 C79.5623333,10.0846667 79.308,10.01 79.056,9.954 C78.58,9.842 78.2183333,9.73233333 77.971,9.625 C77.7236667,9.51766667 77.6,9.33333333 77.6,9.072 C77.6,8.81066667 77.712,8.624 77.936,8.512 C78.16,8.4 78.4073333,8.344 78.678,8.344 C78.986,8.344 79.2706667,8.41633333 79.532,8.561 C79.7933333,8.70566667 79.9986667,8.876 80.148,9.072 L80.148,9.072 L81.24,8.106 C80.9693333,7.76066667 80.603,7.504 80.141,7.336 C79.679,7.168 79.2053333,7.084 78.72,7.084 C78.384,7.084 78.0573333,7.126 77.74,7.21 C77.4226667,7.294 77.138,7.42233333 76.886,7.595 C76.634,7.76766667 76.431,7.98933333 76.277,8.26 C76.123,8.53066667 76.046,8.85266667 76.046,9.226 C76.046,9.54333333 76.102,9.80933333 76.214,10.024 C76.326,10.2386667 76.4753333,10.4183333 76.662,10.563 C76.8486667,10.7076667 77.061,10.8243333 77.299,10.913 C77.537,11.0016667 77.782,11.074 78.034,11.13 C78.5473333,11.2513333 78.9323333,11.3726667 79.189,11.494 C79.4456667,11.6153333 79.574,11.816 79.574,12.096 C79.574,12.2453333 79.5413333,12.3713333 79.476,12.474 C79.4106667,12.5766667 79.3243333,12.6583333 79.217,12.719 C79.1096667,12.7796667 78.993,12.824 78.867,12.852 C78.741,12.88 78.6173333,12.894 78.496,12.894 C78.132,12.894 77.8006667,12.8146667 77.502,12.656 C77.2033333,12.4973333 76.9606667,12.2966667 76.774,12.054 L76.774,12.054 L75.668,13.09 C75.9946667,13.4446667 76.4053333,13.7176667 76.9,13.909 C77.3946667,14.1003333 77.9033333,14.196 78.426,14.196 Z M85.076,14.14 C85.2626667,14.14 85.4586667,14.1236667 85.664,14.091 C85.8693333,14.0583333 86.0466667,14.014 86.196,13.958 L86.196,13.958 L86.14,12.642 C86.0373333,12.6886667 85.9206667,12.7236667 85.79,12.747 C85.6593333,12.7703333 85.538,12.782 85.426,12.782 C85.0526667,12.782 84.8123333,12.684 84.705,12.488 C84.5976667,12.292 84.544,12.0446667 84.544,11.746 L84.544,11.746 L84.544,8.624 L86.224,8.624 L86.224,7.28 L84.544,7.28 L84.544,5.334 L82.892,5.334 L82.892,7.28 L81.716,7.28 L81.716,8.624 L82.892,8.624 L82.892,11.76 C82.892,12.0866667 82.9223333,12.3923333 82.983,12.677 C83.0436667,12.9616667 83.1556667,13.2136667 83.319,13.433 C83.4823333,13.6523333 83.704,13.825 83.984,13.951 C84.264,14.077 84.628,14.14 85.076,14.14 Z M88.296,6.006 C88.604,6.006 88.863,5.91033333 89.073,5.719 C89.283,5.52766667 89.388,5.28733333 89.388,4.998 C89.388,4.70866667 89.283,4.46833333 89.073,4.277 C88.863,4.08566667 88.604,3.99 88.296,3.99 C87.988,3.99 87.7336667,4.09033333 87.533,4.291 C87.3323333,4.49166667 87.232,4.72733333 87.232,4.998 C87.232,5.26866667 87.3323333,5.50433333 87.533,5.705 C87.7336667,5.90566667 87.988,6.006 88.296,6.006 Z M89.15,14 L89.15,7.28 L87.47,7.28 L87.47,14 L89.15,14 Z M92.874,14 L92.874,10.304 C92.874,10.08 92.9066667,9.85833333 92.972,9.639 C93.0373333,9.41966667 93.133,9.226 93.259,9.058 C93.385,8.89 93.546,8.75233333 93.742,8.645 C93.938,8.53766667 94.1713333,8.484 94.442,8.484 C94.7126667,8.484 94.9296667,8.54 95.093,8.652 C95.2563333,8.764 95.3846667,8.90633333 95.478,9.079 C95.5713333,9.25166667 95.632,9.44533333 95.66,9.66 C95.688,9.87466667 95.702,10.08 95.702,10.276 L95.702,10.276 L95.702,14 L97.382,14 L97.382,9.8 C97.382,9.45466667 97.3353333,9.11866667 97.242,8.792 C97.1486667,8.46533333 97.0016667,8.176 96.801,7.924 C96.6003333,7.672 96.3436667,7.469 96.031,7.315 C95.7183333,7.161 95.3426667,7.084 94.904,7.084 C94.4,7.084 93.9636667,7.21233333 93.595,7.469 C93.2263333,7.72566667 92.9673333,8.022 92.818,8.358 L92.818,8.358 L92.79,8.358 L92.79,7.28 L91.194,7.28 L91.194,14 L92.874,14 Z M102.38,17.36 C103.033333,17.36 103.598,17.2666667 104.074,17.08 C104.55,16.8933333 104.944333,16.6296667 105.257,16.289 C105.569667,15.9483333 105.800667,15.533 105.95,15.043 C106.099333,14.553 106.174,14.0046667 106.174,13.398 L106.174,13.398 L106.174,7.28 L104.578,7.28 L104.578,8.288 L104.55,8.288 C104.307333,7.87733333 103.980667,7.574 103.57,7.378 C103.159333,7.182 102.716,7.084 102.24,7.084 C101.736,7.084 101.281,7.17733333 100.875,7.364 C100.469,7.55066667 100.123667,7.80266667 99.839,8.12 C99.5543333,8.43733333 99.335,8.81066667 99.181,9.24 C99.027,9.66933333 98.95,10.1266667 98.95,10.612 C98.95,11.088 99.0293333,11.5383333 99.188,11.963 C99.3466667,12.3876667 99.5683333,12.7586667 99.853,13.076 C100.137667,13.3933333 100.485333,13.6453333 100.896,13.832 C101.306667,14.0186667 101.764,14.112 102.268,14.112 C102.734667,14.112 103.157,14.0256667 103.535,13.853 C103.913,13.6803333 104.223333,13.4306667 104.466,13.104 L104.466,13.104 L104.494,13.104 L104.494,13.594 C104.494,13.93 104.459,14.238 104.389,14.518 C104.319,14.798 104.202333,15.0406667 104.039,15.246 C103.875667,15.4513333 103.656333,15.6123333 103.381,15.729 C103.105667,15.8456667 102.767333,15.904 102.366,15.904 C101.946,15.904 101.530667,15.8223333 101.12,15.659 C100.709333,15.4956667 100.340667,15.26 100.014,14.952 L100.014,14.952 L99.048,16.254 C99.2626667,16.4313333 99.5053333,16.59 99.776,16.73 C100.046667,16.87 100.329,16.9866667 100.623,17.08 C100.917,17.1733333 101.215667,17.2433333 101.519,17.29 C101.822333,17.3366667 102.109333,17.36 102.38,17.36 Z M102.576,12.726 C102.277333,12.726 102.009,12.6653333 101.771,12.544 C101.533,12.4226667 101.332333,12.2616667 101.169,12.061 C101.005667,11.8603333 100.879667,11.634 100.791,11.382 C100.702333,11.13 100.658,10.8686667 100.658,10.598 C100.658,10.2993333 100.702333,10.0193333 100.791,9.758 C100.879667,9.49666667 101.005667,9.27033333 101.169,9.079 C101.332333,8.88766667 101.533,8.736 101.771,8.624 C102.009,8.512 102.282,8.456 102.59,8.456 C102.898,8.456 103.173333,8.512 103.416,8.624 C103.658667,8.736 103.866333,8.89 104.039,9.086 C104.211667,9.282 104.344667,9.51066667 104.438,9.772 C104.531333,10.0333333 104.578,10.3086667 104.578,10.598 C104.578,10.878 104.531333,11.1463333 104.438,11.403 C104.344667,11.6596667 104.211667,11.886 104.039,12.082 C103.866333,12.278 103.656333,12.4343333 103.409,12.551 C103.161667,12.6676667 102.884,12.726 102.576,12.726 Z" id="Usertesting" fill="#4D4D4D" fill-rule="nonzero"></path>
                </g>
            </g>
            <g id="atom-item-copy-8" transform="translate(959.000000, 0.000000)">
                <g id="atom-item">
                    <ellipse id="element" stroke="url(#linearGradient-4)" stroke-width="5" fill="#FFFFFF" cx="69.0074074" cy="40" rx="10.1481481" ry="10"></ellipse>
                    <path d="M33.997,14 L33.997,12.432 L29.783,12.432 L29.783,4.088 L28.019,4.088 L28.019,14 L33.997,14 Z M37.133,14.168 C37.609,14.168 38.0336667,14.0723333 38.407,13.881 C38.7803333,13.6896667 39.051,13.4446667 39.219,13.146 L39.219,13.146 L39.261,13.146 L39.261,14 L40.829,14 L40.829,9.912 C40.829,9.576 40.7846667,9.24 40.696,8.904 C40.6073333,8.568 40.451,8.26466667 40.227,7.994 C40.003,7.72333333 39.6973333,7.504 39.31,7.336 C38.9226667,7.168 38.4303333,7.084 37.833,7.084 C37.3196667,7.084 36.8133333,7.17266667 36.314,7.35 C35.8146667,7.52733333 35.3736667,7.79333333 34.991,8.148 L34.991,8.148 L35.859,9.17 C36.0736667,8.95533333 36.3443333,8.77333333 36.671,8.624 C36.9976667,8.47466667 37.3383333,8.4 37.693,8.4 C38.113,8.4 38.4746667,8.50033333 38.778,8.701 C39.0813333,8.90166667 39.233,9.212 39.233,9.632 L39.233,9.632 L39.233,9.8 C38.7103333,9.8 38.176,9.82566667 37.63,9.877 C37.084,9.92833333 36.587,10.0333333 36.139,10.192 C35.691,10.3506667 35.3246667,10.5793333 35.04,10.878 C34.7553333,11.1766667 34.613,11.578 34.613,12.082 C34.613,12.474 34.6946667,12.803 34.858,13.069 C35.0213333,13.335 35.2266667,13.5496667 35.474,13.713 C35.7213333,13.8763333 35.992,13.993 36.286,14.063 C36.58,14.133 36.8623333,14.168 37.133,14.168 Z M37.469,12.894 C37.329,12.894 37.189,12.88 37.049,12.852 C36.909,12.824 36.783,12.7773333 36.671,12.712 C36.559,12.6466667 36.468,12.5603333 36.398,12.453 C36.328,12.3456667 36.293,12.2126667 36.293,12.054 C36.293,11.802 36.377,11.6036667 36.545,11.459 C36.713,11.3143333 36.923,11.2023333 37.175,11.123 C37.427,11.0436667 37.7023333,10.9923333 38.001,10.969 C38.2996667,10.9456667 38.5843333,10.934 38.855,10.934 L38.855,10.934 L39.233,10.934 L39.233,11.172 C39.233,11.704 39.0836667,12.124 38.785,12.432 C38.4863333,12.74 38.0476667,12.894 37.469,12.894 Z M44.469,14 L44.469,10.304 C44.469,10.08 44.5016667,9.85833333 44.567,9.639 C44.6323333,9.41966667 44.728,9.226 44.854,9.058 C44.98,8.89 45.141,8.75233333 45.337,8.645 C45.533,8.53766667 45.7663333,8.484 46.037,8.484 C46.3076667,8.484 46.5246667,8.54 46.688,8.652 C46.8513333,8.764 46.9796667,8.90633333 47.073,9.079 C47.1663333,9.25166667 47.227,9.44533333 47.255,9.66 C47.283,9.87466667 47.297,10.08 47.297,10.276 L47.297,10.276 L47.297,14 L48.977,14 L48.977,9.8 C48.977,9.45466667 48.9303333,9.11866667 48.837,8.792 C48.7436667,8.46533333 48.5966667,8.176 48.396,7.924 C48.1953333,7.672 47.9386667,7.469 47.626,7.315 C47.3133333,7.161 46.9376667,7.084 46.499,7.084 C45.995,7.084 45.5586667,7.21233333 45.19,7.469 C44.8213333,7.72566667 44.5623333,8.022 44.413,8.358 L44.413,8.358 L44.385,8.358 L44.385,7.28 L42.789,7.28 L42.789,14 L44.469,14 Z M56.201,14 L56.201,12.628 L52.393,12.628 L56.033,8.764 L56.033,7.28 L50.573,7.28 L50.573,8.624 L54.031,8.624 L50.405,12.516 L50.405,14 L56.201,14 Z M59.729,14.168 C60.205,14.168 60.6296667,14.0723333 61.003,13.881 C61.3763333,13.6896667 61.647,13.4446667 61.815,13.146 L61.815,13.146 L61.857,13.146 L61.857,14 L63.425,14 L63.425,9.912 C63.425,9.576 63.3806667,9.24 63.292,8.904 C63.2033333,8.568 63.047,8.26466667 62.823,7.994 C62.599,7.72333333 62.2933333,7.504 61.906,7.336 C61.5186667,7.168 61.0263333,7.084 60.429,7.084 C59.9156667,7.084 59.4093333,7.17266667 58.91,7.35 C58.4106667,7.52733333 57.9696667,7.79333333 57.587,8.148 L57.587,8.148 L58.455,9.17 C58.6696667,8.95533333 58.9403333,8.77333333 59.267,8.624 C59.5936667,8.47466667 59.9343333,8.4 60.289,8.4 C60.709,8.4 61.0706667,8.50033333 61.374,8.701 C61.6773333,8.90166667 61.829,9.212 61.829,9.632 L61.829,9.632 L61.829,9.8 C61.3063333,9.8 60.772,9.82566667 60.226,9.877 C59.68,9.92833333 59.183,10.0333333 58.735,10.192 C58.287,10.3506667 57.9206667,10.5793333 57.636,10.878 C57.3513333,11.1766667 57.209,11.578 57.209,12.082 C57.209,12.474 57.2906667,12.803 57.454,13.069 C57.6173333,13.335 57.8226667,13.5496667 58.07,13.713 C58.3173333,13.8763333 58.588,13.993 58.882,14.063 C59.176,14.133 59.4583333,14.168 59.729,14.168 Z M60.065,12.894 C59.925,12.894 59.785,12.88 59.645,12.852 C59.505,12.824 59.379,12.7773333 59.267,12.712 C59.155,12.6466667 59.064,12.5603333 58.994,12.453 C58.924,12.3456667 58.889,12.2126667 58.889,12.054 C58.889,11.802 58.973,11.6036667 59.141,11.459 C59.309,11.3143333 59.519,11.2023333 59.771,11.123 C60.023,11.0436667 60.2983333,10.9923333 60.597,10.969 C60.8956667,10.9456667 61.1803333,10.934 61.451,10.934 L61.451,10.934 L61.829,10.934 L61.829,11.172 C61.829,11.704 61.6796667,12.124 61.381,12.432 C61.0823333,12.74 60.6436667,12.894 60.065,12.894 Z M67.065,14 L67.065,10.304 C67.065,10.08 67.0953333,9.85833333 67.156,9.639 C67.2166667,9.41966667 67.3053333,9.226 67.422,9.058 C67.5386667,8.89 67.6903333,8.75233333 67.877,8.645 C68.0636667,8.53766667 68.283,8.484 68.535,8.484 C68.9643333,8.484 69.2793333,8.62166667 69.48,8.897 C69.6806667,9.17233333 69.781,9.52 69.781,9.94 L69.781,9.94 L69.781,14 L71.461,14 L71.461,10.332 C71.461,10.1173333 71.489,9.90033333 71.545,9.681 C71.601,9.46166667 71.6896667,9.26333333 71.811,9.086 C71.9323333,8.90866667 72.0863333,8.764 72.273,8.652 C72.4596667,8.54 72.6836667,8.484 72.945,8.484 C73.2156667,8.484 73.4326667,8.54 73.596,8.652 C73.7593333,8.764 73.8876667,8.90633333 73.981,9.079 C74.0743333,9.25166667 74.135,9.44533333 74.163,9.66 C74.191,9.87466667 74.205,10.08 74.205,10.276 L74.205,10.276 L74.205,14 L75.885,14 L75.885,9.8 C75.885,9.45466667 75.8383333,9.11866667 75.745,8.792 C75.6516667,8.46533333 75.5046667,8.176 75.304,7.924 C75.1033333,7.672 74.8466667,7.469 74.534,7.315 C74.2213333,7.161 73.8456667,7.084 73.407,7.084 C72.903,7.084 72.4643333,7.19366667 72.091,7.413 C71.7176667,7.63233333 71.419,7.94733333 71.195,8.358 C71.0083333,7.97533333 70.7423333,7.66733333 70.397,7.434 C70.0516667,7.20066667 69.6176667,7.084 69.095,7.084 C68.8243333,7.084 68.577,7.119 68.353,7.189 C68.129,7.259 67.9306667,7.35466667 67.758,7.476 C67.5853333,7.59733333 67.436,7.73266667 67.31,7.882 C67.184,8.03133333 67.0836667,8.19 67.009,8.358 L67.009,8.358 L66.981,8.358 L66.981,7.28 L65.385,7.28 L65.385,14 L67.065,14 Z M78.699,6.006 C79.007,6.006 79.266,5.91033333 79.476,5.719 C79.686,5.52766667 79.791,5.28733333 79.791,4.998 C79.791,4.70866667 79.686,4.46833333 79.476,4.277 C79.266,4.08566667 79.007,3.99 78.699,3.99 C78.391,3.99 78.1366667,4.09033333 77.936,4.291 C77.7353333,4.49166667 77.635,4.72733333 77.635,4.998 C77.635,5.26866667 77.7353333,5.50433333 77.936,5.705 C78.1366667,5.90566667 78.391,6.006 78.699,6.006 Z M79.553,14 L79.553,7.28 L77.873,7.28 L77.873,14 L79.553,14 Z M84.817,14.196 C86.077,14.196 87.0383333,13.748 87.701,12.852 L87.701,12.852 L86.581,11.956 C86.3943333,12.2266667 86.1563333,12.439 85.867,12.593 C85.5776667,12.747 85.223,12.824 84.803,12.824 C84.5603333,12.824 84.327,12.782 84.103,12.698 C83.879,12.614 83.6783333,12.4996667 83.501,12.355 C83.3236667,12.2103333 83.1813333,12.0376667 83.074,11.837 C82.9666667,11.6363333 82.9036667,11.4146667 82.885,11.172 L82.885,11.172 L87.995,11.172 C88.0043333,11.0973333 88.009,11.0226667 88.009,10.948 L88.009,10.948 L88.009,10.724 C88.009,10.1173333 87.9273333,9.58766667 87.764,9.135 C87.6006667,8.68233333 87.3743333,8.30433333 87.085,8.001 C86.7956667,7.69766667 86.4526667,7.469 86.056,7.315 C85.6593333,7.161 85.2276667,7.084 84.761,7.084 C84.257,7.084 83.788,7.17033333 83.354,7.343 C82.92,7.51566667 82.5443333,7.75833333 82.227,8.071 C81.9096667,8.38366667 81.66,8.76166667 81.478,9.205 C81.296,9.64833333 81.205,10.1406667 81.205,10.682 C81.205,11.2326667 81.296,11.725 81.478,12.159 C81.66,12.593 81.912,12.9593333 82.234,13.258 C82.556,13.5566667 82.9363333,13.7876667 83.375,13.951 C83.8136667,14.1143333 84.2943333,14.196 84.817,14.196 Z M86.329,9.968 L82.885,9.968 C82.9223333,9.492 83.116,9.10233333 83.466,8.799 C83.816,8.49566667 84.243,8.344 84.747,8.344 C85.0176667,8.344 85.2533333,8.38833333 85.454,8.477 C85.6546667,8.56566667 85.8203333,8.68466667 85.951,8.834 C86.0816667,8.98333333 86.1773333,9.156 86.238,9.352 C86.2986667,9.548 86.329,9.75333333 86.329,9.968 L86.329,9.968 Z M91.313,14 L91.313,10.304 C91.313,10.08 91.3456667,9.85833333 91.411,9.639 C91.4763333,9.41966667 91.572,9.226 91.698,9.058 C91.824,8.89 91.985,8.75233333 92.181,8.645 C92.377,8.53766667 92.6103333,8.484 92.881,8.484 C93.1516667,8.484 93.3686667,8.54 93.532,8.652 C93.6953333,8.764 93.8236667,8.90633333 93.917,9.079 C94.0103333,9.25166667 94.071,9.44533333 94.099,9.66 C94.127,9.87466667 94.141,10.08 94.141,10.276 L94.141,10.276 L94.141,14 L95.821,14 L95.821,9.8 C95.821,9.45466667 95.7743333,9.11866667 95.681,8.792 C95.5876667,8.46533333 95.4406667,8.176 95.24,7.924 C95.0393333,7.672 94.7826667,7.469 94.47,7.315 C94.1573333,7.161 93.7816667,7.084 93.343,7.084 C92.839,7.084 92.4026667,7.21233333 92.034,7.469 C91.6653333,7.72566667 91.4063333,8.022 91.257,8.358 L91.257,8.358 L91.229,8.358 L91.229,7.28 L89.633,7.28 L89.633,14 L91.313,14 Z M100.175,14.14 C100.361667,14.14 100.557667,14.1236667 100.763,14.091 C100.968333,14.0583333 101.145667,14.014 101.295,13.958 L101.295,13.958 L101.239,12.642 C101.136333,12.6886667 101.019667,12.7236667 100.889,12.747 C100.758333,12.7703333 100.637,12.782 100.525,12.782 C100.151667,12.782 99.9113333,12.684 99.804,12.488 C99.6966667,12.292 99.643,12.0446667 99.643,11.746 L99.643,11.746 L99.643,8.624 L101.323,8.624 L101.323,7.28 L99.643,7.28 L99.643,5.334 L97.991,5.334 L97.991,7.28 L96.815,7.28 L96.815,8.624 L97.991,8.624 L97.991,11.76 C97.991,12.0866667 98.0213333,12.3923333 98.082,12.677 C98.1426667,12.9616667 98.2546667,13.2136667 98.418,13.433 C98.5813333,13.6523333 98.803,13.825 99.083,13.951 C99.363,14.077 99.727,14.14 100.175,14.14 Z M105.803,14.196 C106.307,14.196 106.783,14.1073333 107.231,13.93 C107.679,13.7526667 108.066333,13.5076667 108.393,13.195 C108.719667,12.8823333 108.978667,12.5066667 109.17,12.068 C109.361333,11.6293333 109.457,11.144 109.457,10.612 C109.457,10.08 109.361333,9.597 109.17,9.163 C108.978667,8.729 108.719667,8.358 108.393,8.05 C108.066333,7.742 107.679,7.504 107.231,7.336 C106.783,7.168 106.307,7.084 105.803,7.084 C105.299,7.084 104.823,7.168 104.375,7.336 C103.927,7.504 103.539667,7.742 103.213,8.05 C102.886333,8.358 102.627333,8.729 102.436,9.163 C102.244667,9.597 102.149,10.08 102.149,10.612 C102.149,11.144 102.244667,11.6293333 102.436,12.068 C102.627333,12.5066667 102.886333,12.8823333 103.213,13.195 C103.539667,13.5076667 103.927,13.7526667 104.375,13.93 C104.823,14.1073333 105.299,14.196 105.803,14.196 Z M105.803,12.796 C105.467,12.796 105.177667,12.7306667 104.935,12.6 C104.692333,12.4693333 104.491667,12.3013333 104.333,12.096 C104.174333,11.8906667 104.055333,11.6573333 103.976,11.396 C103.896667,11.1346667 103.857,10.8733333 103.857,10.612 C103.857,10.3506667 103.896667,10.0916667 103.976,9.835 C104.055333,9.57833333 104.174333,9.34733333 104.333,9.142 C104.491667,8.93666667 104.692333,8.771 104.935,8.645 C105.177667,8.519 105.467,8.456 105.803,8.456 C106.139,8.456 106.428333,8.519 106.671,8.645 C106.913667,8.771 107.114333,8.93666667 107.273,9.142 C107.431667,9.34733333 107.550667,9.57833333 107.63,9.835 C107.709333,10.0916667 107.749,10.3506667 107.749,10.612 C107.749,10.8733333 107.709333,11.1346667 107.63,11.396 C107.550667,11.6573333 107.431667,11.8906667 107.273,12.096 C107.114333,12.3013333 106.913667,12.4693333 106.671,12.6 C106.428333,12.7306667 106.139,12.796 105.803,12.796 Z" id="Lanzamiento" fill="#4D4D4D" fill-rule="nonzero"></path>
                </g>
            </g>
        </g>
    </g>
</svg>