<?xml version="1.0" standalone="no"?>
<!DOCTYPE svg PUBLIC "-//W3C//DTD SVG 20010904//EN"
 "http://www.w3.org/TR/2001/REC-SVG-20010904/DTD/svg10.dtd">
<svg version="1.0" xmlns="http://www.w3.org/2000/svg"
 width="256.000000pt" height="256.000000pt" viewBox="0 0 256.000000 256.000000"
 preserveAspectRatio="xMidYMid meet">
<metadata>
Created by potrace 1.11, written by Peter Selinger 2001-2013
</metadata>
<g transform="translate(0.000000,256.000000) scale(0.100000,-0.100000)"
fill="#000000" stroke="none">
<path d="M0 1280 l0 -1280 1280 0 1280 0 0 1280 0 1280 -1280 0 -1280 0 0
-1280z m1491 1175 c242 -42 446 -151 630 -334 238 -239 349 -506 349 -841 0
-335 -111 -602 -349 -841 -239 -238 -506 -349 -841 -349 -335 0 -602 111 -841
349 -238 239 -349 506 -349 841 0 335 111 602 349 841 181 181 388 291 624
334 100 18 326 18 428 0z"/>
<path d="M1110 2353 c-439 -86 -767 -385 -882 -804 -20 -74 -23 -107 -23 -269
0 -162 3 -195 23 -269 104 -382 401 -679 783 -783 74 -20 107 -23 269 -23 162
0 195 3 269 23 382 104 679 401 783 783 20 74 23 107 23 269 0 162 -3 195 -23
269 -104 379 -401 678 -777 781 -64 18 -113 23 -250 25 -93 2 -181 1 -195 -2z
m-230 -491 c0 -4 -18 -136 -40 -293 -22 -156 -40 -302 -40 -325 0 -51 22 -83
46 -68 48 29 54 53 99 370 25 170 45 312 45 317 0 4 146 7 324 7 l324 0 7 -50
c6 -44 3 -56 -24 -107 -30 -55 -41 -100 -22 -88 5 3 38 59 73 125 l63 120 179
0 178 0 -17 -27 c-10 -16 -71 -106 -136 -201 l-118 -173 85 -231 c46 -127 83
-233 80 -235 -2 -2 -83 -1 -180 3 l-176 7 -9 36 c-5 20 -22 88 -37 151 l-27
115 -20 -43 c-20 -40 -20 -45 -6 -105 15 -60 14 -64 -8 -115 l-23 -52 -177 6
c-98 4 -179 7 -180 8 -1 1 63 102 142 226 l143 224 -18 46 c-9 25 -32 84 -50
132 -19 49 -35 86 -37 84 -3 -2 -20 -111 -38 -243 -19 -131 -41 -257 -49 -281
-19 -52 -68 -122 -105 -149 -34 -26 -112 -66 -117 -61 -2 3 15 21 37 42 39 38
80 106 93 156 4 14 -4 5 -16 -20 -67 -134 -224 -211 -401 -197 -98 8 -159 31
-207 79 -41 41 -70 111 -70 172 -1 17 18 169 42 339 l42 307 173 0 c95 0 173
-4 173 -8z m-105 -987 c33 -33 33 -65 0 -65 -15 0 -25 6 -25 15 0 40 -67 38
-89 -3 -13 -26 -23 -99 -16 -120 9 -31 44 -34 72 -6 13 13 35 24 49 24 24 0
24 -1 10 -28 -21 -40 -39 -53 -84 -59 -31 -4 -44 0 -68 20 -26 23 -29 31 -29
89 0 43 6 73 19 94 39 65 117 84 161 39z m125 13 c0 -7 -7 -50 -15 -96 -15
-87 -13 -107 12 -116 34 -13 60 20 72 91 24 140 21 133 47 133 28 0 28 0 8
-114 -18 -106 -25 -121 -64 -141 -35 -18 -60 -19 -94 -4 -42 20 -49 54 -32
155 9 49 16 92 16 97 0 4 11 7 25 7 14 0 25 -6 25 -12z m308 1 c56 -19 64 -96
13 -131 -20 -14 -20 -17 -6 -58 21 -59 19 -70 -10 -70 -21 0 -27 7 -38 48 -10
35 -19 48 -35 50 -16 3 -23 -3 -27 -22 -3 -14 -7 -37 -10 -51 -4 -19 -12 -25
-31 -25 -23 0 -25 3 -20 28 3 15 13 70 21 122 9 52 18 101 20 108 5 15 80 16
123 1z m247 -14 c14 -13 25 -31 25 -40 0 -22 -36 -19 -60 5 -24 24 -30 24 -55
6 -25 -18 -14 -42 28 -60 38 -15 67 -50 67 -79 0 -31 -54 -77 -90 -77 -37 0
-85 23 -94 45 -12 32 -6 45 19 45 15 0 25 -6 25 -15 0 -19 36 -38 59 -30 41
13 33 57 -12 71 -35 10 -67 45 -67 74 0 71 103 108 155 55z m226 -4 c24 -25
29 -37 29 -81 0 -127 -107 -205 -181 -131 -24 25 -29 37 -29 81 0 127 107 205
181 131z m234 4 c14 -13 25 -31 25 -40 0 -22 -36 -19 -60 5 -24 24 -30 24 -55
6 -25 -18 -14 -42 28 -60 39 -16 67 -50 67 -81 -1 -57 -85 -94 -143 -63 -50
26 -64 78 -22 78 15 0 25 -6 25 -15 0 -36 71 -42 85 -7 7 18 2 23 -65 65 -37
24 -46 44 -36 83 14 53 109 72 151 29z"/>
<path d="M1126 835 c-3 -9 -6 -28 -6 -41 0 -26 13 -30 55 -14 21 8 26 16 23
38 -2 22 -9 28 -34 30 -22 2 -33 -2 -38 -13z"/>
<path d="M1576 831 c-20 -22 -32 -87 -22 -124 7 -28 35 -39 61 -25 33 19 56
108 39 152 -9 22 -57 20 -78 -3z"/>
</g>
</svg>
