<?xml version="1.0" encoding="utf-8"?>
<svg xmlns="http://www.w3.org/2000/svg" viewBox="0 0 64 64" fill="#11CDEF"><path d="M 7 8 C 5.347656 8 4 9.347656 4 11 L 4 53 C 4 54.652344 5.347656 56 7 56 L 57 56 C 58.652344 56 60 54.652344 60 53 L 60 11 C 60 9.347656 58.652344 8 57 8 Z M 7 10 L 57 10 C 57.550781 10 58 10.449219 58 11 L 58 53 C 58 53.550781 57.550781 54 57 54 L 7 54 C 6.449219 54 6 53.550781 6 53 L 6 20 L 47 20 C 47.554688 20 48 19.550781 48 19 C 48 18.449219 47.554688 18 47 18 L 6 18 L 6 11 C 6 10.449219 6.449219 10 7 10 Z M 10 12 C 9.445313 12 9 12.449219 9 13 L 9 15 C 9 15.550781 9.445313 16 10 16 C 10.554688 16 11 15.550781 11 15 L 11 13 C 11 12.449219 10.554688 12 10 12 Z M 15 12 C 14.445313 12 14 12.449219 14 13 L 14 15 C 14 15.550781 14.445313 16 15 16 C 15.554688 16 16 15.550781 16 15 L 16 13 C 16 12.449219 15.554688 12 15 12 Z M 20 12 C 19.445313 12 19 12.449219 19 13 L 19 15 C 19 15.550781 19.445313 16 20 16 C 20.554688 16 21 15.550781 21 15 L 21 13 C 21 12.449219 20.554688 12 20 12 Z M 25 12 C 24.445313 12 24 12.449219 24 13 L 24 15 C 24 15.550781 24.445313 16 25 16 C 25.554688 16 26 15.550781 26 15 L 26 13 C 26 12.449219 25.554688 12 25 12 Z M 30 12 C 29.445313 12 29 12.449219 29 13 L 29 15 C 29 15.550781 29.445313 16 30 16 C 30.554688 16 31 15.550781 31 15 L 31 13 C 31 12.449219 30.554688 12 30 12 Z M 35 12 C 34.445313 12 34 12.449219 34 13 L 34 15 C 34 15.550781 34.445313 16 35 16 C 35.554688 16 36 15.550781 36 15 L 36 13 C 36 12.449219 35.554688 12 35 12 Z M 40 12 C 39.445313 12 39 12.449219 39 13 L 39 15 C 39 15.550781 39.445313 16 40 16 C 40.554688 16 41 15.550781 41 15 L 41 13 C 41 12.449219 40.554688 12 40 12 Z M 45 12 C 44.445313 12 44 12.449219 44 13 L 44 15 C 44 15.550781 44.445313 16 45 16 C 45.554688 16 46 15.550781 46 15 L 46 13 C 46 12.449219 45.554688 12 45 12 Z M 50 12 C 49.445313 12 49 12.449219 49 13 L 49 15 C 49 15.550781 49.445313 16 50 16 C 50.554688 16 51 15.550781 51 15 L 51 13 C 51 12.449219 50.554688 12 50 12 Z M 55 12 C 54.445313 12 54 12.449219 54 13 L 54 15 C 54 15.550781 54.445313 16 55 16 C 55.554688 16 56 15.550781 56 15 L 56 13 C 56 12.449219 55.554688 12 55 12 Z M 51 18 C 50.445313 18 50 18.449219 50 19 C 50 19.550781 50.445313 20 51 20 L 55 20 C 55.554688 20 56 19.550781 56 19 C 56 18.449219 55.554688 18 55 18 Z M 13 24 C 12.445313 24 12 24.449219 12 25 L 12 29 C 12 29.550781 12.445313 30 13 30 L 51 30 C 51.554688 30 52 29.550781 52 29 L 52 25 C 52 24.449219 51.554688 24 51 24 Z M 14 26 L 50 26 L 50 28 L 14 28 Z M 13 34 C 12.445313 34 12 34.449219 12 35 C 12 35.550781 12.445313 36 13 36 L 29 36 C 29.554688 36 30 35.550781 30 35 C 30 34.449219 29.554688 34 29 34 Z M 35 34 C 34.445313 34 34 34.449219 34 35 L 34 47 C 34 47.550781 34.445313 48 35 48 L 51 48 C 51.554688 48 52 47.550781 52 47 L 52 35 C 52 34.449219 51.554688 34 51 34 Z M 36 36 L 50 36 L 50 46 L 36 46 Z M 13 38 C 12.445313 38 12 38.449219 12 39 C 12 39.550781 12.445313 40 13 40 L 21 40 C 21.554688 40 22 39.550781 22 39 C 22 38.449219 21.554688 38 21 38 Z M 25 38 C 24.445313 38 24 38.449219 24 39 C 24 39.550781 24.445313 40 25 40 L 27 40 C 27.554688 40 28 39.550781 28 39 C 28 38.449219 27.554688 38 27 38 Z M 13 42 C 12.445313 42 12 42.449219 12 43 C 12 43.550781 12.445313 44 13 44 L 29 44 C 29.554688 44 30 43.550781 30 43 C 30 42.449219 29.554688 42 29 42 Z M 13 46 C 12.445313 46 12 46.449219 12 47 C 12 47.550781 12.445313 48 13 48 L 19 48 C 19.554688 48 20 47.550781 20 47 C 20 46.449219 19.554688 46 19 46 Z" fill="#11CDEF"/></svg>
