<?xml version="1.0" encoding="utf-8"?>
<svg xmlns="http://www.w3.org/2000/svg" viewBox="0 0 100 100" fill="#2DCE89"><path d="M 26 18 C 21.589 18 18 21.589 18 26 L 18 74 C 18 78.411 21.589 82 26 82 L 74 82 C 78.411 82 82 78.411 82 74 L 82 26 C 82 21.589 78.411 18 74 18 L 26 18 z M 26 20 L 74 20 C 77.309 20 80 22.691 80 26 L 80 29 L 72.5 29 C 72.224 29 72 29.224 72 29.5 C 72 29.776 72.224 30 72.5 30 L 80 30 L 80 73 L 31.5 73 C 31.224 73 31 73.224 31 73.5 C 31 73.776 31.224 74 31.5 74 L 80 74 C 80 77.309 77.309 80 74 80 L 26 80 C 22.691 80 20 77.309 20 74 L 28.5 74 C 28.777 74 29 73.776 29 73.5 C 29 73.224 28.776 73 28.5 73 L 20 73 L 20 30 L 58.5 30 C 58.777 30 59 29.776 59 29.5 C 59 29.224 58.776 29 58.5 29 L 20 29 L 20 26 C 20 22.691 22.691 20 26 20 z M 27.5 22 C 26.121 22 25 23.121 25 24.5 C 25 25.879 26.121 27 27.5 27 C 28.879 27 30 25.879 30 24.5 C 30 23.121 28.879 22 27.5 22 z M 34.5 22 C 33.121 22 32 23.121 32 24.5 C 32 25.879 33.121 27 34.5 27 C 35.879 27 37 25.879 37 24.5 C 37 23.121 35.879 22 34.5 22 z M 41.5 22 C 40.121 22 39 23.121 39 24.5 C 39 25.879 40.121 27 41.5 27 C 42.879 27 44 25.879 44 24.5 C 44 23.121 42.879 22 41.5 22 z M 27.5 23 C 28.327 23 29 23.673 29 24.5 C 29 25.327 28.327 26 27.5 26 C 26.673 26 26 25.327 26 24.5 C 26 23.673 26.673 23 27.5 23 z M 34.5 23 C 35.327 23 36 23.673 36 24.5 C 36 25.327 35.327 26 34.5 26 C 33.673 26 33 25.327 33 24.5 C 33 23.673 33.673 23 34.5 23 z M 41.5 23 C 42.327 23 43 23.673 43 24.5 C 43 25.327 42.327 26 41.5 26 C 40.673 26 40 25.327 40 24.5 C 40 23.673 40.673 23 41.5 23 z M 61.5 29 C 61.224 29 61 29.224 61 29.5 C 61 29.776 61.224 30 61.5 30 L 67.5 30 C 67.777 30 68 29.776 68 29.5 C 68 29.224 67.776 29 67.5 29 L 61.5 29 z M 42.5 34 C 42.224 34 42 34.224 42 34.5 L 42 69.5 C 42 69.776 42.224 70 42.5 70 C 42.777 70 43 69.776 43 69.5 L 43 34.5 C 43 34.224 42.776 34 42.5 34 z M 47.5 35 C 47.224 35 47 35.224 47 35.5 L 47 47.5 C 47 47.776 47.224 48 47.5 48 C 47.776 48 48 47.776 48 47.5 L 48 36 L 75 36 L 75 49 L 55.5 49 C 55.224 49 55 49.224 55 49.5 C 55 49.776 55.224 50 55.5 50 L 75.5 50 C 75.777 50 76 49.776 76 49.5 L 76 35.5 C 76 35.224 75.776 35 75.5 35 L 47.5 35 z M 24.5 37 C 24.224 37 24 37.224 24 37.5 C 24 37.776 24.224 38 24.5 38 L 38.5 38 C 38.777 38 39 37.776 39 37.5 C 39 37.224 38.776 37 38.5 37 L 24.5 37 z M 24.5 44 C 24.224 44 24 44.224 24 44.5 C 24 44.776 24.224 45 24.5 45 L 38.5 45 C 38.777 45 39 44.776 39 44.5 C 39 44.224 38.776 44 38.5 44 L 24.5 44 z M 50.5 49 C 50.224 49 50 49.224 50 49.5 C 50 49.776 50.224 50 50.5 50 L 53.5 50 C 53.777 50 54 49.776 54 49.5 C 54 49.224 53.776 49 53.5 49 L 50.5 49 z M 24.5 51 C 24.224 51 24 51.224 24 51.5 C 24 51.776 24.224 52 24.5 52 L 38.5 52 C 38.777 52 39 51.776 39 51.5 C 39 51.224 38.776 51 38.5 51 L 24.5 51 z M 61.5 53 C 61.224 53 61 53.224 61 53.5 L 61 67.5 C 61 67.776 61.224 68 61.5 68 L 75.5 68 C 75.777 68 76 67.776 76 67.5 L 76 53.5 C 76 53.224 75.776 53 75.5 53 L 61.5 53 z M 62 54 L 75 54 L 75 67 L 62 67 L 62 54 z M 24.5 58 C 24.224 58 24 58.224 24 58.5 C 24 58.776 24.224 59 24.5 59 L 38.5 59 C 38.777 59 39 58.776 39 58.5 C 39 58.224 38.776 58 38.5 58 L 24.5 58 z M 47.5 58 C 47.224 58 47 58.224 47 58.5 C 47 58.776 47.224 59 47.5 59 L 58.5 59 C 58.777 59 59 58.776 59 58.5 C 59 58.224 58.776 58 58.5 58 L 47.5 58 z M 24.5 65 C 24.224 65 24 65.224 24 65.5 C 24 65.776 24.224 66 24.5 66 L 38.5 66 C 38.777 66 39 65.776 39 65.5 C 39 65.224 38.776 65 38.5 65 L 24.5 65 z M 47.5 65 C 47.224 65 47 65.224 47 65.5 C 47 65.776 47.224 66 47.5 66 L 58.5 66 C 58.777 66 59 65.776 59 65.5 C 59 65.224 58.776 65 58.5 65 L 47.5 65 z" fill="#2DCE89"/></svg>
