<?xml version="1.0" encoding="UTF-8"?>
<svg width="240px" height="240px" viewBox="0 0 240 240" version="1.1" xmlns="http://www.w3.org/2000/svg" xmlns:xlink="http://www.w3.org/1999/xlink">
    <!-- Generator: Sketch 62 (91390) - https://sketch.com -->
    <title>Group 2</title>
    <desc>Created with Sketch.</desc>
    <g id="Page-1" stroke="none" stroke-width="1" fill="none" fill-rule="evenodd">
        <g id="portada-copy" transform="translate(-8.000000, -8.000000)" fill="#FFFFFF" fill-rule="nonzero">
            <g id="Group-2" transform="translate(8.000000, 8.000000)">
                <path d="M120,0.5 C54.0019724,0.5 0.5,54.0019724 0.5,120 C0.5,185.998028 54.0019724,239.5 120,239.5 C185.998028,239.5 239.5,185.998028 239.5,120 C239.5,54.0019724 185.998028,0.5 120,0.5 Z M120,11.5 C179.922895,11.5 228.5,60.0771046 228.5,120 C228.5,179.922895 179.922895,228.5 120,228.5 C60.0771046,228.5 11.5,179.922895 11.5,120 C11.5,60.0771046 60.0771046,11.5 120,11.5 Z" id="Oval"></path>
                <g id="Group" transform="translate(37.007692, 61.000000)">
                    <path d="M31.6305003,90 C39.328929,90 46.0232148,88.5963687 51.7133577,85.7891061 C57.4035006,82.9818436 61.9012238,79.1689944 65.2065274,74.3505587 C68.5118311,69.5321229 70.5828757,64.0642458 71.4196614,57.9469274 L71.4196614,57.9469274 L79.4528044,0 L54.098197,0 L46.065054,56.9413408 C45.3956255,61.8854749 44.0776879,65.5307263 42.1112415,67.877095 C40.1447951,70.2234637 37.3206432,71.396648 33.6387861,71.396648 C30.710036,71.396648 28.5971521,70.6634078 27.3001342,69.1969274 C26.0031163,67.7304469 25.3546074,65.4050279 25.3546074,62.2206704 C25.3546074,60.7122905 25.4801253,59.0363128 25.731161,57.1927374 L25.731161,57.1927374 L33.7643039,0 L8.40969651,0 L0.376553575,57.6955307 C0.125517858,59.7067039 0,61.6759777 0,63.603352 C0,71.8156425 2.63587503,78.2681564 7.90762508,82.9608939 C13.1793751,87.6536313 21.0870002,90 31.6305003,90 Z M95.47912,86.4 L110.650492,55.4896552 L118.111822,86.4 L144.972611,86.4 L127.811551,39.8482759 L155.294118,0 L128.557684,0 L114.629868,26.0689655 L109.03387,0 L82.2974365,0 L97.7175191,40.5931034 L68.6183311,86.4 L95.47912,86.4 Z" id="UX"></path>
                </g>
                <path d="M59.6496521,184.978905 C61.5299721,185.01497 63.2810202,184.657327 64.9027962,183.905976 C66.5245722,183.154626 67.8407962,182.078691 68.8514682,180.678173 C69.8621403,179.277655 70.4673683,177.669764 70.6671523,175.854501 L70.6671523,175.854501 L65.5374042,175.890566 C65.2318522,177.429332 64.6060582,178.610456 63.6600222,179.433936 C62.7139861,180.257417 61.4535841,180.639103 59.8788161,180.578995 C58.7388721,180.54293 57.8515961,180.149222 57.2169881,179.397871 C56.58238,178.64652 56.235696,177.477419 56.176936,175.890566 C56.129928,174.640318 56.294456,172.758935 56.67052,170.246418 C57.0583361,167.661771 57.8192781,165.696237 58.9533461,164.349816 C60.0874141,163.003396 61.5358481,162.360239 63.2986482,162.420347 C64.6618802,162.468434 65.6666762,162.877169 66.3130362,163.646552 C66.9593962,164.415935 67.2825762,165.630118 67.2825762,167.289101 L67.2825762,167.289101 L72.4299523,167.307133 C72.2771763,164.409924 71.4222183,162.146856 69.8650783,160.517927 C68.3079382,158.888998 66.2013922,158.050491 63.5454402,158.002404 C61.1010241,157.954318 58.9269041,158.627528 57.0230801,160.022035 C55.6716,161.019829 54.505214,162.372261 53.523922,164.07933 C52.54263,165.786399 51.861014,167.739911 51.479074,169.939867 C51.097134,172.139822 50.947296,173.979129 51.02956,175.457787 C51.123576,177.345181 51.531958,179.01318 52.254706,180.461784 C52.977454,181.910389 53.96756,183.016377 55.225024,183.77975 C56.482488,184.543122 57.9573641,184.942841 59.6496521,184.978905 Z M82.5660525,184.996938 C85.4570445,185.045024 87.8779565,184.227555 89.8287886,182.544529 C91.7796206,180.861503 92.9548206,178.571385 93.3543886,175.674176 L93.3543886,175.674176 L96.2453807,158.363053 L91.0627486,158.363053 L88.1717566,175.692209 C87.9014605,177.303105 87.3021085,178.541331 86.3737005,179.406888 C85.4452925,180.272444 84.2524645,180.681179 82.7952165,180.633092 C80.7621204,180.560962 79.6280524,179.551147 79.3930124,177.603645 C79.3225004,177.014586 79.3283764,176.383452 79.4106404,175.710241 L79.4106404,175.710241 L82.2840045,158.363053 L77.1190004,158.363053 L74.2456363,175.692209 C74.0458523,177.483429 74.2632643,179.085309 74.8978723,180.497849 C75.5324803,181.910389 76.5167104,183.004355 77.8505624,183.77975 C79.1844144,184.555144 80.7562444,184.960873 82.5660525,184.996938 Z M101.234105,184.618257 L102.873509,175.006977 L107.068973,175.006977 L110.100989,184.618257 L115.600925,184.618257 L115.600925,184.329738 L111.987185,173.672578 C115.501033,172.266049 117.381353,169.759543 117.628145,166.153058 C117.804425,163.712671 117.125747,161.807245 115.592111,160.436781 C114.058475,159.066317 111.869665,158.381085 109.025681,158.381085 L109.025681,158.381085 L100.528985,158.363053 L96.0691007,184.618257 L101.234105,184.618257 Z M107.456789,170.661164 L103.613885,170.625099 L104.953613,162.744931 L109.360613,162.762963 C110.512309,162.81105 111.352577,163.165687 111.881417,163.826876 C112.410257,164.488065 112.592413,165.401708 112.427885,166.567804 C112.251605,167.818052 111.719827,168.80683 110.832551,169.534137 C109.945275,170.261445 108.820021,170.63712 107.456789,170.661164 L107.456789,170.661164 Z M127.975781,184.996938 C129.762085,185.033003 131.398551,184.750495 132.885179,184.149414 C134.371807,183.548333 135.547007,182.685783 136.410779,181.561762 C137.274551,180.437741 137.759321,179.100336 137.865089,177.549548 C138.088377,174.375842 136.466601,171.911411 132.999761,170.156256 L132.999761,170.156256 L131.660033,169.525121 L129.333137,168.6235 C127.394057,167.854117 126.536161,166.814247 126.759449,165.503891 C126.923977,164.506097 127.441065,163.721687 128.310713,163.15066 C129.180361,162.579634 130.202785,162.306142 131.377985,162.330185 C132.576689,162.354228 133.461027,162.696844 134.030999,163.358033 C134.600971,164.019222 134.856577,164.944886 134.797817,166.135026 L134.797817,166.135026 L139.945193,166.135026 C139.968697,163.682617 139.216569,161.726099 137.688809,160.265473 C136.161049,158.804847 134.157333,158.050491 131.677661,158.002404 C129.879605,157.978361 128.204945,158.287918 126.653681,158.931074 C125.102417,159.57423 123.897837,160.460824 123.039941,161.590856 C122.182045,162.720888 121.711965,164.019222 121.629701,165.485859 C121.429917,168.647543 123.304361,171.130006 127.253033,172.933249 L127.253033,172.933249 L130.655237,174.321745 C132.277013,175.079107 132.964505,176.173073 132.717713,177.603645 C132.564937,178.541331 132.083105,179.292682 131.272217,179.857698 C130.461329,180.422714 129.427153,180.705222 128.169689,180.705222 C125.266945,180.657135 123.897837,179.208531 124.062365,176.359408 L124.062365,176.359408 L118.897361,176.341376 C118.850353,177.964294 119.173533,179.406888 119.866901,180.669157 C120.607277,182.027599 121.688461,183.079491 123.110453,183.824831 C124.532445,184.570171 126.154221,184.960873 127.975781,184.996938 Z M150.610134,184.978905 C152.46695,185.01497 154.191556,184.624268 155.783952,183.806798 C157.376348,182.989328 158.766022,181.763124 159.952974,180.128184 C161.139926,178.493245 162.01545,176.557765 162.579546,174.321745 C163.143642,172.085725 163.36693,169.909813 163.24941,167.794009 C163.143642,165.894594 162.72057,164.196541 161.980194,162.69985 C161.239818,161.203159 160.22327,160.055095 158.93055,159.255658 C157.63783,158.45622 156.127698,158.038469 154.400154,158.002404 C152.519834,157.966339 150.771724,158.369064 149.155824,159.210576 C147.539924,160.052089 146.132621,161.32037 144.933917,163.015417 C143.735213,164.710465 142.865565,166.675999 142.324973,168.912019 C141.784381,171.148039 141.578721,173.251821 141.707993,175.223366 C141.825513,177.146824 142.263275,178.850888 143.021279,180.335557 C143.779283,181.820226 144.807583,182.956269 146.106179,183.743685 C147.404776,184.5311 148.906094,184.942841 150.610134,184.978905 Z M150.839298,180.560962 C149.429058,180.512876 148.389006,179.914801 147.719142,178.766737 C147.049277,177.618672 146.773105,175.980728 146.890625,173.852902 C147.055153,170.222375 147.769088,167.397295 149.032428,165.377664 C150.295768,163.358033 152.002746,162.384283 154.153362,162.456412 C155.528346,162.504499 156.553708,163.081536 157.229448,164.187525 C157.905188,165.293513 158.184298,166.916431 158.066778,169.056278 L158.066778,169.056278 L157.925754,170.769358 L157.802358,171.743109 C157.426294,174.592231 156.633034,176.795192 155.422578,178.351991 C154.212122,179.90879 152.684362,180.645114 150.839298,180.560962 Z M174.037746,184.996938 C175.82405,185.033003 177.460516,184.750495 178.947144,184.149414 C180.433772,183.548333 181.608972,182.685783 182.472744,181.561762 C183.336516,180.437741 183.821286,179.100336 183.927054,177.549548 C184.150342,174.375842 182.528566,171.911411 179.061726,170.156256 L179.061726,170.156256 L177.721998,169.525121 L175.395102,168.6235 C173.456022,167.854117 172.598126,166.814247 172.821414,165.503891 C172.985942,164.506097 173.50303,163.721687 174.372678,163.15066 C175.242326,162.579634 176.26475,162.306142 177.43995,162.330185 C178.638654,162.354228 179.522992,162.696844 180.092964,163.358033 C180.662936,164.019222 180.918542,164.944886 180.859782,166.135026 L180.859782,166.135026 L186.007158,166.135026 C186.030662,163.682617 185.278534,161.726099 183.750774,160.265473 C182.223014,158.804847 180.219298,158.050491 177.739626,158.002404 C175.94157,157.978361 174.26691,158.287918 172.715646,158.931074 C171.164382,159.57423 169.959802,160.460824 169.101906,161.590856 C168.24401,162.720888 167.77393,164.019222 167.691666,165.485859 C167.491882,168.647543 169.366326,171.130006 173.314998,172.933249 L173.314998,172.933249 L176.717202,174.321745 C178.338978,175.079107 179.02647,176.173073 178.779678,177.603645 C178.626902,178.541331 178.14507,179.292682 177.334182,179.857698 C176.523294,180.422714 175.489118,180.705222 174.231654,180.705222 C171.32891,180.657135 169.959802,179.208531 170.12433,176.359408 L170.12433,176.359408 L164.959326,176.341376 C164.912318,177.964294 165.235498,179.406888 165.928866,180.669157 C166.669242,182.027599 167.750426,183.079491 169.172418,183.824831 C170.59441,184.570171 172.216186,184.960873 174.037746,184.996938 Z" id="CURSOS"></path>
            </g>
        </g>
    </g>
</svg>